<svg width="1300" height="416" viewBox="0 0 1300 416" fill="none" xmlns="http://www.w3.org/2000/svg">
<g clip-path="url(#clip0_4_17409)">
<rect width="1300" height="416" rx="8" fill="white"></rect>
<path d="M17.632 37C17.5253 37 17.4347 36.9627 17.36 36.888C17.2853 36.8133 17.248 36.7227 17.248 36.616V26.184C17.248 26.0773 17.2853 25.9867 17.36 25.912C17.4347 25.8373 17.5253 25.8 17.632 25.8H19.136C19.2533 25.8 19.344 25.8373 19.408 25.912C19.4827 25.9867 19.52 26.0773 19.52 26.184V36.616C19.52 36.7227 19.4827 36.8133 19.408 36.888C19.344 36.9627 19.2533 37 19.136 37H17.632ZM22.2213 37C22.1146 37 22.0239 36.9627 21.9493 36.888C21.8746 36.8133 21.8372 36.7227 21.8372 36.616V29.064C21.8372 28.9573 21.8746 28.8667 21.9493 28.792C22.0239 28.7173 22.1146 28.68 22.2213 28.68H23.5333C23.6399 28.68 23.7306 28.7173 23.8053 28.792C23.8799 28.8667 23.9173 28.9573 23.9173 29.064V29.72C24.1946 29.3787 24.5466 29.096 24.9733 28.872C25.4106 28.6373 25.9493 28.52 26.5893 28.52C27.2399 28.52 27.8053 28.6693 28.2853 28.968C28.7653 29.256 29.1333 29.6667 29.3893 30.2C29.6559 30.7333 29.7893 31.3733 29.7893 32.12V36.616C29.7893 36.7227 29.7519 36.8133 29.6773 36.888C29.6026 36.9627 29.5119 37 29.4053 37H27.9973C27.8906 37 27.7999 36.9627 27.7253 36.888C27.6506 36.8133 27.6133 36.7227 27.6133 36.616V32.216C27.6133 31.5973 27.4586 31.112 27.1493 30.76C26.8506 30.408 26.4133 30.232 25.8373 30.232C25.2826 30.232 24.8399 30.408 24.5093 30.76C24.1786 31.112 24.0133 31.5973 24.0133 32.216V36.616C24.0133 36.7227 23.9759 36.8133 23.9013 36.888C23.8266 36.9627 23.7359 37 23.6293 37H22.2213ZM35.4216 37.16C34.6536 37.16 33.9763 37.016 33.3896 36.728C32.8136 36.44 32.3603 36.024 32.0296 35.48C31.7096 34.9253 31.5336 34.2587 31.5016 33.48C31.491 33.32 31.4856 33.112 31.4856 32.856C31.4856 32.5893 31.491 32.3707 31.5016 32.2C31.5336 31.4213 31.7096 30.76 32.0296 30.216C32.3603 29.6613 32.8136 29.24 33.3896 28.952C33.9763 28.664 34.6536 28.52 35.4216 28.52C36.1043 28.52 36.6856 28.616 37.1656 28.808C37.6456 29 38.0403 29.24 38.3496 29.528C38.659 29.816 38.8883 30.12 39.0376 30.44C39.1976 30.7493 39.283 31.032 39.2936 31.288C39.3043 31.4053 39.267 31.5013 39.1816 31.576C39.107 31.64 39.0163 31.672 38.9096 31.672H37.5016C37.395 31.672 37.3096 31.6453 37.2456 31.592C37.1923 31.5387 37.139 31.4587 37.0856 31.352C36.9256 30.9253 36.7123 30.6267 36.4456 30.456C36.1896 30.2747 35.859 30.184 35.4536 30.184C34.9203 30.184 34.4936 30.3547 34.1736 30.696C33.8643 31.0267 33.699 31.5547 33.6776 32.28C33.6563 32.6853 33.6563 33.0587 33.6776 33.4C33.699 34.136 33.8643 34.6693 34.1736 35C34.4936 35.3307 34.9203 35.496 35.4536 35.496C35.8696 35.496 36.2056 35.4107 36.4616 35.24C36.7176 35.0587 36.9256 34.7547 37.0856 34.328C37.139 34.2213 37.1923 34.1413 37.2456 34.088C37.3096 34.0347 37.395 34.008 37.5016 34.008H38.9096C39.0163 34.008 39.107 34.0453 39.1816 34.12C39.267 34.184 39.3043 34.2747 39.2936 34.392C39.283 34.584 39.2296 34.8027 39.1336 35.048C39.0483 35.2827 38.9043 35.528 38.7016 35.784C38.5096 36.0293 38.2643 36.2587 37.9656 36.472C37.667 36.6747 37.3043 36.84 36.8776 36.968C36.4616 37.096 35.9763 37.16 35.4216 37.16ZM41.3463 37C41.2396 37 41.1489 36.9627 41.0743 36.888C40.9996 36.8133 40.9622 36.7227 40.9622 36.616V29.064C40.9622 28.9573 40.9996 28.8667 41.0743 28.792C41.1489 28.7173 41.2396 28.68 41.3463 28.68H42.6743C42.7916 28.68 42.8823 28.7173 42.9463 28.792C43.0209 28.8667 43.0583 28.9573 43.0583 29.064V36.616C43.0583 36.7227 43.0209 36.8133 42.9463 36.888C42.8823 36.9627 42.7916 37 42.6743 37H41.3463ZM41.2823 27.304C41.1649 27.304 41.0689 27.272 40.9943 27.208C40.9303 27.1333 40.8983 27.0373 40.8983 26.92V25.768C40.8983 25.6613 40.9303 25.5707 40.9943 25.496C41.0689 25.4213 41.1649 25.384 41.2823 25.384H42.7383C42.8556 25.384 42.9516 25.4213 43.0263 25.496C43.1009 25.5707 43.1383 25.6613 43.1383 25.768V26.92C43.1383 27.0373 43.1009 27.1333 43.0263 27.208C42.9516 27.272 42.8556 27.304 42.7383 27.304H41.2823ZM48.269 37.16C47.7143 37.16 47.2237 37.0693 46.797 36.888C46.381 36.696 46.0343 36.4293 45.757 36.088C45.4797 35.7467 45.2663 35.3467 45.117 34.888C44.9677 34.4187 44.8823 33.9067 44.861 33.352C44.8503 33.16 44.845 32.9893 44.845 32.84C44.845 32.68 44.8503 32.504 44.861 32.312C44.8823 31.7787 44.9623 31.2827 45.101 30.824C45.2503 30.3653 45.4637 29.9653 45.741 29.624C46.029 29.272 46.381 29 46.797 28.808C47.2237 28.616 47.7143 28.52 48.269 28.52C48.845 28.52 49.3303 28.6213 49.725 28.824C50.1303 29.016 50.4663 29.2667 50.733 29.576V26.024C50.733 25.9173 50.765 25.8267 50.829 25.752C50.9037 25.6773 50.9997 25.64 51.117 25.64H52.477C52.5837 25.64 52.6743 25.6773 52.749 25.752C52.8237 25.8267 52.861 25.9173 52.861 26.024V36.616C52.861 36.7227 52.8237 36.8133 52.749 36.888C52.6743 36.9627 52.5837 37 52.477 37H51.213C51.0957 37 50.9997 36.9627 50.925 36.888C50.861 36.8133 50.829 36.7227 50.829 36.616V36.024C50.5623 36.3547 50.221 36.6267 49.805 36.84C49.3997 37.0533 48.8877 37.16 48.269 37.16ZM48.861 35.448C49.309 35.448 49.6663 35.3467 49.933 35.144C50.1997 34.9413 50.397 34.6853 50.525 34.376C50.653 34.056 50.7223 33.7307 50.733 33.4C50.7437 33.208 50.749 33.0053 50.749 32.792C50.749 32.568 50.7437 32.36 50.733 32.168C50.7223 31.848 50.6477 31.544 50.509 31.256C50.3703 30.9573 50.1677 30.712 49.901 30.52C49.6343 30.328 49.2877 30.232 48.861 30.232C48.413 30.232 48.0557 30.3333 47.789 30.536C47.533 30.728 47.3463 30.984 47.229 31.304C47.1117 31.624 47.0423 31.976 47.021 32.36C47.0103 32.68 47.0103 33 47.021 33.32C47.0423 33.704 47.1117 34.056 47.229 34.376C47.3463 34.696 47.533 34.9573 47.789 35.16C48.0557 35.352 48.413 35.448 48.861 35.448ZM58.5775 37.16C57.3935 37.16 56.4548 36.8187 55.7615 36.136C55.0682 35.4533 54.6948 34.4827 54.6415 33.224C54.6308 33.1173 54.6255 32.984 54.6255 32.824C54.6255 32.6533 54.6308 32.52 54.6415 32.424C54.6842 31.624 54.8655 30.9307 55.1855 30.344C55.5162 29.7573 55.9695 29.3093 56.5455 29C57.1215 28.68 57.7988 28.52 58.5775 28.52C59.4415 28.52 60.1668 28.7013 60.7535 29.064C61.3402 29.416 61.7828 29.912 62.0815 30.552C62.3802 31.1813 62.5295 31.912 62.5295 32.744V33.08C62.5295 33.1867 62.4922 33.2773 62.4175 33.352C62.3428 33.4267 62.2468 33.464 62.1295 33.464H56.8175C56.8175 33.464 56.8175 33.48 56.8175 33.512C56.8175 33.544 56.8175 33.5707 56.8175 33.592C56.8282 33.9653 56.8975 34.312 57.0255 34.632C57.1642 34.9413 57.3615 35.192 57.6175 35.384C57.8842 35.576 58.1988 35.672 58.5615 35.672C58.8602 35.672 59.1108 35.6293 59.3135 35.544C59.5162 35.448 59.6815 35.3413 59.8095 35.224C59.9375 35.1067 60.0282 35.0107 60.0815 34.936C60.1775 34.808 60.2522 34.7333 60.3055 34.712C60.3695 34.68 60.4602 34.664 60.5775 34.664H61.9535C62.0602 34.664 62.1455 34.696 62.2095 34.76C62.2842 34.824 62.3162 34.904 62.3055 35C62.2948 35.1707 62.2042 35.3787 62.0335 35.624C61.8735 35.8693 61.6388 36.1093 61.3295 36.344C61.0202 36.5787 60.6308 36.776 60.1615 36.936C59.7028 37.0853 59.1748 37.16 58.5775 37.16ZM56.8175 32.12H60.3535V32.072C60.3535 31.656 60.2842 31.2933 60.1455 30.984C60.0068 30.6747 59.8042 30.4293 59.5375 30.248C59.2708 30.0667 58.9508 29.976 58.5775 29.976C58.2042 29.976 57.8842 30.0667 57.6175 30.248C57.3508 30.4293 57.1482 30.6747 57.0095 30.984C56.8815 31.2933 56.8175 31.656 56.8175 32.072V32.12ZM64.6119 37C64.5052 37 64.4145 36.9627 64.3399 36.888C64.2652 36.8133 64.2279 36.7227 64.2279 36.616V29.064C64.2279 28.9573 64.2652 28.8667 64.3399 28.792C64.4145 28.7173 64.5052 28.68 64.6119 28.68H65.9239C66.0305 28.68 66.1212 28.7173 66.1959 28.792C66.2705 28.8667 66.3079 28.9573 66.3079 29.064V29.72C66.5852 29.3787 66.9372 29.096 67.3639 28.872C67.8012 28.6373 68.3399 28.52 68.9799 28.52C69.6305 28.52 70.1959 28.6693 70.6759 28.968C71.1559 29.256 71.5239 29.6667 71.7799 30.2C72.0465 30.7333 72.1799 31.3733 72.1799 32.12V36.616C72.1799 36.7227 72.1425 36.8133 72.0679 36.888C71.9932 36.9627 71.9025 37 71.7959 37H70.3879C70.2812 37 70.1905 36.9627 70.1159 36.888C70.0412 36.8133 70.0039 36.7227 70.0039 36.616V32.216C70.0039 31.5973 69.8492 31.112 69.5399 30.76C69.2412 30.408 68.8039 30.232 68.2279 30.232C67.6732 30.232 67.2305 30.408 66.8999 30.76C66.5692 31.112 66.4039 31.5973 66.4039 32.216V36.616C66.4039 36.7227 66.3665 36.8133 66.2919 36.888C66.2172 36.9627 66.1265 37 66.0199 37H64.6119ZM77.8785 37C77.2385 37 76.6998 36.888 76.2625 36.664C75.8252 36.44 75.4998 36.1093 75.2865 35.672C75.0732 35.224 74.9665 34.6693 74.9665 34.008V30.376H73.7025C73.5958 30.376 73.5052 30.3387 73.4305 30.264C73.3558 30.1893 73.3185 30.0987 73.3185 29.992V29.064C73.3185 28.9573 73.3558 28.8667 73.4305 28.792C73.5052 28.7173 73.5958 28.68 73.7025 28.68H74.9665V26.024C74.9665 25.9173 74.9985 25.8267 75.0625 25.752C75.1372 25.6773 75.2332 25.64 75.3505 25.64H76.6465C76.7532 25.64 76.8438 25.6773 76.9185 25.752C76.9932 25.8267 77.0305 25.9173 77.0305 26.024V28.68H79.0305C79.1372 28.68 79.2278 28.7173 79.3025 28.792C79.3772 28.8667 79.4145 28.9573 79.4145 29.064V29.992C79.4145 30.0987 79.3772 30.1893 79.3025 30.264C79.2278 30.3387 79.1372 30.376 79.0305 30.376H77.0305V33.848C77.0305 34.2853 77.1052 34.6267 77.2545 34.872C77.4145 35.1173 77.6865 35.24 78.0705 35.24H79.1745C79.2812 35.24 79.3718 35.2773 79.4465 35.352C79.5212 35.4267 79.5585 35.5173 79.5585 35.624V36.616C79.5585 36.7227 79.5212 36.8133 79.4465 36.888C79.3718 36.9627 79.2812 37 79.1745 37H77.8785ZM84.1299 37.16C83.4899 37.16 82.9405 37.0853 82.4819 36.936C82.0339 36.7867 81.6659 36.6 81.3779 36.376C81.0899 36.152 80.8765 35.928 80.7379 35.704C80.5992 35.48 80.5245 35.2933 80.5139 35.144C80.5032 35.0267 80.5352 34.936 80.6099 34.872C80.6952 34.7973 80.7859 34.76 80.8819 34.76H82.1459C82.1885 34.76 82.2259 34.7653 82.2579 34.776C82.2899 34.7867 82.3325 34.8187 82.3859 34.872C82.5245 34.9893 82.6685 35.112 82.8179 35.24C82.9779 35.368 83.1645 35.48 83.3779 35.576C83.5912 35.6613 83.8579 35.704 84.1779 35.704C84.5939 35.704 84.9405 35.624 85.2179 35.464C85.5059 35.2933 85.6499 35.0533 85.6499 34.744C85.6499 34.52 85.5859 34.3387 85.4579 34.2C85.3405 34.0613 85.1165 33.9387 84.7859 33.832C84.4552 33.7147 83.9859 33.592 83.3779 33.464C82.7805 33.3253 82.2845 33.1493 81.8899 32.936C81.4952 32.7227 81.2019 32.456 81.0099 32.136C80.8179 31.816 80.7219 31.4427 80.7219 31.016C80.7219 30.6 80.8445 30.2053 81.0899 29.832C81.3459 29.448 81.7192 29.1333 82.2099 28.888C82.7112 28.6427 83.3299 28.52 84.0659 28.52C84.6419 28.52 85.1432 28.5947 85.5699 28.744C85.9965 28.8827 86.3485 29.0587 86.6259 29.272C86.9139 29.4853 87.1325 29.704 87.2819 29.928C87.4312 30.1413 87.5112 30.328 87.5219 30.488C87.5325 30.6053 87.5005 30.7013 87.4259 30.776C87.3512 30.84 87.2659 30.872 87.1699 30.872H85.9859C85.9325 30.872 85.8845 30.8613 85.8419 30.84C85.7992 30.8187 85.7565 30.792 85.7139 30.76C85.5965 30.6533 85.4685 30.5413 85.3299 30.424C85.1912 30.3067 85.0205 30.2053 84.8179 30.12C84.6259 30.024 84.3699 29.976 84.0499 29.976C83.6445 29.976 83.3352 30.0667 83.1219 30.248C82.9085 30.4187 82.8019 30.6373 82.8019 30.904C82.8019 31.0853 82.8499 31.2453 82.9459 31.384C83.0525 31.512 83.2605 31.6347 83.5699 31.752C83.8792 31.8693 84.3485 31.992 84.9779 32.12C85.6925 32.248 86.2579 32.44 86.6739 32.696C87.1005 32.9413 87.3992 33.2293 87.5699 33.56C87.7512 33.88 87.8419 34.2373 87.8419 34.632C87.8419 35.112 87.6979 35.544 87.4099 35.928C87.1325 36.312 86.7165 36.616 86.1619 36.84C85.6179 37.0533 84.9405 37.16 84.1299 37.16ZM96.8298 37.16C95.9764 37.16 95.2564 37.0107 94.6698 36.712C94.0938 36.4133 93.6511 35.992 93.3418 35.448C93.0431 34.904 92.8724 34.2693 92.8298 33.544C92.8191 33.352 92.8138 33.1173 92.8138 32.84C92.8138 32.5627 92.8191 32.328 92.8298 32.136C92.8724 31.4 93.0484 30.7653 93.3578 30.232C93.6778 29.688 94.1258 29.2667 94.7018 28.968C95.2884 28.6693 95.9978 28.52 96.8298 28.52C97.6618 28.52 98.3658 28.6693 98.9418 28.968C99.5284 29.2667 99.9764 29.688 100.286 30.232C100.606 30.7653 100.787 31.4 100.83 32.136C100.84 32.328 100.846 32.5627 100.846 32.84C100.846 33.1173 100.84 33.352 100.83 33.544C100.787 34.2693 100.611 34.904 100.302 35.448C100.003 35.992 99.5604 36.4133 98.9738 36.712C98.3978 37.0107 97.6831 37.16 96.8298 37.16ZM96.8298 35.576C97.3951 35.576 97.8324 35.4 98.1418 35.048C98.4511 34.6853 98.6218 34.1573 98.6538 33.464C98.6644 33.304 98.6698 33.096 98.6698 32.84C98.6698 32.584 98.6644 32.376 98.6538 32.216C98.6218 31.5333 98.4511 31.0107 98.1418 30.648C97.8324 30.2853 97.3951 30.104 96.8298 30.104C96.2644 30.104 95.8271 30.2853 95.5178 30.648C95.2084 31.0107 95.0378 31.5333 95.0058 32.216C94.9951 32.376 94.9898 32.584 94.9898 32.84C94.9898 33.096 94.9951 33.304 95.0058 33.464C95.0378 34.1573 95.2084 34.6853 95.5178 35.048C95.8271 35.4 96.2644 35.576 96.8298 35.576ZM105.266 37C105.095 37 104.967 36.9627 104.882 36.888C104.807 36.8027 104.743 36.7067 104.69 36.6L101.698 29.176C101.676 29.1227 101.666 29.0747 101.666 29.032C101.666 28.936 101.698 28.856 101.762 28.792C101.836 28.7173 101.922 28.68 102.018 28.68H103.314C103.442 28.68 103.538 28.7173 103.602 28.792C103.666 28.856 103.708 28.92 103.73 28.984L105.858 34.6L107.986 28.984C108.007 28.92 108.05 28.856 108.114 28.792C108.178 28.7173 108.274 28.68 108.402 28.68H109.714C109.799 28.68 109.874 28.7173 109.938 28.792C110.012 28.856 110.05 28.936 110.05 29.032C110.05 29.0747 110.044 29.1227 110.034 29.176L107.026 36.6C106.983 36.7067 106.919 36.8027 106.834 36.888C106.748 36.9627 106.62 37 106.45 37H105.266ZM114.796 37.16C113.612 37.16 112.674 36.8187 111.98 36.136C111.287 35.4533 110.914 34.4827 110.86 33.224C110.85 33.1173 110.844 32.984 110.844 32.824C110.844 32.6533 110.85 32.52 110.86 32.424C110.903 31.624 111.084 30.9307 111.404 30.344C111.735 29.7573 112.188 29.3093 112.764 29C113.34 28.68 114.018 28.52 114.796 28.52C115.66 28.52 116.386 28.7013 116.972 29.064C117.559 29.416 118.002 29.912 118.3 30.552C118.599 31.1813 118.748 31.912 118.748 32.744V33.08C118.748 33.1867 118.711 33.2773 118.636 33.352C118.562 33.4267 118.466 33.464 118.348 33.464H113.036C113.036 33.464 113.036 33.48 113.036 33.512C113.036 33.544 113.036 33.5707 113.036 33.592C113.047 33.9653 113.116 34.312 113.244 34.632C113.383 34.9413 113.58 35.192 113.836 35.384C114.103 35.576 114.418 35.672 114.78 35.672C115.079 35.672 115.33 35.6293 115.532 35.544C115.735 35.448 115.9 35.3413 116.028 35.224C116.156 35.1067 116.247 35.0107 116.3 34.936C116.396 34.808 116.471 34.7333 116.524 34.712C116.588 34.68 116.679 34.664 116.796 34.664H118.172C118.279 34.664 118.364 34.696 118.428 34.76C118.503 34.824 118.535 34.904 118.524 35C118.514 35.1707 118.423 35.3787 118.252 35.624C118.092 35.8693 117.858 36.1093 117.548 36.344C117.239 36.5787 116.85 36.776 116.38 36.936C115.922 37.0853 115.394 37.16 114.796 37.16ZM113.036 32.12H116.572V32.072C116.572 31.656 116.503 31.2933 116.364 30.984C116.226 30.6747 116.023 30.4293 115.756 30.248C115.49 30.0667 115.17 29.976 114.796 29.976C114.423 29.976 114.103 30.0667 113.836 30.248C113.57 30.4293 113.367 30.6747 113.228 30.984C113.1 31.2933 113.036 31.656 113.036 32.072V32.12ZM120.831 37C120.724 37 120.633 36.9627 120.559 36.888C120.484 36.8133 120.447 36.7227 120.447 36.616V29.08C120.447 28.9627 120.484 28.8667 120.559 28.792C120.633 28.7173 120.724 28.68 120.831 28.68H122.127C122.233 28.68 122.324 28.7173 122.399 28.792C122.484 28.8667 122.527 28.9627 122.527 29.08V29.736C122.772 29.3947 123.087 29.1333 123.471 28.952C123.865 28.7707 124.319 28.68 124.831 28.68H125.487C125.604 28.68 125.695 28.7173 125.759 28.792C125.833 28.8667 125.871 28.9573 125.871 29.064V30.216C125.871 30.3227 125.833 30.4133 125.759 30.488C125.695 30.5627 125.604 30.6 125.487 30.6H124.239C123.727 30.6 123.327 30.744 123.039 31.032C122.761 31.32 122.623 31.7147 122.623 32.216V36.616C122.623 36.7227 122.585 36.8133 122.511 36.888C122.436 36.9627 122.34 37 122.223 37H120.831ZM133.863 37C133.223 37 132.684 36.888 132.247 36.664C131.81 36.44 131.484 36.1093 131.271 35.672C131.058 35.224 130.951 34.6693 130.951 34.008V30.376H129.687C129.58 30.376 129.49 30.3387 129.415 30.264C129.34 30.1893 129.303 30.0987 129.303 29.992V29.064C129.303 28.9573 129.34 28.8667 129.415 28.792C129.49 28.7173 129.58 28.68 129.687 28.68H130.951V26.024C130.951 25.9173 130.983 25.8267 131.047 25.752C131.122 25.6773 131.218 25.64 131.335 25.64H132.631C132.738 25.64 132.828 25.6773 132.903 25.752C132.978 25.8267 133.015 25.9173 133.015 26.024V28.68H135.015C135.122 28.68 135.212 28.7173 135.287 28.792C135.362 28.8667 135.399 28.9573 135.399 29.064V29.992C135.399 30.0987 135.362 30.1893 135.287 30.264C135.212 30.3387 135.122 30.376 135.015 30.376H133.015V33.848C133.015 34.2853 133.09 34.6267 133.239 34.872C133.399 35.1173 133.671 35.24 134.055 35.24H135.159C135.266 35.24 135.356 35.2773 135.431 35.352C135.506 35.4267 135.543 35.5173 135.543 35.624V36.616C135.543 36.7227 135.506 36.8133 135.431 36.888C135.356 36.9627 135.266 37 135.159 37H133.863ZM137.346 37C137.24 37 137.149 36.9627 137.074 36.888C137 36.8133 136.962 36.7227 136.962 36.616V29.064C136.962 28.9573 137 28.8667 137.074 28.792C137.149 28.7173 137.24 28.68 137.346 28.68H138.674C138.792 28.68 138.882 28.7173 138.946 28.792C139.021 28.8667 139.058 28.9573 139.058 29.064V36.616C139.058 36.7227 139.021 36.8133 138.946 36.888C138.882 36.9627 138.792 37 138.674 37H137.346ZM137.282 27.304C137.165 27.304 137.069 27.272 136.994 27.208C136.93 27.1333 136.898 27.0373 136.898 26.92V25.768C136.898 25.6613 136.93 25.5707 136.994 25.496C137.069 25.4213 137.165 25.384 137.282 25.384H138.738C138.856 25.384 138.952 25.4213 139.026 25.496C139.101 25.5707 139.138 25.6613 139.138 25.768V26.92C139.138 27.0373 139.101 27.1333 139.026 27.208C138.952 27.272 138.856 27.304 138.738 27.304H137.282ZM141.565 37C141.458 37 141.368 36.9627 141.293 36.888C141.218 36.8133 141.181 36.7227 141.181 36.616V29.064C141.181 28.9573 141.218 28.8667 141.293 28.792C141.368 28.7173 141.458 28.68 141.565 28.68H142.813C142.92 28.68 143.01 28.7173 143.085 28.792C143.16 28.8667 143.197 28.9573 143.197 29.064V29.608C143.421 29.3093 143.72 29.0587 144.093 28.856C144.477 28.6427 144.93 28.5307 145.453 28.52C146.669 28.4987 147.517 28.9733 147.997 29.944C148.242 29.5173 148.594 29.176 149.053 28.92C149.522 28.6533 150.04 28.52 150.605 28.52C151.16 28.52 151.661 28.648 152.109 28.904C152.568 29.16 152.925 29.5493 153.181 30.072C153.448 30.584 153.581 31.2347 153.581 32.024V36.616C153.581 36.7227 153.544 36.8133 153.469 36.888C153.394 36.9627 153.304 37 153.197 37H151.885C151.778 37 151.688 36.9627 151.613 36.888C151.538 36.8133 151.501 36.7227 151.501 36.616V32.152C151.501 31.672 151.432 31.2933 151.293 31.016C151.154 30.728 150.968 30.5253 150.733 30.408C150.498 30.2907 150.237 30.232 149.949 30.232C149.714 30.232 149.48 30.2907 149.245 30.408C149.01 30.5253 148.818 30.728 148.669 31.016C148.52 31.2933 148.445 31.672 148.445 32.152V36.616C148.445 36.7227 148.408 36.8133 148.333 36.888C148.258 36.9627 148.168 37 148.061 37H146.749C146.632 37 146.536 36.9627 146.461 36.888C146.397 36.8133 146.365 36.7227 146.365 36.616V32.152C146.365 31.672 146.29 31.2933 146.141 31.016C145.992 30.728 145.8 30.5253 145.565 30.408C145.33 30.2907 145.08 30.232 144.813 30.232C144.568 30.232 144.328 30.296 144.093 30.424C143.858 30.5413 143.666 30.7387 143.517 31.016C143.368 31.2933 143.293 31.672 143.293 32.152V36.616C143.293 36.7227 143.256 36.8133 143.181 36.888C143.106 36.9627 143.016 37 142.909 37H141.565ZM159.203 37.16C158.019 37.16 157.08 36.8187 156.387 36.136C155.693 35.4533 155.32 34.4827 155.267 33.224C155.256 33.1173 155.251 32.984 155.251 32.824C155.251 32.6533 155.256 32.52 155.267 32.424C155.309 31.624 155.491 30.9307 155.811 30.344C156.141 29.7573 156.595 29.3093 157.171 29C157.747 28.68 158.424 28.52 159.203 28.52C160.067 28.52 160.792 28.7013 161.379 29.064C161.965 29.416 162.408 29.912 162.707 30.552C163.005 31.1813 163.155 31.912 163.155 32.744V33.08C163.155 33.1867 163.117 33.2773 163.043 33.352C162.968 33.4267 162.872 33.464 162.755 33.464H157.443C157.443 33.464 157.443 33.48 157.443 33.512C157.443 33.544 157.443 33.5707 157.443 33.592C157.453 33.9653 157.523 34.312 157.651 34.632C157.789 34.9413 157.987 35.192 158.243 35.384C158.509 35.576 158.824 35.672 159.187 35.672C159.485 35.672 159.736 35.6293 159.939 35.544C160.141 35.448 160.307 35.3413 160.435 35.224C160.563 35.1067 160.653 35.0107 160.707 34.936C160.803 34.808 160.877 34.7333 160.931 34.712C160.995 34.68 161.085 34.664 161.203 34.664H162.579C162.685 34.664 162.771 34.696 162.835 34.76C162.909 34.824 162.941 34.904 162.931 35C162.92 35.1707 162.829 35.3787 162.659 35.624C162.499 35.8693 162.264 36.1093 161.955 36.344C161.645 36.5787 161.256 36.776 160.787 36.936C160.328 37.0853 159.8 37.16 159.203 37.16ZM157.443 32.12H160.979V32.072C160.979 31.656 160.909 31.2933 160.771 30.984C160.632 30.6747 160.429 30.4293 160.163 30.248C159.896 30.0667 159.576 29.976 159.203 29.976C158.829 29.976 158.509 30.0667 158.243 30.248C157.976 30.4293 157.773 30.6747 157.635 30.984C157.507 31.2933 157.443 31.656 157.443 32.072V32.12Z" fill="#333333"></path>
<path d="M1271 24C1270.6 24 1270.23 24.2437 1270.07 24.6187C1269.92 24.9937 1270.01 25.4219 1270.29 25.7094L1271.58 27L1266.29 32.2937C1265.9 32.6844 1265.9 33.3188 1266.29 33.7094C1266.68 34.1 1267.32 34.1 1267.71 33.7094L1273 28.4156L1274.29 29.7094C1274.58 29.9969 1275.01 30.0813 1275.38 29.925C1275.76 29.7688 1276 29.4062 1276 29V25C1276 24.4469 1275.56 24 1275 24H1271ZM1262.5 25C1261.12 25 1260 26.1187 1260 27.5V37.5C1260 38.8813 1261.12 40 1262.5 40H1272.5C1273.88 40 1275 38.8813 1275 37.5V34C1275 33.4469 1274.55 33 1274 33C1273.45 33 1273 33.4469 1273 34V37.5C1273 37.775 1272.78 38 1272.5 38H1262.5C1262.22 38 1262 37.775 1262 37.5V27.5C1262 27.225 1262.22 27 1262.5 27H1266C1266.55 27 1267 26.5531 1267 26C1267 25.4469 1266.55 25 1266 25H1262.5Z" fill="#333333"></path>
<path d="M36.0309 81.5C35.9282 81.5 35.8442 81.4673 35.7789 81.402C35.7135 81.3367 35.6809 81.2573 35.6809 81.164V80.17C35.6809 80.0673 35.7135 79.988 35.7789 79.932C35.8442 79.8667 35.9282 79.834 36.0309 79.834H38.4109V73.912L36.7029 75.214C36.6189 75.27 36.5349 75.2933 36.4509 75.284C36.3669 75.2653 36.2922 75.214 36.2269 75.13L35.6389 74.374C35.5829 74.29 35.5595 74.2013 35.5689 74.108C35.5875 74.0147 35.6389 73.94 35.7229 73.884L38.4389 71.798C38.4949 71.7513 38.5462 71.7233 38.5929 71.714C38.6489 71.7047 38.7095 71.7 38.7749 71.7H40.0209C40.1142 71.7 40.1935 71.7327 40.2589 71.798C40.3242 71.8633 40.3569 71.9427 40.3569 72.036V79.834H42.4149C42.5175 79.834 42.6015 79.8667 42.6669 79.932C42.7322 79.988 42.7649 80.0673 42.7649 80.17V81.164C42.7649 81.2573 42.7322 81.3367 42.6669 81.402C42.6015 81.4673 42.5175 81.5 42.4149 81.5H36.0309ZM47.9956 81.64C47.333 81.64 46.7683 81.542 46.3016 81.346C45.835 81.15 45.4476 80.8793 45.1396 80.534C44.841 80.1887 44.617 79.792 44.4676 79.344C44.3276 78.8867 44.2436 78.4013 44.2156 77.888C44.2063 77.636 44.197 77.3607 44.1876 77.062C44.1876 76.754 44.1876 76.446 44.1876 76.138C44.197 75.83 44.2063 75.5453 44.2156 75.284C44.2343 74.7707 44.3183 74.29 44.4676 73.842C44.6263 73.3847 44.855 72.988 45.1536 72.652C45.4616 72.316 45.849 72.05 46.3156 71.854C46.7823 71.658 47.3423 71.56 47.9956 71.56C48.649 71.56 49.2043 71.658 49.6616 71.854C50.1283 72.05 50.5156 72.316 50.8236 72.652C51.1316 72.988 51.3603 73.3847 51.5096 73.842C51.6683 74.29 51.757 74.7707 51.7756 75.284C51.785 75.5453 51.7896 75.83 51.7896 76.138C51.799 76.446 51.799 76.754 51.7896 77.062C51.7896 77.3607 51.785 77.636 51.7756 77.888C51.757 78.4013 51.6683 78.8867 51.5096 79.344C51.3603 79.792 51.1363 80.1887 50.8376 80.534C50.539 80.8793 50.1563 81.15 49.6896 81.346C49.223 81.542 48.6583 81.64 47.9956 81.64ZM47.9956 80.03C48.6023 80.03 49.0456 79.834 49.3256 79.442C49.6056 79.0407 49.755 78.4993 49.7736 77.818C49.783 77.5473 49.7876 77.2767 49.7876 77.006C49.797 76.726 49.797 76.446 49.7876 76.166C49.7876 75.886 49.783 75.62 49.7736 75.368C49.755 74.7053 49.6056 74.1733 49.3256 73.772C49.0456 73.3613 48.6023 73.156 47.9956 73.156C47.389 73.156 46.9456 73.3613 46.6656 73.772C46.3856 74.1733 46.2363 74.7053 46.2176 75.368C46.2083 75.62 46.199 75.886 46.1896 76.166C46.1896 76.446 46.1896 76.726 46.1896 77.006C46.199 77.2767 46.2083 77.5473 46.2176 77.818C46.2363 78.4993 46.3856 79.0407 46.6656 79.442C46.955 79.834 47.3983 80.03 47.9956 80.03ZM56.9644 81.64C56.3017 81.64 55.737 81.542 55.2704 81.346C54.8037 81.15 54.4164 80.8793 54.1084 80.534C53.8097 80.1887 53.5857 79.792 53.4364 79.344C53.2964 78.8867 53.2124 78.4013 53.1844 77.888C53.175 77.636 53.1657 77.3607 53.1564 77.062C53.1564 76.754 53.1564 76.446 53.1564 76.138C53.1657 75.83 53.175 75.5453 53.1844 75.284C53.203 74.7707 53.287 74.29 53.4364 73.842C53.595 73.3847 53.8237 72.988 54.1224 72.652C54.4304 72.316 54.8177 72.05 55.2844 71.854C55.751 71.658 56.311 71.56 56.9644 71.56C57.6177 71.56 58.173 71.658 58.6304 71.854C59.097 72.05 59.4844 72.316 59.7924 72.652C60.1004 72.988 60.329 73.3847 60.4784 73.842C60.637 74.29 60.7257 74.7707 60.7444 75.284C60.7537 75.5453 60.7584 75.83 60.7584 76.138C60.7677 76.446 60.7677 76.754 60.7584 77.062C60.7584 77.3607 60.7537 77.636 60.7444 77.888C60.7257 78.4013 60.637 78.8867 60.4784 79.344C60.329 79.792 60.105 80.1887 59.8064 80.534C59.5077 80.8793 59.125 81.15 58.6584 81.346C58.1917 81.542 57.627 81.64 56.9644 81.64ZM56.9644 80.03C57.571 80.03 58.0144 79.834 58.2944 79.442C58.5744 79.0407 58.7237 78.4993 58.7424 77.818C58.7517 77.5473 58.7564 77.2767 58.7564 77.006C58.7657 76.726 58.7657 76.446 58.7564 76.166C58.7564 75.886 58.7517 75.62 58.7424 75.368C58.7237 74.7053 58.5744 74.1733 58.2944 73.772C58.0144 73.3613 57.571 73.156 56.9644 73.156C56.3577 73.156 55.9144 73.3613 55.6344 73.772C55.3544 74.1733 55.205 74.7053 55.1864 75.368C55.177 75.62 55.1677 75.886 55.1584 76.166C55.1584 76.446 55.1584 76.726 55.1584 77.006C55.1677 77.2767 55.177 77.5473 55.1864 77.818C55.205 78.4993 55.3544 79.0407 55.6344 79.442C55.9237 79.834 56.367 80.03 56.9644 80.03Z" fill="#6D727B"></path>
<path d="M43.4553 218.654C42.6526 218.654 41.9759 218.523 41.4253 218.262C40.8746 217.991 40.4546 217.641 40.1653 217.212C39.8853 216.783 39.7359 216.325 39.7173 215.84C39.7173 215.756 39.7453 215.691 39.8013 215.644C39.8573 215.588 39.9273 215.56 40.0113 215.56H41.3273C41.4299 215.56 41.5139 215.583 41.5793 215.63C41.6446 215.667 41.6959 215.737 41.7333 215.84C41.8266 216.12 41.9573 216.349 42.1253 216.526C42.3026 216.703 42.5033 216.834 42.7272 216.918C42.9606 217.002 43.2079 217.044 43.4693 217.044C43.7959 217.044 44.0993 216.979 44.3793 216.848C44.6593 216.708 44.8786 216.503 45.0373 216.232C45.2053 215.961 45.2893 215.63 45.2893 215.238C45.2893 214.893 45.2099 214.594 45.0513 214.342C44.8926 214.09 44.6733 213.894 44.3933 213.754C44.1226 213.605 43.8146 213.53 43.4693 213.53C43.1986 213.53 42.9793 213.563 42.8113 213.628C42.6433 213.693 42.5033 213.768 42.3913 213.852C42.2793 213.936 42.1766 214.011 42.0833 214.076C41.9899 214.141 41.8873 214.174 41.7753 214.174H40.5013C40.4079 214.174 40.3286 214.141 40.2633 214.076C40.2073 214.011 40.1839 213.931 40.1933 213.838L40.6693 209.078C40.6786 208.957 40.7206 208.863 40.7953 208.798C40.8699 208.733 40.9633 208.7 41.0753 208.7H46.3253C46.4186 208.7 46.4979 208.733 46.5633 208.798C46.6286 208.863 46.6613 208.943 46.6613 209.036V209.974C46.6613 210.067 46.6286 210.147 46.5633 210.212C46.4979 210.277 46.4186 210.31 46.3253 210.31H42.2793L42.0553 212.592C42.2233 212.48 42.4473 212.373 42.7272 212.27C43.0072 212.167 43.3946 212.116 43.8893 212.116C44.3466 212.116 44.7759 212.191 45.1773 212.34C45.5879 212.48 45.9519 212.69 46.2693 212.97C46.5866 213.241 46.8339 213.572 47.0113 213.964C47.1886 214.347 47.2773 214.785 47.2773 215.28C47.2773 215.961 47.1186 216.554 46.8013 217.058C46.4933 217.562 46.0499 217.954 45.4713 218.234C44.9019 218.514 44.2299 218.654 43.4553 218.654ZM52.48 218.64C51.8173 218.64 51.2527 218.542 50.786 218.346C50.3193 218.15 49.932 217.879 49.624 217.534C49.3253 217.189 49.1013 216.792 48.952 216.344C48.812 215.887 48.728 215.401 48.7 214.888C48.6907 214.636 48.6813 214.361 48.672 214.062C48.672 213.754 48.672 213.446 48.672 213.138C48.6813 212.83 48.6907 212.545 48.7 212.284C48.7187 211.771 48.8027 211.29 48.952 210.842C49.1107 210.385 49.3393 209.988 49.638 209.652C49.946 209.316 50.3333 209.05 50.8 208.854C51.2667 208.658 51.8267 208.56 52.48 208.56C53.1333 208.56 53.6887 208.658 54.146 208.854C54.6127 209.05 55 209.316 55.308 209.652C55.616 209.988 55.8447 210.385 55.994 210.842C56.1527 211.29 56.2413 211.771 56.26 212.284C56.2693 212.545 56.274 212.83 56.274 213.138C56.2833 213.446 56.2833 213.754 56.274 214.062C56.274 214.361 56.2693 214.636 56.26 214.888C56.2413 215.401 56.1527 215.887 55.994 216.344C55.8447 216.792 55.6207 217.189 55.322 217.534C55.0233 217.879 54.6407 218.15 54.174 218.346C53.7073 218.542 53.1427 218.64 52.48 218.64ZM52.48 217.03C53.0867 217.03 53.53 216.834 53.81 216.442C54.09 216.041 54.2393 215.499 54.258 214.818C54.2673 214.547 54.272 214.277 54.272 214.006C54.2813 213.726 54.2813 213.446 54.272 213.166C54.272 212.886 54.2673 212.62 54.258 212.368C54.2393 211.705 54.09 211.173 53.81 210.772C53.53 210.361 53.0867 210.156 52.48 210.156C51.8733 210.156 51.43 210.361 51.15 210.772C50.87 211.173 50.7207 211.705 50.702 212.368C50.6927 212.62 50.6833 212.886 50.674 213.166C50.674 213.446 50.674 213.726 50.674 214.006C50.6833 214.277 50.6927 214.547 50.702 214.818C50.7207 215.499 50.87 216.041 51.15 216.442C51.4393 216.834 51.8827 217.03 52.48 217.03Z" fill="#6D727B"></path>
<g clip-path="url(#clip1_4_17409)">
<mask id="path-8-inside-1_4_17409" fill="white">
<path d="M80 76H1284V349H80V76Z"></path>
</mask>
<path d="M80 76H1284V349H80V76Z" fill="white"></path>
<path d="M80 76V76.5H311.8V76V75.5H80V76ZM311.8 212.5V212H80V212.5V213H311.8V212.5Z" fill="#D1D2D5"></path>
<path d="M311.8 76V76.5H543.6V76V75.5H311.8V76ZM543.6 212.5V212H311.8V212.5V213H543.6V212.5Z" fill="#D1D2D5"></path>
<path d="M543.6 76V76.5H775.4V76V75.5H543.6V76ZM775.4 212.5V212H543.6V212.5V213H775.4V212.5Z" fill="#D1D2D5"></path>
<path d="M775.4 76V76.5H1007.2V76V75.5H775.4V76ZM1007.2 212.5V212H775.4V212.5V213H1007.2V212.5Z" fill="#D1D2D5"></path>
<path d="M1007.2 76V76.5H1239V76V75.5H1007.2V76ZM1239 212.5V212H1007.2V212.5V213H1239V212.5Z" fill="#D1D2D5"></path>
<path d="M1239 76V76.5H1470.8V76V75.5H1239V76ZM1470.8 212.5V212H1239V212.5V213H1470.8V212.5Z" fill="#D1D2D5"></path>
<path d="M80 212.5V213H311.8V212.5V212H80V212.5ZM311.8 349V348.5H80V349V349.5H311.8V349Z" fill="#D1D2D5"></path>
<path d="M311.8 212.5V213H543.6V212.5V212H311.8V212.5ZM543.6 349V348.5H311.8V349V349.5H543.6V349Z" fill="#D1D2D5"></path>
<path d="M543.6 212.5V213H775.4V212.5V212H543.6V212.5ZM775.4 349V348.5H543.6V349V349.5H775.4V349Z" fill="#D1D2D5"></path>
<path d="M775.4 212.5V213H1007.2V212.5V212H775.4V212.5ZM1007.2 349V348.5H775.4V349V349.5H1007.2V349Z" fill="#D1D2D5"></path>
<path d="M1007.2 212.5V213H1239V212.5V212H1007.2V212.5ZM1239 349V348.5H1007.2V349V349.5H1239V349Z" fill="#D1D2D5"></path>
<path d="M1239 212.5V213H1470.8V212.5V212H1239V212.5ZM1470.8 349V348.5H1239V349V349.5H1470.8V349Z" fill="#D1D2D5"></path>
</g>
<path d="M80 76V77H1284V76V75H80V76ZM1284 349V348H80V349V350H1284V349Z" fill="#D1D2D5" mask="url(#path-8-inside-1_4_17409)"></path>
<path d="M72.256 373.64C71.752 373.64 71.2713 373.579 70.814 373.458C70.366 373.327 69.9647 373.131 69.61 372.87C69.2553 372.609 68.9707 372.287 68.756 371.904C68.5507 371.521 68.4433 371.069 68.434 370.546C68.434 370.462 68.462 370.392 68.518 370.336C68.574 370.271 68.644 370.238 68.728 370.238H70.058C70.1793 370.238 70.268 370.271 70.324 370.336C70.3893 370.401 70.4407 370.49 70.478 370.602C70.5247 370.938 70.632 371.213 70.8 371.428C70.968 371.633 71.178 371.787 71.43 371.89C71.6913 371.983 71.9807 372.03 72.298 372.03C72.886 372.03 73.334 371.839 73.642 371.456C73.9593 371.073 74.118 370.541 74.118 369.86V365.352H69.372C69.2693 365.352 69.1853 365.319 69.12 365.254C69.064 365.189 69.036 365.109 69.036 365.016V364.036C69.036 363.943 69.064 363.863 69.12 363.798C69.1853 363.733 69.2693 363.7 69.372 363.7H75.77C75.8727 363.7 75.9567 363.733 76.022 363.798C76.0873 363.863 76.12 363.947 76.12 364.05V369.916C76.12 370.691 75.9567 371.358 75.63 371.918C75.3127 372.478 74.8647 372.907 74.286 373.206C73.7167 373.495 73.04 373.64 72.256 373.64ZM80.1298 373.64C79.6445 373.64 79.2058 373.547 78.8138 373.36C78.4218 373.164 78.1091 372.907 77.8758 372.59C77.6518 372.263 77.5398 371.899 77.5398 371.498C77.5398 370.845 77.8011 370.327 78.3238 369.944C78.8558 369.552 79.5558 369.291 80.4238 369.16L82.3418 368.88V368.586C82.3418 368.194 82.2438 367.891 82.0478 367.676C81.8518 367.461 81.5158 367.354 81.0398 367.354C80.7038 367.354 80.4285 367.424 80.2138 367.564C80.0085 367.695 79.8545 367.872 79.7518 368.096C79.6771 368.217 79.5698 368.278 79.4298 368.278H78.3238C78.2211 368.278 78.1418 368.25 78.0858 368.194C78.0391 368.138 78.0158 368.063 78.0158 367.97C78.0251 367.821 78.0858 367.639 78.1978 367.424C78.3098 367.209 78.4871 367.004 78.7298 366.808C78.9725 366.603 79.2851 366.43 79.6678 366.29C80.0505 366.15 80.5125 366.08 81.0538 366.08C81.6418 366.08 82.1365 366.155 82.5378 366.304C82.9485 366.444 83.2751 366.635 83.5178 366.878C83.7605 367.121 83.9378 367.405 84.0498 367.732C84.1618 368.059 84.2178 368.404 84.2178 368.768V373.164C84.2178 373.257 84.1851 373.337 84.1198 373.402C84.0545 373.467 83.9751 373.5 83.8818 373.5H82.7478C82.6451 373.5 82.5611 373.467 82.4958 373.402C82.4398 373.337 82.4118 373.257 82.4118 373.164V372.618C82.2905 372.795 82.1271 372.963 81.9218 373.122C81.7165 373.271 81.4645 373.397 81.1658 373.5C80.8765 373.593 80.5311 373.64 80.1298 373.64ZM80.6058 372.31C80.9325 372.31 81.2265 372.24 81.4878 372.1C81.7585 371.96 81.9685 371.745 82.1178 371.456C82.2765 371.157 82.3558 370.784 82.3558 370.336V370.042L80.9558 370.266C80.4051 370.35 79.9945 370.485 79.7238 370.672C79.4531 370.859 79.3178 371.087 79.3178 371.358C79.3178 371.563 79.3785 371.741 79.4998 371.89C79.6305 372.03 79.7938 372.137 79.9898 372.212C80.1858 372.277 80.3911 372.31 80.6058 372.31ZM86.3498 373.5C86.2565 373.5 86.1772 373.467 86.1118 373.402C86.0465 373.337 86.0138 373.257 86.0138 373.164V366.556C86.0138 366.463 86.0465 366.383 86.1118 366.318C86.1772 366.253 86.2565 366.22 86.3498 366.22H87.4978C87.5912 366.22 87.6705 366.253 87.7358 366.318C87.8012 366.383 87.8338 366.463 87.8338 366.556V367.13C88.0765 366.831 88.3845 366.584 88.7578 366.388C89.1405 366.183 89.6118 366.08 90.1718 366.08C90.7412 366.08 91.2358 366.211 91.6558 366.472C92.0758 366.724 92.3978 367.083 92.6218 367.55C92.8552 368.017 92.9718 368.577 92.9718 369.23V373.164C92.9718 373.257 92.9392 373.337 92.8738 373.402C92.8085 373.467 92.7292 373.5 92.6358 373.5H91.4038C91.3105 373.5 91.2312 373.467 91.1658 373.402C91.1005 373.337 91.0678 373.257 91.0678 373.164V369.314C91.0678 368.773 90.9325 368.348 90.6618 368.04C90.4005 367.732 90.0178 367.578 89.5138 367.578C89.0285 367.578 88.6412 367.732 88.3518 368.04C88.0625 368.348 87.9178 368.773 87.9178 369.314V373.164C87.9178 373.257 87.8852 373.337 87.8198 373.402C87.7545 373.467 87.6752 373.5 87.5818 373.5H86.3498Z" fill="#6D727B"></path>
<path d="M193.528 373.5C193.435 373.5 193.355 373.467 193.29 373.402C193.225 373.337 193.192 373.257 193.192 373.164V364.05C193.192 363.947 193.225 363.863 193.29 363.798C193.355 363.733 193.435 363.7 193.528 363.7H199.604C199.707 363.7 199.791 363.733 199.856 363.798C199.921 363.863 199.954 363.947 199.954 364.05V365.03C199.954 365.133 199.921 365.217 199.856 365.282C199.791 365.338 199.707 365.366 199.604 365.366H195.11V368.026H199.324C199.427 368.026 199.511 368.059 199.576 368.124C199.641 368.189 199.674 368.273 199.674 368.376V369.356C199.674 369.449 199.641 369.529 199.576 369.594C199.511 369.659 199.427 369.692 199.324 369.692H195.11V373.164C195.11 373.257 195.077 373.337 195.012 373.402C194.947 373.467 194.863 373.5 194.76 373.5H193.528ZM204.431 373.64C203.395 373.64 202.574 373.341 201.967 372.744C201.361 372.147 201.034 371.297 200.987 370.196C200.978 370.103 200.973 369.986 200.973 369.846C200.973 369.697 200.978 369.58 200.987 369.496C201.025 368.796 201.183 368.189 201.463 367.676C201.753 367.163 202.149 366.771 202.653 366.5C203.157 366.22 203.75 366.08 204.431 366.08C205.187 366.08 205.822 366.239 206.335 366.556C206.849 366.864 207.236 367.298 207.497 367.858C207.759 368.409 207.889 369.048 207.889 369.776V370.07C207.889 370.163 207.857 370.243 207.791 370.308C207.726 370.373 207.642 370.406 207.539 370.406H202.891C202.891 370.406 202.891 370.42 202.891 370.448C202.891 370.476 202.891 370.499 202.891 370.518C202.901 370.845 202.961 371.148 203.073 371.428C203.195 371.699 203.367 371.918 203.591 372.086C203.825 372.254 204.1 372.338 204.417 372.338C204.679 372.338 204.898 372.301 205.075 372.226C205.253 372.142 205.397 372.049 205.509 371.946C205.621 371.843 205.701 371.759 205.747 371.694C205.831 371.582 205.897 371.517 205.943 371.498C205.999 371.47 206.079 371.456 206.181 371.456H207.385C207.479 371.456 207.553 371.484 207.609 371.54C207.675 371.596 207.703 371.666 207.693 371.75C207.684 371.899 207.605 372.081 207.455 372.296C207.315 372.511 207.11 372.721 206.839 372.926C206.569 373.131 206.228 373.304 205.817 373.444C205.416 373.575 204.954 373.64 204.431 373.64ZM202.891 369.23H205.985V369.188C205.985 368.824 205.925 368.507 205.803 368.236C205.682 367.965 205.505 367.751 205.271 367.592C205.038 367.433 204.758 367.354 204.431 367.354C204.105 367.354 203.825 367.433 203.591 367.592C203.358 367.751 203.181 367.965 203.059 368.236C202.947 368.507 202.891 368.824 202.891 369.188V369.23ZM213.408 373.64C212.866 373.64 212.414 373.547 212.05 373.36C211.695 373.173 211.401 372.935 211.168 372.646V373.164C211.168 373.257 211.135 373.337 211.07 373.402C211.014 373.467 210.934 373.5 210.832 373.5H209.726C209.632 373.5 209.553 373.467 209.488 373.402C209.422 373.337 209.39 373.257 209.39 373.164V363.896C209.39 363.803 209.422 363.723 209.488 363.658C209.553 363.593 209.632 363.56 209.726 363.56H210.916C211.018 363.56 211.098 363.593 211.154 363.658C211.219 363.723 211.252 363.803 211.252 363.896V367.004C211.485 366.733 211.774 366.514 212.12 366.346C212.474 366.169 212.904 366.08 213.408 366.08C213.902 366.08 214.332 366.164 214.696 366.332C215.06 366.5 215.363 366.738 215.606 367.046C215.858 367.345 216.049 367.695 216.18 368.096C216.31 368.497 216.38 368.931 216.39 369.398C216.399 369.566 216.404 369.72 216.404 369.86C216.404 369.991 216.399 370.14 216.39 370.308C216.371 370.793 216.296 371.241 216.166 371.652C216.035 372.053 215.848 372.403 215.606 372.702C215.363 373.001 215.06 373.234 214.696 373.402C214.332 373.561 213.902 373.64 213.408 373.64ZM212.89 372.142C213.291 372.142 213.604 372.058 213.828 371.89C214.052 371.713 214.21 371.484 214.304 371.204C214.406 370.924 214.467 370.616 214.486 370.28C214.504 370 214.504 369.72 214.486 369.44C214.467 369.104 214.406 368.796 214.304 368.516C214.21 368.236 214.052 368.012 213.828 367.844C213.604 367.667 213.291 367.578 212.89 367.578C212.516 367.578 212.213 367.662 211.98 367.83C211.746 367.998 211.569 368.213 211.448 368.474C211.326 368.726 211.261 368.992 211.252 369.272C211.242 369.44 211.238 369.622 211.238 369.818C211.238 370.005 211.242 370.182 211.252 370.35C211.27 370.639 211.331 370.924 211.434 371.204C211.546 371.475 211.718 371.699 211.952 371.876C212.194 372.053 212.507 372.142 212.89 372.142Z" fill="#6D727B"></path>
<path d="M316.642 373.5C316.539 373.5 316.455 373.467 316.39 373.402C316.325 373.337 316.292 373.257 316.292 373.164V364.05C316.292 363.947 316.325 363.863 316.39 363.798C316.455 363.733 316.539 363.7 316.642 363.7H317.748C317.879 363.7 317.977 363.737 318.042 363.812C318.107 363.877 318.149 363.929 318.168 363.966L320.87 369.006L323.6 363.966C323.619 363.929 323.661 363.877 323.726 363.812C323.791 363.737 323.889 363.7 324.02 363.7H325.112C325.215 363.7 325.299 363.733 325.364 363.798C325.429 363.863 325.462 363.947 325.462 364.05V373.164C325.462 373.257 325.429 373.337 325.364 373.402C325.299 373.467 325.215 373.5 325.112 373.5H323.936C323.833 373.5 323.749 373.467 323.684 373.402C323.628 373.337 323.6 373.257 323.6 373.164V367.102L321.64 370.84C321.593 370.924 321.533 370.999 321.458 371.064C321.383 371.12 321.285 371.148 321.164 371.148H320.59C320.459 371.148 320.357 371.12 320.282 371.064C320.217 370.999 320.161 370.924 320.114 370.84L318.154 367.102V373.164C318.154 373.257 318.121 373.337 318.056 373.402C317.991 373.467 317.911 373.5 317.818 373.5H316.642ZM329.586 373.64C329.1 373.64 328.662 373.547 328.27 373.36C327.878 373.164 327.565 372.907 327.332 372.59C327.108 372.263 326.996 371.899 326.996 371.498C326.996 370.845 327.257 370.327 327.78 369.944C328.312 369.552 329.012 369.291 329.88 369.16L331.798 368.88V368.586C331.798 368.194 331.7 367.891 331.504 367.676C331.308 367.461 330.972 367.354 330.496 367.354C330.16 367.354 329.884 367.424 329.67 367.564C329.464 367.695 329.31 367.872 329.208 368.096C329.133 368.217 329.026 368.278 328.886 368.278H327.78C327.677 368.278 327.598 368.25 327.542 368.194C327.495 368.138 327.472 368.063 327.472 367.97C327.481 367.821 327.542 367.639 327.654 367.424C327.766 367.209 327.943 367.004 328.186 366.808C328.428 366.603 328.741 366.43 329.124 366.29C329.506 366.15 329.968 366.08 330.51 366.08C331.098 366.08 331.592 366.155 331.994 366.304C332.404 366.444 332.731 366.635 332.974 366.878C333.216 367.121 333.394 367.405 333.506 367.732C333.618 368.059 333.674 368.404 333.674 368.768V373.164C333.674 373.257 333.641 373.337 333.576 373.402C333.51 373.467 333.431 373.5 333.338 373.5H332.204C332.101 373.5 332.017 373.467 331.952 373.402C331.896 373.337 331.868 373.257 331.868 373.164V372.618C331.746 372.795 331.583 372.963 331.378 373.122C331.172 373.271 330.92 373.397 330.622 373.5C330.332 373.593 329.987 373.64 329.586 373.64ZM330.062 372.31C330.388 372.31 330.682 372.24 330.944 372.1C331.214 371.96 331.424 371.745 331.574 371.456C331.732 371.157 331.812 370.784 331.812 370.336V370.042L330.412 370.266C329.861 370.35 329.45 370.485 329.18 370.672C328.909 370.859 328.774 371.087 328.774 371.358C328.774 371.563 328.834 371.741 328.956 371.89C329.086 372.03 329.25 372.137 329.446 372.212C329.642 372.277 329.847 372.31 330.062 372.31ZM335.806 373.5C335.712 373.5 335.633 373.467 335.568 373.402C335.502 373.337 335.47 373.257 335.47 373.164V366.57C335.47 366.467 335.502 366.383 335.568 366.318C335.633 366.253 335.712 366.22 335.806 366.22H336.94C337.033 366.22 337.112 366.253 337.178 366.318C337.252 366.383 337.29 366.467 337.29 366.57V367.144C337.504 366.845 337.78 366.617 338.116 366.458C338.461 366.299 338.858 366.22 339.306 366.22H339.88C339.982 366.22 340.062 366.253 340.118 366.318C340.183 366.383 340.216 366.463 340.216 366.556V367.564C340.216 367.657 340.183 367.737 340.118 367.802C340.062 367.867 339.982 367.9 339.88 367.9H338.788C338.34 367.9 337.99 368.026 337.738 368.278C337.495 368.53 337.374 368.875 337.374 369.314V373.164C337.374 373.257 337.341 373.337 337.276 373.402C337.21 373.467 337.126 373.5 337.024 373.5H335.806Z" fill="#6D727B"></path>
<path d="M439.79 373.5C439.715 373.5 439.645 373.472 439.58 373.416C439.524 373.36 439.496 373.29 439.496 373.206C439.496 373.169 439.505 373.127 439.524 373.08L442.898 364.05C442.926 363.957 442.977 363.877 443.052 363.812C443.136 363.737 443.248 363.7 443.388 363.7H444.914C445.054 363.7 445.161 363.737 445.236 363.812C445.311 363.877 445.367 363.957 445.404 364.05L448.778 373.08C448.787 373.127 448.792 373.169 448.792 373.206C448.792 373.29 448.764 373.36 448.708 373.416C448.652 373.472 448.587 373.5 448.512 373.5H447.294C447.163 373.5 447.065 373.472 447 373.416C446.944 373.351 446.907 373.29 446.888 373.234L446.23 371.526H442.072L441.414 373.234C441.395 373.29 441.353 373.351 441.288 373.416C441.232 373.472 441.139 373.5 441.008 373.5H439.79ZM442.562 369.916H445.74L444.144 365.59L442.562 369.916ZM450.281 376.16C450.188 376.16 450.108 376.127 450.043 376.062C449.978 375.997 449.945 375.917 449.945 375.824V366.556C449.945 366.463 449.978 366.383 450.043 366.318C450.108 366.253 450.188 366.22 450.281 366.22H451.387C451.49 366.22 451.569 366.253 451.625 366.318C451.69 366.383 451.723 366.463 451.723 366.556V367.116C451.947 366.817 452.241 366.57 452.605 366.374C452.969 366.178 453.422 366.08 453.963 366.08C454.458 366.08 454.887 366.159 455.251 366.318C455.615 366.477 455.918 366.705 456.161 367.004C456.404 367.293 456.59 367.639 456.721 368.04C456.852 368.441 456.926 368.885 456.945 369.37C456.954 369.529 456.959 369.692 456.959 369.86C456.959 370.028 456.954 370.196 456.945 370.364C456.936 370.831 456.866 371.265 456.735 371.666C456.604 372.058 456.413 372.403 456.161 372.702C455.918 372.991 455.615 373.22 455.251 373.388C454.887 373.556 454.458 373.64 453.963 373.64C453.459 373.64 453.03 373.551 452.675 373.374C452.32 373.187 452.031 372.945 451.807 372.646V375.824C451.807 375.917 451.774 375.997 451.709 376.062C451.653 376.127 451.574 376.16 451.471 376.16H450.281ZM453.445 372.142C453.846 372.142 454.159 372.058 454.383 371.89C454.607 371.713 454.766 371.484 454.859 371.204C454.962 370.924 455.022 370.616 455.041 370.28C455.06 370 455.06 369.72 455.041 369.44C455.022 369.104 454.962 368.796 454.859 368.516C454.766 368.236 454.607 368.012 454.383 367.844C454.159 367.667 453.846 367.578 453.445 367.578C453.062 367.578 452.75 367.667 452.507 367.844C452.274 368.021 452.101 368.25 451.989 368.53C451.886 368.801 451.826 369.081 451.807 369.37C451.798 369.538 451.793 369.715 451.793 369.902C451.793 370.089 451.798 370.271 451.807 370.448C451.816 370.728 451.882 370.999 452.003 371.26C452.124 371.512 452.302 371.722 452.535 371.89C452.768 372.058 453.072 372.142 453.445 372.142ZM458.867 373.5C458.773 373.5 458.694 373.467 458.629 373.402C458.563 373.337 458.531 373.257 458.531 373.164V366.57C458.531 366.467 458.563 366.383 458.629 366.318C458.694 366.253 458.773 366.22 458.867 366.22H460.001C460.094 366.22 460.173 366.253 460.239 366.318C460.313 366.383 460.351 366.467 460.351 366.57V367.144C460.565 366.845 460.841 366.617 461.177 366.458C461.522 366.299 461.919 366.22 462.367 366.22H462.941C463.043 366.22 463.123 366.253 463.179 366.318C463.244 366.383 463.277 366.463 463.277 366.556V367.564C463.277 367.657 463.244 367.737 463.179 367.802C463.123 367.867 463.043 367.9 462.941 367.9H461.849C461.401 367.9 461.051 368.026 460.799 368.278C460.556 368.53 460.435 368.875 460.435 369.314V373.164C460.435 373.257 460.402 373.337 460.337 373.402C460.271 373.467 460.187 373.5 460.085 373.5H458.867Z" fill="#6D727B"></path>
<path d="M562.842 373.5C562.739 373.5 562.655 373.467 562.59 373.402C562.525 373.337 562.492 373.257 562.492 373.164V364.05C562.492 363.947 562.525 363.863 562.59 363.798C562.655 363.733 562.739 363.7 562.842 363.7H563.948C564.079 363.7 564.177 363.737 564.242 363.812C564.307 363.877 564.349 363.929 564.368 363.966L567.07 369.006L569.8 363.966C569.819 363.929 569.861 363.877 569.926 363.812C569.991 363.737 570.089 363.7 570.22 363.7H571.312C571.415 363.7 571.499 363.733 571.564 363.798C571.629 363.863 571.662 363.947 571.662 364.05V373.164C571.662 373.257 571.629 373.337 571.564 373.402C571.499 373.467 571.415 373.5 571.312 373.5H570.136C570.033 373.5 569.949 373.467 569.884 373.402C569.828 373.337 569.8 373.257 569.8 373.164V367.102L567.84 370.84C567.793 370.924 567.733 370.999 567.658 371.064C567.583 371.12 567.485 371.148 567.364 371.148H566.79C566.659 371.148 566.557 371.12 566.482 371.064C566.417 370.999 566.361 370.924 566.314 370.84L564.354 367.102V373.164C564.354 373.257 564.321 373.337 564.256 373.402C564.191 373.467 564.111 373.5 564.018 373.5H562.842ZM575.786 373.64C575.3 373.64 574.862 373.547 574.47 373.36C574.078 373.164 573.765 372.907 573.532 372.59C573.308 372.263 573.196 371.899 573.196 371.498C573.196 370.845 573.457 370.327 573.98 369.944C574.512 369.552 575.212 369.291 576.08 369.16L577.998 368.88V368.586C577.998 368.194 577.9 367.891 577.704 367.676C577.508 367.461 577.172 367.354 576.696 367.354C576.36 367.354 576.084 367.424 575.87 367.564C575.664 367.695 575.51 367.872 575.408 368.096C575.333 368.217 575.226 368.278 575.086 368.278H573.98C573.877 368.278 573.798 368.25 573.742 368.194C573.695 368.138 573.672 368.063 573.672 367.97C573.681 367.821 573.742 367.639 573.854 367.424C573.966 367.209 574.143 367.004 574.386 366.808C574.628 366.603 574.941 366.43 575.324 366.29C575.706 366.15 576.168 366.08 576.71 366.08C577.298 366.08 577.792 366.155 578.194 366.304C578.604 366.444 578.931 366.635 579.174 366.878C579.416 367.121 579.594 367.405 579.706 367.732C579.818 368.059 579.874 368.404 579.874 368.768V373.164C579.874 373.257 579.841 373.337 579.776 373.402C579.71 373.467 579.631 373.5 579.538 373.5H578.404C578.301 373.5 578.217 373.467 578.152 373.402C578.096 373.337 578.068 373.257 578.068 373.164V372.618C577.946 372.795 577.783 372.963 577.578 373.122C577.372 373.271 577.12 373.397 576.822 373.5C576.532 373.593 576.187 373.64 575.786 373.64ZM576.262 372.31C576.588 372.31 576.882 372.24 577.144 372.1C577.414 371.96 577.624 371.745 577.774 371.456C577.932 371.157 578.012 370.784 578.012 370.336V370.042L576.612 370.266C576.061 370.35 575.65 370.485 575.38 370.672C575.109 370.859 574.974 371.087 574.974 371.358C574.974 371.563 575.034 371.741 575.156 371.89C575.286 372.03 575.45 372.137 575.646 372.212C575.842 372.277 576.047 372.31 576.262 372.31ZM582.794 376.16C582.72 376.16 582.654 376.132 582.598 376.076C582.542 376.02 582.514 375.955 582.514 375.88C582.514 375.843 582.514 375.805 582.514 375.768C582.524 375.74 582.542 375.703 582.57 375.656L583.662 373.066L580.974 366.724C580.937 366.631 580.918 366.565 580.918 366.528C580.928 366.444 580.96 366.374 581.016 366.318C581.072 366.253 581.142 366.22 581.226 366.22H582.36C582.472 366.22 582.556 366.248 582.612 366.304C582.668 366.36 582.71 366.421 582.738 366.486L584.6 371.064L586.518 366.486C586.546 366.411 586.588 366.351 586.644 366.304C586.7 366.248 586.784 366.22 586.896 366.22H588.016C588.091 366.22 588.156 366.248 588.212 366.304C588.278 366.36 588.31 366.425 588.31 366.5C588.31 366.556 588.292 366.631 588.254 366.724L584.292 375.894C584.255 375.969 584.208 376.029 584.152 376.076C584.096 376.132 584.012 376.16 583.9 376.16H582.794Z" fill="#6D727B"></path>
<path d="M689.756 373.64C689.252 373.64 688.771 373.579 688.314 373.458C687.866 373.327 687.465 373.131 687.11 372.87C686.755 372.609 686.471 372.287 686.256 371.904C686.051 371.521 685.943 371.069 685.934 370.546C685.934 370.462 685.962 370.392 686.018 370.336C686.074 370.271 686.144 370.238 686.228 370.238H687.558C687.679 370.238 687.768 370.271 687.824 370.336C687.889 370.401 687.941 370.49 687.978 370.602C688.025 370.938 688.132 371.213 688.3 371.428C688.468 371.633 688.678 371.787 688.93 371.89C689.191 371.983 689.481 372.03 689.798 372.03C690.386 372.03 690.834 371.839 691.142 371.456C691.459 371.073 691.618 370.541 691.618 369.86V365.352H686.872C686.769 365.352 686.685 365.319 686.62 365.254C686.564 365.189 686.536 365.109 686.536 365.016V364.036C686.536 363.943 686.564 363.863 686.62 363.798C686.685 363.733 686.769 363.7 686.872 363.7H693.27C693.373 363.7 693.457 363.733 693.522 363.798C693.587 363.863 693.62 363.947 693.62 364.05V369.916C693.62 370.691 693.457 371.358 693.13 371.918C692.813 372.478 692.365 372.907 691.786 373.206C691.217 373.495 690.54 373.64 689.756 373.64ZM698.218 373.64C697.648 373.64 697.154 373.514 696.734 373.262C696.323 373.001 696.006 372.637 695.782 372.17C695.558 371.694 695.446 371.134 695.446 370.49V366.556C695.446 366.463 695.478 366.383 695.544 366.318C695.609 366.253 695.688 366.22 695.782 366.22H697.014C697.116 366.22 697.196 366.253 697.252 366.318C697.317 366.383 697.35 366.463 697.35 366.556V370.406C697.35 371.563 697.858 372.142 698.876 372.142C699.361 372.142 699.744 371.988 700.024 371.68C700.313 371.372 700.458 370.947 700.458 370.406V366.556C700.458 366.463 700.49 366.383 700.556 366.318C700.621 366.253 700.7 366.22 700.794 366.22H702.026C702.119 366.22 702.198 366.253 702.264 366.318C702.329 366.383 702.362 366.463 702.362 366.556V373.164C702.362 373.257 702.329 373.337 702.264 373.402C702.198 373.467 702.119 373.5 702.026 373.5H700.892C700.789 373.5 700.705 373.467 700.64 373.402C700.584 373.337 700.556 373.257 700.556 373.164V372.59C700.304 372.917 699.991 373.173 699.618 373.36C699.244 373.547 698.778 373.64 698.218 373.64ZM704.547 373.5C704.454 373.5 704.374 373.467 704.309 373.402C704.244 373.337 704.211 373.257 704.211 373.164V366.556C704.211 366.463 704.244 366.383 704.309 366.318C704.374 366.253 704.454 366.22 704.547 366.22H705.695C705.788 366.22 705.868 366.253 705.933 366.318C705.998 366.383 706.031 366.463 706.031 366.556V367.13C706.274 366.831 706.582 366.584 706.955 366.388C707.338 366.183 707.809 366.08 708.369 366.08C708.938 366.08 709.433 366.211 709.853 366.472C710.273 366.724 710.595 367.083 710.819 367.55C711.052 368.017 711.169 368.577 711.169 369.23V373.164C711.169 373.257 711.136 373.337 711.071 373.402C711.006 373.467 710.926 373.5 710.833 373.5H709.601C709.508 373.5 709.428 373.467 709.363 373.402C709.298 373.337 709.265 373.257 709.265 373.164V369.314C709.265 368.773 709.13 368.348 708.859 368.04C708.598 367.732 708.215 367.578 707.711 367.578C707.226 367.578 706.838 367.732 706.549 368.04C706.26 368.348 706.115 368.773 706.115 369.314V373.164C706.115 373.257 706.082 373.337 706.017 373.402C705.952 373.467 705.872 373.5 705.779 373.5H704.547Z" fill="#6D727B"></path>
<path d="M811.856 373.64C811.352 373.64 810.871 373.579 810.414 373.458C809.966 373.327 809.565 373.131 809.21 372.87C808.855 372.609 808.571 372.287 808.356 371.904C808.151 371.521 808.043 371.069 808.034 370.546C808.034 370.462 808.062 370.392 808.118 370.336C808.174 370.271 808.244 370.238 808.328 370.238H809.658C809.779 370.238 809.868 370.271 809.924 370.336C809.989 370.401 810.041 370.49 810.078 370.602C810.125 370.938 810.232 371.213 810.4 371.428C810.568 371.633 810.778 371.787 811.03 371.89C811.291 371.983 811.581 372.03 811.898 372.03C812.486 372.03 812.934 371.839 813.242 371.456C813.559 371.073 813.718 370.541 813.718 369.86V365.352H808.972C808.869 365.352 808.785 365.319 808.72 365.254C808.664 365.189 808.636 365.109 808.636 365.016V364.036C808.636 363.943 808.664 363.863 808.72 363.798C808.785 363.733 808.869 363.7 808.972 363.7H815.37C815.473 363.7 815.557 363.733 815.622 363.798C815.687 363.863 815.72 363.947 815.72 364.05V369.916C815.72 370.691 815.557 371.358 815.23 371.918C814.913 372.478 814.465 372.907 813.886 373.206C813.317 373.495 812.64 373.64 811.856 373.64ZM820.318 373.64C819.748 373.64 819.254 373.514 818.834 373.262C818.423 373.001 818.106 372.637 817.882 372.17C817.658 371.694 817.546 371.134 817.546 370.49V366.556C817.546 366.463 817.578 366.383 817.644 366.318C817.709 366.253 817.788 366.22 817.882 366.22H819.114C819.216 366.22 819.296 366.253 819.352 366.318C819.417 366.383 819.45 366.463 819.45 366.556V370.406C819.45 371.563 819.958 372.142 820.976 372.142C821.461 372.142 821.844 371.988 822.124 371.68C822.413 371.372 822.558 370.947 822.558 370.406V366.556C822.558 366.463 822.59 366.383 822.656 366.318C822.721 366.253 822.8 366.22 822.894 366.22H824.126C824.219 366.22 824.298 366.253 824.364 366.318C824.429 366.383 824.462 366.463 824.462 366.556V373.164C824.462 373.257 824.429 373.337 824.364 373.402C824.298 373.467 824.219 373.5 824.126 373.5H822.992C822.889 373.5 822.805 373.467 822.74 373.402C822.684 373.337 822.656 373.257 822.656 373.164V372.59C822.404 372.917 822.091 373.173 821.718 373.36C821.344 373.547 820.878 373.64 820.318 373.64ZM826.661 373.5C826.568 373.5 826.488 373.467 826.423 373.402C826.358 373.337 826.325 373.257 826.325 373.164V363.896C826.325 363.803 826.358 363.723 826.423 363.658C826.488 363.593 826.568 363.56 826.661 363.56H827.823C827.916 363.56 827.996 363.593 828.061 363.658C828.126 363.723 828.159 363.803 828.159 363.896V373.164C828.159 373.257 828.126 373.337 828.061 373.402C827.996 373.467 827.916 373.5 827.823 373.5H826.661ZM831.332 376.16C831.257 376.16 831.192 376.132 831.136 376.076C831.08 376.02 831.052 375.955 831.052 375.88C831.052 375.843 831.052 375.805 831.052 375.768C831.061 375.74 831.08 375.703 831.108 375.656L832.2 373.066L829.512 366.724C829.475 366.631 829.456 366.565 829.456 366.528C829.465 366.444 829.498 366.374 829.554 366.318C829.61 366.253 829.68 366.22 829.764 366.22H830.898C831.01 366.22 831.094 366.248 831.15 366.304C831.206 366.36 831.248 366.421 831.276 366.486L833.138 371.064L835.056 366.486C835.084 366.411 835.126 366.351 835.182 366.304C835.238 366.248 835.322 366.22 835.434 366.22H836.554C836.629 366.22 836.694 366.248 836.75 366.304C836.815 366.36 836.848 366.425 836.848 366.5C836.848 366.556 836.829 366.631 836.792 366.724L832.83 375.894C832.793 375.969 832.746 376.029 832.69 376.076C832.634 376.132 832.55 376.16 832.438 376.16H831.332Z" fill="#6D727B"></path>
<path d="M933.19 373.5C933.115 373.5 933.045 373.472 932.98 373.416C932.924 373.36 932.896 373.29 932.896 373.206C932.896 373.169 932.905 373.127 932.924 373.08L936.298 364.05C936.326 363.957 936.377 363.877 936.452 363.812C936.536 363.737 936.648 363.7 936.788 363.7H938.314C938.454 363.7 938.561 363.737 938.636 363.812C938.711 363.877 938.767 363.957 938.804 364.05L942.178 373.08C942.187 373.127 942.192 373.169 942.192 373.206C942.192 373.29 942.164 373.36 942.108 373.416C942.052 373.472 941.987 373.5 941.912 373.5H940.694C940.563 373.5 940.465 373.472 940.4 373.416C940.344 373.351 940.307 373.29 940.288 373.234L939.63 371.526H935.472L934.814 373.234C934.795 373.29 934.753 373.351 934.688 373.416C934.632 373.472 934.539 373.5 934.408 373.5H933.19ZM935.962 369.916H939.14L937.544 365.59L935.962 369.916ZM945.951 373.64C945.382 373.64 944.887 373.514 944.467 373.262C944.056 373.001 943.739 372.637 943.515 372.17C943.291 371.694 943.179 371.134 943.179 370.49V366.556C943.179 366.463 943.212 366.383 943.277 366.318C943.342 366.253 943.422 366.22 943.515 366.22H944.747C944.85 366.22 944.929 366.253 944.985 366.318C945.05 366.383 945.083 366.463 945.083 366.556V370.406C945.083 371.563 945.592 372.142 946.609 372.142C947.094 372.142 947.477 371.988 947.757 371.68C948.046 371.372 948.191 370.947 948.191 370.406V366.556C948.191 366.463 948.224 366.383 948.289 366.318C948.354 366.253 948.434 366.22 948.527 366.22H949.759C949.852 366.22 949.932 366.253 949.997 366.318C950.062 366.383 950.095 366.463 950.095 366.556V373.164C950.095 373.257 950.062 373.337 949.997 373.402C949.932 373.467 949.852 373.5 949.759 373.5H948.625C948.522 373.5 948.438 373.467 948.373 373.402C948.317 373.337 948.289 373.257 948.289 373.164V372.59C948.037 372.917 947.724 373.173 947.351 373.36C946.978 373.547 946.511 373.64 945.951 373.64ZM955.234 376.58C954.553 376.58 953.993 376.491 953.554 376.314C953.116 376.137 952.77 375.922 952.518 375.67C952.266 375.418 952.084 375.166 951.972 374.914C951.87 374.671 951.814 374.48 951.804 374.34C951.795 374.247 951.823 374.163 951.888 374.088C951.963 374.023 952.047 373.99 952.14 373.99H953.358C953.452 373.99 953.526 374.009 953.582 374.046C953.638 374.093 953.685 374.172 953.722 374.284C953.778 374.405 953.853 374.536 953.946 374.676C954.04 374.816 954.18 374.933 954.366 375.026C954.562 375.129 954.828 375.18 955.164 375.18C955.519 375.18 955.818 375.129 956.06 375.026C956.303 374.923 956.485 374.751 956.606 374.508C956.737 374.265 956.802 373.929 956.802 373.5V372.548C956.578 372.819 956.289 373.038 955.934 373.206C955.589 373.374 955.16 373.458 954.646 373.458C954.142 373.458 953.708 373.379 953.344 373.22C952.98 373.052 952.677 372.823 952.434 372.534C952.192 372.235 952.005 371.885 951.874 371.484C951.753 371.083 951.683 370.639 951.664 370.154C951.655 369.902 951.655 369.65 951.664 369.398C951.683 368.931 951.753 368.497 951.874 368.096C951.996 367.695 952.178 367.345 952.42 367.046C952.672 366.738 952.98 366.5 953.344 366.332C953.708 366.164 954.142 366.08 954.646 366.08C955.178 366.08 955.626 366.183 955.99 366.388C956.354 366.584 956.653 366.831 956.886 367.13V366.57C956.886 366.467 956.919 366.383 956.984 366.318C957.05 366.253 957.129 366.22 957.222 366.22H958.356C958.45 366.22 958.529 366.253 958.594 366.318C958.66 366.383 958.692 366.467 958.692 366.57L958.706 373.318C958.706 373.99 958.58 374.569 958.328 375.054C958.076 375.539 957.694 375.913 957.18 376.174C956.676 376.445 956.028 376.58 955.234 376.58ZM955.164 371.974C955.547 371.974 955.855 371.89 956.088 371.722C956.322 371.554 956.494 371.335 956.606 371.064C956.718 370.793 956.784 370.518 956.802 370.238C956.812 370.117 956.816 369.963 956.816 369.776C956.816 369.589 956.812 369.44 956.802 369.328C956.784 369.039 956.718 368.763 956.606 368.502C956.494 368.231 956.322 368.012 956.088 367.844C955.855 367.667 955.547 367.578 955.164 367.578C954.782 367.578 954.474 367.667 954.24 367.844C954.007 368.012 953.839 368.236 953.736 368.516C953.643 368.796 953.587 369.104 953.568 369.44C953.55 369.664 953.55 369.893 953.568 370.126C953.587 370.453 953.643 370.761 953.736 371.05C953.839 371.33 954.007 371.554 954.24 371.722C954.474 371.89 954.782 371.974 955.164 371.974Z" fill="#6D727B"></path>
<path d="M1058.29 373.64C1057.43 373.64 1056.7 373.514 1056.11 373.262C1055.53 373.001 1055.09 372.665 1054.78 372.254C1054.48 371.834 1054.32 371.395 1054.3 370.938C1054.3 370.854 1054.33 370.784 1054.39 370.728C1054.44 370.672 1054.51 370.644 1054.6 370.644H1055.84C1055.97 370.644 1056.05 370.672 1056.11 370.728C1056.18 370.775 1056.23 370.835 1056.28 370.91C1056.33 371.087 1056.44 371.265 1056.6 371.442C1056.76 371.61 1056.97 371.75 1057.24 371.862C1057.52 371.974 1057.87 372.03 1058.29 372.03C1058.97 372.03 1059.47 371.918 1059.79 371.694C1060.13 371.47 1060.3 371.167 1060.3 370.784C1060.3 370.513 1060.21 370.299 1060.03 370.14C1059.85 369.972 1059.58 369.823 1059.2 369.692C1058.84 369.552 1058.35 369.407 1057.75 369.258C1057.05 369.09 1056.46 368.889 1055.98 368.656C1055.52 368.413 1055.16 368.11 1054.92 367.746C1054.69 367.382 1054.57 366.92 1054.57 366.36C1054.57 365.819 1054.71 365.338 1055 364.918C1055.3 364.498 1055.72 364.167 1056.26 363.924C1056.81 363.681 1057.47 363.56 1058.22 363.56C1058.83 363.56 1059.37 363.644 1059.83 363.812C1060.3 363.971 1060.69 364.185 1061 364.456C1061.3 364.717 1061.54 365.002 1061.7 365.31C1061.86 365.609 1061.95 365.903 1061.96 366.192C1061.96 366.267 1061.93 366.337 1061.88 366.402C1061.83 366.458 1061.76 366.486 1061.67 366.486H1060.37C1060.29 366.486 1060.22 366.467 1060.14 366.43C1060.07 366.393 1060.01 366.323 1059.96 366.22C1059.9 365.931 1059.72 365.683 1059.41 365.478C1059.11 365.273 1058.71 365.17 1058.22 365.17C1057.72 365.17 1057.31 365.263 1057.01 365.45C1056.7 365.637 1056.54 365.926 1056.54 366.318C1056.54 366.579 1056.62 366.799 1056.77 366.976C1056.93 367.144 1057.17 367.293 1057.51 367.424C1057.86 367.555 1058.31 367.695 1058.87 367.844C1059.66 368.021 1060.31 368.227 1060.81 368.46C1061.32 368.693 1061.69 368.992 1061.92 369.356C1062.15 369.711 1062.27 370.163 1062.27 370.714C1062.27 371.33 1062.1 371.857 1061.77 372.296C1061.44 372.725 1060.98 373.057 1060.38 373.29C1059.78 373.523 1059.09 373.64 1058.29 373.64ZM1066.84 373.64C1065.81 373.64 1064.99 373.341 1064.38 372.744C1063.77 372.147 1063.45 371.297 1063.4 370.196C1063.39 370.103 1063.38 369.986 1063.38 369.846C1063.38 369.697 1063.39 369.58 1063.4 369.496C1063.44 368.796 1063.59 368.189 1063.87 367.676C1064.16 367.163 1064.56 366.771 1065.06 366.5C1065.57 366.22 1066.16 366.08 1066.84 366.08C1067.6 366.08 1068.23 366.239 1068.75 366.556C1069.26 366.864 1069.65 367.298 1069.91 367.858C1070.17 368.409 1070.3 369.048 1070.3 369.776V370.07C1070.3 370.163 1070.27 370.243 1070.2 370.308C1070.14 370.373 1070.05 370.406 1069.95 370.406H1065.3C1065.3 370.406 1065.3 370.42 1065.3 370.448C1065.3 370.476 1065.3 370.499 1065.3 370.518C1065.31 370.845 1065.37 371.148 1065.48 371.428C1065.61 371.699 1065.78 371.918 1066 372.086C1066.24 372.254 1066.51 372.338 1066.83 372.338C1067.09 372.338 1067.31 372.301 1067.49 372.226C1067.66 372.142 1067.81 372.049 1067.92 371.946C1068.03 371.843 1068.11 371.759 1068.16 371.694C1068.24 371.582 1068.31 371.517 1068.35 371.498C1068.41 371.47 1068.49 371.456 1068.59 371.456H1069.8C1069.89 371.456 1069.96 371.484 1070.02 371.54C1070.09 371.596 1070.11 371.666 1070.1 371.75C1070.1 371.899 1070.02 372.081 1069.87 372.296C1069.73 372.511 1069.52 372.721 1069.25 372.926C1068.98 373.131 1068.64 373.304 1068.23 373.444C1067.83 373.575 1067.37 373.64 1066.84 373.64ZM1065.3 369.23H1068.4V369.188C1068.4 368.824 1068.34 368.507 1068.21 368.236C1068.09 367.965 1067.92 367.751 1067.68 367.592C1067.45 367.433 1067.17 367.354 1066.84 367.354C1066.52 367.354 1066.24 367.433 1066 367.592C1065.77 367.751 1065.59 367.965 1065.47 368.236C1065.36 368.507 1065.3 368.824 1065.3 369.188V369.23ZM1072.14 376.16C1072.04 376.16 1071.96 376.127 1071.9 376.062C1071.83 375.997 1071.8 375.917 1071.8 375.824V366.556C1071.8 366.463 1071.83 366.383 1071.9 366.318C1071.96 366.253 1072.04 366.22 1072.14 366.22H1073.24C1073.35 366.22 1073.42 366.253 1073.48 366.318C1073.55 366.383 1073.58 366.463 1073.58 366.556V367.116C1073.8 366.817 1074.1 366.57 1074.46 366.374C1074.82 366.178 1075.28 366.08 1075.82 366.08C1076.31 366.08 1076.74 366.159 1077.11 366.318C1077.47 366.477 1077.77 366.705 1078.02 367.004C1078.26 367.293 1078.45 367.639 1078.58 368.04C1078.71 368.441 1078.78 368.885 1078.8 369.37C1078.81 369.529 1078.81 369.692 1078.81 369.86C1078.81 370.028 1078.81 370.196 1078.8 370.364C1078.79 370.831 1078.72 371.265 1078.59 371.666C1078.46 372.058 1078.27 372.403 1078.02 372.702C1077.77 372.991 1077.47 373.22 1077.11 373.388C1076.74 373.556 1076.31 373.64 1075.82 373.64C1075.31 373.64 1074.89 373.551 1074.53 373.374C1074.18 373.187 1073.89 372.945 1073.66 372.646V375.824C1073.66 375.917 1073.63 375.997 1073.56 376.062C1073.51 376.127 1073.43 376.16 1073.33 376.16H1072.14ZM1075.3 372.142C1075.7 372.142 1076.01 372.058 1076.24 371.89C1076.46 371.713 1076.62 371.484 1076.71 371.204C1076.82 370.924 1076.88 370.616 1076.9 370.28C1076.92 370 1076.92 369.72 1076.9 369.44C1076.88 369.104 1076.82 368.796 1076.71 368.516C1076.62 368.236 1076.46 368.012 1076.24 367.844C1076.01 367.667 1075.7 367.578 1075.3 367.578C1074.92 367.578 1074.61 367.667 1074.36 367.844C1074.13 368.021 1073.96 368.25 1073.84 368.53C1073.74 368.801 1073.68 369.081 1073.66 369.37C1073.65 369.538 1073.65 369.715 1073.65 369.902C1073.65 370.089 1073.65 370.271 1073.66 370.448C1073.67 370.728 1073.74 370.999 1073.86 371.26C1073.98 371.512 1074.16 371.722 1074.39 371.89C1074.62 372.058 1074.93 372.142 1075.3 372.142ZM1083.62 373.5C1083.06 373.5 1082.59 373.402 1082.21 373.206C1081.82 373.01 1081.54 372.721 1081.35 372.338C1081.17 371.946 1081.07 371.461 1081.07 370.882V367.704H1079.97C1079.87 367.704 1079.79 367.671 1079.73 367.606C1079.66 367.541 1079.63 367.461 1079.63 367.368V366.556C1079.63 366.463 1079.66 366.383 1079.73 366.318C1079.79 366.253 1079.87 366.22 1079.97 366.22H1081.07V363.896C1081.07 363.803 1081.1 363.723 1081.16 363.658C1081.22 363.593 1081.31 363.56 1081.41 363.56H1082.54C1082.64 363.56 1082.72 363.593 1082.78 363.658C1082.85 363.723 1082.88 363.803 1082.88 363.896V366.22H1084.63C1084.72 366.22 1084.8 366.253 1084.87 366.318C1084.93 366.383 1084.97 366.463 1084.97 366.556V367.368C1084.97 367.461 1084.93 367.541 1084.87 367.606C1084.8 367.671 1084.72 367.704 1084.63 367.704H1082.88V370.742C1082.88 371.125 1082.94 371.423 1083.08 371.638C1083.22 371.853 1083.45 371.96 1083.79 371.96H1084.76C1084.85 371.96 1084.93 371.993 1084.99 372.058C1085.06 372.123 1085.09 372.203 1085.09 372.296V373.164C1085.09 373.257 1085.06 373.337 1084.99 373.402C1084.93 373.467 1084.85 373.5 1084.76 373.5H1083.62Z" fill="#6D727B"></path>
<path d="M1186.26 373.64C1185.43 373.64 1184.71 373.505 1184.12 373.234C1183.52 372.954 1183.05 372.529 1182.72 371.96C1182.38 371.381 1182.2 370.663 1182.17 369.804C1182.16 369.403 1182.16 369.006 1182.16 368.614C1182.16 368.222 1182.16 367.821 1182.17 367.41C1182.2 366.561 1182.38 365.851 1182.73 365.282C1183.08 364.713 1183.55 364.283 1184.14 363.994C1184.75 363.705 1185.46 363.56 1186.26 363.56C1187.06 363.56 1187.77 363.705 1188.37 363.994C1188.98 364.283 1189.45 364.713 1189.8 365.282C1190.15 365.851 1190.33 366.561 1190.36 367.41C1190.38 367.821 1190.39 368.222 1190.39 368.614C1190.39 369.006 1190.38 369.403 1190.36 369.804C1190.33 370.663 1190.15 371.381 1189.81 371.96C1189.48 372.529 1189.01 372.954 1188.4 373.234C1187.8 373.505 1187.09 373.64 1186.26 373.64ZM1186.26 372.03C1186.86 372.03 1187.36 371.853 1187.74 371.498C1188.12 371.134 1188.33 370.546 1188.36 369.734C1188.38 369.323 1188.39 368.945 1188.39 368.6C1188.39 368.245 1188.38 367.867 1188.36 367.466C1188.34 366.925 1188.24 366.486 1188.05 366.15C1187.87 365.805 1187.63 365.557 1187.32 365.408C1187.01 365.249 1186.66 365.17 1186.26 365.17C1185.87 365.17 1185.52 365.249 1185.21 365.408C1184.9 365.557 1184.65 365.805 1184.47 366.15C1184.29 366.486 1184.19 366.925 1184.17 367.466C1184.16 367.867 1184.16 368.245 1184.16 368.6C1184.16 368.945 1184.16 369.323 1184.17 369.734C1184.2 370.546 1184.41 371.134 1184.79 371.498C1185.17 371.853 1185.66 372.03 1186.26 372.03ZM1195.21 373.64C1194.54 373.64 1193.94 373.514 1193.43 373.262C1192.93 373.01 1192.53 372.646 1192.24 372.17C1191.96 371.685 1191.81 371.101 1191.78 370.42C1191.77 370.28 1191.76 370.098 1191.76 369.874C1191.76 369.641 1191.77 369.449 1191.78 369.3C1191.81 368.619 1191.96 368.04 1192.24 367.564C1192.53 367.079 1192.93 366.71 1193.43 366.458C1193.94 366.206 1194.54 366.08 1195.21 366.08C1195.81 366.08 1196.31 366.164 1196.73 366.332C1197.15 366.5 1197.5 366.71 1197.77 366.962C1198.04 367.214 1198.24 367.48 1198.37 367.76C1198.51 368.031 1198.59 368.278 1198.6 368.502C1198.61 368.605 1198.57 368.689 1198.5 368.754C1198.43 368.81 1198.35 368.838 1198.26 368.838H1197.03C1196.93 368.838 1196.86 368.815 1196.8 368.768C1196.76 368.721 1196.71 368.651 1196.66 368.558C1196.52 368.185 1196.34 367.923 1196.1 367.774C1195.88 367.615 1195.59 367.536 1195.24 367.536C1194.77 367.536 1194.4 367.685 1194.12 367.984C1193.85 368.273 1193.7 368.735 1193.68 369.37C1193.66 369.725 1193.66 370.051 1193.68 370.35C1193.7 370.994 1193.85 371.461 1194.12 371.75C1194.4 372.039 1194.77 372.184 1195.24 372.184C1195.6 372.184 1195.89 372.109 1196.12 371.96C1196.34 371.801 1196.52 371.535 1196.66 371.162C1196.71 371.069 1196.76 370.999 1196.8 370.952C1196.86 370.905 1196.93 370.882 1197.03 370.882H1198.26C1198.35 370.882 1198.43 370.915 1198.5 370.98C1198.57 371.036 1198.61 371.115 1198.6 371.218C1198.59 371.386 1198.54 371.577 1198.46 371.792C1198.38 371.997 1198.26 372.212 1198.08 372.436C1197.91 372.651 1197.7 372.851 1197.43 373.038C1197.17 373.215 1196.86 373.36 1196.48 373.472C1196.12 373.584 1195.69 373.64 1195.21 373.64ZM1203.35 373.5C1202.79 373.5 1202.31 373.402 1201.93 373.206C1201.55 373.01 1201.26 372.721 1201.08 372.338C1200.89 371.946 1200.8 371.461 1200.8 370.882V367.704H1199.69C1199.6 367.704 1199.52 367.671 1199.45 367.606C1199.39 367.541 1199.36 367.461 1199.36 367.368V366.556C1199.36 366.463 1199.39 366.383 1199.45 366.318C1199.52 366.253 1199.6 366.22 1199.69 366.22H1200.8V363.896C1200.8 363.803 1200.83 363.723 1200.88 363.658C1200.95 363.593 1201.03 363.56 1201.13 363.56H1202.27C1202.36 363.56 1202.44 363.593 1202.51 363.658C1202.57 363.723 1202.6 363.803 1202.6 363.896V366.22H1204.35C1204.45 366.22 1204.53 366.253 1204.59 366.318C1204.66 366.383 1204.69 366.463 1204.69 366.556V367.368C1204.69 367.461 1204.66 367.541 1204.59 367.606C1204.53 367.671 1204.45 367.704 1204.35 367.704H1202.6V370.742C1202.6 371.125 1202.67 371.423 1202.8 371.638C1202.94 371.853 1203.18 371.96 1203.51 371.96H1204.48C1204.57 371.96 1204.65 371.993 1204.72 372.058C1204.78 372.123 1204.82 372.203 1204.82 372.296V373.164C1204.82 373.257 1204.78 373.337 1204.72 373.402C1204.65 373.467 1204.57 373.5 1204.48 373.5H1203.35Z" fill="#6D727B"></path>
<path d="M237.436 277.145C175.141 284.407 132.209 327.616 80 334.701V352.178H1267V246.742C1208.88 246.742 1201.12 278.944 1173.77 270.08C1146.42 261.215 1117.69 200.266 1085.78 203.49C1053.87 206.713 1036.36 121.179 969.117 129.237C901.878 137.296 852.392 229.34 798.828 189.852C745.265 150.364 733.88 171.2 676.898 163.141C619.916 155.082 594.953 251.622 540.982 248.537C487.01 245.452 472.603 325.748 417.525 318.3C350.782 309.275 356.591 304.22 326.914 292.514C297.237 280.808 270.638 273.274 237.436 277.145Z" fill="url(#paint0_radial_4_17409)"></path>
<path d="M80 337C132.209 329.914 175.141 286.706 237.436 279.443C270.638 275.572 297.237 283.106 326.914 294.813C356.591 306.519 350.782 311.574 417.525 320.599C472.603 328.046 487.011 247.751 540.982 250.836C594.953 253.921 619.916 157.381 676.898 165.44C733.88 173.498 745.265 152.663 798.828 192.151C852.392 231.639 901.878 139.595 969.117 131.536C1036.36 123.477 1053.87 209.012 1085.78 205.788C1117.69 202.565 1146.42 263.514 1173.77 272.378C1201.12 281.243 1208.88 249.041 1267 249.041" stroke="#E0011D" stroke-width="4" stroke-linecap="round" stroke-linejoin="round"></path>
<rect x="144" y="407" width="128" height="8" rx="4" fill="#AEB1B6"></rect>
</g>
<rect x="0.5" y="0.5" width="1299" height="415" rx="7.5" stroke="#EBEDEE"></rect>
<defs>
<radialGradient id="paint0_radial_4_17409" cx="0" cy="0" r="1" gradientUnits="userSpaceOnUse" gradientTransform="translate(673.5 -755.131) rotate(90) scale(1106.8 4144.96)">
<stop offset="0.656703" stop-color="#E0011D"></stop>
<stop offset="1" stop-color="white" stop-opacity="0"></stop>
</radialGradient>
<clipPath id="clip0_4_17409">
<rect width="1300" height="416" rx="8" fill="white"></rect>
</clipPath>
<clipPath id="clip1_4_17409">
<path d="M80 76H1284V349H80V76Z" fill="white"></path>
</clipPath>
</defs>
</svg>