<svg width="340" height="63" viewBox="0 0 340 63" fill="none" xmlns="http://www.w3.org/2000/svg">
<rect width="340" height="63" rx="4" fill="white"></rect>
<g clip-path="url(#clip0_1_3716)">
<path d="M21.5056 27.9726V35.0273C21.5056 36.0718 21.9212 37.0726 22.6595 37.8109L29.1892 44.3406C29.9275 45.0789 30.9283 45.4945 31.9728 45.4945H39.0275C40.072 45.4945 41.0728 45.0789 41.8111 44.3406L48.3408 37.8109C49.0791 37.0726 49.4947 36.0718 49.4947 35.0273V27.9726C49.4947 26.9281 49.0791 25.9273 48.3408 25.189L41.8111 18.6593C41.0728 17.9211 40.072 17.5054 39.0275 17.5054H31.9728C30.9283 17.5054 29.9275 17.9211 29.1892 18.6593L22.6595 25.189C21.9212 25.9273 21.5056 26.9281 21.5056 27.9726ZM33.7501 36.75C33.7501 35.782 34.5322 35 35.5001 35C35.9814 35 36.4189 35.1968 36.7361 35.514C36.8947 35.6726 37.0205 35.8586 37.1134 36.0718C37.1572 36.1757 37.19 36.2851 37.2173 36.4C37.2283 36.4547 37.2392 36.5148 37.2447 36.575C37.2501 36.6023 37.2501 36.6351 37.2501 36.6625C37.2501 36.6898 37.2501 36.7226 37.2501 36.7609C37.2501 36.7882 37.2501 36.8156 37.2501 36.8484C37.2501 36.8812 37.2447 36.9086 37.2447 36.9359C37.2392 36.9961 37.2283 37.0507 37.2173 37.1109C37.1955 37.2257 37.1572 37.3351 37.1134 37.439C37.0259 37.6468 36.8947 37.8382 36.7361 37.9968C36.4189 38.314 35.9814 38.5109 35.5001 38.5109C34.5322 38.5109 33.7501 37.7289 33.7501 36.7609V36.75ZM34.1876 25.8125C34.1876 25.0851 34.7728 24.5 35.5001 24.5C35.8611 24.5 36.1892 24.6476 36.4298 24.8828C36.5501 25.0031 36.6431 25.1453 36.7087 25.2984C36.7416 25.375 36.7689 25.457 36.7853 25.5445C36.7962 25.6101 36.8072 25.6757 36.8072 25.6757C36.8126 25.7414 36.8126 25.7414 36.8126 25.8125C36.8126 27.8523 36.8126 29.8976 36.8126 31.9484C36.8126 31.9867 36.8126 32.0304 36.8072 32.0742C36.8017 32.1179 36.7962 32.1617 36.7853 32.2054C36.7689 32.2929 36.7416 32.375 36.7087 32.4515C36.6431 32.6101 36.5447 32.7523 36.4298 32.8672C36.1947 33.1023 35.8666 33.25 35.5001 33.25C34.7728 33.25 34.1876 32.6648 34.1876 31.9375C34.1876 29.8976 34.1876 27.8523 34.1876 25.8125Z" fill="#E0011D" fill-opacity="0.24"></path>
<path d="M36.8125 25.8125C36.8125 25.0852 36.2273 24.5 35.5 24.5C34.7727 24.5 34.1875 25.0852 34.1875 25.8125V31.9375C34.1875 32.6648 34.7727 33.25 35.5 33.25C36.2273 33.25 36.8125 32.6648 36.8125 31.9375V25.8125ZM35.5 38.5C35.9641 38.5 36.4092 38.3156 36.7374 37.9874C37.0656 37.6592 37.25 37.2141 37.25 36.75C37.25 36.2859 37.0656 35.8408 36.7374 35.5126C36.4092 35.1844 35.9641 35 35.5 35C35.0359 35 34.5908 35.1844 34.2626 35.5126C33.9344 35.8408 33.75 36.2859 33.75 36.75C33.75 37.2141 33.9344 37.6592 34.2626 37.9874C34.5908 38.3156 35.0359 38.5 35.5 38.5Z" fill="#E0011D"></path>
</g>
<path d="M71.368 25.64C70.556 25.64 69.8747 25.5187 69.324 25.276C68.7733 25.024 68.3487 24.702 68.05 24.31C67.7607 23.9087 67.6067 23.484 67.588 23.036C67.588 22.9613 67.616 22.896 67.672 22.84C67.7373 22.7747 67.812 22.742 67.896 22.742H68.61C68.722 22.742 68.806 22.77 68.862 22.826C68.918 22.882 68.9553 22.9473 68.974 23.022C69.0207 23.246 69.1327 23.47 69.31 23.694C69.4967 23.9087 69.7533 24.0907 70.08 24.24C70.416 24.38 70.8453 24.45 71.368 24.45C72.1707 24.45 72.7587 24.31 73.132 24.03C73.5147 23.7407 73.706 23.358 73.706 22.882C73.706 22.5553 73.6033 22.294 73.398 22.098C73.202 21.8927 72.8987 21.7107 72.488 21.552C72.0773 21.3933 71.5453 21.2207 70.892 21.034C70.2107 20.838 69.646 20.6233 69.198 20.39C68.75 20.1567 68.414 19.8673 68.19 19.522C67.9753 19.1767 67.868 18.738 67.868 18.206C67.868 17.702 68.0033 17.254 68.274 16.862C68.5447 16.4607 68.932 16.1433 69.436 15.91C69.9493 15.6767 70.57 15.56 71.298 15.56C71.8767 15.56 72.3807 15.6393 72.81 15.798C73.2487 15.9473 73.6127 16.1527 73.902 16.414C74.1913 16.666 74.4107 16.9413 74.56 17.24C74.7093 17.5293 74.7887 17.814 74.798 18.094C74.798 18.1593 74.7747 18.2247 74.728 18.29C74.6813 18.346 74.6067 18.374 74.504 18.374H73.762C73.6967 18.374 73.6267 18.3553 73.552 18.318C73.4867 18.2807 73.4353 18.2107 73.398 18.108C73.342 17.7253 73.1273 17.4033 72.754 17.142C72.3807 16.8807 71.8953 16.75 71.298 16.75C70.6913 16.75 70.1967 16.8667 69.814 17.1C69.4407 17.3333 69.254 17.6973 69.254 18.192C69.254 18.5093 69.3427 18.7753 69.52 18.99C69.6973 19.1953 69.9773 19.3773 70.36 19.536C70.7427 19.6947 71.242 19.8627 71.858 20.04C72.6047 20.2453 73.216 20.4647 73.692 20.698C74.168 20.922 74.518 21.2067 74.742 21.552C74.9753 21.888 75.092 22.322 75.092 22.854C75.092 23.442 74.938 23.946 74.63 24.366C74.322 24.7767 73.888 25.094 73.328 25.318C72.7773 25.5327 72.124 25.64 71.368 25.64ZM79.643 25.64C78.6817 25.64 77.9163 25.346 77.347 24.758C76.7777 24.1607 76.465 23.3487 76.409 22.322C76.3997 22.2007 76.395 22.0467 76.395 21.86C76.395 21.664 76.3997 21.5053 76.409 21.384C76.4463 20.7213 76.6003 20.1427 76.871 19.648C77.1417 19.144 77.5103 18.7567 77.977 18.486C78.453 18.2153 79.0083 18.08 79.643 18.08C80.3523 18.08 80.945 18.2293 81.421 18.528C81.9063 18.8267 82.275 19.2513 82.527 19.802C82.779 20.3527 82.905 20.9967 82.905 21.734V21.972C82.905 22.0747 82.8723 22.154 82.807 22.21C82.751 22.266 82.6763 22.294 82.583 22.294H77.739C77.739 22.3033 77.739 22.322 77.739 22.35C77.739 22.378 77.739 22.4013 77.739 22.42C77.7577 22.8027 77.8417 23.162 77.991 23.498C78.1403 23.8247 78.355 24.0907 78.635 24.296C78.915 24.5013 79.251 24.604 79.643 24.604C79.979 24.604 80.259 24.5527 80.483 24.45C80.707 24.3473 80.889 24.2353 81.029 24.114C81.169 23.9833 81.2623 23.8853 81.309 23.82C81.393 23.6987 81.4583 23.6287 81.505 23.61C81.5517 23.582 81.6263 23.568 81.729 23.568H82.401C82.4943 23.568 82.569 23.596 82.625 23.652C82.6903 23.6987 82.7183 23.7687 82.709 23.862C82.6997 24.002 82.625 24.1747 82.485 24.38C82.345 24.576 82.1443 24.772 81.883 24.968C81.6217 25.164 81.3043 25.3273 80.931 25.458C80.5577 25.5793 80.1283 25.64 79.643 25.64ZM77.739 21.328H81.575V21.286C81.575 20.866 81.4957 20.4927 81.337 20.166C81.1877 19.8393 80.9683 19.5827 80.679 19.396C80.3897 19.2 80.0443 19.102 79.643 19.102C79.2417 19.102 78.8963 19.2 78.607 19.396C78.327 19.5827 78.1123 19.8393 77.963 20.166C77.8137 20.4927 77.739 20.866 77.739 21.286V21.328ZM86.8669 25.5C86.7269 25.5 86.6149 25.4673 86.5309 25.402C86.4562 25.3367 86.3955 25.2527 86.3489 25.15L83.7589 18.654C83.7402 18.6073 83.7309 18.5607 83.7309 18.514C83.7309 18.43 83.7589 18.36 83.8149 18.304C83.8709 18.248 83.9409 18.22 84.0249 18.22H84.6969C84.7995 18.22 84.8789 18.248 84.9349 18.304C84.9909 18.36 85.0235 18.4113 85.0329 18.458L87.1749 23.974L89.3029 18.458C89.3215 18.4113 89.3542 18.36 89.4009 18.304C89.4569 18.248 89.5362 18.22 89.6389 18.22H90.3249C90.3995 18.22 90.4649 18.248 90.5209 18.304C90.5862 18.36 90.6189 18.43 90.6189 18.514C90.6189 18.5607 90.6095 18.6073 90.5909 18.654L87.9869 25.15C87.9495 25.2527 87.8889 25.3367 87.8049 25.402C87.7302 25.4673 87.6182 25.5 87.4689 25.5H86.8669ZM94.7231 25.64C93.7617 25.64 92.9964 25.346 92.4271 24.758C91.8577 24.1607 91.5451 23.3487 91.4891 22.322C91.4797 22.2007 91.4751 22.0467 91.4751 21.86C91.4751 21.664 91.4797 21.5053 91.4891 21.384C91.5264 20.7213 91.6804 20.1427 91.9511 19.648C92.2217 19.144 92.5904 18.7567 93.0571 18.486C93.5331 18.2153 94.0884 18.08 94.7231 18.08C95.4324 18.08 96.0251 18.2293 96.5011 18.528C96.9864 18.8267 97.3551 19.2513 97.6071 19.802C97.8591 20.3527 97.9851 20.9967 97.9851 21.734V21.972C97.9851 22.0747 97.9524 22.154 97.8871 22.21C97.8311 22.266 97.7564 22.294 97.6631 22.294H92.8191C92.8191 22.3033 92.8191 22.322 92.8191 22.35C92.8191 22.378 92.8191 22.4013 92.8191 22.42C92.8377 22.8027 92.9217 23.162 93.0711 23.498C93.2204 23.8247 93.4351 24.0907 93.7151 24.296C93.9951 24.5013 94.3311 24.604 94.7231 24.604C95.0591 24.604 95.3391 24.5527 95.5631 24.45C95.7871 24.3473 95.9691 24.2353 96.1091 24.114C96.2491 23.9833 96.3424 23.8853 96.3891 23.82C96.4731 23.6987 96.5384 23.6287 96.5851 23.61C96.6317 23.582 96.7064 23.568 96.8091 23.568H97.4811C97.5744 23.568 97.6491 23.596 97.7051 23.652C97.7704 23.6987 97.7984 23.7687 97.7891 23.862C97.7797 24.002 97.7051 24.1747 97.5651 24.38C97.4251 24.576 97.2244 24.772 96.9631 24.968C96.7017 25.164 96.3844 25.3273 96.0111 25.458C95.6377 25.5793 95.2084 25.64 94.7231 25.64ZM92.8191 21.328H96.6551V21.286C96.6551 20.866 96.5757 20.4927 96.4171 20.166C96.2677 19.8393 96.0484 19.5827 95.7591 19.396C95.4697 19.2 95.1244 19.102 94.7231 19.102C94.3217 19.102 93.9764 19.2 93.6871 19.396C93.4071 19.5827 93.1924 19.8393 93.0431 20.166C92.8937 20.4927 92.8191 20.866 92.8191 21.286V21.328ZM99.981 25.5C99.8877 25.5 99.8084 25.472 99.743 25.416C99.687 25.3507 99.659 25.2713 99.659 25.178V18.556C99.659 18.4627 99.687 18.3833 99.743 18.318C99.8084 18.2527 99.8877 18.22 99.981 18.22H100.625C100.718 18.22 100.798 18.2527 100.863 18.318C100.928 18.3833 100.961 18.4627 100.961 18.556V19.172C101.148 18.8547 101.404 18.6167 101.731 18.458C102.058 18.2993 102.45 18.22 102.907 18.22H103.467C103.56 18.22 103.635 18.2527 103.691 18.318C103.747 18.374 103.775 18.4487 103.775 18.542V19.116C103.775 19.2093 103.747 19.284 103.691 19.34C103.635 19.396 103.56 19.424 103.467 19.424H102.627C102.123 19.424 101.726 19.5733 101.437 19.872C101.148 20.1613 101.003 20.558 101.003 21.062V25.178C101.003 25.2713 100.97 25.3507 100.905 25.416C100.84 25.472 100.76 25.5 100.667 25.5H99.981ZM105.299 25.5C105.206 25.5 105.127 25.472 105.061 25.416C105.005 25.3507 104.977 25.2713 104.977 25.178V18.542C104.977 18.4487 105.005 18.374 105.061 18.318C105.127 18.2527 105.206 18.22 105.299 18.22H105.971C106.065 18.22 106.139 18.2527 106.195 18.318C106.251 18.374 106.279 18.4487 106.279 18.542V25.178C106.279 25.2713 106.251 25.3507 106.195 25.416C106.139 25.472 106.065 25.5 105.971 25.5H105.299ZM105.187 16.862C105.094 16.862 105.015 16.834 104.949 16.778C104.893 16.7127 104.865 16.6333 104.865 16.54V15.784C104.865 15.6907 104.893 15.616 104.949 15.56C105.015 15.4947 105.094 15.462 105.187 15.462H106.069C106.163 15.462 106.237 15.4947 106.293 15.56C106.359 15.616 106.391 15.6907 106.391 15.784V16.54C106.391 16.6333 106.359 16.7127 106.293 16.778C106.237 16.834 106.163 16.862 106.069 16.862H105.187ZM111.21 25.5C110.687 25.5 110.263 25.402 109.936 25.206C109.609 25.0007 109.371 24.716 109.222 24.352C109.073 23.9787 108.998 23.54 108.998 23.036V19.34H107.906C107.813 19.34 107.733 19.312 107.668 19.256C107.612 19.1907 107.584 19.1113 107.584 19.018V18.542C107.584 18.4487 107.612 18.374 107.668 18.318C107.733 18.2527 107.813 18.22 107.906 18.22H108.998V15.882C108.998 15.7887 109.026 15.714 109.082 15.658C109.147 15.5927 109.227 15.56 109.32 15.56H109.978C110.071 15.56 110.146 15.5927 110.202 15.658C110.267 15.714 110.3 15.7887 110.3 15.882V18.22H112.036C112.129 18.22 112.204 18.2527 112.26 18.318C112.325 18.374 112.358 18.4487 112.358 18.542V19.018C112.358 19.1113 112.325 19.1907 112.26 19.256C112.204 19.312 112.129 19.34 112.036 19.34H110.3V22.938C110.3 23.3767 110.375 23.722 110.524 23.974C110.673 24.226 110.939 24.352 111.322 24.352H112.176C112.269 24.352 112.344 24.3847 112.4 24.45C112.465 24.506 112.498 24.5807 112.498 24.674V25.178C112.498 25.2713 112.465 25.3507 112.4 25.416C112.344 25.472 112.269 25.5 112.176 25.5H111.21ZM115.111 28.16C115.036 28.16 114.971 28.132 114.915 28.076C114.859 28.02 114.831 27.9547 114.831 27.88C114.831 27.8427 114.835 27.8053 114.845 27.768C114.854 27.7307 114.873 27.684 114.901 27.628L115.979 25.066L113.305 18.752C113.258 18.64 113.235 18.5607 113.235 18.514C113.235 18.43 113.263 18.36 113.319 18.304C113.375 18.248 113.445 18.22 113.529 18.22H114.215C114.308 18.22 114.383 18.2433 114.439 18.29C114.495 18.3367 114.532 18.3927 114.551 18.458L116.679 23.554L118.863 18.458C118.891 18.3927 118.928 18.3367 118.975 18.29C119.031 18.2433 119.11 18.22 119.213 18.22H119.871C119.955 18.22 120.025 18.248 120.081 18.304C120.137 18.36 120.165 18.4253 120.165 18.5C120.165 18.5467 120.141 18.6307 120.095 18.752L116.119 27.922C116.091 27.9873 116.049 28.0433 115.993 28.09C115.946 28.1367 115.871 28.16 115.769 28.16H115.111Z" fill="#333333"></path>
<path d="M68.428 47.5C68.3347 47.5 68.2553 47.472 68.19 47.416C68.1247 47.3507 68.092 47.2667 68.092 47.164V38.05C68.092 37.9473 68.1247 37.8633 68.19 37.798C68.2553 37.7327 68.3347 37.7 68.428 37.7H69.702C69.8047 37.7 69.884 37.7327 69.94 37.798C70.0053 37.8633 70.038 37.9473 70.038 38.05V41.662H74.168V38.05C74.168 37.9473 74.2007 37.8633 74.266 37.798C74.3313 37.7327 74.4107 37.7 74.504 37.7H75.764C75.8667 37.7 75.9507 37.7327 76.016 37.798C76.0813 37.8633 76.114 37.9473 76.114 38.05V47.164C76.114 47.2573 76.0813 47.3367 76.016 47.402C75.9507 47.4673 75.8667 47.5 75.764 47.5H74.504C74.4107 47.5 74.3313 47.4673 74.266 47.402C74.2007 47.3367 74.168 47.2573 74.168 47.164V43.412H70.038V47.164C70.038 47.2573 70.0053 47.3367 69.94 47.402C69.884 47.4673 69.8047 47.5 69.702 47.5H68.428ZM78.4592 47.5C78.3659 47.5 78.2866 47.4673 78.2212 47.402C78.1559 47.3367 78.1232 47.2573 78.1232 47.164V40.556C78.1232 40.4627 78.1559 40.3833 78.2212 40.318C78.2866 40.2527 78.3659 40.22 78.4592 40.22H79.6212C79.7239 40.22 79.8032 40.2527 79.8592 40.318C79.9246 40.3833 79.9572 40.4627 79.9572 40.556V47.164C79.9572 47.2573 79.9246 47.3367 79.8592 47.402C79.8032 47.4673 79.7239 47.5 79.6212 47.5H78.4592ZM78.4032 39.016C78.3006 39.016 78.2166 38.988 78.1512 38.932C78.0952 38.8667 78.0672 38.7827 78.0672 38.68V37.672C78.0672 37.5787 78.0952 37.4993 78.1512 37.434C78.2166 37.3687 78.3006 37.336 78.4032 37.336H79.6772C79.7799 37.336 79.8639 37.3687 79.9292 37.434C79.9946 37.4993 80.0272 37.5787 80.0272 37.672V38.68C80.0272 38.7827 79.9946 38.8667 79.9292 38.932C79.8639 38.988 79.7799 39.016 79.6772 39.016H78.4032ZM85.1046 50.58C84.4233 50.58 83.8633 50.4913 83.4246 50.314C82.986 50.1367 82.6406 49.922 82.3886 49.67C82.1366 49.418 81.9546 49.166 81.8426 48.914C81.74 48.6713 81.684 48.48 81.6746 48.34C81.6653 48.2467 81.6933 48.1627 81.7586 48.088C81.8333 48.0227 81.9173 47.99 82.0106 47.99H83.2286C83.322 47.99 83.3966 48.0087 83.4526 48.046C83.5086 48.0927 83.5553 48.172 83.5926 48.284C83.6486 48.4053 83.7233 48.536 83.8166 48.676C83.91 48.816 84.05 48.9327 84.2366 49.026C84.4326 49.1287 84.6986 49.18 85.0346 49.18C85.3893 49.18 85.688 49.1287 85.9306 49.026C86.1733 48.9233 86.3553 48.7507 86.4766 48.508C86.6073 48.2653 86.6726 47.9293 86.6726 47.5V46.548C86.4486 46.8187 86.1593 47.038 85.8046 47.206C85.4593 47.374 85.03 47.458 84.5166 47.458C84.0126 47.458 83.5786 47.3787 83.2146 47.22C82.8506 47.052 82.5473 46.8233 82.3046 46.534C82.062 46.2353 81.8753 45.8853 81.7446 45.484C81.6233 45.0827 81.5533 44.6393 81.5346 44.154C81.5253 43.902 81.5253 43.65 81.5346 43.398C81.5533 42.9313 81.6233 42.4973 81.7446 42.096C81.866 41.6947 82.048 41.3447 82.2906 41.046C82.5426 40.738 82.8506 40.5 83.2146 40.332C83.5786 40.164 84.0126 40.08 84.5166 40.08C85.0486 40.08 85.4966 40.1827 85.8606 40.388C86.2246 40.584 86.5233 40.8313 86.7566 41.13V40.57C86.7566 40.4673 86.7893 40.3833 86.8546 40.318C86.92 40.2527 86.9993 40.22 87.0926 40.22H88.2266C88.32 40.22 88.3993 40.2527 88.4646 40.318C88.53 40.3833 88.5626 40.4673 88.5626 40.57L88.5766 47.318C88.5766 47.99 88.4506 48.5687 88.1986 49.054C87.9466 49.5393 87.564 49.9127 87.0506 50.174C86.5466 50.4447 85.898 50.58 85.1046 50.58ZM85.0346 45.974C85.4173 45.974 85.7253 45.89 85.9586 45.722C86.192 45.554 86.3646 45.3347 86.4766 45.064C86.5886 44.7933 86.654 44.518 86.6726 44.238C86.682 44.1167 86.6866 43.9627 86.6866 43.776C86.6866 43.5893 86.682 43.44 86.6726 43.328C86.654 43.0387 86.5886 42.7633 86.4766 42.502C86.3646 42.2313 86.192 42.012 85.9586 41.844C85.7253 41.6667 85.4173 41.578 85.0346 41.578C84.652 41.578 84.344 41.6667 84.1106 41.844C83.8773 42.012 83.7093 42.236 83.6066 42.516C83.5133 42.796 83.4573 43.104 83.4386 43.44C83.42 43.664 83.42 43.8927 83.4386 44.126C83.4573 44.4527 83.5133 44.7607 83.6066 45.05C83.7093 45.33 83.8773 45.554 84.1106 45.722C84.344 45.89 84.652 45.974 85.0346 45.974ZM90.7916 47.5C90.6982 47.5 90.6189 47.4673 90.5536 47.402C90.4882 47.3367 90.4556 47.2573 90.4556 47.164V37.896C90.4556 37.8027 90.4882 37.7233 90.5536 37.658C90.6189 37.5927 90.6982 37.56 90.7916 37.56H92.0376C92.1402 37.56 92.2196 37.5927 92.2756 37.658C92.3409 37.7233 92.3736 37.8027 92.3736 37.896V41.088C92.6256 40.7893 92.9336 40.5467 93.2976 40.36C93.6616 40.1733 94.1096 40.08 94.6416 40.08C95.2109 40.08 95.7056 40.2107 96.1256 40.472C96.5549 40.724 96.8862 41.0833 97.1196 41.55C97.3529 42.0167 97.4696 42.5767 97.4696 43.23V47.164C97.4696 47.2573 97.4369 47.3367 97.3716 47.402C97.3062 47.4673 97.2269 47.5 97.1336 47.5H95.8736C95.7802 47.5 95.7009 47.4673 95.6356 47.402C95.5702 47.3367 95.5376 47.2573 95.5376 47.164V43.314C95.5376 42.7727 95.4022 42.348 95.1316 42.04C94.8702 41.732 94.4876 41.578 93.9836 41.578C93.4982 41.578 93.1062 41.732 92.8076 42.04C92.5182 42.348 92.3736 42.7727 92.3736 43.314V47.164C92.3736 47.2573 92.3409 47.3367 92.2756 47.402C92.2196 47.4673 92.1402 47.5 92.0376 47.5H90.7916Z" fill="#888D95"></path>
<defs>
<clipPath id="clip0_1_3716">
<rect x="16" y="12" width="39" height="39" rx="4" fill="white"></rect>
</clipPath>
</defs>
</svg>