<svg width="350" height="98" viewBox="0 0 350 98" fill="none" xmlns="http://www.w3.org/2000/svg">
<rect width="349.333" height="98" rx="8" fill="white"></rect>
<path d="M17.54 25C17.4373 25 17.358 24.972 17.302 24.916C17.246 24.8507 17.218 24.7713 17.218 24.678V15.536C17.218 15.4333 17.246 15.354 17.302 15.298C17.358 15.2327 17.4373 15.2 17.54 15.2H20.718C21.6793 15.2 22.454 15.3447 23.042 15.634C23.63 15.9233 24.0593 16.3527 24.33 16.922C24.6007 17.482 24.7407 18.1727 24.75 18.994C24.7593 19.414 24.764 19.7827 24.764 20.1C24.764 20.4173 24.7593 20.7813 24.75 21.192C24.7313 22.0507 24.5867 22.7647 24.316 23.334C24.0547 23.894 23.6347 24.314 23.056 24.594C22.4867 24.8647 21.7307 25 20.788 25H17.54ZM18.59 23.81H20.718C21.362 23.81 21.8753 23.7213 22.258 23.544C22.6407 23.3667 22.916 23.082 23.084 22.69C23.2613 22.298 23.3547 21.78 23.364 21.136C23.3827 20.856 23.392 20.6133 23.392 20.408C23.392 20.1933 23.392 19.9833 23.392 19.778C23.392 19.5633 23.3827 19.3207 23.364 19.05C23.3453 18.1447 23.1307 17.4773 22.72 17.048C22.3093 16.6093 21.6187 16.39 20.648 16.39H18.59V23.81ZM29.5863 25.14C28.625 25.14 27.8597 24.846 27.2903 24.258C26.721 23.6607 26.4083 22.8487 26.3523 21.822C26.343 21.7007 26.3383 21.5467 26.3383 21.36C26.3383 21.164 26.343 21.0053 26.3523 20.884C26.3897 20.2213 26.5437 19.6427 26.8143 19.148C27.085 18.644 27.4537 18.2567 27.9203 17.986C28.3963 17.7153 28.9517 17.58 29.5863 17.58C30.2957 17.58 30.8883 17.7293 31.3643 18.028C31.8497 18.3267 32.2183 18.7513 32.4703 19.302C32.7223 19.8527 32.8483 20.4967 32.8483 21.234V21.472C32.8483 21.5747 32.8157 21.654 32.7503 21.71C32.6943 21.766 32.6197 21.794 32.5263 21.794H27.6823C27.6823 21.8033 27.6823 21.822 27.6823 21.85C27.6823 21.878 27.6823 21.9013 27.6823 21.92C27.701 22.3027 27.785 22.662 27.9343 22.998C28.0837 23.3247 28.2983 23.5907 28.5783 23.796C28.8583 24.0013 29.1943 24.104 29.5863 24.104C29.9223 24.104 30.2023 24.0527 30.4263 23.95C30.6503 23.8473 30.8323 23.7353 30.9723 23.614C31.1123 23.4833 31.2057 23.3853 31.2523 23.32C31.3363 23.1987 31.4017 23.1287 31.4483 23.11C31.495 23.082 31.5697 23.068 31.6723 23.068H32.3443C32.4377 23.068 32.5123 23.096 32.5683 23.152C32.6337 23.1987 32.6617 23.2687 32.6523 23.362C32.643 23.502 32.5683 23.6747 32.4283 23.88C32.2883 24.076 32.0877 24.272 31.8263 24.468C31.565 24.664 31.2477 24.8273 30.8743 24.958C30.501 25.0793 30.0717 25.14 29.5863 25.14ZM27.6823 20.828H31.5183V20.786C31.5183 20.366 31.439 19.9927 31.2803 19.666C31.131 19.3393 30.9117 19.0827 30.6223 18.896C30.333 18.7 29.9877 18.602 29.5863 18.602C29.185 18.602 28.8397 18.7 28.5503 18.896C28.2703 19.0827 28.0557 19.3393 27.9063 19.666C27.757 19.9927 27.6823 20.366 27.6823 20.786V20.828ZM37.3233 25C36.8006 25 36.376 24.902 36.0493 24.706C35.7226 24.5007 35.4846 24.216 35.3353 23.852C35.186 23.4787 35.1113 23.04 35.1113 22.536V18.84H34.0193C33.926 18.84 33.8466 18.812 33.7813 18.756C33.7253 18.6907 33.6973 18.6113 33.6973 18.518V18.042C33.6973 17.9487 33.7253 17.874 33.7813 17.818C33.8466 17.7527 33.926 17.72 34.0193 17.72H35.1113V15.382C35.1113 15.2887 35.1393 15.214 35.1953 15.158C35.2606 15.0927 35.34 15.06 35.4333 15.06H36.0913C36.1846 15.06 36.2593 15.0927 36.3153 15.158C36.3806 15.214 36.4133 15.2887 36.4133 15.382V17.72H38.1493C38.2426 17.72 38.3173 17.7527 38.3733 17.818C38.4386 17.874 38.4713 17.9487 38.4713 18.042V18.518C38.4713 18.6113 38.4386 18.6907 38.3733 18.756C38.3173 18.812 38.2426 18.84 38.1493 18.84H36.4133V22.438C36.4133 22.8767 36.488 23.222 36.6373 23.474C36.7866 23.726 37.0526 23.852 37.4353 23.852H38.2893C38.3826 23.852 38.4573 23.8847 38.5133 23.95C38.5786 24.006 38.6113 24.0807 38.6113 24.174V24.678C38.6113 24.7713 38.5786 24.8507 38.5133 24.916C38.4573 24.972 38.3826 25 38.2893 25H37.3233ZM42.8481 25.14C41.8867 25.14 41.1214 24.846 40.5521 24.258C39.9827 23.6607 39.6701 22.8487 39.6141 21.822C39.6047 21.7007 39.6001 21.5467 39.6001 21.36C39.6001 21.164 39.6047 21.0053 39.6141 20.884C39.6514 20.2213 39.8054 19.6427 40.0761 19.148C40.3467 18.644 40.7154 18.2567 41.1821 17.986C41.6581 17.7153 42.2134 17.58 42.8481 17.58C43.5574 17.58 44.1501 17.7293 44.6261 18.028C45.1114 18.3267 45.4801 18.7513 45.7321 19.302C45.9841 19.8527 46.1101 20.4967 46.1101 21.234V21.472C46.1101 21.5747 46.0774 21.654 46.0121 21.71C45.9561 21.766 45.8814 21.794 45.7881 21.794H40.9441C40.9441 21.8033 40.9441 21.822 40.9441 21.85C40.9441 21.878 40.9441 21.9013 40.9441 21.92C40.9627 22.3027 41.0467 22.662 41.1961 22.998C41.3454 23.3247 41.5601 23.5907 41.8401 23.796C42.1201 24.0013 42.4561 24.104 42.8481 24.104C43.1841 24.104 43.4641 24.0527 43.6881 23.95C43.9121 23.8473 44.0941 23.7353 44.2341 23.614C44.3741 23.4833 44.4674 23.3853 44.5141 23.32C44.5981 23.1987 44.6634 23.1287 44.7101 23.11C44.7567 23.082 44.8314 23.068 44.9341 23.068H45.6061C45.6994 23.068 45.7741 23.096 45.8301 23.152C45.8954 23.1987 45.9234 23.2687 45.9141 23.362C45.9047 23.502 45.8301 23.6747 45.6901 23.88C45.5501 24.076 45.3494 24.272 45.0881 24.468C44.8267 24.664 44.5094 24.8273 44.1361 24.958C43.7627 25.0793 43.3334 25.14 42.8481 25.14ZM40.9441 20.828H44.7801V20.786C44.7801 20.366 44.7007 19.9927 44.5421 19.666C44.3927 19.3393 44.1734 19.0827 43.8841 18.896C43.5947 18.7 43.2494 18.602 42.8481 18.602C42.4467 18.602 42.1014 18.7 41.8121 18.896C41.5321 19.0827 41.3174 19.3393 41.1681 19.666C41.0187 19.9927 40.9441 20.366 40.9441 20.786V20.828ZM50.724 25.14C50.0614 25.14 49.4874 25.014 49.002 24.762C48.526 24.5007 48.1574 24.132 47.896 23.656C47.6347 23.1707 47.4947 22.592 47.476 21.92C47.4667 21.78 47.462 21.5933 47.462 21.36C47.462 21.1267 47.4667 20.94 47.476 20.8C47.4947 20.128 47.6347 19.554 47.896 19.078C48.1574 18.5927 48.526 18.224 49.002 17.972C49.4874 17.7107 50.0614 17.58 50.724 17.58C51.2654 17.58 51.7274 17.6547 52.11 17.804C52.502 17.9533 52.824 18.1447 53.076 18.378C53.328 18.6113 53.5147 18.8633 53.636 19.134C53.7667 19.4047 53.8367 19.6613 53.846 19.904C53.8554 19.9973 53.8274 20.072 53.762 20.128C53.6967 20.184 53.6174 20.212 53.524 20.212H52.852C52.7587 20.212 52.6887 20.1933 52.642 20.156C52.5954 20.1093 52.5487 20.0347 52.502 19.932C52.334 19.4747 52.1054 19.1527 51.816 18.966C51.5267 18.7793 51.1674 18.686 50.738 18.686C50.178 18.686 49.7207 18.8587 49.366 19.204C49.0207 19.5493 48.834 20.1047 48.806 20.87C48.7967 21.206 48.7967 21.5327 48.806 21.85C48.834 22.6247 49.0207 23.1847 49.366 23.53C49.7207 23.866 50.178 24.034 50.738 24.034C51.1674 24.034 51.5267 23.9407 51.816 23.754C52.1054 23.5673 52.334 23.2453 52.502 22.788C52.5487 22.6853 52.5954 22.6153 52.642 22.578C52.6887 22.5313 52.7587 22.508 52.852 22.508H53.524C53.6174 22.508 53.6967 22.536 53.762 22.592C53.8274 22.648 53.8554 22.7227 53.846 22.816C53.8367 23.012 53.7947 23.2127 53.72 23.418C53.6454 23.6233 53.524 23.8333 53.356 24.048C53.1974 24.2533 52.9967 24.44 52.754 24.608C52.5114 24.7667 52.2174 24.8973 51.872 25C51.536 25.0933 51.1534 25.14 50.724 25.14ZM58.3507 25C57.828 25 57.4033 24.902 57.0767 24.706C56.75 24.5007 56.512 24.216 56.3627 23.852C56.2133 23.4787 56.1387 23.04 56.1387 22.536V18.84H55.0467C54.9533 18.84 54.874 18.812 54.8087 18.756C54.7527 18.6907 54.7247 18.6113 54.7247 18.518V18.042C54.7247 17.9487 54.7527 17.874 54.8087 17.818C54.874 17.7527 54.9533 17.72 55.0467 17.72H56.1387V15.382C56.1387 15.2887 56.1667 15.214 56.2227 15.158C56.288 15.0927 56.3673 15.06 56.4607 15.06H57.1187C57.212 15.06 57.2867 15.0927 57.3427 15.158C57.408 15.214 57.4407 15.2887 57.4407 15.382V17.72H59.1767C59.27 17.72 59.3447 17.7527 59.4007 17.818C59.466 17.874 59.4987 17.9487 59.4987 18.042V18.518C59.4987 18.6113 59.466 18.6907 59.4007 18.756C59.3447 18.812 59.27 18.84 59.1767 18.84H57.4407V22.438C57.4407 22.8767 57.5153 23.222 57.6647 23.474C57.814 23.726 58.08 23.852 58.4627 23.852H59.3167C59.41 23.852 59.4847 23.8847 59.5407 23.95C59.606 24.006 59.6387 24.0807 59.6387 24.174V24.678C59.6387 24.7713 59.606 24.8507 59.5407 24.916C59.4847 24.972 59.41 25 59.3167 25H58.3507Z" fill="#333333"></path>
<path d="M16 26.12H59.9467V26.82H16V26.12Z" fill="#333333"></path>
<path d="M22.9594 36.8589C23.1156 37.387 22.8156 37.9464 22.2875 38.1026C19.8062 38.8433 18 41.1401 18 43.8558C18 47.1683 20.6875 49.8558 24 49.8558C27.3125 49.8558 30 47.1683 30 43.8558C30 41.1401 28.1938 38.8433 25.7156 38.1026C25.1875 37.9464 24.8844 37.387 25.0437 36.8589C25.2031 36.3308 25.7594 36.0276 26.2875 36.187C29.5906 37.1714 32 40.2308 32 43.8558C32 48.2745 28.4187 51.8558 24 51.8558C19.5813 51.8558 16 48.2745 16 43.8558C16 40.2308 18.4094 37.1714 21.7156 36.187C22.2437 36.0308 22.8031 36.3308 22.9594 36.8589Z" fill="#2D6AEC"></path>
<path d="M44.298 49.14C43.71 49.14 43.1967 49.07 42.758 48.93C42.3193 48.7807 41.9507 48.5847 41.652 48.342C41.3533 48.0993 41.1247 47.8333 40.966 47.544C40.8167 47.2547 40.7373 46.956 40.728 46.648C40.728 46.564 40.756 46.4987 40.812 46.452C40.868 46.4053 40.938 46.382 41.022 46.382H41.708C41.792 46.382 41.8667 46.4007 41.932 46.438C41.9973 46.4753 42.0533 46.5547 42.1 46.676C42.1933 47.012 42.352 47.2733 42.576 47.46C42.8093 47.6467 43.0753 47.7773 43.374 47.852C43.682 47.9173 43.99 47.95 44.298 47.95C44.942 47.95 45.4647 47.796 45.866 47.488C46.2673 47.18 46.468 46.7273 46.468 46.13C46.468 45.5233 46.286 45.0893 45.922 44.828C45.558 44.5667 45.054 44.436 44.41 44.436H43.08C42.9867 44.436 42.9073 44.408 42.842 44.352C42.786 44.296 42.758 44.2167 42.758 44.114V43.736C42.758 43.652 42.772 43.582 42.8 43.526C42.8373 43.4607 42.8747 43.4047 42.912 43.358L45.628 40.39H41.498C41.4047 40.39 41.3253 40.362 41.26 40.306C41.204 40.25 41.176 40.1707 41.176 40.068V39.536C41.176 39.4333 41.204 39.354 41.26 39.298C41.3253 39.2327 41.4047 39.2 41.498 39.2H47.084C47.1867 39.2 47.266 39.2327 47.322 39.298C47.3873 39.354 47.42 39.4333 47.42 39.536V40.04C47.42 40.1053 47.4013 40.166 47.364 40.222C47.336 40.2687 47.3033 40.3153 47.266 40.362L44.564 43.372H44.788C45.404 43.4 45.9407 43.5167 46.398 43.722C46.8647 43.9273 47.224 44.2353 47.476 44.646C47.7373 45.0473 47.868 45.556 47.868 46.172C47.868 46.7973 47.714 47.334 47.406 47.782C47.098 48.2207 46.6733 48.5567 46.132 48.79C45.5907 49.0233 44.9793 49.14 44.298 49.14ZM49.312 50.176C49.2373 50.176 49.172 50.148 49.116 50.092C49.06 50.036 49.032 49.9707 49.032 49.896C49.032 49.8493 49.046 49.7933 49.074 49.728L53.862 38.248C53.89 38.192 53.9273 38.136 53.974 38.08C54.03 38.024 54.114 37.996 54.226 37.996H54.772C54.8466 37.996 54.912 38.024 54.968 38.08C55.024 38.136 55.052 38.2013 55.052 38.276C55.052 38.3133 55.0426 38.3693 55.024 38.444L50.222 49.924C50.2033 49.9707 50.1613 50.022 50.096 50.078C50.04 50.1433 49.9606 50.176 49.858 50.176H49.312ZM59.8322 49.14C59.0575 49.14 58.3995 48.986 57.8582 48.678C57.3262 48.3607 56.9155 47.95 56.6262 47.446C56.3462 46.9327 56.2062 46.3773 56.2062 45.78C56.2062 45.5 56.2389 45.234 56.3042 44.982C56.3695 44.7207 56.4535 44.478 56.5562 44.254C56.6682 44.0207 56.7755 43.8153 56.8782 43.638C56.9902 43.4513 57.0882 43.302 57.1722 43.19L59.8462 39.48C59.8835 39.4333 59.9349 39.3773 60.0002 39.312C60.0655 39.2373 60.1635 39.2 60.2942 39.2H61.0362C61.1202 39.2 61.1855 39.2327 61.2322 39.298C61.2882 39.354 61.3162 39.424 61.3162 39.508C61.3162 39.5453 61.3115 39.5827 61.3022 39.62C61.2929 39.648 61.2789 39.6713 61.2602 39.69L59.2302 42.518C59.3422 42.49 59.4682 42.4713 59.6082 42.462C59.7482 42.4527 59.8742 42.448 59.9862 42.448C60.5089 42.448 60.9802 42.5367 61.4002 42.714C61.8295 42.8913 62.1935 43.134 62.4922 43.442C62.7909 43.7407 63.0195 44.0907 63.1782 44.492C63.3462 44.8933 63.4302 45.318 63.4302 45.766C63.4302 46.354 63.2902 46.9047 63.0102 47.418C62.7302 47.9313 62.3195 48.3467 61.7782 48.664C61.2462 48.9813 60.5975 49.14 59.8322 49.14ZM59.8182 47.95C60.2102 47.95 60.5742 47.866 60.9102 47.698C61.2462 47.53 61.5169 47.2873 61.7222 46.97C61.9369 46.6433 62.0442 46.2467 62.0442 45.78C62.0442 45.304 61.9415 44.9073 61.7362 44.59C61.5309 44.2633 61.2555 44.0207 60.9102 43.862C60.5742 43.694 60.2102 43.61 59.8182 43.61C59.4262 43.61 59.0622 43.694 58.7262 43.862C58.3902 44.0207 58.1149 44.2633 57.9002 44.59C57.6949 44.9073 57.5922 45.304 57.5922 45.78C57.5922 46.2467 57.6949 46.6433 57.9002 46.97C58.1149 47.2873 58.3902 47.53 58.7262 47.698C59.0622 47.866 59.4262 47.95 59.8182 47.95ZM71.085 49C70.5624 49 70.1377 48.902 69.811 48.706C69.4844 48.5007 69.2464 48.216 69.097 47.852C68.9477 47.4787 68.873 47.04 68.873 46.536V42.84H67.781C67.6877 42.84 67.6084 42.812 67.543 42.756C67.487 42.6907 67.459 42.6113 67.459 42.518V42.042C67.459 41.9487 67.487 41.874 67.543 41.818C67.6084 41.7527 67.6877 41.72 67.781 41.72H68.873V39.382C68.873 39.2887 68.901 39.214 68.957 39.158C69.0224 39.0927 69.1017 39.06 69.195 39.06H69.853C69.9464 39.06 70.021 39.0927 70.077 39.158C70.1424 39.214 70.175 39.2887 70.175 39.382V41.72H71.911C72.0044 41.72 72.079 41.7527 72.135 41.818C72.2004 41.874 72.233 41.9487 72.233 42.042V42.518C72.233 42.6113 72.2004 42.6907 72.135 42.756C72.079 42.812 72.0044 42.84 71.911 42.84H70.175V46.438C70.175 46.8767 70.2497 47.222 70.399 47.474C70.5484 47.726 70.8144 47.852 71.197 47.852H72.051C72.1444 47.852 72.219 47.8847 72.275 47.95C72.3404 48.006 72.373 48.0807 72.373 48.174V48.678C72.373 48.7713 72.3404 48.8507 72.275 48.916C72.219 48.972 72.1444 49 72.051 49H71.085ZM75.7418 49.14C75.2751 49.14 74.8504 49.0467 74.4678 48.86C74.0851 48.6733 73.7771 48.4213 73.5438 48.104C73.3104 47.7867 73.1938 47.4273 73.1938 47.026C73.1938 46.382 73.4551 45.8687 73.9778 45.486C74.5004 45.1033 75.1818 44.8513 76.0218 44.73L78.1078 44.436V44.03C78.1078 43.582 77.9771 43.232 77.7158 42.98C77.4638 42.728 77.0484 42.602 76.4698 42.602C76.0498 42.602 75.7091 42.686 75.4478 42.854C75.1958 43.022 75.0184 43.2367 74.9158 43.498C74.8598 43.638 74.7618 43.708 74.6218 43.708H73.9918C73.8891 43.708 73.8098 43.68 73.7538 43.624C73.7071 43.5587 73.6838 43.484 73.6838 43.4C73.6838 43.26 73.7351 43.0873 73.8378 42.882C73.9498 42.6767 74.1178 42.476 74.3418 42.28C74.5658 42.084 74.8504 41.9207 75.1958 41.79C75.5504 41.65 75.9798 41.58 76.4838 41.58C77.0438 41.58 77.5151 41.6547 77.8978 41.804C78.2804 41.944 78.5791 42.1353 78.7938 42.378C79.0178 42.6207 79.1764 42.896 79.2698 43.204C79.3724 43.512 79.4238 43.8247 79.4238 44.142V48.678C79.4238 48.7713 79.3911 48.8507 79.3258 48.916C79.2698 48.972 79.1951 49 79.1018 49H78.4578C78.3551 49 78.2758 48.972 78.2198 48.916C78.1638 48.8507 78.1358 48.7713 78.1358 48.678V48.076C78.0144 48.244 77.8511 48.412 77.6458 48.58C77.4404 48.7387 77.1838 48.874 76.8758 48.986C76.5678 49.0887 76.1898 49.14 75.7418 49.14ZM76.0358 48.09C76.4184 48.09 76.7684 48.0107 77.0858 47.852C77.4031 47.684 77.6504 47.4273 77.8278 47.082C78.0144 46.7367 78.1078 46.3027 78.1078 45.78V45.388L76.4838 45.626C75.8211 45.7193 75.3218 45.878 74.9858 46.102C74.6498 46.3167 74.4818 46.592 74.4818 46.928C74.4818 47.1893 74.5564 47.4087 74.7058 47.586C74.8644 47.754 75.0604 47.88 75.2938 47.964C75.5364 48.048 75.7838 48.09 76.0358 48.09ZM83.9564 49.14C83.4337 49.14 82.9857 49.0747 82.6124 48.944C82.2391 48.8133 81.9357 48.6547 81.7024 48.468C81.4691 48.2813 81.2917 48.0947 81.1704 47.908C81.0584 47.7213 80.9977 47.572 80.9884 47.46C80.9791 47.3573 81.0117 47.278 81.0864 47.222C81.1611 47.166 81.2357 47.138 81.3104 47.138H81.9264C81.9824 47.138 82.0244 47.1473 82.0524 47.166C82.0897 47.1753 82.1364 47.2127 82.1924 47.278C82.3137 47.4087 82.4491 47.5393 82.5984 47.67C82.7477 47.8007 82.9297 47.908 83.1444 47.992C83.3684 48.076 83.6437 48.118 83.9704 48.118C84.4464 48.118 84.8384 48.0293 85.1464 47.852C85.4544 47.6653 85.6084 47.3947 85.6084 47.04C85.6084 46.8067 85.5431 46.62 85.4124 46.48C85.2911 46.34 85.0671 46.214 84.7404 46.102C84.4231 45.99 83.9844 45.8733 83.4244 45.752C82.8644 45.6213 82.4211 45.4627 82.0944 45.276C81.7677 45.08 81.5344 44.8513 81.3944 44.59C81.2544 44.3193 81.1844 44.016 81.1844 43.68C81.1844 43.3347 81.2871 43.0033 81.4924 42.686C81.6977 42.3593 81.9964 42.0933 82.3884 41.888C82.7897 41.6827 83.2891 41.58 83.8864 41.58C84.3717 41.58 84.7871 41.6407 85.1324 41.762C85.4777 41.8833 85.7624 42.0373 85.9864 42.224C86.2104 42.4013 86.3784 42.5787 86.4904 42.756C86.6024 42.9333 86.6631 43.0827 86.6724 43.204C86.6817 43.2973 86.6537 43.3767 86.5884 43.442C86.5231 43.498 86.4484 43.526 86.3644 43.526H85.7764C85.7111 43.526 85.6551 43.512 85.6084 43.484C85.5711 43.456 85.5337 43.4233 85.4964 43.386C85.4031 43.2647 85.2911 43.1433 85.1604 43.022C85.0391 42.9007 84.8757 42.8027 84.6704 42.728C84.4744 42.644 84.2131 42.602 83.8864 42.602C83.4197 42.602 83.0697 42.7 82.8364 42.896C82.6031 43.092 82.4864 43.3393 82.4864 43.638C82.4864 43.8153 82.5377 43.974 82.6404 44.114C82.7431 44.254 82.9391 44.38 83.2284 44.492C83.5177 44.604 83.9471 44.7253 84.5164 44.856C85.1324 44.9773 85.6177 45.1407 85.9724 45.346C86.3271 45.5513 86.5791 45.7893 86.7284 46.06C86.8777 46.3307 86.9524 46.6433 86.9524 46.998C86.9524 47.39 86.8357 47.7493 86.6024 48.076C86.3784 48.4027 86.0424 48.664 85.5944 48.86C85.1557 49.0467 84.6097 49.14 83.9564 49.14ZM88.9091 49C88.8158 49 88.7364 48.972 88.6711 48.916C88.6151 48.8507 88.5871 48.7713 88.5871 48.678V39.382C88.5871 39.2887 88.6151 39.214 88.6711 39.158C88.7364 39.0927 88.8158 39.06 88.9091 39.06H89.5671C89.6604 39.06 89.7351 39.0927 89.7911 39.158C89.8564 39.214 89.8891 39.2887 89.8891 39.382V44.254L92.6471 41.958C92.7591 41.8647 92.8431 41.804 92.8991 41.776C92.9644 41.7387 93.0671 41.72 93.2071 41.72H93.9491C94.0331 41.72 94.1031 41.748 94.1591 41.804C94.2151 41.86 94.2431 41.93 94.2431 42.014C94.2431 42.0513 94.2291 42.0933 94.2011 42.14C94.1824 42.1867 94.1404 42.2333 94.0751 42.28L90.8411 44.968L94.4251 48.454C94.5371 48.5473 94.5931 48.6313 94.5931 48.706C94.5931 48.79 94.5651 48.86 94.5091 48.916C94.4531 48.972 94.3831 49 94.2991 49H93.5711C93.4311 49 93.3284 48.986 93.2631 48.958C93.1978 48.9207 93.1138 48.8553 93.0111 48.762L89.8891 45.78V48.678C89.8891 48.7713 89.8564 48.8507 89.7911 48.916C89.7351 48.972 89.6604 49 89.5671 49H88.9091ZM98.1751 49.14C97.6525 49.14 97.2045 49.0747 96.8311 48.944C96.4578 48.8133 96.1545 48.6547 95.9211 48.468C95.6878 48.2813 95.5105 48.0947 95.3891 47.908C95.2771 47.7213 95.2165 47.572 95.2071 47.46C95.1978 47.3573 95.2305 47.278 95.3051 47.222C95.3798 47.166 95.4545 47.138 95.5291 47.138H96.1451C96.2011 47.138 96.2431 47.1473 96.2711 47.166C96.3085 47.1753 96.3551 47.2127 96.4111 47.278C96.5325 47.4087 96.6678 47.5393 96.8171 47.67C96.9665 47.8007 97.1485 47.908 97.3631 47.992C97.5871 48.076 97.8625 48.118 98.1891 48.118C98.6651 48.118 99.0571 48.0293 99.3651 47.852C99.6731 47.6653 99.8271 47.3947 99.8271 47.04C99.8271 46.8067 99.7618 46.62 99.6311 46.48C99.5098 46.34 99.2858 46.214 98.9591 46.102C98.6418 45.99 98.2031 45.8733 97.6431 45.752C97.0831 45.6213 96.6398 45.4627 96.3131 45.276C95.9865 45.08 95.7531 44.8513 95.6131 44.59C95.4731 44.3193 95.4031 44.016 95.4031 43.68C95.4031 43.3347 95.5058 43.0033 95.7111 42.686C95.9165 42.3593 96.2151 42.0933 96.6071 41.888C97.0085 41.6827 97.5078 41.58 98.1051 41.58C98.5905 41.58 99.0058 41.6407 99.3511 41.762C99.6965 41.8833 99.9811 42.0373 100.205 42.224C100.429 42.4013 100.597 42.5787 100.709 42.756C100.821 42.9333 100.882 43.0827 100.891 43.204C100.9 43.2973 100.872 43.3767 100.807 43.442C100.742 43.498 100.667 43.526 100.583 43.526H99.9951C99.9298 43.526 99.8738 43.512 99.8271 43.484C99.7898 43.456 99.7525 43.4233 99.7151 43.386C99.6218 43.2647 99.5098 43.1433 99.3791 43.022C99.2578 42.9007 99.0945 42.8027 98.8891 42.728C98.6931 42.644 98.4318 42.602 98.1051 42.602C97.6385 42.602 97.2885 42.7 97.0551 42.896C96.8218 43.092 96.7051 43.3393 96.7051 43.638C96.7051 43.8153 96.7565 43.974 96.8591 44.114C96.9618 44.254 97.1578 44.38 97.4471 44.492C97.7365 44.604 98.1658 44.7253 98.7351 44.856C99.3511 44.9773 99.8365 45.1407 100.191 45.346C100.546 45.5513 100.798 45.7893 100.947 46.06C101.096 46.3307 101.171 46.6433 101.171 46.998C101.171 47.39 101.054 47.7493 100.821 48.076C100.597 48.4027 100.261 48.664 99.8131 48.86C99.3745 49.0467 98.8285 49.14 98.1751 49.14Z" fill="#333333"></path>
<line x1="110.5" y1="38" x2="110.5" y2="52" stroke="#AEB1B6"></line>
<path d="M119.232 49C119.129 49 119.05 48.972 118.994 48.916C118.938 48.8507 118.91 48.7713 118.91 48.678V48.23C118.91 48.146 118.933 48.0527 118.98 47.95C119.027 47.8473 119.12 47.7353 119.26 47.614L122.228 44.646C122.695 44.254 123.068 43.9133 123.348 43.624C123.628 43.3347 123.824 43.0593 123.936 42.798C124.057 42.5367 124.118 42.266 124.118 41.986C124.118 41.454 123.969 41.034 123.67 40.726C123.371 40.4087 122.928 40.25 122.34 40.25C121.967 40.25 121.645 40.3293 121.374 40.488C121.103 40.6373 120.889 40.8473 120.73 41.118C120.581 41.3793 120.483 41.678 120.436 42.014C120.417 42.1353 120.366 42.2193 120.282 42.266C120.207 42.3127 120.137 42.336 120.072 42.336H119.344C119.251 42.336 119.176 42.3127 119.12 42.266C119.073 42.21 119.05 42.1447 119.05 42.07C119.059 41.7153 119.134 41.3607 119.274 41.006C119.414 40.642 119.619 40.3153 119.89 40.026C120.161 39.7367 120.501 39.5033 120.912 39.326C121.323 39.1393 121.799 39.046 122.34 39.046C123.077 39.046 123.679 39.1813 124.146 39.452C124.613 39.7133 124.958 40.0633 125.182 40.502C125.406 40.9407 125.518 41.4213 125.518 41.944C125.518 42.3547 125.448 42.7327 125.308 43.078C125.177 43.414 124.977 43.7453 124.706 44.072C124.445 44.3893 124.118 44.716 123.726 45.052L121.038 47.782H125.406C125.509 47.782 125.588 47.81 125.644 47.866C125.7 47.922 125.728 48.0013 125.728 48.104V48.678C125.728 48.7713 125.7 48.8507 125.644 48.916C125.588 48.972 125.509 49 125.406 49H119.232ZM130.364 49.14C129.851 49.14 129.407 49.0513 129.034 48.874C128.661 48.6873 128.353 48.44 128.11 48.132C127.877 47.8147 127.699 47.4553 127.578 47.054C127.466 46.6527 127.401 46.228 127.382 45.78C127.373 45.6307 127.368 45.4907 127.368 45.36C127.368 45.2293 127.373 45.0893 127.382 44.94C127.401 44.5013 127.466 44.0813 127.578 43.68C127.699 43.2787 127.877 42.9193 128.11 42.602C128.353 42.2847 128.661 42.0373 129.034 41.86C129.407 41.6733 129.851 41.58 130.364 41.58C130.915 41.58 131.372 41.678 131.736 41.874C132.1 42.07 132.399 42.3127 132.632 42.602V39.382C132.632 39.2887 132.66 39.214 132.716 39.158C132.781 39.0927 132.861 39.06 132.954 39.06H133.626C133.719 39.06 133.794 39.0927 133.85 39.158C133.915 39.214 133.948 39.2887 133.948 39.382V48.678C133.948 48.7713 133.915 48.8507 133.85 48.916C133.794 48.972 133.719 49 133.626 49H132.996C132.893 49 132.814 48.972 132.758 48.916C132.702 48.8507 132.674 48.7713 132.674 48.678V48.09C132.441 48.3887 132.137 48.6407 131.764 48.846C131.391 49.042 130.924 49.14 130.364 49.14ZM130.658 48.006C131.125 48.006 131.498 47.8987 131.778 47.684C132.058 47.4693 132.268 47.1987 132.408 46.872C132.548 46.536 132.623 46.1953 132.632 45.85C132.641 45.7007 132.646 45.5233 132.646 45.318C132.646 45.1033 132.641 44.9213 132.632 44.772C132.623 44.4453 132.543 44.1233 132.394 43.806C132.254 43.4887 132.039 43.2273 131.75 43.022C131.47 42.8167 131.106 42.714 130.658 42.714C130.182 42.714 129.804 42.8213 129.524 43.036C129.244 43.2413 129.043 43.5167 128.922 43.862C128.801 44.198 128.731 44.562 128.712 44.954C128.703 45.2247 128.703 45.4953 128.712 45.766C128.731 46.158 128.801 46.5267 128.922 46.872C129.043 47.208 129.244 47.4833 129.524 47.698C129.804 47.9033 130.182 48.006 130.658 48.006ZM142.682 49.14C141.944 49.14 141.319 49.014 140.806 48.762C140.302 48.5007 139.914 48.1647 139.644 47.754C139.382 47.3433 139.242 46.9093 139.224 46.452C139.214 46.368 139.238 46.3027 139.294 46.256C139.359 46.2093 139.434 46.186 139.518 46.186H140.26C140.344 46.186 140.418 46.2047 140.484 46.242C140.549 46.2793 140.6 46.3587 140.638 46.48C140.74 46.8253 140.894 47.11 141.1 47.334C141.305 47.5487 141.543 47.7073 141.814 47.81C142.094 47.9033 142.383 47.95 142.682 47.95C143.083 47.95 143.447 47.8707 143.774 47.712C144.11 47.544 144.376 47.3013 144.572 46.984C144.777 46.6573 144.88 46.2653 144.88 45.808C144.88 45.388 144.782 45.0287 144.586 44.73C144.39 44.422 144.124 44.1887 143.788 44.03C143.461 43.862 143.092 43.778 142.682 43.778C142.374 43.778 142.122 43.8153 141.926 43.89C141.73 43.9647 141.562 44.0533 141.422 44.156C141.291 44.2587 141.17 44.3473 141.058 44.422C140.955 44.4967 140.838 44.534 140.708 44.534H139.98C139.896 44.534 139.821 44.5013 139.756 44.436C139.69 44.3707 139.662 44.296 139.672 44.212L140.12 39.55C140.129 39.438 140.166 39.354 140.232 39.298C140.297 39.2327 140.376 39.2 140.47 39.2H145.356C145.449 39.2 145.524 39.2327 145.58 39.298C145.645 39.354 145.678 39.4287 145.678 39.522V40.068C145.678 40.1707 145.645 40.25 145.58 40.306C145.524 40.362 145.449 40.39 145.356 40.39H141.324L141.072 43.148C141.202 43.064 141.408 42.966 141.688 42.854C141.977 42.7327 142.378 42.672 142.892 42.672C143.349 42.672 143.778 42.742 144.18 42.882C144.59 43.022 144.95 43.2273 145.258 43.498C145.575 43.7687 145.822 44.1 146 44.492C146.177 44.8747 146.266 45.318 146.266 45.822C146.266 46.5313 146.112 47.1333 145.804 47.628C145.496 48.1227 145.071 48.5007 144.53 48.762C143.998 49.014 143.382 49.14 142.682 49.14ZM148.466 49C148.372 49 148.293 48.972 148.228 48.916C148.172 48.8507 148.144 48.7713 148.144 48.678V39.382C148.144 39.2887 148.172 39.214 148.228 39.158C148.293 39.0927 148.372 39.06 148.466 39.06H149.166C149.268 39.06 149.348 39.0927 149.404 39.158C149.46 39.214 149.488 39.2887 149.488 39.382V42.644C149.74 42.3267 150.048 42.07 150.412 41.874C150.776 41.678 151.238 41.58 151.798 41.58C152.404 41.58 152.918 41.7153 153.338 41.986C153.767 42.2473 154.089 42.616 154.304 43.092C154.528 43.5587 154.64 44.1047 154.64 44.73V48.678C154.64 48.7713 154.612 48.8507 154.556 48.916C154.5 48.972 154.42 49 154.318 49H153.618C153.524 49 153.445 48.972 153.38 48.916C153.324 48.8507 153.296 48.7713 153.296 48.678V44.8C153.296 44.1467 153.137 43.638 152.82 43.274C152.502 42.9007 152.036 42.714 151.42 42.714C150.841 42.714 150.374 42.9007 150.02 43.274C149.665 43.638 149.488 44.1467 149.488 44.8V48.678C149.488 48.7713 149.46 48.8507 149.404 48.916C149.348 48.972 149.268 49 149.166 49H148.466Z" fill="#6D727B"></path>
<rect x="16" y="60" width="317.333" height="6" rx="2" fill="#B9CDF8"></rect>
<rect x="16" y="60" width="86" height="6" rx="2" fill="#4C86FF"></rect>
<path d="M17.54 83C17.4373 83 17.358 82.972 17.302 82.916C17.246 82.8507 17.218 82.7713 17.218 82.678V73.522C17.218 73.4287 17.246 73.354 17.302 73.298C17.358 73.2327 17.4373 73.2 17.54 73.2H18.282C18.3753 73.2 18.45 73.2327 18.506 73.298C18.5713 73.354 18.604 73.4287 18.604 73.522V82.678C18.604 82.7713 18.5713 82.8507 18.506 82.916C18.45 82.972 18.3753 83 18.282 83H17.54ZM21.1861 83C21.0928 83 21.0135 82.972 20.9481 82.916C20.8921 82.8507 20.8641 82.7713 20.8641 82.678V76.042C20.8641 75.9487 20.8921 75.874 20.9481 75.818C21.0135 75.7527 21.0928 75.72 21.1861 75.72H21.8441C21.9375 75.72 22.0121 75.7527 22.0681 75.818C22.1335 75.874 22.1661 75.9487 22.1661 76.042V76.658C22.4088 76.3407 22.7121 76.084 23.0761 75.888C23.4495 75.6827 23.9255 75.58 24.5041 75.58C25.1108 75.58 25.6241 75.7153 26.0441 75.986C26.4735 76.2473 26.7955 76.616 27.0101 77.092C27.2248 77.5587 27.3321 78.1047 27.3321 78.73V82.678C27.3321 82.7713 27.3041 82.8507 27.2481 82.916C27.1921 82.972 27.1175 83 27.0241 83H26.3241C26.2308 83 26.1515 82.972 26.0861 82.916C26.0301 82.8507 26.0021 82.7713 26.0021 82.678V78.8C26.0021 78.1467 25.8435 77.638 25.5261 77.274C25.2088 76.9007 24.7421 76.714 24.1261 76.714C23.5475 76.714 23.0808 76.9007 22.7261 77.274C22.3808 77.638 22.2081 78.1467 22.2081 78.8V82.678C22.2081 82.7713 22.1755 82.8507 22.1101 82.916C22.0541 82.972 21.9795 83 21.8861 83H21.1861ZM33.122 85.66C33.0287 85.66 32.9493 85.6273 32.884 85.562C32.828 85.506 32.8 85.4313 32.8 85.338V76.042C32.8 75.9487 32.828 75.874 32.884 75.818C32.9493 75.7527 33.0287 75.72 33.122 75.72H33.766C33.8593 75.72 33.934 75.7527 33.99 75.818C34.0553 75.874 34.088 75.9487 34.088 76.042V76.658C34.312 76.35 34.6107 76.0933 34.984 75.888C35.3573 75.6827 35.824 75.58 36.384 75.58C36.9067 75.58 37.35 75.6687 37.714 75.846C38.0873 76.0233 38.3907 76.266 38.624 76.574C38.8667 76.882 39.0487 77.232 39.17 77.624C39.2913 78.016 39.3567 78.436 39.366 78.884C39.3753 79.0333 39.38 79.192 39.38 79.36C39.38 79.528 39.3753 79.6867 39.366 79.836C39.3567 80.2747 39.2913 80.6947 39.17 81.096C39.0487 81.488 38.8667 81.838 38.624 82.146C38.3907 82.4447 38.0873 82.6873 37.714 82.874C37.35 83.0513 36.9067 83.14 36.384 83.14C35.8427 83.14 35.3853 83.042 35.012 82.846C34.648 82.6407 34.3493 82.3887 34.116 82.09V85.338C34.116 85.4313 34.088 85.506 34.032 85.562C33.976 85.6273 33.8967 85.66 33.794 85.66H33.122ZM36.09 82.006C36.5753 82.006 36.9533 81.9033 37.224 81.698C37.504 81.4833 37.7047 81.208 37.826 80.872C37.9473 80.5267 38.0173 80.158 38.036 79.766C38.0453 79.4953 38.0453 79.2247 38.036 78.954C38.0173 78.562 37.9473 78.198 37.826 77.862C37.7047 77.5167 37.504 77.2413 37.224 77.036C36.9533 76.8213 36.5753 76.714 36.09 76.714C35.6327 76.714 35.2593 76.8213 34.97 77.036C34.69 77.2507 34.48 77.526 34.34 77.862C34.2093 78.1887 34.1347 78.5247 34.116 78.87C34.1067 79.0193 34.102 79.1967 34.102 79.402C34.102 79.6073 34.1067 79.7893 34.116 79.948C34.1253 80.2747 34.2 80.5967 34.34 80.914C34.4893 81.2313 34.7087 81.4927 34.998 81.698C35.2873 81.9033 35.6513 82.006 36.09 82.006ZM41.4478 83C41.3545 83 41.2752 82.972 41.2098 82.916C41.1538 82.8507 41.1258 82.7713 41.1258 82.678V76.056C41.1258 75.9627 41.1538 75.8833 41.2098 75.818C41.2752 75.7527 41.3545 75.72 41.4478 75.72H42.0918C42.1852 75.72 42.2645 75.7527 42.3298 75.818C42.3952 75.8833 42.4278 75.9627 42.4278 76.056V76.672C42.6145 76.3547 42.8712 76.1167 43.1978 75.958C43.5245 75.7993 43.9165 75.72 44.3738 75.72H44.9338C45.0272 75.72 45.1018 75.7527 45.1578 75.818C45.2138 75.874 45.2418 75.9487 45.2418 76.042V76.616C45.2418 76.7093 45.2138 76.784 45.1578 76.84C45.1018 76.896 45.0272 76.924 44.9338 76.924H44.0938C43.5898 76.924 43.1932 77.0733 42.9038 77.372C42.6145 77.6613 42.4698 78.058 42.4698 78.562V82.678C42.4698 82.7713 42.4372 82.8507 42.3718 82.916C42.3065 82.972 42.2272 83 42.1338 83H41.4478ZM49.2895 83.14C48.5802 83.14 47.9875 83.0047 47.5115 82.734C47.0355 82.4633 46.6715 82.09 46.4195 81.614C46.1675 81.1287 46.0275 80.578 45.9995 79.962C45.9902 79.8033 45.9855 79.6027 45.9855 79.36C45.9855 79.108 45.9902 78.9073 45.9995 78.758C46.0275 78.1327 46.1675 77.582 46.4195 77.106C46.6808 76.63 47.0495 76.2567 47.5255 75.986C48.0015 75.7153 48.5895 75.58 49.2895 75.58C49.9895 75.58 50.5775 75.7153 51.0535 75.986C51.5295 76.2567 51.8935 76.63 52.1455 77.106C52.4068 77.582 52.5515 78.1327 52.5795 78.758C52.5888 78.9073 52.5935 79.108 52.5935 79.36C52.5935 79.6027 52.5888 79.8033 52.5795 79.962C52.5515 80.578 52.4115 81.1287 52.1595 81.614C51.9075 82.09 51.5435 82.4633 51.0675 82.734C50.5915 83.0047 49.9988 83.14 49.2895 83.14ZM49.2895 82.062C49.8682 82.062 50.3302 81.88 50.6755 81.516C51.0208 81.1427 51.2075 80.6013 51.2355 79.892C51.2448 79.752 51.2495 79.5747 51.2495 79.36C51.2495 79.1453 51.2448 78.968 51.2355 78.828C51.2075 78.1187 51.0208 77.582 50.6755 77.218C50.3302 76.8447 49.8682 76.658 49.2895 76.658C48.7108 76.658 48.2442 76.8447 47.8895 77.218C47.5442 77.582 47.3622 78.1187 47.3435 78.828C47.3342 78.968 47.3295 79.1453 47.3295 79.36C47.3295 79.5747 47.3342 79.752 47.3435 79.892C47.3622 80.6013 47.5442 81.1427 47.8895 81.516C48.2442 81.88 48.7108 82.062 49.2895 82.062ZM57.3285 86.08C56.6939 86.08 56.1712 85.996 55.7605 85.828C55.3592 85.66 55.0419 85.4547 54.8085 85.212C54.5845 84.9787 54.4212 84.7407 54.3185 84.498C54.2252 84.2647 54.1739 84.078 54.1645 83.938C54.1552 83.8447 54.1832 83.7653 54.2485 83.7C54.3232 83.6347 54.4025 83.602 54.4865 83.602H55.1585C55.2425 83.602 55.3125 83.6207 55.3685 83.658C55.4245 83.6953 55.4712 83.7747 55.5085 83.896C55.5645 84.036 55.6485 84.19 55.7605 84.358C55.8725 84.5353 56.0452 84.6847 56.2785 84.806C56.5119 84.9367 56.8385 85.002 57.2585 85.002C57.6972 85.002 58.0659 84.9413 58.3645 84.82C58.6632 84.708 58.8872 84.5027 59.0365 84.204C59.1952 83.9147 59.2745 83.5133 59.2745 83V82.048C59.0505 82.3373 58.7565 82.58 58.3925 82.776C58.0285 82.9627 57.5712 83.056 57.0205 83.056C56.4979 83.056 56.0499 82.9673 55.6765 82.79C55.3032 82.6033 54.9952 82.356 54.7525 82.048C54.5192 81.7307 54.3419 81.3713 54.2205 80.97C54.1085 80.5687 54.0432 80.1487 54.0245 79.71C54.0152 79.4487 54.0152 79.192 54.0245 78.94C54.0432 78.5013 54.1085 78.0813 54.2205 77.68C54.3419 77.2787 54.5192 76.9193 54.7525 76.602C54.9952 76.2847 55.3032 76.0373 55.6765 75.86C56.0499 75.6733 56.4979 75.58 57.0205 75.58C57.5805 75.58 58.0425 75.6873 58.4065 75.902C58.7799 76.1073 59.0832 76.3593 59.3165 76.658V76.056C59.3165 75.9627 59.3445 75.8833 59.4005 75.818C59.4659 75.7527 59.5452 75.72 59.6385 75.72H60.2825C60.3759 75.72 60.4552 75.7527 60.5205 75.818C60.5859 75.8833 60.6185 75.9627 60.6185 76.056V82.846C60.6185 83.4713 60.5112 84.0267 60.2965 84.512C60.0912 84.9973 59.7459 85.38 59.2605 85.66C58.7845 85.94 58.1405 86.08 57.3285 86.08ZM57.3005 81.936C57.7672 81.936 58.1405 81.8287 58.4205 81.614C58.7099 81.3993 58.9199 81.1287 59.0505 80.802C59.1905 80.4753 59.2652 80.144 59.2745 79.808C59.2839 79.6773 59.2885 79.5187 59.2885 79.332C59.2885 79.136 59.2839 78.9727 59.2745 78.842C59.2652 78.506 59.1905 78.1747 59.0505 77.848C58.9199 77.5213 58.7099 77.2507 58.4205 77.036C58.1405 76.8213 57.7672 76.714 57.3005 76.714C56.8339 76.714 56.4605 76.8213 56.1805 77.036C55.9005 77.2413 55.6999 77.5167 55.5785 77.862C55.4572 78.198 55.3872 78.562 55.3685 78.954C55.3592 79.1967 55.3592 79.444 55.3685 79.696C55.3872 80.088 55.4572 80.4567 55.5785 80.802C55.6999 81.138 55.9005 81.4133 56.1805 81.628C56.4605 81.8333 56.8339 81.936 57.3005 81.936ZM63.0221 83C62.9287 83 62.8494 82.972 62.7841 82.916C62.7281 82.8507 62.7001 82.7713 62.7001 82.678V76.056C62.7001 75.9627 62.7281 75.8833 62.7841 75.818C62.8494 75.7527 62.9287 75.72 63.0221 75.72H63.6661C63.7594 75.72 63.8387 75.7527 63.9041 75.818C63.9694 75.8833 64.0021 75.9627 64.0021 76.056V76.672C64.1887 76.3547 64.4454 76.1167 64.7721 75.958C65.0987 75.7993 65.4907 75.72 65.9481 75.72H66.5081C66.6014 75.72 66.6761 75.7527 66.7321 75.818C66.7881 75.874 66.8161 75.9487 66.8161 76.042V76.616C66.8161 76.7093 66.7881 76.784 66.7321 76.84C66.6761 76.896 66.6014 76.924 66.5081 76.924H65.6681C65.1641 76.924 64.7674 77.0733 64.4781 77.372C64.1887 77.6613 64.0441 78.058 64.0441 78.562V82.678C64.0441 82.7713 64.0114 82.8507 63.9461 82.916C63.8807 82.972 63.8014 83 63.7081 83H63.0221ZM70.7797 83.14C69.8184 83.14 69.053 82.846 68.4837 82.258C67.9144 81.6607 67.6017 80.8487 67.5457 79.822C67.5364 79.7007 67.5317 79.5467 67.5317 79.36C67.5317 79.164 67.5364 79.0053 67.5457 78.884C67.583 78.2213 67.737 77.6427 68.0077 77.148C68.2784 76.644 68.647 76.2567 69.1137 75.986C69.5897 75.7153 70.145 75.58 70.7797 75.58C71.489 75.58 72.0817 75.7293 72.5577 76.028C73.043 76.3267 73.4117 76.7513 73.6637 77.302C73.9157 77.8527 74.0417 78.4967 74.0417 79.234V79.472C74.0417 79.5747 74.009 79.654 73.9437 79.71C73.8877 79.766 73.813 79.794 73.7197 79.794H68.8757C68.8757 79.8033 68.8757 79.822 68.8757 79.85C68.8757 79.878 68.8757 79.9013 68.8757 79.92C68.8944 80.3027 68.9784 80.662 69.1277 80.998C69.277 81.3247 69.4917 81.5907 69.7717 81.796C70.0517 82.0013 70.3877 82.104 70.7797 82.104C71.1157 82.104 71.3957 82.0527 71.6197 81.95C71.8437 81.8473 72.0257 81.7353 72.1657 81.614C72.3057 81.4833 72.399 81.3853 72.4457 81.32C72.5297 81.1987 72.595 81.1287 72.6417 81.11C72.6884 81.082 72.763 81.068 72.8657 81.068H73.5377C73.631 81.068 73.7057 81.096 73.7617 81.152C73.827 81.1987 73.855 81.2687 73.8457 81.362C73.8364 81.502 73.7617 81.6747 73.6217 81.88C73.4817 82.076 73.281 82.272 73.0197 82.468C72.7584 82.664 72.441 82.8273 72.0677 82.958C71.6944 83.0793 71.265 83.14 70.7797 83.14ZM68.8757 78.828H72.7117V78.786C72.7117 78.366 72.6324 77.9927 72.4737 77.666C72.3244 77.3393 72.105 77.0827 71.8157 76.896C71.5264 76.7 71.181 76.602 70.7797 76.602C70.3784 76.602 70.033 76.7 69.7437 76.896C69.4637 77.0827 69.249 77.3393 69.0997 77.666C68.9504 77.9927 68.8757 78.366 68.8757 78.786V78.828ZM78.2357 83.14C77.713 83.14 77.265 83.0747 76.8917 82.944C76.5184 82.8133 76.215 82.6547 75.9817 82.468C75.7484 82.2813 75.571 82.0947 75.4497 81.908C75.3377 81.7213 75.277 81.572 75.2677 81.46C75.2584 81.3573 75.291 81.278 75.3657 81.222C75.4404 81.166 75.515 81.138 75.5897 81.138H76.2057C76.2617 81.138 76.3037 81.1473 76.3317 81.166C76.369 81.1753 76.4157 81.2127 76.4717 81.278C76.593 81.4087 76.7284 81.5393 76.8777 81.67C77.027 81.8007 77.209 81.908 77.4237 81.992C77.6477 82.076 77.923 82.118 78.2497 82.118C78.7257 82.118 79.1177 82.0293 79.4257 81.852C79.7337 81.6653 79.8877 81.3947 79.8877 81.04C79.8877 80.8067 79.8224 80.62 79.6917 80.48C79.5704 80.34 79.3464 80.214 79.0197 80.102C78.7024 79.99 78.2637 79.8733 77.7037 79.752C77.1437 79.6213 76.7004 79.4627 76.3737 79.276C76.047 79.08 75.8137 78.8513 75.6737 78.59C75.5337 78.3193 75.4637 78.016 75.4637 77.68C75.4637 77.3347 75.5664 77.0033 75.7717 76.686C75.977 76.3593 76.2757 76.0933 76.6677 75.888C77.069 75.6827 77.5684 75.58 78.1657 75.58C78.651 75.58 79.0664 75.6407 79.4117 75.762C79.757 75.8833 80.0417 76.0373 80.2657 76.224C80.4897 76.4013 80.6577 76.5787 80.7697 76.756C80.8817 76.9333 80.9424 77.0827 80.9517 77.204C80.961 77.2973 80.933 77.3767 80.8677 77.442C80.8024 77.498 80.7277 77.526 80.6437 77.526H80.0557C79.9904 77.526 79.9344 77.512 79.8877 77.484C79.8504 77.456 79.813 77.4233 79.7757 77.386C79.6824 77.2647 79.5704 77.1433 79.4397 77.022C79.3184 76.9007 79.155 76.8027 78.9497 76.728C78.7537 76.644 78.4924 76.602 78.1657 76.602C77.699 76.602 77.349 76.7 77.1157 76.896C76.8824 77.092 76.7657 77.3393 76.7657 77.638C76.7657 77.8153 76.817 77.974 76.9197 78.114C77.0224 78.254 77.2184 78.38 77.5077 78.492C77.797 78.604 78.2264 78.7253 78.7957 78.856C79.4117 78.9773 79.897 79.1407 80.2517 79.346C80.6064 79.5513 80.8584 79.7893 81.0077 80.06C81.157 80.3307 81.2317 80.6433 81.2317 80.998C81.2317 81.39 81.115 81.7493 80.8817 82.076C80.6577 82.4027 80.3217 82.664 79.8737 82.86C79.435 83.0467 78.889 83.14 78.2357 83.14ZM85.3724 83.14C84.8497 83.14 84.4017 83.0747 84.0284 82.944C83.6551 82.8133 83.3517 82.6547 83.1184 82.468C82.8851 82.2813 82.7077 82.0947 82.5864 81.908C82.4744 81.7213 82.4137 81.572 82.4044 81.46C82.3951 81.3573 82.4277 81.278 82.5024 81.222C82.5771 81.166 82.6517 81.138 82.7264 81.138H83.3424C83.3984 81.138 83.4404 81.1473 83.4684 81.166C83.5057 81.1753 83.5524 81.2127 83.6084 81.278C83.7297 81.4087 83.8651 81.5393 84.0144 81.67C84.1637 81.8007 84.3457 81.908 84.5604 81.992C84.7844 82.076 85.0597 82.118 85.3864 82.118C85.8624 82.118 86.2544 82.0293 86.5624 81.852C86.8704 81.6653 87.0244 81.3947 87.0244 81.04C87.0244 80.8067 86.9591 80.62 86.8284 80.48C86.7071 80.34 86.4831 80.214 86.1564 80.102C85.8391 79.99 85.4004 79.8733 84.8404 79.752C84.2804 79.6213 83.8371 79.4627 83.5104 79.276C83.1837 79.08 82.9504 78.8513 82.8104 78.59C82.6704 78.3193 82.6004 78.016 82.6004 77.68C82.6004 77.3347 82.7031 77.0033 82.9084 76.686C83.1137 76.3593 83.4124 76.0933 83.8044 75.888C84.2057 75.6827 84.7051 75.58 85.3024 75.58C85.7877 75.58 86.2031 75.6407 86.5484 75.762C86.8937 75.8833 87.1784 76.0373 87.4024 76.224C87.6264 76.4013 87.7944 76.5787 87.9064 76.756C88.0184 76.9333 88.0791 77.0827 88.0884 77.204C88.0977 77.2973 88.0697 77.3767 88.0044 77.442C87.9391 77.498 87.8644 77.526 87.7804 77.526H87.1924C87.1271 77.526 87.0711 77.512 87.0244 77.484C86.9871 77.456 86.9497 77.4233 86.9124 77.386C86.8191 77.2647 86.7071 77.1433 86.5764 77.022C86.4551 76.9007 86.2917 76.8027 86.0864 76.728C85.8904 76.644 85.6291 76.602 85.3024 76.602C84.8357 76.602 84.4857 76.7 84.2524 76.896C84.0191 77.092 83.9024 77.3393 83.9024 77.638C83.9024 77.8153 83.9537 77.974 84.0564 78.114C84.1591 78.254 84.3551 78.38 84.6444 78.492C84.9337 78.604 85.3631 78.7253 85.9324 78.856C86.5484 78.9773 87.0337 79.1407 87.3884 79.346C87.7431 79.5513 87.9951 79.7893 88.1444 80.06C88.2937 80.3307 88.3684 80.6433 88.3684 80.998C88.3684 81.39 88.2517 81.7493 88.0184 82.076C87.7944 82.4027 87.4584 82.664 87.0104 82.86C86.5717 83.0467 86.0257 83.14 85.3724 83.14Z" fill="#2D6AEC"></path>
</svg>