<svg width="283" height="63" viewBox="0 0 283 63" fill="none" xmlns="http://www.w3.org/2000/svg">
<rect width="282.667" height="63" rx="4" fill="white"></rect>
<g clip-path="url(#clip0_4_18924)">
<path d="M19.75 24.5C19.75 22.5695 21.3195 21 23.25 21H37.25C39.1805 21 40.75 22.5695 40.75 24.5V28.2297V34.7703V38.5C40.75 40.4305 39.1805 42 37.25 42H23.25C21.3195 42 19.75 40.4305 19.75 38.5V24.5Z" fill="#1B9A00" fill-opacity="0.24"></path>
<path d="M51.25 24.4999C51.25 23.8546 50.8945 23.264 50.3258 22.9577C49.757 22.6515 49.068 22.6843 48.5266 23.0452L40.75 28.2296V34.7702L48.5266 39.9546C49.0625 40.3101 49.7516 40.3484 50.3258 40.0421C50.9 39.7359 51.25 39.1452 51.25 38.4999V24.4999Z" fill="#1B9A00"></path>
</g>
<path d="M64.54 25.5C64.4373 25.5 64.358 25.472 64.302 25.416C64.246 25.3507 64.218 25.2713 64.218 25.178V16.022C64.218 15.9287 64.246 15.854 64.302 15.798C64.358 15.7327 64.4373 15.7 64.54 15.7H65.282C65.3753 15.7 65.45 15.7327 65.506 15.798C65.5713 15.854 65.604 15.9287 65.604 16.022V25.178C65.604 25.2713 65.5713 25.3507 65.506 25.416C65.45 25.472 65.3753 25.5 65.282 25.5H64.54ZM68.1861 25.5C68.0928 25.5 68.0135 25.472 67.9481 25.416C67.8921 25.3507 67.8641 25.2713 67.8641 25.178V18.542C67.8641 18.4487 67.8921 18.374 67.9481 18.318C68.0135 18.2527 68.0928 18.22 68.1861 18.22H68.8441C68.9375 18.22 69.0121 18.2527 69.0681 18.318C69.1335 18.374 69.1661 18.4487 69.1661 18.542V19.158C69.4088 18.8407 69.7121 18.584 70.0761 18.388C70.4495 18.1827 70.9255 18.08 71.5041 18.08C72.1108 18.08 72.6241 18.2153 73.0441 18.486C73.4735 18.7473 73.7955 19.116 74.0101 19.592C74.2248 20.0587 74.3321 20.6047 74.3321 21.23V25.178C74.3321 25.2713 74.3041 25.3507 74.2481 25.416C74.1921 25.472 74.1175 25.5 74.0241 25.5H73.3241C73.2308 25.5 73.1515 25.472 73.0861 25.416C73.0301 25.3507 73.0021 25.2713 73.0021 25.178V21.3C73.0021 20.6467 72.8435 20.138 72.5261 19.774C72.2088 19.4007 71.7421 19.214 71.1261 19.214C70.5475 19.214 70.0808 19.4007 69.7261 19.774C69.3808 20.138 69.2081 20.6467 69.2081 21.3V25.178C69.2081 25.2713 69.1755 25.3507 69.1101 25.416C69.0541 25.472 68.9795 25.5 68.8861 25.5H68.1861ZM79.2944 25.64C78.6317 25.64 78.0577 25.514 77.5724 25.262C77.0964 25.0007 76.7277 24.632 76.4664 24.156C76.205 23.6707 76.065 23.092 76.0464 22.42C76.037 22.28 76.0324 22.0933 76.0324 21.86C76.0324 21.6267 76.037 21.44 76.0464 21.3C76.065 20.628 76.205 20.054 76.4664 19.578C76.7277 19.0927 77.0964 18.724 77.5724 18.472C78.0577 18.2107 78.6317 18.08 79.2944 18.08C79.8357 18.08 80.2977 18.1547 80.6804 18.304C81.0724 18.4533 81.3944 18.6447 81.6464 18.878C81.8984 19.1113 82.085 19.3633 82.2064 19.634C82.337 19.9047 82.407 20.1613 82.4164 20.404C82.4257 20.4973 82.3977 20.572 82.3324 20.628C82.267 20.684 82.1877 20.712 82.0944 20.712H81.4224C81.329 20.712 81.259 20.6933 81.2124 20.656C81.1657 20.6093 81.119 20.5347 81.0724 20.432C80.9044 19.9747 80.6757 19.6527 80.3864 19.466C80.097 19.2793 79.7377 19.186 79.3084 19.186C78.7484 19.186 78.291 19.3587 77.9364 19.704C77.591 20.0493 77.4044 20.6047 77.3764 21.37C77.367 21.706 77.367 22.0327 77.3764 22.35C77.4044 23.1247 77.591 23.6847 77.9364 24.03C78.291 24.366 78.7484 24.534 79.3084 24.534C79.7377 24.534 80.097 24.4407 80.3864 24.254C80.6757 24.0673 80.9044 23.7453 81.0724 23.288C81.119 23.1853 81.1657 23.1153 81.2124 23.078C81.259 23.0313 81.329 23.008 81.4224 23.008H82.0944C82.1877 23.008 82.267 23.036 82.3324 23.092C82.3977 23.148 82.4257 23.2227 82.4164 23.316C82.407 23.512 82.365 23.7127 82.2904 23.918C82.2157 24.1233 82.0944 24.3333 81.9264 24.548C81.7677 24.7533 81.567 24.94 81.3244 25.108C81.0817 25.2667 80.7877 25.3973 80.4424 25.5C80.1064 25.5933 79.7237 25.64 79.2944 25.64ZM84.401 25.5C84.3076 25.5 84.2283 25.472 84.163 25.416C84.107 25.3507 84.079 25.2713 84.079 25.178V18.542C84.079 18.4487 84.107 18.374 84.163 18.318C84.2283 18.2527 84.3076 18.22 84.401 18.22H85.073C85.1663 18.22 85.241 18.2527 85.297 18.318C85.353 18.374 85.381 18.4487 85.381 18.542V25.178C85.381 25.2713 85.353 25.3507 85.297 25.416C85.241 25.472 85.1663 25.5 85.073 25.5H84.401ZM84.289 16.862C84.1956 16.862 84.1163 16.834 84.051 16.778C83.995 16.7127 83.967 16.6333 83.967 16.54V15.784C83.967 15.6907 83.995 15.616 84.051 15.56C84.1163 15.4947 84.1956 15.462 84.289 15.462H85.171C85.2643 15.462 85.339 15.4947 85.395 15.56C85.4603 15.616 85.493 15.6907 85.493 15.784V16.54C85.493 16.6333 85.4603 16.7127 85.395 16.778C85.339 16.834 85.2643 16.862 85.171 16.862H84.289ZM90.1296 25.64C89.6163 25.64 89.1729 25.5513 88.7996 25.374C88.4263 25.1873 88.1183 24.94 87.8756 24.632C87.6423 24.3147 87.4649 23.9553 87.3436 23.554C87.2316 23.1527 87.1663 22.728 87.1476 22.28C87.1383 22.1307 87.1336 21.9907 87.1336 21.86C87.1336 21.7293 87.1383 21.5893 87.1476 21.44C87.1663 21.0013 87.2316 20.5813 87.3436 20.18C87.4649 19.7787 87.6423 19.4193 87.8756 19.102C88.1183 18.7847 88.4263 18.5373 88.7996 18.36C89.1729 18.1733 89.6163 18.08 90.1296 18.08C90.6803 18.08 91.1376 18.178 91.5016 18.374C91.8656 18.57 92.1643 18.8127 92.3976 19.102V15.882C92.3976 15.7887 92.4256 15.714 92.4816 15.658C92.5469 15.5927 92.6263 15.56 92.7196 15.56H93.3916C93.4849 15.56 93.5596 15.5927 93.6156 15.658C93.6809 15.714 93.7136 15.7887 93.7136 15.882V25.178C93.7136 25.2713 93.6809 25.3507 93.6156 25.416C93.5596 25.472 93.4849 25.5 93.3916 25.5H92.7616C92.6589 25.5 92.5796 25.472 92.5236 25.416C92.4676 25.3507 92.4396 25.2713 92.4396 25.178V24.59C92.2063 24.8887 91.9029 25.1407 91.5296 25.346C91.1563 25.542 90.6896 25.64 90.1296 25.64ZM90.4236 24.506C90.8903 24.506 91.2636 24.3987 91.5436 24.184C91.8236 23.9693 92.0336 23.6987 92.1736 23.372C92.3136 23.036 92.3883 22.6953 92.3976 22.35C92.4069 22.2007 92.4116 22.0233 92.4116 21.818C92.4116 21.6033 92.4069 21.4213 92.3976 21.272C92.3883 20.9453 92.3089 20.6233 92.1596 20.306C92.0196 19.9887 91.8049 19.7273 91.5156 19.522C91.2356 19.3167 90.8716 19.214 90.4236 19.214C89.9476 19.214 89.5696 19.3213 89.2896 19.536C89.0096 19.7413 88.8089 20.0167 88.6876 20.362C88.5663 20.698 88.4963 21.062 88.4776 21.454C88.4683 21.7247 88.4683 21.9953 88.4776 22.266C88.4963 22.658 88.5663 23.0267 88.6876 23.372C88.8089 23.708 89.0096 23.9833 89.2896 24.198C89.5696 24.4033 89.9476 24.506 90.4236 24.506ZM98.6938 25.64C97.7324 25.64 96.9671 25.346 96.3978 24.758C95.8284 24.1607 95.5158 23.3487 95.4598 22.322C95.4504 22.2007 95.4458 22.0467 95.4458 21.86C95.4458 21.664 95.4504 21.5053 95.4598 21.384C95.4971 20.7213 95.6511 20.1427 95.9218 19.648C96.1924 19.144 96.5611 18.7567 97.0278 18.486C97.5038 18.2153 98.0591 18.08 98.6938 18.08C99.4031 18.08 99.9958 18.2293 100.472 18.528C100.957 18.8267 101.326 19.2513 101.578 19.802C101.83 20.3527 101.956 20.9967 101.956 21.734V21.972C101.956 22.0747 101.923 22.154 101.858 22.21C101.802 22.266 101.727 22.294 101.634 22.294H96.7898C96.7898 22.3033 96.7898 22.322 96.7898 22.35C96.7898 22.378 96.7898 22.4013 96.7898 22.42C96.8084 22.8027 96.8924 23.162 97.0418 23.498C97.1911 23.8247 97.4058 24.0907 97.6858 24.296C97.9658 24.5013 98.3018 24.604 98.6938 24.604C99.0298 24.604 99.3098 24.5527 99.5338 24.45C99.7578 24.3473 99.9398 24.2353 100.08 24.114C100.22 23.9833 100.313 23.8853 100.36 23.82C100.444 23.6987 100.509 23.6287 100.556 23.61C100.602 23.582 100.677 23.568 100.78 23.568H101.452C101.545 23.568 101.62 23.596 101.676 23.652C101.741 23.6987 101.769 23.7687 101.76 23.862C101.75 24.002 101.676 24.1747 101.536 24.38C101.396 24.576 101.195 24.772 100.934 24.968C100.672 25.164 100.355 25.3273 99.9818 25.458C99.6084 25.5793 99.1791 25.64 98.6938 25.64ZM96.7898 21.328H100.626V21.286C100.626 20.866 100.546 20.4927 100.388 20.166C100.238 19.8393 100.019 19.5827 99.7298 19.396C99.4404 19.2 99.0951 19.102 98.6938 19.102C98.2924 19.102 97.9471 19.2 97.6578 19.396C97.3778 19.5827 97.1631 19.8393 97.0138 20.166C96.8644 20.4927 96.7898 20.866 96.7898 21.286V21.328ZM103.952 25.5C103.858 25.5 103.779 25.472 103.714 25.416C103.658 25.3507 103.63 25.2713 103.63 25.178V18.542C103.63 18.4487 103.658 18.374 103.714 18.318C103.779 18.2527 103.858 18.22 103.952 18.22H104.61C104.703 18.22 104.778 18.2527 104.834 18.318C104.899 18.374 104.932 18.4487 104.932 18.542V19.158C105.174 18.8407 105.478 18.584 105.842 18.388C106.215 18.1827 106.691 18.08 107.27 18.08C107.876 18.08 108.39 18.2153 108.81 18.486C109.239 18.7473 109.561 19.116 109.776 19.592C109.99 20.0587 110.098 20.6047 110.098 21.23V25.178C110.098 25.2713 110.07 25.3507 110.014 25.416C109.958 25.472 109.883 25.5 109.79 25.5H109.09C108.996 25.5 108.917 25.472 108.852 25.416C108.796 25.3507 108.768 25.2713 108.768 25.178V21.3C108.768 20.6467 108.609 20.138 108.292 19.774C107.974 19.4007 107.508 19.214 106.892 19.214C106.313 19.214 105.846 19.4007 105.492 19.774C105.146 20.138 104.974 20.6467 104.974 21.3V25.178C104.974 25.2713 104.941 25.3507 104.876 25.416C104.82 25.472 104.745 25.5 104.652 25.5H103.952ZM114.866 25.5C114.344 25.5 113.919 25.402 113.592 25.206C113.266 25.0007 113.028 24.716 112.878 24.352C112.729 23.9787 112.654 23.54 112.654 23.036V19.34H111.562C111.469 19.34 111.39 19.312 111.324 19.256C111.268 19.1907 111.24 19.1113 111.24 19.018V18.542C111.24 18.4487 111.268 18.374 111.324 18.318C111.39 18.2527 111.469 18.22 111.562 18.22H112.654V15.882C112.654 15.7887 112.682 15.714 112.738 15.658C112.804 15.5927 112.883 15.56 112.976 15.56H113.634C113.728 15.56 113.802 15.5927 113.858 15.658C113.924 15.714 113.956 15.7887 113.956 15.882V18.22H115.692C115.786 18.22 115.86 18.2527 115.916 18.318C115.982 18.374 116.014 18.4487 116.014 18.542V19.018C116.014 19.1113 115.982 19.1907 115.916 19.256C115.86 19.312 115.786 19.34 115.692 19.34H113.956V22.938C113.956 23.3767 114.031 23.722 114.18 23.974C114.33 24.226 114.596 24.352 114.978 24.352H115.832C115.926 24.352 116 24.3847 116.056 24.45C116.122 24.506 116.154 24.5807 116.154 24.674V25.178C116.154 25.2713 116.122 25.3507 116.056 25.416C116 25.472 115.926 25.5 115.832 25.5H114.866ZM121.247 25.5C121.153 25.5 121.074 25.472 121.009 25.416C120.953 25.3507 120.925 25.2713 120.925 25.178V18.556C120.925 18.4627 120.953 18.3833 121.009 18.318C121.074 18.2527 121.153 18.22 121.247 18.22H121.891C121.984 18.22 122.063 18.2527 122.129 18.318C122.194 18.3833 122.227 18.4627 122.227 18.556V19.172C122.413 18.8547 122.67 18.6167 122.997 18.458C123.323 18.2993 123.715 18.22 124.173 18.22H124.733C124.826 18.22 124.901 18.2527 124.957 18.318C125.013 18.374 125.041 18.4487 125.041 18.542V19.116C125.041 19.2093 125.013 19.284 124.957 19.34C124.901 19.396 124.826 19.424 124.733 19.424H123.893C123.389 19.424 122.992 19.5733 122.703 19.872C122.413 20.1613 122.269 20.558 122.269 21.062V25.178C122.269 25.2713 122.236 25.3507 122.171 25.416C122.105 25.472 122.026 25.5 121.933 25.5H121.247ZM129.004 25.64C128.043 25.64 127.278 25.346 126.708 24.758C126.139 24.1607 125.826 23.3487 125.77 22.322C125.761 22.2007 125.756 22.0467 125.756 21.86C125.756 21.664 125.761 21.5053 125.77 21.384C125.808 20.7213 125.962 20.1427 126.232 19.648C126.503 19.144 126.872 18.7567 127.338 18.486C127.814 18.2153 128.37 18.08 129.004 18.08C129.714 18.08 130.306 18.2293 130.782 18.528C131.268 18.8267 131.636 19.2513 131.888 19.802C132.14 20.3527 132.266 20.9967 132.266 21.734V21.972C132.266 22.0747 132.234 22.154 132.168 22.21C132.112 22.266 132.038 22.294 131.944 22.294H127.1C127.1 22.3033 127.1 22.322 127.1 22.35C127.1 22.378 127.1 22.4013 127.1 22.42C127.119 22.8027 127.203 23.162 127.352 23.498C127.502 23.8247 127.716 24.0907 127.996 24.296C128.276 24.5013 128.612 24.604 129.004 24.604C129.34 24.604 129.62 24.5527 129.844 24.45C130.068 24.3473 130.25 24.2353 130.39 24.114C130.53 23.9833 130.624 23.8853 130.67 23.82C130.754 23.6987 130.82 23.6287 130.866 23.61C130.913 23.582 130.988 23.568 131.09 23.568H131.762C131.856 23.568 131.93 23.596 131.986 23.652C132.052 23.6987 132.08 23.7687 132.07 23.862C132.061 24.002 131.986 24.1747 131.846 24.38C131.706 24.576 131.506 24.772 131.244 24.968C130.983 25.164 130.666 25.3273 130.292 25.458C129.919 25.5793 129.49 25.64 129.004 25.64ZM127.1 21.328H130.936V21.286C130.936 20.866 130.857 20.4927 130.698 20.166C130.549 19.8393 130.33 19.5827 130.04 19.396C129.751 19.2 129.406 19.102 129.004 19.102C128.603 19.102 128.258 19.2 127.968 19.396C127.688 19.5827 127.474 19.8393 127.324 20.166C127.175 20.4927 127.1 20.866 127.1 21.286V21.328ZM136.46 25.64C135.938 25.64 135.49 25.5747 135.116 25.444C134.743 25.3133 134.44 25.1547 134.206 24.968C133.973 24.7813 133.796 24.5947 133.674 24.408C133.562 24.2213 133.502 24.072 133.492 23.96C133.483 23.8573 133.516 23.778 133.59 23.722C133.665 23.666 133.74 23.638 133.814 23.638H134.43C134.486 23.638 134.528 23.6473 134.556 23.666C134.594 23.6753 134.64 23.7127 134.696 23.778C134.818 23.9087 134.953 24.0393 135.102 24.17C135.252 24.3007 135.434 24.408 135.648 24.492C135.872 24.576 136.148 24.618 136.474 24.618C136.95 24.618 137.342 24.5293 137.65 24.352C137.958 24.1653 138.112 23.8947 138.112 23.54C138.112 23.3067 138.047 23.12 137.916 22.98C137.795 22.84 137.571 22.714 137.244 22.602C136.927 22.49 136.488 22.3733 135.928 22.252C135.368 22.1213 134.925 21.9627 134.598 21.776C134.272 21.58 134.038 21.3513 133.898 21.09C133.758 20.8193 133.688 20.516 133.688 20.18C133.688 19.8347 133.791 19.5033 133.996 19.186C134.202 18.8593 134.5 18.5933 134.892 18.388C135.294 18.1827 135.793 18.08 136.39 18.08C136.876 18.08 137.291 18.1407 137.636 18.262C137.982 18.3833 138.266 18.5373 138.49 18.724C138.714 18.9013 138.882 19.0787 138.994 19.256C139.106 19.4333 139.167 19.5827 139.176 19.704C139.186 19.7973 139.158 19.8767 139.092 19.942C139.027 19.998 138.952 20.026 138.868 20.026H138.28C138.215 20.026 138.159 20.012 138.112 19.984C138.075 19.956 138.038 19.9233 138 19.886C137.907 19.7647 137.795 19.6433 137.664 19.522C137.543 19.4007 137.38 19.3027 137.174 19.228C136.978 19.144 136.717 19.102 136.39 19.102C135.924 19.102 135.574 19.2 135.34 19.396C135.107 19.592 134.99 19.8393 134.99 20.138C134.99 20.3153 135.042 20.474 135.144 20.614C135.247 20.754 135.443 20.88 135.732 20.992C136.022 21.104 136.451 21.2253 137.02 21.356C137.636 21.4773 138.122 21.6407 138.476 21.846C138.831 22.0513 139.083 22.2893 139.232 22.56C139.382 22.8307 139.456 23.1433 139.456 23.498C139.456 23.89 139.34 24.2493 139.106 24.576C138.882 24.9027 138.546 25.164 138.098 25.36C137.66 25.5467 137.114 25.64 136.46 25.64ZM141.413 28.16C141.32 28.16 141.24 28.1273 141.175 28.062C141.119 28.006 141.091 27.9313 141.091 27.838V18.542C141.091 18.4487 141.119 18.374 141.175 18.318C141.24 18.2527 141.32 18.22 141.413 18.22H142.057C142.15 18.22 142.225 18.2527 142.281 18.318C142.346 18.374 142.379 18.4487 142.379 18.542V19.158C142.603 18.85 142.902 18.5933 143.275 18.388C143.648 18.1827 144.115 18.08 144.675 18.08C145.198 18.08 145.641 18.1687 146.005 18.346C146.378 18.5233 146.682 18.766 146.915 19.074C147.158 19.382 147.34 19.732 147.461 20.124C147.582 20.516 147.648 20.936 147.657 21.384C147.666 21.5333 147.671 21.692 147.671 21.86C147.671 22.028 147.666 22.1867 147.657 22.336C147.648 22.7747 147.582 23.1947 147.461 23.596C147.34 23.988 147.158 24.338 146.915 24.646C146.682 24.9447 146.378 25.1873 146.005 25.374C145.641 25.5513 145.198 25.64 144.675 25.64C144.134 25.64 143.676 25.542 143.303 25.346C142.939 25.1407 142.64 24.8887 142.407 24.59V27.838C142.407 27.9313 142.379 28.006 142.323 28.062C142.267 28.1273 142.188 28.16 142.085 28.16H141.413ZM144.381 24.506C144.866 24.506 145.244 24.4033 145.515 24.198C145.795 23.9833 145.996 23.708 146.117 23.372C146.238 23.0267 146.308 22.658 146.327 22.266C146.336 21.9953 146.336 21.7247 146.327 21.454C146.308 21.062 146.238 20.698 146.117 20.362C145.996 20.0167 145.795 19.7413 145.515 19.536C145.244 19.3213 144.866 19.214 144.381 19.214C143.924 19.214 143.55 19.3213 143.261 19.536C142.981 19.7507 142.771 20.026 142.631 20.362C142.5 20.6887 142.426 21.0247 142.407 21.37C142.398 21.5193 142.393 21.6967 142.393 21.902C142.393 22.1073 142.398 22.2893 142.407 22.448C142.416 22.7747 142.491 23.0967 142.631 23.414C142.78 23.7313 143 23.9927 143.289 24.198C143.578 24.4033 143.942 24.506 144.381 24.506ZM152.399 25.64C151.69 25.64 151.097 25.5047 150.621 25.234C150.145 24.9633 149.781 24.59 149.529 24.114C149.277 23.6287 149.137 23.078 149.109 22.462C149.1 22.3033 149.095 22.1027 149.095 21.86C149.095 21.608 149.1 21.4073 149.109 21.258C149.137 20.6327 149.277 20.082 149.529 19.606C149.79 19.13 150.159 18.7567 150.635 18.486C151.111 18.2153 151.699 18.08 152.399 18.08C153.099 18.08 153.687 18.2153 154.163 18.486C154.639 18.7567 155.003 19.13 155.255 19.606C155.516 20.082 155.661 20.6327 155.689 21.258C155.698 21.4073 155.703 21.608 155.703 21.86C155.703 22.1027 155.698 22.3033 155.689 22.462C155.661 23.078 155.521 23.6287 155.269 24.114C155.017 24.59 154.653 24.9633 154.177 25.234C153.701 25.5047 153.108 25.64 152.399 25.64ZM152.399 24.562C152.978 24.562 153.44 24.38 153.785 24.016C154.13 23.6427 154.317 23.1013 154.345 22.392C154.354 22.252 154.359 22.0747 154.359 21.86C154.359 21.6453 154.354 21.468 154.345 21.328C154.317 20.6187 154.13 20.082 153.785 19.718C153.44 19.3447 152.978 19.158 152.399 19.158C151.82 19.158 151.354 19.3447 150.999 19.718C150.654 20.082 150.472 20.6187 150.453 21.328C150.444 21.468 150.439 21.6453 150.439 21.86C150.439 22.0747 150.444 22.252 150.453 22.392C150.472 23.1013 150.654 23.6427 150.999 24.016C151.354 24.38 151.82 24.562 152.399 24.562ZM157.778 25.5C157.685 25.5 157.605 25.472 157.54 25.416C157.484 25.3507 157.456 25.2713 157.456 25.178V18.542C157.456 18.4487 157.484 18.374 157.54 18.318C157.605 18.2527 157.685 18.22 157.778 18.22H158.436C158.529 18.22 158.604 18.2527 158.66 18.318C158.725 18.374 158.758 18.4487 158.758 18.542V19.158C159.001 18.8407 159.304 18.584 159.668 18.388C160.041 18.1827 160.517 18.08 161.096 18.08C161.703 18.08 162.216 18.2153 162.636 18.486C163.065 18.7473 163.387 19.116 163.602 19.592C163.817 20.0587 163.924 20.6047 163.924 21.23V25.178C163.924 25.2713 163.896 25.3507 163.84 25.416C163.784 25.472 163.709 25.5 163.616 25.5H162.916C162.823 25.5 162.743 25.472 162.678 25.416C162.622 25.3507 162.594 25.2713 162.594 25.178V21.3C162.594 20.6467 162.435 20.138 162.118 19.774C161.801 19.4007 161.334 19.214 160.718 19.214C160.139 19.214 159.673 19.4007 159.318 19.774C158.973 20.138 158.8 20.6467 158.8 21.3V25.178C158.8 25.2713 158.767 25.3507 158.702 25.416C158.646 25.472 158.571 25.5 158.478 25.5H157.778ZM168.466 25.64C167.943 25.64 167.495 25.5747 167.122 25.444C166.749 25.3133 166.445 25.1547 166.212 24.968C165.979 24.7813 165.801 24.5947 165.68 24.408C165.568 24.2213 165.507 24.072 165.498 23.96C165.489 23.8573 165.521 23.778 165.596 23.722C165.671 23.666 165.745 23.638 165.82 23.638H166.436C166.492 23.638 166.534 23.6473 166.562 23.666C166.599 23.6753 166.646 23.7127 166.702 23.778C166.823 23.9087 166.959 24.0393 167.108 24.17C167.257 24.3007 167.439 24.408 167.654 24.492C167.878 24.576 168.153 24.618 168.48 24.618C168.956 24.618 169.348 24.5293 169.656 24.352C169.964 24.1653 170.118 23.8947 170.118 23.54C170.118 23.3067 170.053 23.12 169.922 22.98C169.801 22.84 169.577 22.714 169.25 22.602C168.933 22.49 168.494 22.3733 167.934 22.252C167.374 22.1213 166.931 21.9627 166.604 21.776C166.277 21.58 166.044 21.3513 165.904 21.09C165.764 20.8193 165.694 20.516 165.694 20.18C165.694 19.8347 165.797 19.5033 166.002 19.186C166.207 18.8593 166.506 18.5933 166.898 18.388C167.299 18.1827 167.799 18.08 168.396 18.08C168.881 18.08 169.297 18.1407 169.642 18.262C169.987 18.3833 170.272 18.5373 170.496 18.724C170.72 18.9013 170.888 19.0787 171 19.256C171.112 19.4333 171.173 19.5827 171.182 19.704C171.191 19.7973 171.163 19.8767 171.098 19.942C171.033 19.998 170.958 20.026 170.874 20.026H170.286C170.221 20.026 170.165 20.012 170.118 19.984C170.081 19.956 170.043 19.9233 170.006 19.886C169.913 19.7647 169.801 19.6433 169.67 19.522C169.549 19.4007 169.385 19.3027 169.18 19.228C168.984 19.144 168.723 19.102 168.396 19.102C167.929 19.102 167.579 19.2 167.346 19.396C167.113 19.592 166.996 19.8393 166.996 20.138C166.996 20.3153 167.047 20.474 167.15 20.614C167.253 20.754 167.449 20.88 167.738 20.992C168.027 21.104 168.457 21.2253 169.026 21.356C169.642 21.4773 170.127 21.6407 170.482 21.846C170.837 22.0513 171.089 22.2893 171.238 22.56C171.387 22.8307 171.462 23.1433 171.462 23.498C171.462 23.89 171.345 24.2493 171.112 24.576C170.888 24.9027 170.552 25.164 170.104 25.36C169.665 25.5467 169.119 25.64 168.466 25.64ZM175.981 25.64C175.02 25.64 174.254 25.346 173.685 24.758C173.116 24.1607 172.803 23.3487 172.747 22.322C172.738 22.2007 172.733 22.0467 172.733 21.86C172.733 21.664 172.738 21.5053 172.747 21.384C172.784 20.7213 172.938 20.1427 173.209 19.648C173.48 19.144 173.848 18.7567 174.315 18.486C174.791 18.2153 175.346 18.08 175.981 18.08C176.69 18.08 177.283 18.2293 177.759 18.528C178.244 18.8267 178.613 19.2513 178.865 19.802C179.117 20.3527 179.243 20.9967 179.243 21.734V21.972C179.243 22.0747 179.21 22.154 179.145 22.21C179.089 22.266 179.014 22.294 178.921 22.294H174.077C174.077 22.3033 174.077 22.322 174.077 22.35C174.077 22.378 174.077 22.4013 174.077 22.42C174.096 22.8027 174.18 23.162 174.329 23.498C174.478 23.8247 174.693 24.0907 174.973 24.296C175.253 24.5013 175.589 24.604 175.981 24.604C176.317 24.604 176.597 24.5527 176.821 24.45C177.045 24.3473 177.227 24.2353 177.367 24.114C177.507 23.9833 177.6 23.8853 177.647 23.82C177.731 23.6987 177.796 23.6287 177.843 23.61C177.89 23.582 177.964 23.568 178.067 23.568H178.739C178.832 23.568 178.907 23.596 178.963 23.652C179.028 23.6987 179.056 23.7687 179.047 23.862C179.038 24.002 178.963 24.1747 178.823 24.38C178.683 24.576 178.482 24.772 178.221 24.968C177.96 25.164 177.642 25.3273 177.269 25.458C176.896 25.5793 176.466 25.64 175.981 25.64ZM174.077 21.328H177.913V21.286C177.913 20.866 177.834 20.4927 177.675 20.166C177.526 19.8393 177.306 19.5827 177.017 19.396C176.728 19.2 176.382 19.102 175.981 19.102C175.58 19.102 175.234 19.2 174.945 19.396C174.665 19.5827 174.45 19.8393 174.301 20.166C174.152 20.4927 174.077 20.866 174.077 21.286V21.328ZM186.869 25.64C186.346 25.64 185.898 25.5747 185.525 25.444C185.151 25.3133 184.848 25.1547 184.615 24.968C184.381 24.7813 184.204 24.5947 184.083 24.408C183.971 24.2213 183.91 24.072 183.901 23.96C183.891 23.8573 183.924 23.778 183.999 23.722C184.073 23.666 184.148 23.638 184.223 23.638H184.839C184.895 23.638 184.937 23.6473 184.965 23.666C185.002 23.6753 185.049 23.7127 185.105 23.778C185.226 23.9087 185.361 24.0393 185.511 24.17C185.66 24.3007 185.842 24.408 186.057 24.492C186.281 24.576 186.556 24.618 186.883 24.618C187.359 24.618 187.751 24.5293 188.059 24.352C188.367 24.1653 188.521 23.8947 188.521 23.54C188.521 23.3067 188.455 23.12 188.325 22.98C188.203 22.84 187.979 22.714 187.653 22.602C187.335 22.49 186.897 22.3733 186.337 22.252C185.777 22.1213 185.333 21.9627 185.007 21.776C184.68 21.58 184.447 21.3513 184.307 21.09C184.167 20.8193 184.097 20.516 184.097 20.18C184.097 19.8347 184.199 19.5033 184.405 19.186C184.61 18.8593 184.909 18.5933 185.301 18.388C185.702 18.1827 186.201 18.08 186.799 18.08C187.284 18.08 187.699 18.1407 188.045 18.262C188.39 18.3833 188.675 18.5373 188.899 18.724C189.123 18.9013 189.291 19.0787 189.403 19.256C189.515 19.4333 189.575 19.5827 189.585 19.704C189.594 19.7973 189.566 19.8767 189.501 19.942C189.435 19.998 189.361 20.026 189.277 20.026H188.689C188.623 20.026 188.567 20.012 188.521 19.984C188.483 19.956 188.446 19.9233 188.409 19.886C188.315 19.7647 188.203 19.6433 188.073 19.522C187.951 19.4007 187.788 19.3027 187.583 19.228C187.387 19.144 187.125 19.102 186.799 19.102C186.332 19.102 185.982 19.2 185.749 19.396C185.515 19.592 185.399 19.8393 185.399 20.138C185.399 20.3153 185.45 20.474 185.553 20.614C185.655 20.754 185.851 20.88 186.141 20.992C186.43 21.104 186.859 21.2253 187.428 21.356C188.045 21.4773 188.53 21.6407 188.885 21.846C189.239 22.0513 189.491 22.2893 189.641 22.56C189.79 22.8307 189.865 23.1433 189.865 23.498C189.865 23.89 189.748 24.2493 189.515 24.576C189.291 24.9027 188.955 25.164 188.507 25.36C188.068 25.5467 187.522 25.64 186.869 25.64ZM194.314 25.5C193.791 25.5 193.366 25.402 193.04 25.206C192.713 25.0007 192.475 24.716 192.326 24.352C192.176 23.9787 192.102 23.54 192.102 23.036V19.34H191.01C190.916 19.34 190.837 19.312 190.772 19.256C190.716 19.1907 190.688 19.1113 190.688 19.018V18.542C190.688 18.4487 190.716 18.374 190.772 18.318C190.837 18.2527 190.916 18.22 191.01 18.22H192.102V15.882C192.102 15.7887 192.13 15.714 192.186 15.658C192.251 15.5927 192.33 15.56 192.424 15.56H193.082C193.175 15.56 193.25 15.5927 193.306 15.658C193.371 15.714 193.404 15.7887 193.404 15.882V18.22H195.14C195.233 18.22 195.308 18.2527 195.364 18.318C195.429 18.374 195.462 18.4487 195.462 18.542V19.018C195.462 19.1113 195.429 19.1907 195.364 19.256C195.308 19.312 195.233 19.34 195.14 19.34H193.404V22.938C193.404 23.3767 193.478 23.722 193.628 23.974C193.777 24.226 194.043 24.352 194.426 24.352H195.28C195.373 24.352 195.448 24.3847 195.504 24.45C195.569 24.506 195.602 24.5807 195.602 24.674V25.178C195.602 25.2713 195.569 25.3507 195.504 25.416C195.448 25.472 195.373 25.5 195.28 25.5H194.314ZM198.97 25.64C198.504 25.64 198.079 25.5467 197.696 25.36C197.314 25.1733 197.006 24.9213 196.772 24.604C196.539 24.2867 196.422 23.9273 196.422 23.526C196.422 22.882 196.684 22.3687 197.206 21.986C197.729 21.6033 198.41 21.3513 199.25 21.23L201.336 20.936V20.53C201.336 20.082 201.206 19.732 200.944 19.48C200.692 19.228 200.277 19.102 199.698 19.102C199.278 19.102 198.938 19.186 198.676 19.354C198.424 19.522 198.247 19.7367 198.144 19.998C198.088 20.138 197.99 20.208 197.85 20.208H197.22C197.118 20.208 197.038 20.18 196.982 20.124C196.936 20.0587 196.912 19.984 196.912 19.9C196.912 19.76 196.964 19.5873 197.066 19.382C197.178 19.1767 197.346 18.976 197.57 18.78C197.794 18.584 198.079 18.4207 198.424 18.29C198.779 18.15 199.208 18.08 199.712 18.08C200.272 18.08 200.744 18.1547 201.126 18.304C201.509 18.444 201.808 18.6353 202.022 18.878C202.246 19.1207 202.405 19.396 202.498 19.704C202.601 20.012 202.652 20.3247 202.652 20.642V25.178C202.652 25.2713 202.62 25.3507 202.554 25.416C202.498 25.472 202.424 25.5 202.33 25.5H201.686C201.584 25.5 201.504 25.472 201.448 25.416C201.392 25.3507 201.364 25.2713 201.364 25.178V24.576C201.243 24.744 201.08 24.912 200.874 25.08C200.669 25.2387 200.412 25.374 200.104 25.486C199.796 25.5887 199.418 25.64 198.97 25.64ZM199.264 24.59C199.647 24.59 199.997 24.5107 200.314 24.352C200.632 24.184 200.879 23.9273 201.056 23.582C201.243 23.2367 201.336 22.8027 201.336 22.28V21.888L199.712 22.126C199.05 22.2193 198.55 22.378 198.214 22.602C197.878 22.8167 197.71 23.092 197.71 23.428C197.71 23.6893 197.785 23.9087 197.934 24.086C198.093 24.254 198.289 24.38 198.522 24.464C198.765 24.548 199.012 24.59 199.264 24.59ZM204.987 25.5C204.894 25.5 204.814 25.472 204.749 25.416C204.693 25.3507 204.665 25.2713 204.665 25.178V18.542C204.665 18.4487 204.693 18.374 204.749 18.318C204.814 18.2527 204.894 18.22 204.987 18.22H205.645C205.738 18.22 205.813 18.2527 205.869 18.318C205.934 18.374 205.967 18.4487 205.967 18.542V19.158C206.21 18.8407 206.513 18.584 206.877 18.388C207.25 18.1827 207.726 18.08 208.305 18.08C208.912 18.08 209.425 18.2153 209.845 18.486C210.274 18.7473 210.596 19.116 210.811 19.592C211.026 20.0587 211.133 20.6047 211.133 21.23V25.178C211.133 25.2713 211.105 25.3507 211.049 25.416C210.993 25.472 210.918 25.5 210.825 25.5H210.125C210.032 25.5 209.952 25.472 209.887 25.416C209.831 25.3507 209.803 25.2713 209.803 25.178V21.3C209.803 20.6467 209.644 20.138 209.327 19.774C209.01 19.4007 208.543 19.214 207.927 19.214C207.348 19.214 206.882 19.4007 206.527 19.774C206.182 20.138 206.009 20.6467 206.009 21.3V25.178C206.009 25.2713 205.976 25.3507 205.911 25.416C205.855 25.472 205.78 25.5 205.687 25.5H204.987ZM215.815 25.64C215.302 25.64 214.858 25.5513 214.485 25.374C214.112 25.1873 213.804 24.94 213.561 24.632C213.328 24.3147 213.15 23.9553 213.029 23.554C212.917 23.1527 212.852 22.728 212.833 22.28C212.824 22.1307 212.819 21.9907 212.819 21.86C212.819 21.7293 212.824 21.5893 212.833 21.44C212.852 21.0013 212.917 20.5813 213.029 20.18C213.15 19.7787 213.328 19.4193 213.561 19.102C213.804 18.7847 214.112 18.5373 214.485 18.36C214.858 18.1733 215.302 18.08 215.815 18.08C216.366 18.08 216.823 18.178 217.187 18.374C217.551 18.57 217.85 18.8127 218.083 19.102V15.882C218.083 15.7887 218.111 15.714 218.167 15.658C218.232 15.5927 218.312 15.56 218.405 15.56H219.077C219.17 15.56 219.245 15.5927 219.301 15.658C219.366 15.714 219.399 15.7887 219.399 15.882V25.178C219.399 25.2713 219.366 25.3507 219.301 25.416C219.245 25.472 219.17 25.5 219.077 25.5H218.447C218.344 25.5 218.265 25.472 218.209 25.416C218.153 25.3507 218.125 25.2713 218.125 25.178V24.59C217.892 24.8887 217.588 25.1407 217.215 25.346C216.842 25.542 216.375 25.64 215.815 25.64ZM216.109 24.506C216.576 24.506 216.949 24.3987 217.229 24.184C217.509 23.9693 217.719 23.6987 217.859 23.372C217.999 23.036 218.074 22.6953 218.083 22.35C218.092 22.2007 218.097 22.0233 218.097 21.818C218.097 21.6033 218.092 21.4213 218.083 21.272C218.074 20.9453 217.994 20.6233 217.845 20.306C217.705 19.9887 217.49 19.7273 217.201 19.522C216.921 19.3167 216.557 19.214 216.109 19.214C215.633 19.214 215.255 19.3213 214.975 19.536C214.695 19.7413 214.494 20.0167 214.373 20.362C214.252 20.698 214.182 21.062 214.163 21.454C214.154 21.7247 214.154 21.9953 214.163 22.266C214.182 22.658 214.252 23.0267 214.373 23.372C214.494 23.708 214.695 23.9833 214.975 24.198C215.255 24.4033 215.633 24.506 216.109 24.506ZM224.197 25.64C223.6 25.64 223.091 25.5093 222.671 25.248C222.261 24.9773 221.948 24.604 221.733 24.128C221.519 23.652 221.411 23.106 221.411 22.49V18.542C221.411 18.4487 221.439 18.374 221.495 18.318C221.561 18.2527 221.64 18.22 221.733 18.22H222.433C222.527 18.22 222.601 18.2527 222.657 18.318C222.723 18.374 222.755 18.4487 222.755 18.542V22.42C222.755 23.8107 223.362 24.506 224.575 24.506C225.154 24.506 225.616 24.324 225.961 23.96C226.316 23.5867 226.493 23.0733 226.493 22.42V18.542C226.493 18.4487 226.521 18.374 226.577 18.318C226.643 18.2527 226.722 18.22 226.815 18.22H227.501C227.604 18.22 227.683 18.2527 227.739 18.318C227.795 18.374 227.823 18.4487 227.823 18.542V25.178C227.823 25.2713 227.795 25.3507 227.739 25.416C227.683 25.472 227.604 25.5 227.501 25.5H226.857C226.764 25.5 226.685 25.472 226.619 25.416C226.563 25.3507 226.535 25.2713 226.535 25.178V24.562C226.283 24.8887 225.975 25.15 225.611 25.346C225.257 25.542 224.785 25.64 224.197 25.64ZM230.239 28.16C230.146 28.16 230.067 28.1273 230.001 28.062C229.945 28.006 229.917 27.9313 229.917 27.838V18.542C229.917 18.4487 229.945 18.374 230.001 18.318C230.067 18.2527 230.146 18.22 230.239 18.22H230.883C230.977 18.22 231.051 18.2527 231.107 18.318C231.173 18.374 231.205 18.4487 231.205 18.542V19.158C231.429 18.85 231.728 18.5933 232.101 18.388C232.475 18.1827 232.941 18.08 233.501 18.08C234.024 18.08 234.467 18.1687 234.831 18.346C235.205 18.5233 235.508 18.766 235.741 19.074C235.984 19.382 236.166 19.732 236.287 20.124C236.409 20.516 236.474 20.936 236.483 21.384C236.493 21.5333 236.497 21.692 236.497 21.86C236.497 22.028 236.493 22.1867 236.483 22.336C236.474 22.7747 236.409 23.1947 236.287 23.596C236.166 23.988 235.984 24.338 235.741 24.646C235.508 24.9447 235.205 25.1873 234.831 25.374C234.467 25.5513 234.024 25.64 233.501 25.64C232.96 25.64 232.503 25.542 232.129 25.346C231.765 25.1407 231.467 24.8887 231.233 24.59V27.838C231.233 27.9313 231.205 28.006 231.149 28.062C231.093 28.1273 231.014 28.16 230.911 28.16H230.239ZM233.207 24.506C233.693 24.506 234.071 24.4033 234.341 24.198C234.621 23.9833 234.822 23.708 234.943 23.372C235.065 23.0267 235.135 22.658 235.153 22.266C235.163 21.9953 235.163 21.7247 235.153 21.454C235.135 21.062 235.065 20.698 234.943 20.362C234.822 20.0167 234.621 19.7413 234.341 19.536C234.071 19.3213 233.693 19.214 233.207 19.214C232.75 19.214 232.377 19.3213 232.087 19.536C231.807 19.7507 231.597 20.026 231.457 20.362C231.327 20.6887 231.252 21.0247 231.233 21.37C231.224 21.5193 231.219 21.6967 231.219 21.902C231.219 22.1073 231.224 22.2893 231.233 22.448C231.243 22.7747 231.317 23.0967 231.457 23.414C231.607 23.7313 231.826 23.9927 232.115 24.198C232.405 24.4033 232.769 24.506 233.207 24.506Z" fill="#333333"></path>
<path d="M64.12 47.5C64.0267 47.5 63.9473 47.4673 63.882 47.402C63.8167 47.3367 63.784 47.2573 63.784 47.164V46.45C63.784 46.366 63.8027 46.268 63.84 46.156C63.8867 46.0347 63.9847 45.9133 64.134 45.792L66.346 43.594C66.9527 43.118 67.4427 42.7073 67.816 42.362C68.1987 42.0167 68.4787 41.704 68.656 41.424C68.8333 41.1347 68.922 40.85 68.922 40.57C68.922 40.15 68.8053 39.8093 68.572 39.548C68.348 39.2867 67.9887 39.156 67.494 39.156C67.1673 39.156 66.892 39.226 66.668 39.366C66.444 39.4967 66.2667 39.674 66.136 39.898C66.0147 40.122 65.9353 40.3693 65.898 40.64C65.87 40.7613 65.814 40.8453 65.73 40.892C65.646 40.9387 65.562 40.962 65.478 40.962H64.232C64.148 40.962 64.078 40.934 64.022 40.878C63.966 40.822 63.938 40.7567 63.938 40.682C63.9473 40.2807 64.0313 39.8933 64.19 39.52C64.3487 39.1373 64.5773 38.8013 64.876 38.512C65.184 38.2133 65.5573 37.9753 65.996 37.798C66.4347 37.6207 66.934 37.532 67.494 37.532C68.2593 37.532 68.894 37.6627 69.398 37.924C69.9113 38.1853 70.294 38.54 70.546 38.988C70.8073 39.436 70.938 39.94 70.938 40.5C70.938 40.9387 70.854 41.3447 70.686 41.718C70.518 42.082 70.2753 42.4367 69.958 42.782C69.6407 43.118 69.258 43.4633 68.81 43.818L66.822 45.834H70.812C70.9147 45.834 70.994 45.8667 71.05 45.932C71.1153 45.988 71.148 46.0673 71.148 46.17V47.164C71.148 47.2573 71.1153 47.3367 71.05 47.402C70.994 47.4673 70.9147 47.5 70.812 47.5H64.12ZM76.4488 47.64C75.7861 47.64 75.2214 47.542 74.7548 47.346C74.2881 47.15 73.9008 46.8793 73.5928 46.534C73.2941 46.1887 73.0701 45.792 72.9208 45.344C72.7808 44.8867 72.6968 44.4013 72.6688 43.888C72.6594 43.636 72.6501 43.3607 72.6408 43.062C72.6408 42.754 72.6408 42.446 72.6408 42.138C72.6501 41.83 72.6594 41.5453 72.6688 41.284C72.6874 40.7707 72.7714 40.29 72.9208 39.842C73.0794 39.3847 73.3081 38.988 73.6068 38.652C73.9148 38.316 74.3021 38.05 74.7688 37.854C75.2354 37.658 75.7954 37.56 76.4488 37.56C77.1021 37.56 77.6574 37.658 78.1148 37.854C78.5814 38.05 78.9688 38.316 79.2768 38.652C79.5848 38.988 79.8134 39.3847 79.9628 39.842C80.1214 40.29 80.2101 40.7707 80.2288 41.284C80.2381 41.5453 80.2428 41.83 80.2428 42.138C80.2521 42.446 80.2521 42.754 80.2428 43.062C80.2428 43.3607 80.2381 43.636 80.2288 43.888C80.2101 44.4013 80.1214 44.8867 79.9628 45.344C79.8134 45.792 79.5894 46.1887 79.2908 46.534C78.9921 46.8793 78.6094 47.15 78.1428 47.346C77.6761 47.542 77.1114 47.64 76.4488 47.64ZM76.4488 46.03C77.0554 46.03 77.4988 45.834 77.7788 45.442C78.0588 45.0407 78.2081 44.4993 78.2268 43.818C78.2361 43.5473 78.2408 43.2767 78.2408 43.006C78.2501 42.726 78.2501 42.446 78.2408 42.166C78.2408 41.886 78.2361 41.62 78.2268 41.368C78.2081 40.7053 78.0588 40.1733 77.7788 39.772C77.4988 39.3613 77.0554 39.156 76.4488 39.156C75.8421 39.156 75.3988 39.3613 75.1188 39.772C74.8388 40.1733 74.6894 40.7053 74.6708 41.368C74.6614 41.62 74.6521 41.886 74.6428 42.166C74.6428 42.446 74.6428 42.726 74.6428 43.006C74.6521 43.2767 74.6614 43.5473 74.6708 43.818C74.6894 44.4993 74.8388 45.0407 75.1188 45.442C75.4081 45.834 75.8514 46.03 76.4488 46.03ZM85.4107 50.16C85.3174 50.16 85.2381 50.1273 85.1727 50.062C85.1074 49.9967 85.0747 49.9173 85.0747 49.824V40.556C85.0747 40.4627 85.1074 40.3833 85.1727 40.318C85.2381 40.2527 85.3174 40.22 85.4107 40.22H86.5167C86.6194 40.22 86.6987 40.2527 86.7547 40.318C86.8201 40.3833 86.8527 40.4627 86.8527 40.556V41.116C87.0767 40.8173 87.3707 40.57 87.7347 40.374C88.0987 40.178 88.5514 40.08 89.0927 40.08C89.5874 40.08 90.0167 40.1593 90.3807 40.318C90.7447 40.4767 91.0481 40.7053 91.2907 41.004C91.5334 41.2933 91.7201 41.6387 91.8507 42.04C91.9814 42.4413 92.0561 42.8847 92.0747 43.37C92.0841 43.5287 92.0887 43.692 92.0887 43.86C92.0887 44.028 92.0841 44.196 92.0747 44.364C92.0654 44.8307 91.9954 45.2647 91.8647 45.666C91.7341 46.058 91.5427 46.4033 91.2907 46.702C91.0481 46.9913 90.7447 47.22 90.3807 47.388C90.0167 47.556 89.5874 47.64 89.0927 47.64C88.5887 47.64 88.1594 47.5513 87.8047 47.374C87.4501 47.1873 87.1607 46.9447 86.9367 46.646V49.824C86.9367 49.9173 86.9041 49.9967 86.8387 50.062C86.7827 50.1273 86.7034 50.16 86.6007 50.16H85.4107ZM88.5747 46.142C88.9761 46.142 89.2887 46.058 89.5127 45.89C89.7367 45.7127 89.8954 45.484 89.9887 45.204C90.0914 44.924 90.1521 44.616 90.1707 44.28C90.1894 44 90.1894 43.72 90.1707 43.44C90.1521 43.104 90.0914 42.796 89.9887 42.516C89.8954 42.236 89.7367 42.012 89.5127 41.844C89.2887 41.6667 88.9761 41.578 88.5747 41.578C88.1921 41.578 87.8794 41.6667 87.6367 41.844C87.4034 42.0213 87.2307 42.25 87.1187 42.53C87.0161 42.8007 86.9554 43.0807 86.9367 43.37C86.9274 43.538 86.9227 43.7153 86.9227 43.902C86.9227 44.0887 86.9274 44.2707 86.9367 44.448C86.9461 44.728 87.0114 44.9987 87.1327 45.26C87.2541 45.512 87.4314 45.722 87.6647 45.89C87.8981 46.058 88.2014 46.142 88.5747 46.142ZM95.7743 47.64C95.289 47.64 94.8503 47.5467 94.4583 47.36C94.0663 47.164 93.7537 46.9073 93.5203 46.59C93.2963 46.2633 93.1843 45.8993 93.1843 45.498C93.1843 44.8447 93.4457 44.3267 93.9683 43.944C94.5003 43.552 95.2003 43.2907 96.0683 43.16L97.9863 42.88V42.586C97.9863 42.194 97.8883 41.8907 97.6923 41.676C97.4963 41.4613 97.1603 41.354 96.6843 41.354C96.3483 41.354 96.073 41.424 95.8583 41.564C95.653 41.6947 95.499 41.872 95.3963 42.096C95.3217 42.2173 95.2143 42.278 95.0743 42.278H93.9683C93.8657 42.278 93.7863 42.25 93.7303 42.194C93.6837 42.138 93.6603 42.0633 93.6603 41.97C93.6697 41.8207 93.7303 41.6387 93.8423 41.424C93.9543 41.2093 94.1317 41.004 94.3743 40.808C94.617 40.6027 94.9297 40.43 95.3123 40.29C95.695 40.15 96.157 40.08 96.6983 40.08C97.2863 40.08 97.781 40.1547 98.1823 40.304C98.593 40.444 98.9197 40.6353 99.1623 40.878C99.405 41.1207 99.5823 41.4053 99.6943 41.732C99.8063 42.0587 99.8623 42.404 99.8623 42.768V47.164C99.8623 47.2573 99.8297 47.3367 99.7643 47.402C99.699 47.4673 99.6197 47.5 99.5263 47.5H98.3923C98.2897 47.5 98.2057 47.4673 98.1403 47.402C98.0843 47.3367 98.0563 47.2573 98.0563 47.164V46.618C97.935 46.7953 97.7717 46.9633 97.5663 47.122C97.361 47.2713 97.109 47.3973 96.8103 47.5C96.521 47.5933 96.1757 47.64 95.7743 47.64ZM96.2503 46.31C96.577 46.31 96.871 46.24 97.1323 46.1C97.403 45.96 97.613 45.7453 97.7623 45.456C97.921 45.1573 98.0003 44.784 98.0003 44.336V44.042L96.6003 44.266C96.0497 44.35 95.639 44.4853 95.3683 44.672C95.0977 44.8587 94.9623 45.0873 94.9623 45.358C94.9623 45.5633 95.023 45.7407 95.1443 45.89C95.275 46.03 95.4383 46.1373 95.6343 46.212C95.8303 46.2773 96.0357 46.31 96.2503 46.31ZM101.994 47.5C101.901 47.5 101.822 47.4673 101.756 47.402C101.691 47.3367 101.658 47.2573 101.658 47.164V40.57C101.658 40.4673 101.691 40.3833 101.756 40.318C101.822 40.2527 101.901 40.22 101.994 40.22H103.128C103.222 40.22 103.301 40.2527 103.366 40.318C103.441 40.3833 103.478 40.4673 103.478 40.57V41.144C103.693 40.8453 103.968 40.6167 104.304 40.458C104.65 40.2993 105.046 40.22 105.494 40.22H106.068C106.171 40.22 106.25 40.2527 106.306 40.318C106.372 40.3833 106.404 40.4627 106.404 40.556V41.564C106.404 41.6573 106.372 41.7367 106.306 41.802C106.25 41.8673 106.171 41.9 106.068 41.9H104.976C104.528 41.9 104.178 42.026 103.926 42.278C103.684 42.53 103.562 42.8753 103.562 43.314V47.164C103.562 47.2573 103.53 47.3367 103.464 47.402C103.399 47.4673 103.315 47.5 103.212 47.5H101.994ZM110.786 47.5C110.226 47.5 109.755 47.402 109.372 47.206C108.99 47.01 108.705 46.7207 108.518 46.338C108.332 45.946 108.238 45.4607 108.238 44.882V41.704H107.132C107.039 41.704 106.96 41.6713 106.894 41.606C106.829 41.5407 106.796 41.4613 106.796 41.368V40.556C106.796 40.4627 106.829 40.3833 106.894 40.318C106.96 40.2527 107.039 40.22 107.132 40.22H108.238V37.896C108.238 37.8027 108.266 37.7233 108.322 37.658C108.388 37.5927 108.472 37.56 108.574 37.56H109.708C109.802 37.56 109.881 37.5927 109.946 37.658C110.012 37.7233 110.044 37.8027 110.044 37.896V40.22H111.794C111.888 40.22 111.967 40.2527 112.032 40.318C112.098 40.3833 112.13 40.4627 112.13 40.556V41.368C112.13 41.4613 112.098 41.5407 112.032 41.606C111.967 41.6713 111.888 41.704 111.794 41.704H110.044V44.742C110.044 45.1247 110.11 45.4233 110.24 45.638C110.38 45.8527 110.618 45.96 110.954 45.96H111.92C112.014 45.96 112.093 45.9927 112.158 46.058C112.224 46.1233 112.256 46.2027 112.256 46.296V47.164C112.256 47.2573 112.224 47.3367 112.158 47.402C112.093 47.4673 112.014 47.5 111.92 47.5H110.786ZM113.834 47.5C113.741 47.5 113.662 47.4673 113.596 47.402C113.531 47.3367 113.498 47.2573 113.498 47.164V40.556C113.498 40.4627 113.531 40.3833 113.596 40.318C113.662 40.2527 113.741 40.22 113.834 40.22H114.996C115.099 40.22 115.178 40.2527 115.234 40.318C115.3 40.3833 115.332 40.4627 115.332 40.556V47.164C115.332 47.2573 115.3 47.3367 115.234 47.402C115.178 47.4673 115.099 47.5 114.996 47.5H113.834ZM113.778 39.016C113.676 39.016 113.592 38.988 113.526 38.932C113.47 38.8667 113.442 38.7827 113.442 38.68V37.672C113.442 37.5787 113.47 37.4993 113.526 37.434C113.592 37.3687 113.676 37.336 113.778 37.336H115.052C115.155 37.336 115.239 37.3687 115.304 37.434C115.37 37.4993 115.402 37.5787 115.402 37.672V38.68C115.402 38.7827 115.37 38.8667 115.304 38.932C115.239 38.988 115.155 39.016 115.052 39.016H113.778ZM120.34 47.64C119.668 47.64 119.075 47.514 118.562 47.262C118.058 47.01 117.661 46.646 117.372 46.17C117.092 45.6847 116.938 45.1013 116.91 44.42C116.9 44.28 116.896 44.098 116.896 43.874C116.896 43.6407 116.9 43.4493 116.91 43.3C116.938 42.6187 117.092 42.04 117.372 41.564C117.661 41.0787 118.058 40.71 118.562 40.458C119.075 40.206 119.668 40.08 120.34 40.08C120.937 40.08 121.446 40.164 121.866 40.332C122.286 40.5 122.631 40.71 122.902 40.962C123.172 41.214 123.373 41.48 123.504 41.76C123.644 42.0307 123.718 42.278 123.728 42.502C123.737 42.6047 123.704 42.6887 123.63 42.754C123.564 42.81 123.485 42.838 123.392 42.838H122.16C122.066 42.838 121.992 42.8147 121.936 42.768C121.889 42.7213 121.842 42.6513 121.796 42.558C121.656 42.1847 121.469 41.9233 121.236 41.774C121.012 41.6153 120.722 41.536 120.368 41.536C119.901 41.536 119.528 41.6853 119.248 41.984C118.977 42.2733 118.832 42.7353 118.814 43.37C118.795 43.7247 118.795 44.0513 118.814 44.35C118.832 44.994 118.977 45.4607 119.248 45.75C119.528 46.0393 119.901 46.184 120.368 46.184C120.732 46.184 121.026 46.1093 121.25 45.96C121.474 45.8013 121.656 45.5353 121.796 45.162C121.842 45.0687 121.889 44.9987 121.936 44.952C121.992 44.9053 122.066 44.882 122.16 44.882H123.392C123.485 44.882 123.564 44.9147 123.63 44.98C123.704 45.036 123.737 45.1153 123.728 45.218C123.718 45.386 123.672 45.5773 123.588 45.792C123.513 45.9973 123.387 46.212 123.21 46.436C123.042 46.6507 122.827 46.8513 122.566 47.038C122.304 47.2153 121.987 47.36 121.614 47.472C121.25 47.584 120.825 47.64 120.34 47.64ZM125.524 47.5C125.43 47.5 125.351 47.4673 125.286 47.402C125.22 47.3367 125.188 47.2573 125.188 47.164V40.556C125.188 40.4627 125.22 40.3833 125.286 40.318C125.351 40.2527 125.43 40.22 125.524 40.22H126.686C126.788 40.22 126.868 40.2527 126.924 40.318C126.989 40.3833 127.022 40.4627 127.022 40.556V47.164C127.022 47.2573 126.989 47.3367 126.924 47.402C126.868 47.4673 126.788 47.5 126.686 47.5H125.524ZM125.468 39.016C125.365 39.016 125.281 38.988 125.216 38.932C125.16 38.8667 125.132 38.7827 125.132 38.68V37.672C125.132 37.5787 125.16 37.4993 125.216 37.434C125.281 37.3687 125.365 37.336 125.468 37.336H126.742C126.844 37.336 126.928 37.3687 126.994 37.434C127.059 37.4993 127.092 37.5787 127.092 37.672V38.68C127.092 38.7827 127.059 38.8667 126.994 38.932C126.928 38.988 126.844 39.016 126.742 39.016H125.468ZM129.229 50.16C129.136 50.16 129.056 50.1273 128.991 50.062C128.926 49.9967 128.893 49.9173 128.893 49.824V40.556C128.893 40.4627 128.926 40.3833 128.991 40.318C129.056 40.2527 129.136 40.22 129.229 40.22H130.335C130.438 40.22 130.517 40.2527 130.573 40.318C130.638 40.3833 130.671 40.4627 130.671 40.556V41.116C130.895 40.8173 131.189 40.57 131.553 40.374C131.917 40.178 132.37 40.08 132.911 40.08C133.406 40.08 133.835 40.1593 134.199 40.318C134.563 40.4767 134.866 40.7053 135.109 41.004C135.352 41.2933 135.538 41.6387 135.669 42.04C135.8 42.4413 135.874 42.8847 135.893 43.37C135.902 43.5287 135.907 43.692 135.907 43.86C135.907 44.028 135.902 44.196 135.893 44.364C135.884 44.8307 135.814 45.2647 135.683 45.666C135.552 46.058 135.361 46.4033 135.109 46.702C134.866 46.9913 134.563 47.22 134.199 47.388C133.835 47.556 133.406 47.64 132.911 47.64C132.407 47.64 131.978 47.5513 131.623 47.374C131.268 47.1873 130.979 46.9447 130.755 46.646V49.824C130.755 49.9173 130.722 49.9967 130.657 50.062C130.601 50.1273 130.522 50.16 130.419 50.16H129.229ZM132.393 46.142C132.794 46.142 133.107 46.058 133.331 45.89C133.555 45.7127 133.714 45.484 133.807 45.204C133.91 44.924 133.97 44.616 133.989 44.28C134.008 44 134.008 43.72 133.989 43.44C133.97 43.104 133.91 42.796 133.807 42.516C133.714 42.236 133.555 42.012 133.331 41.844C133.107 41.6667 132.794 41.578 132.393 41.578C132.01 41.578 131.698 41.6667 131.455 41.844C131.222 42.0213 131.049 42.25 130.937 42.53C130.834 42.8007 130.774 43.0807 130.755 43.37C130.746 43.538 130.741 43.7153 130.741 43.902C130.741 44.0887 130.746 44.2707 130.755 44.448C130.764 44.728 130.83 44.9987 130.951 45.26C131.072 45.512 131.25 45.722 131.483 45.89C131.716 46.058 132.02 46.142 132.393 46.142ZM139.593 47.64C139.107 47.64 138.669 47.5467 138.277 47.36C137.885 47.164 137.572 46.9073 137.339 46.59C137.115 46.2633 137.003 45.8993 137.003 45.498C137.003 44.8447 137.264 44.3267 137.787 43.944C138.319 43.552 139.019 43.2907 139.887 43.16L141.805 42.88V42.586C141.805 42.194 141.707 41.8907 141.511 41.676C141.315 41.4613 140.979 41.354 140.503 41.354C140.167 41.354 139.891 41.424 139.677 41.564C139.471 41.6947 139.317 41.872 139.215 42.096C139.14 42.2173 139.033 42.278 138.893 42.278H137.787C137.684 42.278 137.605 42.25 137.549 42.194C137.502 42.138 137.479 42.0633 137.479 41.97C137.488 41.8207 137.549 41.6387 137.661 41.424C137.773 41.2093 137.95 41.004 138.193 40.808C138.435 40.6027 138.748 40.43 139.131 40.29C139.513 40.15 139.975 40.08 140.517 40.08C141.105 40.08 141.599 40.1547 142.001 40.304C142.411 40.444 142.738 40.6353 142.981 40.878C143.223 41.1207 143.401 41.4053 143.513 41.732C143.625 42.0587 143.681 42.404 143.681 42.768V47.164C143.681 47.2573 143.648 47.3367 143.583 47.402C143.517 47.4673 143.438 47.5 143.345 47.5H142.211C142.108 47.5 142.024 47.4673 141.959 47.402C141.903 47.3367 141.875 47.2573 141.875 47.164V46.618C141.753 46.7953 141.59 46.9633 141.385 47.122C141.179 47.2713 140.927 47.3973 140.629 47.5C140.339 47.5933 139.994 47.64 139.593 47.64ZM140.069 46.31C140.395 46.31 140.689 46.24 140.951 46.1C141.221 45.96 141.431 45.7453 141.581 45.456C141.739 45.1573 141.819 44.784 141.819 44.336V44.042L140.419 44.266C139.868 44.35 139.457 44.4853 139.187 44.672C138.916 44.8587 138.781 45.0873 138.781 45.358C138.781 45.5633 138.841 45.7407 138.963 45.89C139.093 46.03 139.257 46.1373 139.453 46.212C139.649 46.2773 139.854 46.31 140.069 46.31ZM145.813 47.5C145.719 47.5 145.64 47.4673 145.575 47.402C145.509 47.3367 145.477 47.2573 145.477 47.164V40.556C145.477 40.4627 145.509 40.3833 145.575 40.318C145.64 40.2527 145.719 40.22 145.813 40.22H146.961C147.054 40.22 147.133 40.2527 147.199 40.318C147.264 40.3833 147.297 40.4627 147.297 40.556V41.13C147.539 40.8313 147.847 40.584 148.221 40.388C148.603 40.1827 149.075 40.08 149.635 40.08C150.204 40.08 150.699 40.2107 151.119 40.472C151.539 40.724 151.861 41.0833 152.085 41.55C152.318 42.0167 152.435 42.5767 152.435 43.23V47.164C152.435 47.2573 152.402 47.3367 152.337 47.402C152.271 47.4673 152.192 47.5 152.099 47.5H150.867C150.773 47.5 150.694 47.4673 150.629 47.402C150.563 47.3367 150.531 47.2573 150.531 47.164V43.314C150.531 42.7727 150.395 42.348 150.125 42.04C149.863 41.732 149.481 41.578 148.977 41.578C148.491 41.578 148.104 41.732 147.815 42.04C147.525 42.348 147.381 42.7727 147.381 43.314V47.164C147.381 47.2573 147.348 47.3367 147.283 47.402C147.217 47.4673 147.138 47.5 147.045 47.5H145.813ZM157.421 47.5C156.861 47.5 156.39 47.402 156.007 47.206C155.624 47.01 155.34 46.7207 155.153 46.338C154.966 45.946 154.873 45.4607 154.873 44.882V41.704H153.767C153.674 41.704 153.594 41.6713 153.529 41.606C153.464 41.5407 153.431 41.4613 153.431 41.368V40.556C153.431 40.4627 153.464 40.3833 153.529 40.318C153.594 40.2527 153.674 40.22 153.767 40.22H154.873V37.896C154.873 37.8027 154.901 37.7233 154.957 37.658C155.022 37.5927 155.106 37.56 155.209 37.56H156.343C156.436 37.56 156.516 37.5927 156.581 37.658C156.646 37.7233 156.679 37.8027 156.679 37.896V40.22H158.429C158.522 40.22 158.602 40.2527 158.667 40.318C158.732 40.3833 158.765 40.4627 158.765 40.556V41.368C158.765 41.4613 158.732 41.5407 158.667 41.606C158.602 41.6713 158.522 41.704 158.429 41.704H156.679V44.742C156.679 45.1247 156.744 45.4233 156.875 45.638C157.015 45.8527 157.253 45.96 157.589 45.96H158.555C158.648 45.96 158.728 45.9927 158.793 46.058C158.858 46.1233 158.891 46.2027 158.891 46.296V47.164C158.891 47.2573 158.858 47.3367 158.793 47.402C158.728 47.4673 158.648 47.5 158.555 47.5H157.421ZM162.891 47.64C162.331 47.64 161.85 47.5747 161.449 47.444C161.057 47.3133 160.735 47.15 160.483 46.954C160.231 46.758 160.044 46.562 159.923 46.366C159.802 46.17 159.736 46.0067 159.727 45.876C159.718 45.7733 159.746 45.694 159.811 45.638C159.886 45.5727 159.965 45.54 160.049 45.54H161.155C161.192 45.54 161.225 45.5447 161.253 45.554C161.281 45.5633 161.318 45.5913 161.365 45.638C161.486 45.7407 161.612 45.848 161.743 45.96C161.883 46.072 162.046 46.17 162.233 46.254C162.42 46.3287 162.653 46.366 162.933 46.366C163.297 46.366 163.6 46.296 163.843 46.156C164.095 46.0067 164.221 45.7967 164.221 45.526C164.221 45.33 164.165 45.1713 164.053 45.05C163.95 44.9287 163.754 44.8213 163.465 44.728C163.176 44.6253 162.765 44.518 162.233 44.406C161.71 44.2847 161.276 44.1307 160.931 43.944C160.586 43.7573 160.329 43.524 160.161 43.244C159.993 42.964 159.909 42.6373 159.909 42.264C159.909 41.9 160.016 41.5547 160.231 41.228C160.455 40.892 160.782 40.6167 161.211 40.402C161.65 40.1873 162.191 40.08 162.835 40.08C163.339 40.08 163.778 40.1453 164.151 40.276C164.524 40.3973 164.832 40.5513 165.075 40.738C165.327 40.9247 165.518 41.116 165.649 41.312C165.78 41.4987 165.85 41.662 165.859 41.802C165.868 41.9047 165.84 41.9887 165.775 42.054C165.71 42.11 165.635 42.138 165.551 42.138H164.515C164.468 42.138 164.426 42.1287 164.389 42.11C164.352 42.0913 164.314 42.068 164.277 42.04C164.174 41.9467 164.062 41.8487 163.941 41.746C163.82 41.6433 163.67 41.5547 163.493 41.48C163.325 41.396 163.101 41.354 162.821 41.354C162.466 41.354 162.196 41.4333 162.009 41.592C161.822 41.7413 161.729 41.9327 161.729 42.166C161.729 42.3247 161.771 42.4647 161.855 42.586C161.948 42.698 162.13 42.8053 162.401 42.908C162.672 43.0107 163.082 43.118 163.633 43.23C164.258 43.342 164.753 43.51 165.117 43.734C165.49 43.9487 165.752 44.2007 165.901 44.49C166.06 44.77 166.139 45.0827 166.139 45.428C166.139 45.848 166.013 46.226 165.761 46.562C165.518 46.898 165.154 47.164 164.669 47.36C164.193 47.5467 163.6 47.64 162.891 47.64Z" fill="#888D95"></path>
<rect x="175" y="36.5" width="1" height="12" rx="0.5" fill="#D1D2D5"></rect>
<path d="M188.48 47.64C187.817 47.64 187.253 47.542 186.786 47.346C186.319 47.15 185.932 46.8793 185.624 46.534C185.325 46.1887 185.101 45.792 184.952 45.344C184.812 44.8867 184.728 44.4013 184.7 43.888C184.691 43.636 184.681 43.3607 184.672 43.062C184.672 42.754 184.672 42.446 184.672 42.138C184.681 41.83 184.691 41.5453 184.7 41.284C184.719 40.7707 184.803 40.29 184.952 39.842C185.111 39.3847 185.339 38.988 185.638 38.652C185.946 38.316 186.333 38.05 186.8 37.854C187.267 37.658 187.827 37.56 188.48 37.56C189.133 37.56 189.689 37.658 190.146 37.854C190.613 38.05 191 38.316 191.308 38.652C191.616 38.988 191.845 39.3847 191.994 39.842C192.153 40.29 192.241 40.7707 192.26 41.284C192.269 41.5453 192.274 41.83 192.274 42.138C192.283 42.446 192.283 42.754 192.274 43.062C192.274 43.3607 192.269 43.636 192.26 43.888C192.241 44.4013 192.153 44.8867 191.994 45.344C191.845 45.792 191.621 46.1887 191.322 46.534C191.023 46.8793 190.641 47.15 190.174 47.346C189.707 47.542 189.143 47.64 188.48 47.64ZM188.48 46.03C189.087 46.03 189.53 45.834 189.81 45.442C190.09 45.0407 190.239 44.4993 190.258 43.818C190.267 43.5473 190.272 43.2767 190.272 43.006C190.281 42.726 190.281 42.446 190.272 42.166C190.272 41.886 190.267 41.62 190.258 41.368C190.239 40.7053 190.09 40.1733 189.81 39.772C189.53 39.3613 189.087 39.156 188.48 39.156C187.873 39.156 187.43 39.3613 187.15 39.772C186.87 40.1733 186.721 40.7053 186.702 41.368C186.693 41.62 186.683 41.886 186.674 42.166C186.674 42.446 186.674 42.726 186.674 43.006C186.683 43.2767 186.693 43.5473 186.702 43.818C186.721 44.4993 186.87 45.0407 187.15 45.442C187.439 45.834 187.883 46.03 188.48 46.03ZM197.449 47.64C196.786 47.64 196.221 47.542 195.755 47.346C195.288 47.15 194.901 46.8793 194.593 46.534C194.294 46.1887 194.07 45.792 193.921 45.344C193.781 44.8867 193.697 44.4013 193.669 43.888C193.659 43.636 193.65 43.3607 193.641 43.062C193.641 42.754 193.641 42.446 193.641 42.138C193.65 41.83 193.659 41.5453 193.669 41.284C193.687 40.7707 193.771 40.29 193.921 39.842C194.079 39.3847 194.308 38.988 194.607 38.652C194.915 38.316 195.302 38.05 195.769 37.854C196.235 37.658 196.795 37.56 197.449 37.56C198.102 37.56 198.657 37.658 199.115 37.854C199.581 38.05 199.969 38.316 200.277 38.652C200.585 38.988 200.813 39.3847 200.963 39.842C201.121 40.29 201.21 40.7707 201.229 41.284C201.238 41.5453 201.243 41.83 201.243 42.138C201.252 42.446 201.252 42.754 201.243 43.062C201.243 43.3607 201.238 43.636 201.229 43.888C201.21 44.4013 201.121 44.8867 200.963 45.344C200.813 45.792 200.589 46.1887 200.291 46.534C199.992 46.8793 199.609 47.15 199.143 47.346C198.676 47.542 198.111 47.64 197.449 47.64ZM197.449 46.03C198.055 46.03 198.499 45.834 198.779 45.442C199.059 45.0407 199.208 44.4993 199.227 43.818C199.236 43.5473 199.241 43.2767 199.241 43.006C199.25 42.726 199.25 42.446 199.241 42.166C199.241 41.886 199.236 41.62 199.227 41.368C199.208 40.7053 199.059 40.1733 198.779 39.772C198.499 39.3613 198.055 39.156 197.449 39.156C196.842 39.156 196.399 39.3613 196.119 39.772C195.839 40.1733 195.689 40.7053 195.671 41.368C195.661 41.62 195.652 41.886 195.643 42.166C195.643 42.446 195.643 42.726 195.643 43.006C195.652 43.2767 195.661 43.5473 195.671 43.818C195.689 44.4993 195.839 45.0407 196.119 45.442C196.408 45.834 196.851 46.03 197.449 46.03ZM203.156 42.6C203.062 42.6 202.983 42.5673 202.918 42.502C202.852 42.4367 202.82 42.3573 202.82 42.264V40.934C202.82 40.8313 202.852 40.7473 202.918 40.682C202.983 40.6167 203.062 40.584 203.156 40.584H204.542C204.644 40.584 204.728 40.6167 204.794 40.682C204.859 40.7473 204.892 40.8313 204.892 40.934V42.264C204.892 42.3573 204.859 42.4367 204.794 42.502C204.728 42.5673 204.644 42.6 204.542 42.6H203.156ZM203.156 47.5C203.062 47.5 202.983 47.4673 202.918 47.402C202.852 47.3367 202.82 47.2573 202.82 47.164V45.834C202.82 45.7313 202.852 45.6473 202.918 45.582C202.983 45.5167 203.062 45.484 203.156 45.484H204.542C204.644 45.484 204.728 45.5167 204.794 45.582C204.859 45.6473 204.892 45.7313 204.892 45.834V47.164C204.892 47.2573 204.859 47.3367 204.794 47.402C204.728 47.4673 204.644 47.5 204.542 47.5H203.156ZM210.217 47.64C209.564 47.64 208.995 47.5607 208.509 47.402C208.033 47.2433 207.641 47.038 207.333 46.786C207.025 46.5247 206.792 46.2447 206.633 45.946C206.475 45.638 206.391 45.3347 206.381 45.036C206.381 44.952 206.409 44.8867 206.465 44.84C206.521 44.784 206.591 44.756 206.675 44.756H207.935C208.038 44.756 208.122 44.7747 208.187 44.812C208.253 44.8493 208.309 44.924 208.355 45.036C208.439 45.288 208.575 45.4887 208.761 45.638C208.948 45.7873 209.167 45.8947 209.419 45.96C209.681 46.016 209.947 46.044 210.217 46.044C210.777 46.044 211.221 45.9133 211.547 45.652C211.883 45.3813 212.051 44.9987 212.051 44.504C212.051 44.0093 211.897 43.6547 211.589 43.44C211.281 43.216 210.852 43.104 210.301 43.104H208.859C208.766 43.104 208.687 43.076 208.621 43.02C208.556 42.9547 208.523 42.8707 208.523 42.768V42.18C208.523 42.0867 208.542 42.0073 208.579 41.942C208.617 41.8673 208.659 41.8067 208.705 41.76L211.211 39.31H207.207C207.114 39.31 207.035 39.2773 206.969 39.212C206.904 39.1467 206.871 39.0673 206.871 38.974V38.05C206.871 37.9473 206.904 37.8633 206.969 37.798C207.035 37.7327 207.114 37.7 207.207 37.7H213.227C213.33 37.7 213.409 37.7327 213.465 37.798C213.531 37.8633 213.563 37.9473 213.563 38.05V38.89C213.563 38.974 213.545 39.0487 213.507 39.114C213.47 39.1793 213.428 39.2353 213.381 39.282L210.959 41.774L211.127 41.788C211.706 41.8347 212.215 41.9653 212.653 42.18C213.092 42.3853 213.433 42.6887 213.675 43.09C213.927 43.4913 214.053 43.9953 214.053 44.602C214.053 45.2367 213.885 45.7827 213.549 46.24C213.223 46.688 212.77 47.0333 212.191 47.276C211.613 47.5187 210.955 47.64 210.217 47.64ZM219.228 47.64C218.565 47.64 218.001 47.542 217.534 47.346C217.067 47.15 216.68 46.8793 216.372 46.534C216.073 46.1887 215.849 45.792 215.7 45.344C215.56 44.8867 215.476 44.4013 215.448 43.888C215.439 43.636 215.429 43.3607 215.42 43.062C215.42 42.754 215.42 42.446 215.42 42.138C215.429 41.83 215.439 41.5453 215.448 41.284C215.467 40.7707 215.551 40.29 215.7 39.842C215.859 39.3847 216.087 38.988 216.386 38.652C216.694 38.316 217.081 38.05 217.548 37.854C218.015 37.658 218.575 37.56 219.228 37.56C219.881 37.56 220.437 37.658 220.894 37.854C221.361 38.05 221.748 38.316 222.056 38.652C222.364 38.988 222.593 39.3847 222.742 39.842C222.901 40.29 222.989 40.7707 223.008 41.284C223.017 41.5453 223.022 41.83 223.022 42.138C223.031 42.446 223.031 42.754 223.022 43.062C223.022 43.3607 223.017 43.636 223.008 43.888C222.989 44.4013 222.901 44.8867 222.742 45.344C222.593 45.792 222.369 46.1887 222.07 46.534C221.771 46.8793 221.389 47.15 220.922 47.346C220.455 47.542 219.891 47.64 219.228 47.64ZM219.228 46.03C219.835 46.03 220.278 45.834 220.558 45.442C220.838 45.0407 220.987 44.4993 221.006 43.818C221.015 43.5473 221.02 43.2767 221.02 43.006C221.029 42.726 221.029 42.446 221.02 42.166C221.02 41.886 221.015 41.62 221.006 41.368C220.987 40.7053 220.838 40.1733 220.558 39.772C220.278 39.3613 219.835 39.156 219.228 39.156C218.621 39.156 218.178 39.3613 217.898 39.772C217.618 40.1733 217.469 40.7053 217.45 41.368C217.441 41.62 217.431 41.886 217.422 42.166C217.422 42.446 217.422 42.726 217.422 43.006C217.431 43.2767 217.441 43.5473 217.45 43.818C217.469 44.4993 217.618 45.0407 217.898 45.442C218.187 45.834 218.631 46.03 219.228 46.03ZM224.935 42.6C224.841 42.6 224.762 42.5673 224.697 42.502C224.631 42.4367 224.599 42.3573 224.599 42.264V40.934C224.599 40.8313 224.631 40.7473 224.697 40.682C224.762 40.6167 224.841 40.584 224.935 40.584H226.321C226.423 40.584 226.507 40.6167 226.573 40.682C226.638 40.7473 226.671 40.8313 226.671 40.934V42.264C226.671 42.3573 226.638 42.4367 226.573 42.502C226.507 42.5673 226.423 42.6 226.321 42.6H224.935ZM224.935 47.5C224.841 47.5 224.762 47.4673 224.697 47.402C224.631 47.3367 224.599 47.2573 224.599 47.164V45.834C224.599 45.7313 224.631 45.6473 224.697 45.582C224.762 45.5167 224.841 45.484 224.935 45.484H226.321C226.423 45.484 226.507 45.5167 226.573 45.582C226.638 45.6473 226.671 45.7313 226.671 45.834V47.164C226.671 47.2573 226.638 47.3367 226.573 47.402C226.507 47.4673 226.423 47.5 226.321 47.5H224.935ZM232.039 47.64C231.376 47.64 230.811 47.542 230.345 47.346C229.878 47.15 229.491 46.8793 229.183 46.534C228.884 46.1887 228.66 45.792 228.511 45.344C228.371 44.8867 228.287 44.4013 228.259 43.888C228.249 43.636 228.24 43.3607 228.231 43.062C228.231 42.754 228.231 42.446 228.231 42.138C228.24 41.83 228.249 41.5453 228.259 41.284C228.277 40.7707 228.361 40.29 228.511 39.842C228.669 39.3847 228.898 38.988 229.197 38.652C229.505 38.316 229.892 38.05 230.359 37.854C230.825 37.658 231.385 37.56 232.039 37.56C232.692 37.56 233.247 37.658 233.705 37.854C234.171 38.05 234.559 38.316 234.867 38.652C235.175 38.988 235.403 39.3847 235.553 39.842C235.711 40.29 235.8 40.7707 235.819 41.284C235.828 41.5453 235.833 41.83 235.833 42.138C235.842 42.446 235.842 42.754 235.833 43.062C235.833 43.3607 235.828 43.636 235.819 43.888C235.8 44.4013 235.711 44.8867 235.553 45.344C235.403 45.792 235.179 46.1887 234.881 46.534C234.582 46.8793 234.199 47.15 233.733 47.346C233.266 47.542 232.701 47.64 232.039 47.64ZM232.039 46.03C232.645 46.03 233.089 45.834 233.369 45.442C233.649 45.0407 233.798 44.4993 233.817 43.818C233.826 43.5473 233.831 43.2767 233.831 43.006C233.84 42.726 233.84 42.446 233.831 42.166C233.831 41.886 233.826 41.62 233.817 41.368C233.798 40.7053 233.649 40.1733 233.369 39.772C233.089 39.3613 232.645 39.156 232.039 39.156C231.432 39.156 230.989 39.3613 230.709 39.772C230.429 40.1733 230.279 40.7053 230.261 41.368C230.251 41.62 230.242 41.886 230.233 42.166C230.233 42.446 230.233 42.726 230.233 43.006C230.242 43.2767 230.251 43.5473 230.261 43.818C230.279 44.4993 230.429 45.0407 230.709 45.442C230.998 45.834 231.441 46.03 232.039 46.03ZM237.647 47.5C237.554 47.5 237.475 47.4673 237.409 47.402C237.344 47.3367 237.311 47.2573 237.311 47.164V46.45C237.311 46.366 237.33 46.268 237.367 46.156C237.414 46.0347 237.512 45.9133 237.661 45.792L239.873 43.594C240.48 43.118 240.97 42.7073 241.343 42.362C241.726 42.0167 242.006 41.704 242.183 41.424C242.361 41.1347 242.449 40.85 242.449 40.57C242.449 40.15 242.333 39.8093 242.099 39.548C241.875 39.2867 241.516 39.156 241.021 39.156C240.695 39.156 240.419 39.226 240.195 39.366C239.971 39.4967 239.794 39.674 239.663 39.898C239.542 40.122 239.463 40.3693 239.425 40.64C239.397 40.7613 239.341 40.8453 239.257 40.892C239.173 40.9387 239.089 40.962 239.005 40.962H237.759C237.675 40.962 237.605 40.934 237.549 40.878C237.493 40.822 237.465 40.7567 237.465 40.682C237.475 40.2807 237.559 39.8933 237.717 39.52C237.876 39.1373 238.105 38.8013 238.403 38.512C238.711 38.2133 239.085 37.9753 239.523 37.798C239.962 37.6207 240.461 37.532 241.021 37.532C241.787 37.532 242.421 37.6627 242.925 37.924C243.439 38.1853 243.821 38.54 244.073 38.988C244.335 39.436 244.465 39.94 244.465 40.5C244.465 40.9387 244.381 41.3447 244.213 41.718C244.045 42.082 243.803 42.4367 243.485 42.782C243.168 43.118 242.785 43.4633 242.337 43.818L240.349 45.834H244.339C244.442 45.834 244.521 45.8667 244.577 45.932C244.643 45.988 244.675 46.0673 244.675 46.17V47.164C244.675 47.2573 244.643 47.3367 244.577 47.402C244.521 47.4673 244.442 47.5 244.339 47.5H237.647Z" fill="#888D95"></path>
<defs>
<clipPath id="clip0_4_18924">
<rect x="16" y="12" width="39" height="39" rx="4" fill="white"></rect>
</clipPath>
</defs>
</svg>