<svg width="600" height="180" viewBox="0 0 600 180" fill="none" xmlns="http://www.w3.org/2000/svg">
<rect x="0.5" y="0.5" width="599" height="179" rx="7.5" fill="white"></rect>
<rect x="0.5" y="0.5" width="599" height="179" rx="7.5" stroke="#EBEDEE"></rect>
<path d="M20.096 29C19.9893 29 19.8987 28.9627 19.824 28.888C19.7493 28.8133 19.712 28.7227 19.712 28.616V19.768H16.752C16.6453 19.768 16.5547 19.7307 16.48 19.656C16.4053 19.5813 16.368 19.4907 16.368 19.384V18.2C16.368 18.0827 16.4053 17.9867 16.48 17.912C16.5547 17.8373 16.6453 17.8 16.752 17.8H24.912C25.0293 17.8 25.1253 17.8373 25.2 17.912C25.2747 17.9867 25.312 18.0827 25.312 18.2V19.384C25.312 19.4907 25.2747 19.5813 25.2 19.656C25.1253 19.7307 25.0293 19.768 24.912 19.768H21.968V28.616C21.968 28.7227 21.9307 28.8133 21.856 28.888C21.7813 28.9627 21.6853 29 21.568 29H20.096ZM28.8588 29.16C27.6748 29.16 26.7361 28.8187 26.0428 28.136C25.3494 27.4533 24.9761 26.4827 24.9228 25.224C24.9121 25.1173 24.9068 24.984 24.9068 24.824C24.9068 24.6533 24.9121 24.52 24.9228 24.424C24.9654 23.624 25.1468 22.9307 25.4668 22.344C25.7974 21.7573 26.2508 21.3093 26.8268 21C27.4028 20.68 28.0801 20.52 28.8588 20.52C29.7228 20.52 30.4481 20.7013 31.0348 21.064C31.6214 21.416 32.0641 21.912 32.3628 22.552C32.6614 23.1813 32.8108 23.912 32.8108 24.744V25.08C32.8108 25.1867 32.7734 25.2773 32.6988 25.352C32.6241 25.4267 32.5281 25.464 32.4108 25.464H27.0988C27.0988 25.464 27.0988 25.48 27.0988 25.512C27.0988 25.544 27.0988 25.5707 27.0988 25.592C27.1094 25.9653 27.1788 26.312 27.3068 26.632C27.4454 26.9413 27.6428 27.192 27.8988 27.384C28.1654 27.576 28.4801 27.672 28.8428 27.672C29.1414 27.672 29.3921 27.6293 29.5948 27.544C29.7974 27.448 29.9628 27.3413 30.0908 27.224C30.2188 27.1067 30.3094 27.0107 30.3628 26.936C30.4588 26.808 30.5334 26.7333 30.5868 26.712C30.6508 26.68 30.7414 26.664 30.8588 26.664H32.2348C32.3414 26.664 32.4268 26.696 32.4908 26.76C32.5654 26.824 32.5974 26.904 32.5868 27C32.5761 27.1707 32.4854 27.3787 32.3148 27.624C32.1548 27.8693 31.9201 28.1093 31.6108 28.344C31.3014 28.5787 30.9121 28.776 30.4428 28.936C29.9841 29.0853 29.4561 29.16 28.8588 29.16ZM27.0988 24.12H30.6348V24.072C30.6348 23.656 30.5654 23.2933 30.4268 22.984C30.2881 22.6747 30.0854 22.4293 29.8188 22.248C29.5521 22.0667 29.2321 21.976 28.8588 21.976C28.4854 21.976 28.1654 22.0667 27.8988 22.248C27.6321 22.4293 27.4294 22.6747 27.2908 22.984C27.1628 23.2933 27.0988 23.656 27.0988 24.072V24.12ZM36.9251 29.16C36.3705 29.16 35.8691 29.0533 35.4211 28.84C34.9731 28.616 34.6158 28.3227 34.3491 27.96C34.0931 27.5867 33.9651 27.1707 33.9651 26.712C33.9651 25.9653 34.2638 25.3733 34.8611 24.936C35.4691 24.488 36.2691 24.1893 37.2611 24.04L39.4531 23.72V23.384C39.4531 22.936 39.3411 22.5893 39.1171 22.344C38.8931 22.0987 38.5091 21.976 37.9651 21.976C37.5811 21.976 37.2665 22.056 37.0211 22.216C36.7865 22.3653 36.6105 22.568 36.4931 22.824C36.4078 22.9627 36.2851 23.032 36.1251 23.032H34.8611C34.7438 23.032 34.6531 23 34.5891 22.936C34.5358 22.872 34.5091 22.7867 34.5091 22.68C34.5198 22.5093 34.5891 22.3013 34.7171 22.056C34.8451 21.8107 35.0478 21.576 35.3251 21.352C35.6025 21.1173 35.9598 20.92 36.3971 20.76C36.8345 20.6 37.3625 20.52 37.9811 20.52C38.6531 20.52 39.2185 20.6053 39.6771 20.776C40.1465 20.936 40.5198 21.1547 40.7971 21.432C41.0745 21.7093 41.2771 22.0347 41.4051 22.408C41.5331 22.7813 41.5971 23.176 41.5971 23.592V28.616C41.5971 28.7227 41.5598 28.8133 41.4851 28.888C41.4105 28.9627 41.3198 29 41.2131 29H39.9171C39.7998 29 39.7038 28.9627 39.6291 28.888C39.5651 28.8133 39.5331 28.7227 39.5331 28.616V27.992C39.3945 28.1947 39.2078 28.3867 38.9731 28.568C38.7385 28.7387 38.4505 28.8827 38.1091 29C37.7785 29.1067 37.3838 29.16 36.9251 29.16ZM37.4691 27.64C37.8425 27.64 38.1785 27.56 38.4771 27.4C38.7865 27.24 39.0265 26.9947 39.1971 26.664C39.3785 26.3227 39.4691 25.896 39.4691 25.384V25.048L37.8691 25.304C37.2398 25.4 36.7705 25.5547 36.4611 25.768C36.1518 25.9813 35.9971 26.2427 35.9971 26.552C35.9971 26.7867 36.0665 26.9893 36.2051 27.16C36.3545 27.32 36.5411 27.4427 36.7651 27.528C36.9891 27.6027 37.2238 27.64 37.4691 27.64ZM44.0338 29C43.9271 29 43.8364 28.9627 43.7618 28.888C43.6871 28.8133 43.6497 28.7227 43.6497 28.616V21.064C43.6497 20.9573 43.6871 20.8667 43.7618 20.792C43.8364 20.7173 43.9271 20.68 44.0338 20.68H45.2818C45.3884 20.68 45.4791 20.7173 45.5538 20.792C45.6284 20.8667 45.6658 20.9573 45.6658 21.064V21.608C45.8898 21.3093 46.1884 21.0587 46.5618 20.856C46.9458 20.6427 47.3991 20.5307 47.9218 20.52C49.1378 20.4987 49.9858 20.9733 50.4658 21.944C50.7111 21.5173 51.0631 21.176 51.5218 20.92C51.9911 20.6533 52.5084 20.52 53.0738 20.52C53.6284 20.52 54.1298 20.648 54.5778 20.904C55.0364 21.16 55.3938 21.5493 55.6498 22.072C55.9164 22.584 56.0498 23.2347 56.0498 24.024V28.616C56.0498 28.7227 56.0124 28.8133 55.9378 28.888C55.8631 28.9627 55.7724 29 55.6658 29H54.3538C54.2471 29 54.1564 28.9627 54.0818 28.888C54.0071 28.8133 53.9698 28.7227 53.9698 28.616V24.152C53.9698 23.672 53.9004 23.2933 53.7618 23.016C53.6231 22.728 53.4364 22.5253 53.2018 22.408C52.9671 22.2907 52.7058 22.232 52.4178 22.232C52.1831 22.232 51.9484 22.2907 51.7138 22.408C51.4791 22.5253 51.2871 22.728 51.1378 23.016C50.9884 23.2933 50.9138 23.672 50.9138 24.152V28.616C50.9138 28.7227 50.8764 28.8133 50.8018 28.888C50.7271 28.9627 50.6364 29 50.5298 29H49.2178C49.1004 29 49.0044 28.9627 48.9298 28.888C48.8658 28.8133 48.8338 28.7227 48.8338 28.616V24.152C48.8338 23.672 48.7591 23.2933 48.6098 23.016C48.4604 22.728 48.2684 22.5253 48.0338 22.408C47.7991 22.2907 47.5484 22.232 47.2818 22.232C47.0364 22.232 46.7964 22.296 46.5618 22.424C46.3271 22.5413 46.1351 22.7387 45.9858 23.016C45.8364 23.2933 45.7618 23.672 45.7618 24.152V28.616C45.7618 28.7227 45.7244 28.8133 45.6498 28.888C45.5751 28.9627 45.4844 29 45.3778 29H44.0338ZM62.0795 25.112C61.9622 25.112 61.8662 25.0747 61.7915 25C61.7275 24.9253 61.6955 24.8347 61.6955 24.728V23.672C61.6955 23.5653 61.7275 23.4747 61.7915 23.4C61.8662 23.3253 61.9622 23.288 62.0795 23.288H66.9915C67.0982 23.288 67.1888 23.3253 67.2635 23.4C67.3382 23.4747 67.3755 23.5653 67.3755 23.672V24.728C67.3755 24.8347 67.3382 24.9253 67.2635 25C67.1888 25.0747 67.0982 25.112 66.9915 25.112H62.0795ZM72.1694 29C72.084 29 72.004 28.968 71.9294 28.904C71.8654 28.84 71.8334 28.76 71.8334 28.664C71.8334 28.6213 71.844 28.5733 71.8654 28.52L75.7214 18.2C75.7534 18.0933 75.812 18.0027 75.8974 17.928C75.9934 17.8427 76.1214 17.8 76.2814 17.8H78.0254C78.1854 17.8 78.308 17.8427 78.3934 17.928C78.4787 18.0027 78.5427 18.0933 78.5854 18.2L82.4414 28.52C82.452 28.5733 82.4574 28.6213 82.4574 28.664C82.4574 28.76 82.4254 28.84 82.3614 28.904C82.2974 28.968 82.2227 29 82.1374 29H80.7454C80.596 29 80.484 28.968 80.4094 28.904C80.3454 28.8293 80.3027 28.76 80.2814 28.696L79.5294 26.744H74.7774L74.0254 28.696C74.004 28.76 73.956 28.8293 73.8814 28.904C73.8174 28.968 73.7107 29 73.5614 29H72.1694ZM75.3374 24.904H78.9694L77.1454 19.96L75.3374 24.904ZM84.1591 29C84.0525 29 83.9618 28.9627 83.8871 28.888C83.8125 28.8133 83.7751 28.7227 83.7751 28.616V18.024C83.7751 17.9173 83.8125 17.8267 83.8871 17.752C83.9618 17.6773 84.0525 17.64 84.1591 17.64H85.4871C85.5938 17.64 85.6845 17.6773 85.7591 17.752C85.8338 17.8267 85.8711 17.9173 85.8711 18.024V28.616C85.8711 28.7227 85.8338 28.8133 85.7591 28.888C85.6845 28.9627 85.5938 29 85.4871 29H84.1591ZM88.3935 32.04C88.2868 32.04 88.1962 32.0027 88.1215 31.928C88.0468 31.8533 88.0095 31.7627 88.0095 31.656V21.064C88.0095 20.9573 88.0468 20.8667 88.1215 20.792C88.1962 20.7173 88.2868 20.68 88.3935 20.68H89.6575C89.7748 20.68 89.8655 20.7173 89.9295 20.792C90.0042 20.8667 90.0415 20.9573 90.0415 21.064V21.704C90.2975 21.3627 90.6335 21.08 91.0495 20.856C91.4655 20.632 91.9828 20.52 92.6015 20.52C93.1668 20.52 93.6575 20.6107 94.0735 20.792C94.4895 20.9733 94.8362 21.2347 95.1135 21.576C95.3908 21.9067 95.6042 22.3013 95.7535 22.76C95.9028 23.2187 95.9882 23.7253 96.0095 24.28C96.0202 24.4613 96.0255 24.648 96.0255 24.84C96.0255 25.032 96.0202 25.224 96.0095 25.416C95.9988 25.9493 95.9188 26.4453 95.7695 26.904C95.6202 27.352 95.4015 27.7467 95.1135 28.088C94.8362 28.4187 94.4895 28.68 94.0735 28.872C93.6575 29.064 93.1668 29.16 92.6015 29.16C92.0255 29.16 91.5348 29.0587 91.1295 28.856C90.7242 28.6427 90.3935 28.3653 90.1375 28.024V31.656C90.1375 31.7627 90.1002 31.8533 90.0255 31.928C89.9615 32.0027 89.8708 32.04 89.7535 32.04H88.3935ZM92.0095 27.448C92.4682 27.448 92.8255 27.352 93.0815 27.16C93.3375 26.9573 93.5188 26.696 93.6255 26.376C93.7428 26.056 93.8122 25.704 93.8335 25.32C93.8548 25 93.8548 24.68 93.8335 24.36C93.8122 23.976 93.7428 23.624 93.6255 23.304C93.5188 22.984 93.3375 22.728 93.0815 22.536C92.8255 22.3333 92.4682 22.232 92.0095 22.232C91.5722 22.232 91.2148 22.3333 90.9375 22.536C90.6708 22.7387 90.4735 23 90.3455 23.32C90.2282 23.6293 90.1588 23.9493 90.1375 24.28C90.1268 24.472 90.1215 24.6747 90.1215 24.888C90.1215 25.1013 90.1268 25.3093 90.1375 25.512C90.1482 25.832 90.2228 26.1413 90.3615 26.44C90.5002 26.728 90.7028 26.968 90.9695 27.16C91.2362 27.352 91.5828 27.448 92.0095 27.448ZM98.2216 29C98.115 29 98.0243 28.9627 97.9496 28.888C97.875 28.8133 97.8376 28.7227 97.8376 28.616V18.024C97.8376 17.9173 97.875 17.8267 97.9496 17.752C98.0243 17.6773 98.115 17.64 98.2216 17.64H99.6456C99.763 17.64 99.8536 17.6773 99.9176 17.752C99.9923 17.8267 100.03 17.9173 100.03 18.024V21.672C100.318 21.3307 100.67 21.0533 101.086 20.84C101.502 20.6267 102.014 20.52 102.622 20.52C103.272 20.52 103.838 20.6693 104.318 20.968C104.808 21.256 105.187 21.6667 105.454 22.2C105.72 22.7333 105.854 23.3733 105.854 24.12V28.616C105.854 28.7227 105.816 28.8133 105.742 28.888C105.667 28.9627 105.576 29 105.47 29H104.03C103.923 29 103.832 28.9627 103.758 28.888C103.683 28.8133 103.646 28.7227 103.646 28.616V24.216C103.646 23.5973 103.491 23.112 103.182 22.76C102.883 22.408 102.446 22.232 101.87 22.232C101.315 22.232 100.867 22.408 100.526 22.76C100.195 23.112 100.03 23.5973 100.03 24.216V28.616C100.03 28.7227 99.9923 28.8133 99.9176 28.888C99.8536 28.9627 99.763 29 99.6456 29H98.2216ZM110.3 29.16C109.745 29.16 109.244 29.0533 108.796 28.84C108.348 28.616 107.991 28.3227 107.724 27.96C107.468 27.5867 107.34 27.1707 107.34 26.712C107.34 25.9653 107.639 25.3733 108.236 24.936C108.844 24.488 109.644 24.1893 110.636 24.04L112.828 23.72V23.384C112.828 22.936 112.716 22.5893 112.492 22.344C112.268 22.0987 111.884 21.976 111.34 21.976C110.956 21.976 110.641 22.056 110.396 22.216C110.161 22.3653 109.985 22.568 109.868 22.824C109.783 22.9627 109.66 23.032 109.5 23.032H108.236C108.119 23.032 108.028 23 107.964 22.936C107.911 22.872 107.884 22.7867 107.884 22.68C107.895 22.5093 107.964 22.3013 108.092 22.056C108.22 21.8107 108.423 21.576 108.7 21.352C108.977 21.1173 109.335 20.92 109.772 20.76C110.209 20.6 110.737 20.52 111.356 20.52C112.028 20.52 112.593 20.6053 113.052 20.776C113.521 20.936 113.895 21.1547 114.172 21.432C114.449 21.7093 114.652 22.0347 114.78 22.408C114.908 22.7813 114.972 23.176 114.972 23.592V28.616C114.972 28.7227 114.935 28.8133 114.86 28.888C114.785 28.9627 114.695 29 114.588 29H113.292C113.175 29 113.079 28.9627 113.004 28.888C112.94 28.8133 112.908 28.7227 112.908 28.616V27.992C112.769 28.1947 112.583 28.3867 112.348 28.568C112.113 28.7387 111.825 28.8827 111.484 29C111.153 29.1067 110.759 29.16 110.3 29.16ZM110.844 27.64C111.217 27.64 111.553 27.56 111.852 27.4C112.161 27.24 112.401 26.9947 112.572 26.664C112.753 26.3227 112.844 25.896 112.844 25.384V25.048L111.244 25.304C110.615 25.4 110.145 25.5547 109.836 25.768C109.527 25.9813 109.372 26.2427 109.372 26.552C109.372 26.7867 109.441 26.9893 109.58 27.16C109.729 27.32 109.916 27.4427 110.14 27.528C110.364 27.6027 110.599 27.64 110.844 27.64Z" fill="#333333"></path>
<path d="M576.334 20.603L574.822 22.1155L578.884 26.178L580.397 24.6655C581.178 23.8843 581.178 22.6187 580.397 21.8374L579.166 20.603C578.384 19.8218 577.119 19.8218 576.338 20.603H576.334ZM574.116 22.8218L566.831 30.1093C566.506 30.4343 566.269 30.8374 566.138 31.278L565.031 35.0374C564.953 35.303 565.025 35.5874 565.219 35.7812C565.413 35.9749 565.697 36.0468 565.959 35.9718L569.719 34.8655C570.159 34.7343 570.563 34.4968 570.888 34.1718L578.178 26.8843L574.116 22.8218Z" fill="#333333"></path>
<rect width="565" height="112" transform="translate(16 52)" fill="white"></rect>
<path d="M21.66 78.22C20.26 78.22 19.1467 77.8267 18.32 77.04C17.5067 76.24 17.1 75.1667 17.1 73.82V68.18C17.1 66.8467 17.5067 65.7933 18.32 65.02C19.1467 64.2333 20.26 63.84 21.66 63.84C23.06 63.84 24.1733 64.2333 25 65.02C25.84 65.7933 26.26 66.8467 26.26 68.18V73.82C26.26 75.1667 25.84 76.24 25 77.04C24.1733 77.8267 23.06 78.22 21.66 78.22ZM21.66 76.2C22.3533 76.2 22.9067 76 23.32 75.6C23.7333 75.1867 23.94 74.6333 23.94 73.94V68.1C23.94 67.4067 23.7333 66.86 23.32 66.46C22.9067 66.0467 22.3533 65.84 21.66 65.84C20.98 65.84 20.4333 66.0467 20.02 66.46C19.62 66.86 19.42 67.4067 19.42 68.1V73.94C19.42 74.6333 19.62 75.1867 20.02 75.6C20.4333 76 20.98 76.2 21.66 76.2ZM36.6672 71.94C36.9605 72.5267 37.1072 73.2 37.1072 73.96C37.1072 74.76 36.9339 75.4867 36.5872 76.14C36.2405 76.7667 35.7339 77.26 35.0672 77.62C34.4005 77.98 33.6139 78.16 32.7072 78.16C31.8139 78.16 31.0205 77.9867 30.3272 77.64C29.6339 77.28 29.1139 76.76 28.7672 76.08C28.4205 75.4533 28.2472 74.74 28.2472 73.94C28.2472 73.22 28.4005 72.54 28.7072 71.9C28.9739 71.3533 29.3539 70.94 29.8472 70.66C29.9139 70.62 29.9205 70.5733 29.8672 70.52C29.5339 70.28 29.2339 69.9467 28.9672 69.52C28.6205 68.96 28.4472 68.34 28.4472 67.66C28.4472 66.82 28.6939 66.0667 29.1872 65.4C29.5472 64.88 30.0339 64.48 30.6472 64.2C31.2605 63.9067 31.9472 63.76 32.7072 63.76C33.4939 63.76 34.1805 63.9067 34.7672 64.2C35.3672 64.48 35.8472 64.88 36.2072 65.4C36.6739 66.08 36.9072 66.8333 36.9072 67.66C36.9072 68.3933 36.7272 69.0333 36.3672 69.58C36.1139 69.9533 35.8205 70.26 35.4872 70.5C35.4339 70.5533 35.4339 70.6 35.4872 70.64C35.9939 70.9333 36.3872 71.3667 36.6672 71.94ZM30.9872 66.78C30.8272 67.1267 30.7472 67.4333 30.7472 67.7C30.7472 68.1533 30.8605 68.56 31.0872 68.92C31.4072 69.4667 31.9405 69.74 32.6872 69.74C33.4072 69.74 33.9539 69.46 34.3272 68.9C34.5272 68.6067 34.6272 68.2 34.6272 67.68C34.6272 67.3867 34.5539 67.08 34.4072 66.76C34.2339 66.4533 34.0005 66.2133 33.7072 66.04C33.4139 65.8533 33.0672 65.76 32.6672 65.76C32.2939 65.76 31.9605 65.8533 31.6672 66.04C31.3739 66.2133 31.1472 66.46 30.9872 66.78ZM34.3472 75.34C34.6272 74.9533 34.7672 74.4267 34.7672 73.76C34.7672 73.1467 34.6605 72.6667 34.4472 72.32C34.1139 71.7067 33.5272 71.4 32.6872 71.4C31.9005 71.4 31.3272 71.6933 30.9672 72.28C30.7405 72.64 30.6272 73.14 30.6272 73.78C30.6272 74.3933 30.7472 74.8933 30.9872 75.28C31.3472 75.8667 31.9205 76.16 32.7072 76.16C33.4539 76.16 34.0005 75.8867 34.3472 75.34ZM41.5513 71.24C41.1379 71.24 40.7979 71.1067 40.5312 70.84C40.2646 70.5733 40.1313 70.2333 40.1313 69.82C40.1313 69.4067 40.2646 69.0667 40.5312 68.8C40.7979 68.5333 41.1379 68.4 41.5513 68.4C41.9646 68.4 42.2979 68.5333 42.5513 68.8C42.8179 69.0667 42.9513 69.4067 42.9513 69.82C42.9513 70.2333 42.8179 70.5733 42.5513 70.84C42.2846 71.1067 41.9513 71.24 41.5513 71.24ZM41.5513 77.84C41.1379 77.84 40.7979 77.7067 40.5312 77.44C40.2646 77.1733 40.1313 76.8333 40.1313 76.42C40.1313 76.0067 40.2646 75.6667 40.5312 75.4C40.7979 75.1333 41.1379 75 41.5513 75C41.9646 75 42.2979 75.1333 42.5513 75.4C42.8179 75.6667 42.9513 76.0067 42.9513 76.42C42.9513 76.8333 42.8179 77.1733 42.5513 77.44C42.2846 77.7067 41.9513 77.84 41.5513 77.84ZM50.8006 78.22C49.4006 78.22 48.2873 77.8267 47.4606 77.04C46.6473 76.24 46.2406 75.1667 46.2406 73.82V68.18C46.2406 66.8467 46.6473 65.7933 47.4606 65.02C48.2873 64.2333 49.4006 63.84 50.8006 63.84C52.2006 63.84 53.314 64.2333 54.1406 65.02C54.9806 65.7933 55.4006 66.8467 55.4006 68.18V73.82C55.4006 75.1667 54.9806 76.24 54.1406 77.04C53.314 77.8267 52.2006 78.22 50.8006 78.22ZM50.8006 76.2C51.494 76.2 52.0473 76 52.4606 75.6C52.874 75.1867 53.0806 74.6333 53.0806 73.94V68.1C53.0806 67.4067 52.874 66.86 52.4606 66.46C52.0473 66.0467 51.494 65.84 50.8006 65.84C50.1206 65.84 49.574 66.0467 49.1606 66.46C48.7606 66.86 48.5606 67.4067 48.5606 68.1V73.94C48.5606 74.6333 48.7606 75.1867 49.1606 75.6C49.574 76 50.1206 76.2 50.8006 76.2ZM62.1678 78.22C60.7678 78.22 59.6545 77.8267 58.8278 77.04C58.0145 76.24 57.6078 75.1667 57.6078 73.82V68.18C57.6078 66.8467 58.0145 65.7933 58.8278 65.02C59.6545 64.2333 60.7678 63.84 62.1678 63.84C63.5678 63.84 64.6811 64.2333 65.5078 65.02C66.3478 65.7933 66.7678 66.8467 66.7678 68.18V73.82C66.7678 75.1667 66.3478 76.24 65.5078 77.04C64.6811 77.8267 63.5678 78.22 62.1678 78.22ZM62.1678 76.2C62.8611 76.2 63.4145 76 63.8278 75.6C64.2411 75.1867 64.4478 74.6333 64.4478 73.94V68.1C64.4478 67.4067 64.2411 66.86 63.8278 66.46C63.4145 66.0467 62.8611 65.84 62.1678 65.84C61.4878 65.84 60.9411 66.0467 60.5278 66.46C60.1278 66.86 59.9278 67.4067 59.9278 68.1V73.94C59.9278 74.6333 60.1278 75.1867 60.5278 75.6C60.9411 76 61.4878 76.2 62.1678 76.2ZM82.0189 78C81.8856 78 81.7989 77.9333 81.7589 77.8L81.0989 75.66C81.0722 75.6067 81.0389 75.58 80.9989 75.58H75.7189C75.6789 75.58 75.6456 75.6067 75.6189 75.66L74.9589 77.8C74.9189 77.9333 74.8322 78 74.6989 78H72.6989C72.6189 78 72.5589 77.98 72.5189 77.94C72.4789 77.8867 72.4722 77.8133 72.4989 77.72L76.8389 64.2C76.8789 64.0667 76.9656 64 77.0989 64H79.5989C79.7322 64 79.8189 64.0667 79.8589 64.2L84.2189 77.72C84.2322 77.7467 84.2389 77.78 84.2389 77.82C84.2389 77.94 84.1656 78 84.0189 78H82.0189ZM76.2389 73.64C76.2256 73.72 76.2522 73.76 76.3189 73.76H80.3789C80.4589 73.76 80.4856 73.72 80.4589 73.64L78.3989 66.94C78.3856 66.8867 78.3656 66.86 78.3389 66.86C78.3122 66.86 78.2922 66.8867 78.2789 66.94L76.2389 73.64ZM95.3277 64.16C95.3943 64.0533 95.4877 64 95.6077 64H97.4477C97.5143 64 97.5677 64.0267 97.6077 64.08C97.661 64.12 97.6877 64.1733 97.6877 64.24V77.76C97.6877 77.8267 97.661 77.8867 97.6077 77.94C97.5677 77.98 97.5143 78 97.4477 78H95.6077C95.541 78 95.481 77.98 95.4277 77.94C95.3877 77.8867 95.3677 77.8267 95.3677 77.76V68.22C95.3677 68.18 95.3477 68.1533 95.3077 68.14C95.281 68.1267 95.261 68.14 95.2477 68.18L92.7477 72.02C92.681 72.1267 92.5877 72.18 92.4677 72.18H91.5477C91.4277 72.18 91.3343 72.1267 91.2677 72.02L88.7477 68.2C88.7343 68.16 88.7077 68.1467 88.6677 68.16C88.641 68.1733 88.6277 68.2 88.6277 68.24V77.76C88.6277 77.8267 88.601 77.8867 88.5477 77.94C88.5077 77.98 88.4543 78 88.3877 78H86.5477C86.481 78 86.421 77.98 86.3677 77.94C86.3277 77.8867 86.3077 77.8267 86.3077 77.76V64.24C86.3077 64.1733 86.3277 64.12 86.3677 64.08C86.421 64.0267 86.481 64 86.5477 64H88.3877C88.5077 64 88.601 64.0533 88.6677 64.16L91.9277 69.1C91.9543 69.1267 91.981 69.14 92.0077 69.14C92.0343 69.14 92.0543 69.1267 92.0677 69.1L95.3277 64.16ZM104.028 72.98C103.962 72.98 103.902 72.96 103.848 72.92C103.808 72.8667 103.788 72.8067 103.788 72.74V71.22C103.788 71.1533 103.808 71.1 103.848 71.06C103.902 71.0067 103.962 70.98 104.028 70.98H110.328C110.395 70.98 110.448 71.0067 110.488 71.06C110.542 71.1 110.568 71.1533 110.568 71.22V72.74C110.568 72.8067 110.542 72.8667 110.488 72.92C110.448 72.96 110.395 72.98 110.328 72.98H104.028ZM125.678 72.24C125.745 72.24 125.798 72.2667 125.838 72.32C125.892 72.36 125.918 72.4133 125.918 72.48V74.08C125.918 74.1467 125.892 74.2067 125.838 74.26C125.798 74.3 125.745 74.32 125.678 74.32H124.838C124.772 74.32 124.738 74.3533 124.738 74.42V77.76C124.738 77.8267 124.712 77.8867 124.658 77.94C124.618 77.98 124.565 78 124.498 78H122.658C122.592 78 122.532 77.98 122.478 77.94C122.438 77.8867 122.418 77.8267 122.418 77.76V74.42C122.418 74.3533 122.385 74.32 122.318 74.32H116.238C116.172 74.32 116.112 74.3 116.058 74.26C116.018 74.2067 115.998 74.1467 115.998 74.08V72.8C115.998 72.72 116.018 72.62 116.058 72.5L119.838 64.18C119.892 64.06 119.985 64 120.118 64H122.078C122.172 64 122.232 64.0267 122.258 64.08C122.298 64.12 122.298 64.1867 122.258 64.28L118.698 72.12C118.685 72.1467 118.685 72.1733 118.698 72.2C118.712 72.2267 118.732 72.24 118.758 72.24H122.318C122.385 72.24 122.418 72.2067 122.418 72.14V69.42C122.418 69.3533 122.438 69.3 122.478 69.26C122.532 69.2067 122.592 69.18 122.658 69.18H124.498C124.565 69.18 124.618 69.2067 124.658 69.26C124.712 69.3 124.738 69.3533 124.738 69.42V72.14C124.738 72.2067 124.772 72.24 124.838 72.24H125.678ZM130.458 71.24C130.044 71.24 129.704 71.1067 129.438 70.84C129.171 70.5733 129.038 70.2333 129.038 69.82C129.038 69.4067 129.171 69.0667 129.438 68.8C129.704 68.5333 130.044 68.4 130.458 68.4C130.871 68.4 131.204 68.5333 131.458 68.8C131.724 69.0667 131.858 69.4067 131.858 69.82C131.858 70.2333 131.724 70.5733 131.458 70.84C131.191 71.1067 130.858 71.24 130.458 71.24ZM130.458 77.84C130.044 77.84 129.704 77.7067 129.438 77.44C129.171 77.1733 129.038 76.8333 129.038 76.42C129.038 76.0067 129.171 75.6667 129.438 75.4C129.704 75.1333 130.044 75 130.458 75C130.871 75 131.204 75.1333 131.458 75.4C131.724 75.6667 131.858 76.0067 131.858 76.42C131.858 76.8333 131.724 77.1733 131.458 77.44C131.191 77.7067 130.858 77.84 130.458 77.84ZM139.707 78.22C138.307 78.22 137.194 77.8267 136.367 77.04C135.554 76.24 135.147 75.1667 135.147 73.82V68.18C135.147 66.8467 135.554 65.7933 136.367 65.02C137.194 64.2333 138.307 63.84 139.707 63.84C141.107 63.84 142.22 64.2333 143.047 65.02C143.887 65.7933 144.307 66.8467 144.307 68.18V73.82C144.307 75.1667 143.887 76.24 143.047 77.04C142.22 77.8267 141.107 78.22 139.707 78.22ZM139.707 76.2C140.4 76.2 140.954 76 141.367 75.6C141.78 75.1867 141.987 74.6333 141.987 73.94V68.1C141.987 67.4067 141.78 66.86 141.367 66.46C140.954 66.0467 140.4 65.84 139.707 65.84C139.027 65.84 138.48 66.0467 138.067 66.46C137.667 66.86 137.467 67.4067 137.467 68.1V73.94C137.467 74.6333 137.667 75.1867 138.067 75.6C138.48 76 139.027 76.2 139.707 76.2ZM151.074 78.22C149.674 78.22 148.561 77.8267 147.734 77.04C146.921 76.24 146.514 75.1667 146.514 73.82V68.18C146.514 66.8467 146.921 65.7933 147.734 65.02C148.561 64.2333 149.674 63.84 151.074 63.84C152.474 63.84 153.587 64.2333 154.414 65.02C155.254 65.7933 155.674 66.8467 155.674 68.18V73.82C155.674 75.1667 155.254 76.24 154.414 77.04C153.587 77.8267 152.474 78.22 151.074 78.22ZM151.074 76.2C151.767 76.2 152.321 76 152.734 75.6C153.147 75.1867 153.354 74.6333 153.354 73.94V68.1C153.354 67.4067 153.147 66.86 152.734 66.46C152.321 66.0467 151.767 65.84 151.074 65.84C150.394 65.84 149.847 66.0467 149.434 66.46C149.034 66.86 148.834 67.4067 148.834 68.1V73.94C148.834 74.6333 149.034 75.1867 149.434 75.6C149.847 76 150.394 76.2 151.074 76.2ZM167.865 63.98C168.705 63.98 169.445 64.1533 170.085 64.5C170.725 64.8467 171.218 65.34 171.565 65.98C171.925 66.6067 172.105 67.3333 172.105 68.16C172.105 68.9733 171.925 69.6933 171.565 70.32C171.205 70.9467 170.692 71.4333 170.025 71.78C169.372 72.1133 168.612 72.28 167.745 72.28H164.545C164.478 72.28 164.445 72.3133 164.445 72.38V77.76C164.445 77.8267 164.418 77.8867 164.365 77.94C164.325 77.98 164.272 78 164.205 78H162.365C162.298 78 162.238 77.98 162.185 77.94C162.145 77.8867 162.125 77.8267 162.125 77.76V64.22C162.125 64.1533 162.145 64.1 162.185 64.06C162.238 64.0067 162.298 63.98 162.365 63.98H167.865ZM167.525 70.4C168.205 70.4 168.752 70.2 169.165 69.8C169.578 69.4 169.785 68.8733 169.785 68.22C169.785 67.5533 169.578 67.0133 169.165 66.6C168.752 66.1867 168.205 65.98 167.525 65.98H164.545C164.478 65.98 164.445 66.0133 164.445 66.08V70.3C164.445 70.3667 164.478 70.4 164.545 70.4H167.525ZM183.16 64.16C183.226 64.0533 183.32 64 183.44 64H185.28C185.346 64 185.4 64.0267 185.44 64.08C185.493 64.12 185.52 64.1733 185.52 64.24V77.76C185.52 77.8267 185.493 77.8867 185.44 77.94C185.4 77.98 185.346 78 185.28 78H183.44C183.373 78 183.313 77.98 183.26 77.94C183.22 77.8867 183.2 77.8267 183.2 77.76V68.22C183.2 68.18 183.18 68.1533 183.14 68.14C183.113 68.1267 183.093 68.14 183.08 68.18L180.58 72.02C180.513 72.1267 180.42 72.18 180.3 72.18H179.38C179.26 72.18 179.166 72.1267 179.1 72.02L176.58 68.2C176.566 68.16 176.54 68.1467 176.5 68.16C176.473 68.1733 176.46 68.2 176.46 68.24V77.76C176.46 77.8267 176.433 77.8867 176.38 77.94C176.34 77.98 176.286 78 176.22 78H174.38C174.313 78 174.253 77.98 174.2 77.94C174.16 77.8867 174.14 77.8267 174.14 77.76V64.24C174.14 64.1733 174.16 64.12 174.2 64.08C174.253 64.0267 174.313 64 174.38 64H176.22C176.34 64 176.433 64.0533 176.5 64.16L179.76 69.1C179.786 69.1267 179.813 69.14 179.84 69.14C179.866 69.14 179.886 69.1267 179.9 69.1L183.16 64.16Z" fill="#333333"></path>
<path d="M20.746 105.14C19.8873 105.14 19.1733 104.981 18.604 104.664C18.044 104.347 17.6193 103.903 17.33 103.334C17.0407 102.765 16.882 102.102 16.854 101.346C16.8447 100.963 16.84 100.553 16.84 100.114C16.84 99.6753 16.8447 99.2553 16.854 98.854C16.882 98.098 17.0407 97.4353 17.33 96.866C17.6193 96.2967 18.044 95.8533 18.604 95.536C19.1733 95.2187 19.8873 95.06 20.746 95.06C21.39 95.06 21.9547 95.1487 22.44 95.326C22.9253 95.5033 23.3267 95.7413 23.644 96.04C23.9707 96.3387 24.218 96.6747 24.386 97.048C24.554 97.412 24.6473 97.79 24.666 98.182C24.6753 98.266 24.6473 98.336 24.582 98.392C24.526 98.448 24.456 98.476 24.372 98.476H23.602C23.518 98.476 23.4433 98.4527 23.378 98.406C23.322 98.3593 23.28 98.2753 23.252 98.154C23.0933 97.426 22.7947 96.9267 22.356 96.656C21.9267 96.3853 21.3853 96.25 20.732 96.25C19.9853 96.25 19.3927 96.4647 18.954 96.894C18.5153 97.314 18.2773 97.9907 18.24 98.924C18.212 99.6893 18.212 100.473 18.24 101.276C18.2773 102.209 18.5153 102.891 18.954 103.32C19.3927 103.74 19.9853 103.95 20.732 103.95C21.3853 103.95 21.9267 103.815 22.356 103.544C22.7947 103.273 23.0933 102.774 23.252 102.046C23.28 101.925 23.322 101.841 23.378 101.794C23.4433 101.747 23.518 101.724 23.602 101.724H24.372C24.456 101.724 24.526 101.752 24.582 101.808C24.6473 101.864 24.6753 101.934 24.666 102.018C24.6473 102.41 24.554 102.793 24.386 103.166C24.218 103.53 23.9707 103.861 23.644 104.16C23.3267 104.459 22.9253 104.697 22.44 104.874C21.9547 105.051 21.39 105.14 20.746 105.14ZM29.0762 105.14C28.4789 105.14 27.9702 105.009 27.5502 104.748C27.1396 104.477 26.8269 104.104 26.6122 103.628C26.3976 103.152 26.2902 102.606 26.2902 101.99V98.042C26.2902 97.9487 26.3182 97.874 26.3742 97.818C26.4396 97.7527 26.5189 97.72 26.6122 97.72H27.3122C27.4056 97.72 27.4802 97.7527 27.5362 97.818C27.6016 97.874 27.6342 97.9487 27.6342 98.042V101.92C27.6342 103.311 28.2409 104.006 29.4542 104.006C30.0329 104.006 30.4949 103.824 30.8402 103.46C31.1949 103.087 31.3722 102.573 31.3722 101.92V98.042C31.3722 97.9487 31.4002 97.874 31.4562 97.818C31.5216 97.7527 31.6009 97.72 31.6942 97.72H32.3802C32.4829 97.72 32.5622 97.7527 32.6182 97.818C32.6742 97.874 32.7022 97.9487 32.7022 98.042V104.678C32.7022 104.771 32.6742 104.851 32.6182 104.916C32.5622 104.972 32.4829 105 32.3802 105H31.7362C31.6429 105 31.5636 104.972 31.4982 104.916C31.4422 104.851 31.4142 104.771 31.4142 104.678V104.062C31.1622 104.389 30.8542 104.65 30.4902 104.846C30.1356 105.042 29.6642 105.14 29.0762 105.14ZM35.1041 105C35.0108 105 34.9314 104.972 34.8661 104.916C34.8101 104.851 34.7821 104.771 34.7821 104.678V98.056C34.7821 97.9627 34.8101 97.8833 34.8661 97.818C34.9314 97.7527 35.0108 97.72 35.1041 97.72H35.7481C35.8414 97.72 35.9208 97.7527 35.9861 97.818C36.0514 97.8833 36.0841 97.9627 36.0841 98.056V98.672C36.2708 98.3547 36.5274 98.1167 36.8541 97.958C37.1808 97.7993 37.5728 97.72 38.0301 97.72H38.5901C38.6834 97.72 38.7581 97.7527 38.8141 97.818C38.8701 97.874 38.8981 97.9487 38.8981 98.042V98.616C38.8981 98.7093 38.8701 98.784 38.8141 98.84C38.7581 98.896 38.6834 98.924 38.5901 98.924H37.7501C37.2461 98.924 36.8494 99.0733 36.5601 99.372C36.2708 99.6613 36.1261 100.058 36.1261 100.562V104.678C36.1261 104.771 36.0934 104.851 36.0281 104.916C35.9628 104.972 35.8834 105 35.7901 105H35.1041ZM40.4225 105C40.3291 105 40.2498 104.972 40.1845 104.916C40.1285 104.851 40.1005 104.771 40.1005 104.678V98.056C40.1005 97.9627 40.1285 97.8833 40.1845 97.818C40.2498 97.7527 40.3291 97.72 40.4225 97.72H41.0665C41.1598 97.72 41.2391 97.7527 41.3045 97.818C41.3698 97.8833 41.4025 97.9627 41.4025 98.056V98.672C41.5891 98.3547 41.8458 98.1167 42.1725 97.958C42.4991 97.7993 42.8911 97.72 43.3485 97.72H43.9085C44.0018 97.72 44.0765 97.7527 44.1325 97.818C44.1885 97.874 44.2165 97.9487 44.2165 98.042V98.616C44.2165 98.7093 44.1885 98.784 44.1325 98.84C44.0765 98.896 44.0018 98.924 43.9085 98.924H43.0685C42.5645 98.924 42.1678 99.0733 41.8785 99.372C41.5891 99.6613 41.4445 100.058 41.4445 100.562V104.678C41.4445 104.771 41.4118 104.851 41.3465 104.916C41.2811 104.972 41.2018 105 41.1085 105H40.4225ZM48.1801 105.14C47.2188 105.14 46.4534 104.846 45.8841 104.258C45.3148 103.661 45.0021 102.849 44.9461 101.822C44.9368 101.701 44.9321 101.547 44.9321 101.36C44.9321 101.164 44.9368 101.005 44.9461 100.884C44.9834 100.221 45.1374 99.6427 45.4081 99.148C45.6788 98.644 46.0474 98.2567 46.5141 97.986C46.9901 97.7153 47.5454 97.58 48.1801 97.58C48.8894 97.58 49.4821 97.7293 49.9581 98.028C50.4434 98.3267 50.8121 98.7513 51.0641 99.302C51.3161 99.8527 51.4421 100.497 51.4421 101.234V101.472C51.4421 101.575 51.4094 101.654 51.3441 101.71C51.2881 101.766 51.2134 101.794 51.1201 101.794H46.2761C46.2761 101.803 46.2761 101.822 46.2761 101.85C46.2761 101.878 46.2761 101.901 46.2761 101.92C46.2948 102.303 46.3788 102.662 46.5281 102.998C46.6774 103.325 46.8921 103.591 47.1721 103.796C47.4521 104.001 47.7881 104.104 48.1801 104.104C48.5161 104.104 48.7961 104.053 49.0201 103.95C49.2441 103.847 49.4261 103.735 49.5661 103.614C49.7061 103.483 49.7994 103.385 49.8461 103.32C49.9301 103.199 49.9954 103.129 50.0421 103.11C50.0888 103.082 50.1634 103.068 50.2661 103.068H50.9381C51.0314 103.068 51.1061 103.096 51.1621 103.152C51.2274 103.199 51.2554 103.269 51.2461 103.362C51.2368 103.502 51.1621 103.675 51.0221 103.88C50.8821 104.076 50.6814 104.272 50.4201 104.468C50.1588 104.664 49.8414 104.827 49.4681 104.958C49.0948 105.079 48.6654 105.14 48.1801 105.14ZM46.2761 100.828H50.1121V100.786C50.1121 100.366 50.0328 99.9927 49.8741 99.666C49.7248 99.3393 49.5054 99.0827 49.2161 98.896C48.9268 98.7 48.5814 98.602 48.1801 98.602C47.7788 98.602 47.4334 98.7 47.1441 98.896C46.8641 99.0827 46.6494 99.3393 46.5001 99.666C46.3508 99.9927 46.2761 100.366 46.2761 100.786V100.828ZM53.4381 105C53.3447 105 53.2654 104.972 53.2001 104.916C53.1441 104.851 53.1161 104.771 53.1161 104.678V98.042C53.1161 97.9487 53.1441 97.874 53.2001 97.818C53.2654 97.7527 53.3447 97.72 53.4381 97.72H54.0961C54.1894 97.72 54.2641 97.7527 54.3201 97.818C54.3854 97.874 54.4181 97.9487 54.4181 98.042V98.658C54.6607 98.3407 54.9641 98.084 55.3281 97.888C55.7014 97.6827 56.1774 97.58 56.7561 97.58C57.3627 97.58 57.8761 97.7153 58.2961 97.986C58.7254 98.2473 59.0474 98.616 59.2621 99.092C59.4767 99.5587 59.5841 100.105 59.5841 100.73V104.678C59.5841 104.771 59.5561 104.851 59.5001 104.916C59.4441 104.972 59.3694 105 59.2761 105H58.5761C58.4827 105 58.4034 104.972 58.3381 104.916C58.2821 104.851 58.2541 104.771 58.2541 104.678V100.8C58.2541 100.147 58.0954 99.638 57.7781 99.274C57.4607 98.9007 56.9941 98.714 56.3781 98.714C55.7994 98.714 55.3327 98.9007 54.9781 99.274C54.6327 99.638 54.4601 100.147 54.4601 100.8V104.678C54.4601 104.771 54.4274 104.851 54.3621 104.916C54.3061 104.972 54.2314 105 54.1381 105H53.4381ZM64.3526 105C63.8299 105 63.4053 104.902 63.0786 104.706C62.7519 104.501 62.5139 104.216 62.3646 103.852C62.2153 103.479 62.1406 103.04 62.1406 102.536V98.84H61.0486C60.9553 98.84 60.8759 98.812 60.8106 98.756C60.7546 98.6907 60.7266 98.6113 60.7266 98.518V98.042C60.7266 97.9487 60.7546 97.874 60.8106 97.818C60.8759 97.7527 60.9553 97.72 61.0486 97.72H62.1406V95.382C62.1406 95.2887 62.1686 95.214 62.2246 95.158C62.2899 95.0927 62.3693 95.06 62.4626 95.06H63.1206C63.2139 95.06 63.2886 95.0927 63.3446 95.158C63.4099 95.214 63.4426 95.2887 63.4426 95.382V97.72H65.1786C65.2719 97.72 65.3466 97.7527 65.4026 97.818C65.4679 97.874 65.5006 97.9487 65.5006 98.042V98.518C65.5006 98.6113 65.4679 98.6907 65.4026 98.756C65.3466 98.812 65.2719 98.84 65.1786 98.84H63.4426V102.438C63.4426 102.877 63.5173 103.222 63.6666 103.474C63.8159 103.726 64.0819 103.852 64.4646 103.852H65.3186C65.4119 103.852 65.4866 103.885 65.5426 103.95C65.6079 104.006 65.6406 104.081 65.6406 104.174V104.678C65.6406 104.771 65.6079 104.851 65.5426 104.916C65.4866 104.972 65.4119 105 65.3186 105H64.3526ZM72.931 105.14C72.4083 105.14 71.9603 105.075 71.587 104.944C71.2137 104.813 70.9103 104.655 70.677 104.468C70.4437 104.281 70.2663 104.095 70.145 103.908C70.033 103.721 69.9723 103.572 69.963 103.46C69.9537 103.357 69.9863 103.278 70.061 103.222C70.1357 103.166 70.2103 103.138 70.285 103.138H70.901C70.957 103.138 70.999 103.147 71.027 103.166C71.0643 103.175 71.111 103.213 71.167 103.278C71.2883 103.409 71.4237 103.539 71.573 103.67C71.7223 103.801 71.9043 103.908 72.119 103.992C72.343 104.076 72.6183 104.118 72.945 104.118C73.421 104.118 73.813 104.029 74.121 103.852C74.429 103.665 74.583 103.395 74.583 103.04C74.583 102.807 74.5177 102.62 74.387 102.48C74.2657 102.34 74.0417 102.214 73.715 102.102C73.3977 101.99 72.959 101.873 72.399 101.752C71.839 101.621 71.3957 101.463 71.069 101.276C70.7423 101.08 70.509 100.851 70.369 100.59C70.229 100.319 70.159 100.016 70.159 99.68C70.159 99.3347 70.2617 99.0033 70.467 98.686C70.6723 98.3593 70.971 98.0933 71.363 97.888C71.7643 97.6827 72.2637 97.58 72.861 97.58C73.3463 97.58 73.7617 97.6407 74.107 97.762C74.4523 97.8833 74.737 98.0373 74.961 98.224C75.185 98.4013 75.353 98.5787 75.465 98.756C75.577 98.9333 75.6377 99.0827 75.647 99.204C75.6563 99.2973 75.6283 99.3767 75.563 99.442C75.4977 99.498 75.423 99.526 75.339 99.526H74.751C74.6857 99.526 74.6297 99.512 74.583 99.484C74.5457 99.456 74.5083 99.4233 74.471 99.386C74.3777 99.2647 74.2657 99.1433 74.135 99.022C74.0137 98.9007 73.8503 98.8027 73.645 98.728C73.449 98.644 73.1877 98.602 72.861 98.602C72.3943 98.602 72.0443 98.7 71.811 98.896C71.5777 99.092 71.461 99.3393 71.461 99.638C71.461 99.8153 71.5123 99.974 71.615 100.114C71.7177 100.254 71.9137 100.38 72.203 100.492C72.4923 100.604 72.9217 100.725 73.491 100.856C74.107 100.977 74.5923 101.141 74.947 101.346C75.3017 101.551 75.5537 101.789 75.703 102.06C75.8523 102.331 75.927 102.643 75.927 102.998C75.927 103.39 75.8103 103.749 75.577 104.076C75.353 104.403 75.017 104.664 74.569 104.86C74.1303 105.047 73.5843 105.14 72.931 105.14ZM77.8837 105C77.7904 105 77.7111 104.972 77.6457 104.916C77.5897 104.851 77.5617 104.771 77.5617 104.678V95.382C77.5617 95.2887 77.5897 95.214 77.6457 95.158C77.7111 95.0927 77.7904 95.06 77.8837 95.06H78.5837C78.6864 95.06 78.7657 95.0927 78.8217 95.158C78.8777 95.214 78.9057 95.2887 78.9057 95.382V98.644C79.1577 98.3267 79.4657 98.07 79.8297 97.874C80.1937 97.678 80.6557 97.58 81.2157 97.58C81.8224 97.58 82.3357 97.7153 82.7557 97.986C83.1851 98.2473 83.5071 98.616 83.7217 99.092C83.9457 99.5587 84.0577 100.105 84.0577 100.73V104.678C84.0577 104.771 84.0297 104.851 83.9737 104.916C83.9177 104.972 83.8384 105 83.7357 105H83.0357C82.9424 105 82.8631 104.972 82.7977 104.916C82.7417 104.851 82.7137 104.771 82.7137 104.678V100.8C82.7137 100.147 82.5551 99.638 82.2377 99.274C81.9204 98.9007 81.4537 98.714 80.8377 98.714C80.2591 98.714 79.7924 98.9007 79.4377 99.274C79.0831 99.638 78.9057 100.147 78.9057 100.8V104.678C78.9057 104.771 78.8777 104.851 78.8217 104.916C78.7657 104.972 78.6864 105 78.5837 105H77.8837ZM86.401 105C86.3076 105 86.2283 104.972 86.163 104.916C86.107 104.851 86.079 104.771 86.079 104.678V98.042C86.079 97.9487 86.107 97.874 86.163 97.818C86.2283 97.7527 86.3076 97.72 86.401 97.72H87.073C87.1663 97.72 87.241 97.7527 87.297 97.818C87.353 97.874 87.381 97.9487 87.381 98.042V104.678C87.381 104.771 87.353 104.851 87.297 104.916C87.241 104.972 87.1663 105 87.073 105H86.401ZM86.289 96.362C86.1956 96.362 86.1163 96.334 86.051 96.278C85.995 96.2127 85.967 96.1333 85.967 96.04V95.284C85.967 95.1907 85.995 95.116 86.051 95.06C86.1163 94.9947 86.1956 94.962 86.289 94.962H87.171C87.2643 94.962 87.339 94.9947 87.395 95.06C87.4603 95.116 87.493 95.1907 87.493 95.284V96.04C87.493 96.1333 87.4603 96.2127 87.395 96.278C87.339 96.334 87.2643 96.362 87.171 96.362H86.289ZM90.5196 105C90.4263 105 90.3469 104.972 90.2816 104.916C90.2256 104.851 90.1976 104.771 90.1976 104.678V98.84H89.0076C88.9143 98.84 88.8349 98.812 88.7696 98.756C88.7136 98.6907 88.6856 98.6113 88.6856 98.518V98.042C88.6856 97.9487 88.7136 97.874 88.7696 97.818C88.8349 97.7527 88.9143 97.72 89.0076 97.72H90.1976V97.02C90.1976 96.544 90.2769 96.1287 90.4356 95.774C90.5943 95.41 90.8463 95.13 91.1916 94.934C91.5463 94.738 92.0176 94.64 92.6056 94.64H93.4456C93.5389 94.64 93.6136 94.6727 93.6696 94.738C93.7256 94.794 93.7536 94.8687 93.7536 94.962V95.438C93.7536 95.5313 93.7256 95.6107 93.6696 95.676C93.6136 95.732 93.5389 95.76 93.4456 95.76H92.6336C92.1949 95.76 91.8963 95.8767 91.7376 96.11C91.5789 96.334 91.4996 96.6607 91.4996 97.09V97.72H93.3056C93.3989 97.72 93.4736 97.7527 93.5296 97.818C93.5856 97.874 93.6136 97.9487 93.6136 98.042V98.518C93.6136 98.6113 93.5856 98.6907 93.5296 98.756C93.4736 98.812 93.3989 98.84 93.3056 98.84H91.4996V104.678C91.4996 104.771 91.4669 104.851 91.4016 104.916C91.3456 104.972 91.2709 105 91.1776 105H90.5196ZM97.6983 105C97.1756 105 96.751 104.902 96.4243 104.706C96.0976 104.501 95.8596 104.216 95.7103 103.852C95.561 103.479 95.4863 103.04 95.4863 102.536V98.84H94.3943C94.301 98.84 94.2216 98.812 94.1563 98.756C94.1003 98.6907 94.0723 98.6113 94.0723 98.518V98.042C94.0723 97.9487 94.1003 97.874 94.1563 97.818C94.2216 97.7527 94.301 97.72 94.3943 97.72H95.4863V95.382C95.4863 95.2887 95.5143 95.214 95.5703 95.158C95.6356 95.0927 95.715 95.06 95.8083 95.06H96.4663C96.5596 95.06 96.6343 95.0927 96.6903 95.158C96.7556 95.214 96.7883 95.2887 96.7883 95.382V97.72H98.5243C98.6176 97.72 98.6923 97.7527 98.7483 97.818C98.8136 97.874 98.8463 97.9487 98.8463 98.042V98.518C98.8463 98.6113 98.8136 98.6907 98.7483 98.756C98.6923 98.812 98.6176 98.84 98.5243 98.84H96.7883V102.438C96.7883 102.877 96.863 103.222 97.0123 103.474C97.1616 103.726 97.4276 103.852 97.8103 103.852H98.6643C98.7576 103.852 98.8323 103.885 98.8883 103.95C98.9536 104.006 98.9863 104.081 98.9863 104.174V104.678C98.9863 104.771 98.9536 104.851 98.8883 104.916C98.8323 104.972 98.7576 105 98.6643 105H97.6983Z" fill="#333333"></path>
<rect x="219" y="52" width="2" height="56" fill="#EBEDEE"></rect>
<path d="M262.2 71.34C262.467 71.98 262.6 72.7133 262.6 73.54C262.6 74.2867 262.487 74.9467 262.26 75.52C261.953 76.36 261.447 77.0133 260.74 77.48C260.033 77.9333 259.18 78.16 258.18 78.16C257.193 78.16 256.333 77.9133 255.6 77.42C254.88 76.9133 254.367 76.2333 254.06 75.38C253.9 74.9667 253.807 74.4267 253.78 73.76C253.78 73.6 253.86 73.52 254.02 73.52H255.88C256.04 73.52 256.12 73.6 256.12 73.76C256.147 74.1867 256.213 74.5267 256.32 74.78C256.44 75.2067 256.66 75.5467 256.98 75.8C257.313 76.04 257.713 76.16 258.18 76.16C259.06 76.16 259.667 75.76 260 74.96C260.173 74.5733 260.26 74.0733 260.26 73.46C260.26 72.78 260.16 72.22 259.96 71.78C259.613 71.0333 259.013 70.66 258.16 70.66C257.933 70.66 257.627 70.7933 257.24 71.06C257.187 71.0867 257.14 71.1 257.1 71.1C257.033 71.1 256.967 71.06 256.9 70.98L255.98 69.7C255.94 69.6333 255.92 69.58 255.92 69.54C255.92 69.4733 255.947 69.4133 256 69.36L259.3 66.12C259.327 66.0933 259.333 66.0667 259.32 66.04C259.307 66.0133 259.28 66 259.24 66H254.24C254.173 66 254.113 65.98 254.06 65.94C254.02 65.8867 254 65.8267 254 65.76V64.24C254 64.1733 254.02 64.12 254.06 64.08C254.113 64.0267 254.173 64 254.24 64H262.22C262.287 64 262.34 64.0267 262.38 64.08C262.433 64.12 262.46 64.1733 262.46 64.24V65.98C262.46 66.1 262.42 66.2 262.34 66.28L259.48 69.16C259.427 69.2133 259.453 69.2533 259.56 69.28C260.8 69.4533 261.68 70.14 262.2 71.34ZM269.285 78.22C267.885 78.22 266.772 77.8267 265.945 77.04C265.132 76.24 264.725 75.1667 264.725 73.82V68.18C264.725 66.8467 265.132 65.7933 265.945 65.02C266.772 64.2333 267.885 63.84 269.285 63.84C270.685 63.84 271.798 64.2333 272.625 65.02C273.465 65.7933 273.885 66.8467 273.885 68.18V73.82C273.885 75.1667 273.465 76.24 272.625 77.04C271.798 77.8267 270.685 78.22 269.285 78.22ZM269.285 76.2C269.978 76.2 270.532 76 270.945 75.6C271.358 75.1867 271.565 74.6333 271.565 73.94V68.1C271.565 67.4067 271.358 66.86 270.945 66.46C270.532 66.0467 269.978 65.84 269.285 65.84C268.605 65.84 268.058 66.0467 267.645 66.46C267.245 66.86 267.045 67.4067 267.045 68.1V73.94C267.045 74.6333 267.245 75.1867 267.645 75.6C268.058 76 268.605 76.2 269.285 76.2Z" fill="#333333"></path>
<path d="M256.682 105C256.589 105 256.509 104.972 256.444 104.916C256.388 104.851 256.36 104.771 256.36 104.678V96.446H253.672C253.579 96.446 253.499 96.418 253.434 96.362C253.378 96.2967 253.35 96.2173 253.35 96.124V95.536C253.35 95.4333 253.378 95.354 253.434 95.298C253.499 95.2327 253.579 95.2 253.672 95.2H260.42C260.523 95.2 260.602 95.2327 260.658 95.298C260.723 95.354 260.756 95.4333 260.756 95.536V96.124C260.756 96.2173 260.723 96.2967 260.658 96.362C260.602 96.418 260.523 96.446 260.42 96.446H257.746V104.678C257.746 104.771 257.713 104.851 257.648 104.916C257.592 104.972 257.513 105 257.41 105H256.682ZM263.702 105.14C262.74 105.14 261.975 104.846 261.406 104.258C260.836 103.661 260.524 102.849 260.468 101.822C260.458 101.701 260.454 101.547 260.454 101.36C260.454 101.164 260.458 101.005 260.468 100.884C260.505 100.221 260.659 99.6427 260.93 99.148C261.2 98.644 261.569 98.2567 262.036 97.986C262.512 97.7153 263.067 97.58 263.702 97.58C264.411 97.58 265.004 97.7293 265.48 98.028C265.965 98.3267 266.334 98.7513 266.586 99.302C266.838 99.8527 266.964 100.497 266.964 101.234V101.472C266.964 101.575 266.931 101.654 266.866 101.71C266.81 101.766 266.735 101.794 266.642 101.794H261.798C261.798 101.803 261.798 101.822 261.798 101.85C261.798 101.878 261.798 101.901 261.798 101.92C261.816 102.303 261.9 102.662 262.05 102.998C262.199 103.325 262.414 103.591 262.694 103.796C262.974 104.001 263.31 104.104 263.702 104.104C264.038 104.104 264.318 104.053 264.542 103.95C264.766 103.847 264.948 103.735 265.088 103.614C265.228 103.483 265.321 103.385 265.368 103.32C265.452 103.199 265.517 103.129 265.564 103.11C265.61 103.082 265.685 103.068 265.788 103.068H266.46C266.553 103.068 266.628 103.096 266.684 103.152C266.749 103.199 266.777 103.269 266.768 103.362C266.758 103.502 266.684 103.675 266.544 103.88C266.404 104.076 266.203 104.272 265.942 104.468C265.68 104.664 265.363 104.827 264.99 104.958C264.616 105.079 264.187 105.14 263.702 105.14ZM261.798 100.828H265.634V100.786C265.634 100.366 265.554 99.9927 265.396 99.666C265.246 99.3393 265.027 99.0827 264.738 98.896C264.448 98.7 264.103 98.602 263.702 98.602C263.3 98.602 262.955 98.7 262.666 98.896C262.386 99.0827 262.171 99.3393 262.022 99.666C261.872 99.9927 261.798 100.366 261.798 100.786V100.828ZM270.668 105.14C270.201 105.14 269.776 105.047 269.394 104.86C269.011 104.673 268.703 104.421 268.47 104.104C268.236 103.787 268.12 103.427 268.12 103.026C268.12 102.382 268.381 101.869 268.904 101.486C269.426 101.103 270.108 100.851 270.948 100.73L273.034 100.436V100.03C273.034 99.582 272.903 99.232 272.642 98.98C272.39 98.728 271.974 98.602 271.396 98.602C270.976 98.602 270.635 98.686 270.374 98.854C270.122 99.022 269.944 99.2367 269.842 99.498C269.786 99.638 269.688 99.708 269.548 99.708H268.918C268.815 99.708 268.736 99.68 268.68 99.624C268.633 99.5587 268.61 99.484 268.61 99.4C268.61 99.26 268.661 99.0873 268.764 98.882C268.876 98.6767 269.044 98.476 269.268 98.28C269.492 98.084 269.776 97.9207 270.122 97.79C270.476 97.65 270.906 97.58 271.41 97.58C271.97 97.58 272.441 97.6547 272.824 97.804C273.206 97.944 273.505 98.1353 273.72 98.378C273.944 98.6207 274.102 98.896 274.196 99.204C274.298 99.512 274.35 99.8247 274.35 100.142V104.678C274.35 104.771 274.317 104.851 274.252 104.916C274.196 104.972 274.121 105 274.028 105H273.384C273.281 105 273.202 104.972 273.146 104.916C273.09 104.851 273.062 104.771 273.062 104.678V104.076C272.94 104.244 272.777 104.412 272.572 104.58C272.366 104.739 272.11 104.874 271.802 104.986C271.494 105.089 271.116 105.14 270.668 105.14ZM270.962 104.09C271.344 104.09 271.694 104.011 272.012 103.852C272.329 103.684 272.576 103.427 272.754 103.082C272.94 102.737 273.034 102.303 273.034 101.78V101.388L271.41 101.626C270.747 101.719 270.248 101.878 269.912 102.102C269.576 102.317 269.408 102.592 269.408 102.928C269.408 103.189 269.482 103.409 269.632 103.586C269.79 103.754 269.986 103.88 270.22 103.964C270.462 104.048 270.71 104.09 270.962 104.09ZM276.684 105C276.591 105 276.512 104.972 276.446 104.916C276.39 104.851 276.362 104.771 276.362 104.678V98.042C276.362 97.9487 276.39 97.874 276.446 97.818C276.512 97.7527 276.591 97.72 276.684 97.72H277.314C277.408 97.72 277.482 97.7527 277.538 97.818C277.604 97.874 277.636 97.9487 277.636 98.042V98.532C277.851 98.2427 278.122 98.014 278.448 97.846C278.775 97.6687 279.167 97.58 279.624 97.58C280.679 97.5707 281.426 98 281.864 98.868C282.079 98.476 282.392 98.1633 282.802 97.93C283.213 97.6967 283.68 97.58 284.202 97.58C284.688 97.58 285.126 97.692 285.518 97.916C285.92 98.14 286.232 98.4807 286.456 98.938C286.69 99.386 286.806 99.9507 286.806 100.632V104.678C286.806 104.771 286.774 104.851 286.708 104.916C286.652 104.972 286.578 105 286.484 105H285.826C285.733 105 285.654 104.972 285.588 104.916C285.532 104.851 285.504 104.771 285.504 104.678V100.758C285.504 100.235 285.43 99.8247 285.28 99.526C285.131 99.2273 284.93 99.0173 284.678 98.896C284.426 98.7747 284.151 98.714 283.852 98.714C283.61 98.714 283.362 98.7747 283.11 98.896C282.858 99.0173 282.648 99.2273 282.48 99.526C282.322 99.8247 282.242 100.235 282.242 100.758V104.678C282.242 104.771 282.21 104.851 282.144 104.916C282.088 104.972 282.014 105 281.92 105H281.262C281.169 105 281.09 104.972 281.024 104.916C280.968 104.851 280.94 104.771 280.94 104.678V100.758C280.94 100.235 280.861 99.8247 280.702 99.526C280.544 99.2273 280.338 99.0173 280.086 98.896C279.834 98.7747 279.568 98.714 279.288 98.714C279.046 98.714 278.798 98.7747 278.546 98.896C278.294 99.0173 278.084 99.2273 277.916 99.526C277.758 99.8247 277.678 100.231 277.678 100.744V104.678C277.678 104.771 277.646 104.851 277.58 104.916C277.524 104.972 277.45 105 277.356 105H276.684ZM292.557 105C292.464 105 292.385 104.972 292.319 104.916C292.263 104.851 292.235 104.771 292.235 104.678V98.042C292.235 97.9487 292.263 97.874 292.319 97.818C292.385 97.7527 292.464 97.72 292.557 97.72H293.187C293.281 97.72 293.355 97.7527 293.411 97.818C293.477 97.874 293.509 97.9487 293.509 98.042V98.532C293.724 98.2427 293.995 98.014 294.321 97.846C294.648 97.6687 295.04 97.58 295.497 97.58C296.552 97.5707 297.299 98 297.737 98.868C297.952 98.476 298.265 98.1633 298.675 97.93C299.086 97.6967 299.553 97.58 300.075 97.58C300.561 97.58 300.999 97.692 301.391 97.916C301.793 98.14 302.105 98.4807 302.329 98.938C302.563 99.386 302.679 99.9507 302.679 100.632V104.678C302.679 104.771 302.647 104.851 302.581 104.916C302.525 104.972 302.451 105 302.357 105H301.699C301.606 105 301.527 104.972 301.461 104.916C301.405 104.851 301.377 104.771 301.377 104.678V100.758C301.377 100.235 301.303 99.8247 301.153 99.526C301.004 99.2273 300.803 99.0173 300.551 98.896C300.299 98.7747 300.024 98.714 299.725 98.714C299.483 98.714 299.235 98.7747 298.983 98.896C298.731 99.0173 298.521 99.2273 298.353 99.526C298.195 99.8247 298.115 100.235 298.115 100.758V104.678C298.115 104.771 298.083 104.851 298.017 104.916C297.961 104.972 297.887 105 297.793 105H297.135C297.042 105 296.963 104.972 296.897 104.916C296.841 104.851 296.813 104.771 296.813 104.678V100.758C296.813 100.235 296.734 99.8247 296.575 99.526C296.417 99.2273 296.211 99.0173 295.959 98.896C295.707 98.7747 295.441 98.714 295.161 98.714C294.919 98.714 294.671 98.7747 294.419 98.896C294.167 99.0173 293.957 99.2273 293.789 99.526C293.631 99.8247 293.551 100.231 293.551 100.744V104.678C293.551 104.771 293.519 104.851 293.453 104.916C293.397 104.972 293.323 105 293.229 105H292.557ZM307.575 105.14C306.613 105.14 305.848 104.846 305.279 104.258C304.709 103.661 304.397 102.849 304.341 101.822C304.331 101.701 304.327 101.547 304.327 101.36C304.327 101.164 304.331 101.005 304.341 100.884C304.378 100.221 304.532 99.6427 304.803 99.148C305.073 98.644 305.442 98.2567 305.909 97.986C306.385 97.7153 306.94 97.58 307.575 97.58C308.284 97.58 308.877 97.7293 309.353 98.028C309.838 98.3267 310.207 98.7513 310.459 99.302C310.711 99.8527 310.837 100.497 310.837 101.234V101.472C310.837 101.575 310.804 101.654 310.739 101.71C310.683 101.766 310.608 101.794 310.515 101.794H305.671C305.671 101.803 305.671 101.822 305.671 101.85C305.671 101.878 305.671 101.901 305.671 101.92C305.689 102.303 305.773 102.662 305.923 102.998C306.072 103.325 306.287 103.591 306.567 103.796C306.847 104.001 307.183 104.104 307.575 104.104C307.911 104.104 308.191 104.053 308.415 103.95C308.639 103.847 308.821 103.735 308.961 103.614C309.101 103.483 309.194 103.385 309.241 103.32C309.325 103.199 309.39 103.129 309.437 103.11C309.483 103.082 309.558 103.068 309.661 103.068H310.333C310.426 103.068 310.501 103.096 310.557 103.152C310.622 103.199 310.65 103.269 310.641 103.362C310.631 103.502 310.557 103.675 310.417 103.88C310.277 104.076 310.076 104.272 309.815 104.468C309.553 104.664 309.236 104.827 308.863 104.958C308.489 105.079 308.06 105.14 307.575 105.14ZM305.671 100.828H309.507V100.786C309.507 100.366 309.427 99.9927 309.269 99.666C309.119 99.3393 308.9 99.0827 308.611 98.896C308.321 98.7 307.976 98.602 307.575 98.602C307.173 98.602 306.828 98.7 306.539 98.896C306.259 99.0827 306.044 99.3393 305.895 99.666C305.745 99.9927 305.671 100.366 305.671 100.786V100.828ZM312.833 105C312.739 105 312.66 104.972 312.595 104.916C312.539 104.851 312.511 104.771 312.511 104.678V98.042C312.511 97.9487 312.539 97.874 312.595 97.818C312.66 97.7527 312.739 97.72 312.833 97.72H313.463C313.556 97.72 313.631 97.7527 313.687 97.818C313.752 97.874 313.785 97.9487 313.785 98.042V98.532C313.999 98.2427 314.27 98.014 314.597 97.846C314.923 97.6687 315.315 97.58 315.773 97.58C316.827 97.5707 317.574 98 318.013 98.868C318.227 98.476 318.54 98.1633 318.951 97.93C319.361 97.6967 319.828 97.58 320.351 97.58C320.836 97.58 321.275 97.692 321.667 97.916C322.068 98.14 322.381 98.4807 322.605 98.938C322.838 99.386 322.955 99.9507 322.955 100.632V104.678C322.955 104.771 322.922 104.851 322.857 104.916C322.801 104.972 322.726 105 322.633 105H321.975C321.881 105 321.802 104.972 321.737 104.916C321.681 104.851 321.653 104.771 321.653 104.678V100.758C321.653 100.235 321.578 99.8247 321.429 99.526C321.279 99.2273 321.079 99.0173 320.827 98.896C320.575 98.7747 320.299 98.714 320.001 98.714C319.758 98.714 319.511 98.7747 319.259 98.896C319.007 99.0173 318.797 99.2273 318.629 99.526C318.47 99.8247 318.391 100.235 318.391 100.758V104.678C318.391 104.771 318.358 104.851 318.293 104.916C318.237 104.972 318.162 105 318.069 105H317.411C317.317 105 317.238 104.972 317.173 104.916C317.117 104.851 317.089 104.771 317.089 104.678V100.758C317.089 100.235 317.009 99.8247 316.851 99.526C316.692 99.2273 316.487 99.0173 316.235 98.896C315.983 98.7747 315.717 98.714 315.437 98.714C315.194 98.714 314.947 98.7747 314.695 98.896C314.443 99.0173 314.233 99.2273 314.065 99.526C313.906 99.8247 313.827 100.231 313.827 100.744V104.678C313.827 104.771 313.794 104.851 313.729 104.916C313.673 104.972 313.598 105 313.505 105H312.833ZM328.55 105.14C327.99 105.14 327.523 105.042 327.15 104.846C326.777 104.641 326.478 104.389 326.254 104.09V104.678C326.254 104.771 326.221 104.851 326.156 104.916C326.1 104.972 326.025 105 325.932 105H325.288C325.195 105 325.115 104.972 325.05 104.916C324.994 104.851 324.966 104.771 324.966 104.678V95.382C324.966 95.2887 324.994 95.214 325.05 95.158C325.115 95.0927 325.195 95.06 325.288 95.06H325.96C326.063 95.06 326.142 95.0927 326.198 95.158C326.254 95.214 326.282 95.2887 326.282 95.382V98.602C326.515 98.3127 326.814 98.07 327.178 97.874C327.551 97.678 328.009 97.58 328.55 97.58C329.073 97.58 329.516 97.6733 329.88 97.86C330.253 98.0373 330.557 98.2847 330.79 98.602C331.033 98.9193 331.215 99.2787 331.336 99.68C331.457 100.081 331.523 100.501 331.532 100.94C331.541 101.089 331.546 101.229 331.546 101.36C331.546 101.491 331.541 101.631 331.532 101.78C331.523 102.228 331.457 102.653 331.336 103.054C331.215 103.455 331.033 103.815 330.79 104.132C330.557 104.44 330.253 104.687 329.88 104.874C329.516 105.051 329.073 105.14 328.55 105.14ZM328.256 104.006C328.741 104.006 329.119 103.903 329.39 103.698C329.67 103.483 329.871 103.208 329.992 102.872C330.113 102.527 330.183 102.158 330.202 101.766C330.211 101.495 330.211 101.225 330.202 100.954C330.183 100.562 330.113 100.198 329.992 99.862C329.871 99.5167 329.67 99.2413 329.39 99.036C329.119 98.8213 328.741 98.714 328.256 98.714C327.817 98.714 327.453 98.8167 327.164 99.022C326.875 99.2273 326.655 99.4887 326.506 99.806C326.366 100.123 326.291 100.445 326.282 100.772C326.273 100.921 326.268 101.103 326.268 101.318C326.268 101.523 326.273 101.701 326.282 101.85C326.301 102.195 326.375 102.536 326.506 102.872C326.646 103.199 326.856 103.469 327.136 103.684C327.425 103.899 327.799 104.006 328.256 104.006ZM336.176 105.14C335.215 105.14 334.45 104.846 333.88 104.258C333.311 103.661 332.998 102.849 332.942 101.822C332.933 101.701 332.928 101.547 332.928 101.36C332.928 101.164 332.933 101.005 332.942 100.884C332.98 100.221 333.134 99.6427 333.404 99.148C333.675 98.644 334.044 98.2567 334.51 97.986C334.986 97.7153 335.542 97.58 336.176 97.58C336.886 97.58 337.478 97.7293 337.954 98.028C338.44 98.3267 338.808 98.7513 339.06 99.302C339.312 99.8527 339.438 100.497 339.438 101.234V101.472C339.438 101.575 339.406 101.654 339.34 101.71C339.284 101.766 339.21 101.794 339.116 101.794H334.272C334.272 101.803 334.272 101.822 334.272 101.85C334.272 101.878 334.272 101.901 334.272 101.92C334.291 102.303 334.375 102.662 334.524 102.998C334.674 103.325 334.888 103.591 335.168 103.796C335.448 104.001 335.784 104.104 336.176 104.104C336.512 104.104 336.792 104.053 337.016 103.95C337.24 103.847 337.422 103.735 337.562 103.614C337.702 103.483 337.796 103.385 337.842 103.32C337.926 103.199 337.992 103.129 338.038 103.11C338.085 103.082 338.16 103.068 338.262 103.068H338.934C339.028 103.068 339.102 103.096 339.158 103.152C339.224 103.199 339.252 103.269 339.242 103.362C339.233 103.502 339.158 103.675 339.018 103.88C338.878 104.076 338.678 104.272 338.416 104.468C338.155 104.664 337.838 104.827 337.464 104.958C337.091 105.079 336.662 105.14 336.176 105.14ZM334.272 100.828H338.108V100.786C338.108 100.366 338.029 99.9927 337.87 99.666C337.721 99.3393 337.502 99.0827 337.212 98.896C336.923 98.7 336.578 98.602 336.176 98.602C335.775 98.602 335.43 98.7 335.14 98.896C334.86 99.0827 334.646 99.3393 334.496 99.666C334.347 99.9927 334.272 100.366 334.272 100.786V100.828ZM341.434 105C341.341 105 341.262 104.972 341.196 104.916C341.14 104.851 341.112 104.771 341.112 104.678V98.056C341.112 97.9627 341.14 97.8833 341.196 97.818C341.262 97.7527 341.341 97.72 341.434 97.72H342.078C342.172 97.72 342.251 97.7527 342.316 97.818C342.382 97.8833 342.414 97.9627 342.414 98.056V98.672C342.601 98.3547 342.858 98.1167 343.184 97.958C343.511 97.7993 343.903 97.72 344.36 97.72H344.92C345.014 97.72 345.088 97.7527 345.144 97.818C345.2 97.874 345.228 97.9487 345.228 98.042V98.616C345.228 98.7093 345.2 98.784 345.144 98.84C345.088 98.896 345.014 98.924 344.92 98.924H344.08C343.576 98.924 343.18 99.0733 342.89 99.372C342.601 99.6613 342.456 100.058 342.456 100.562V104.678C342.456 104.771 342.424 104.851 342.358 104.916C342.293 104.972 342.214 105 342.12 105H341.434ZM348.951 105.14C348.428 105.14 347.98 105.075 347.607 104.944C347.233 104.813 346.93 104.655 346.697 104.468C346.463 104.281 346.286 104.095 346.165 103.908C346.053 103.721 345.992 103.572 345.983 103.46C345.973 103.357 346.006 103.278 346.081 103.222C346.155 103.166 346.23 103.138 346.305 103.138H346.921C346.977 103.138 347.019 103.147 347.047 103.166C347.084 103.175 347.131 103.213 347.187 103.278C347.308 103.409 347.443 103.539 347.593 103.67C347.742 103.801 347.924 103.908 348.139 103.992C348.363 104.076 348.638 104.118 348.965 104.118C349.441 104.118 349.833 104.029 350.141 103.852C350.449 103.665 350.603 103.395 350.603 103.04C350.603 102.807 350.537 102.62 350.407 102.48C350.285 102.34 350.061 102.214 349.735 102.102C349.417 101.99 348.979 101.873 348.419 101.752C347.859 101.621 347.415 101.463 347.089 101.276C346.762 101.08 346.529 100.851 346.389 100.59C346.249 100.319 346.179 100.016 346.179 99.68C346.179 99.3347 346.281 99.0033 346.487 98.686C346.692 98.3593 346.991 98.0933 347.383 97.888C347.784 97.6827 348.283 97.58 348.881 97.58C349.366 97.58 349.781 97.6407 350.127 97.762C350.472 97.8833 350.757 98.0373 350.981 98.224C351.205 98.4013 351.373 98.5787 351.485 98.756C351.597 98.9333 351.657 99.0827 351.667 99.204C351.676 99.2973 351.648 99.3767 351.583 99.442C351.517 99.498 351.443 99.526 351.359 99.526H350.771C350.705 99.526 350.649 99.512 350.603 99.484C350.565 99.456 350.528 99.4233 350.491 99.386C350.397 99.2647 350.285 99.1433 350.155 99.022C350.033 98.9007 349.87 98.8027 349.665 98.728C349.469 98.644 349.207 98.602 348.881 98.602C348.414 98.602 348.064 98.7 347.831 98.896C347.597 99.092 347.481 99.3393 347.481 99.638C347.481 99.8153 347.532 99.974 347.635 100.114C347.737 100.254 347.933 100.38 348.223 100.492C348.512 100.604 348.941 100.725 349.511 100.856C350.127 100.977 350.612 101.141 350.967 101.346C351.321 101.551 351.573 101.789 351.723 102.06C351.872 102.331 351.947 102.643 351.947 102.998C351.947 103.39 351.83 103.749 351.597 104.076C351.373 104.403 351.037 104.664 350.589 104.86C350.15 105.047 349.604 105.14 348.951 105.14Z" fill="#333333"></path>
<rect x="16.5" y="128.5" width="31" height="31" rx="15.5" fill="#EAF0FD"></rect>
<rect x="16.5" y="128.5" width="31" height="31" rx="15.5" stroke="#DAE5FC"></rect>
<path d="M27.3311 149L23.9199 139.136H25.8613L28.3018 146.963H28.418L30.8652 139.136H32.8066L29.3887 149H27.3311ZM36.1426 149.246C35.6641 149.246 35.2357 149.178 34.8574 149.041C34.4792 148.904 34.1556 148.711 33.8867 148.46C33.6224 148.209 33.415 147.911 33.2646 147.564C33.1188 147.214 33.0368 146.826 33.0186 146.402L33.0117 146.327H34.7344L34.7412 146.382C34.7594 146.632 34.821 146.858 34.9258 147.059C35.0352 147.255 35.1901 147.412 35.3906 147.53C35.5911 147.644 35.835 147.701 36.1221 147.701C36.6006 147.701 36.9629 147.562 37.209 147.284C37.4596 147.002 37.585 146.594 37.585 146.061V139.136H39.3418V146.074C39.3418 146.74 39.2165 147.309 38.9658 147.783C38.7152 148.257 38.3506 148.619 37.8721 148.87C37.3936 149.121 36.8171 149.246 36.1426 149.246Z" fill="#2D6AEC"></path>
<rect x="56.5" y="128.5" width="31" height="31" rx="15.5" fill="#EAF0FD"></rect>
<rect x="56.5" y="128.5" width="31" height="31" rx="15.5" stroke="#DAE5FC"></rect>
<path d="M62.8877 149L66.3877 139.136H67.8506V140.968H67.3242L64.7334 149H62.8877ZM64.6514 146.45L65.1094 145.09H69.6348L70.0928 146.45H64.6514ZM70.0312 149L67.4404 140.968V139.136H68.3701L71.877 149H70.0312ZM74.4541 145.739V144.317H77.0791C77.7126 144.317 78.2048 144.156 78.5557 143.832C78.9066 143.504 79.082 143.044 79.082 142.451V142.438C79.082 141.84 78.9066 141.38 78.5557 141.057C78.2048 140.733 77.7126 140.571 77.0791 140.571H74.4541V139.136H77.5098C78.1797 139.136 78.7653 139.272 79.2666 139.546C79.7679 139.819 80.1598 140.204 80.4424 140.701C80.7249 141.193 80.8662 141.77 80.8662 142.431V142.444C80.8662 143.101 80.7249 143.677 80.4424 144.174C80.1598 144.666 79.7679 145.051 79.2666 145.329C78.7653 145.603 78.1797 145.739 77.5098 145.739H74.4541ZM73.5723 149V139.136H75.3359V149H73.5723Z" fill="#2D6AEC"></path>
<rect x="96.5" y="128.5" width="31" height="31" rx="15.5" fill="#EAF0FD"></rect>
<rect x="96.5" y="128.5" width="31" height="31" rx="15.5" stroke="#DAE5FC"></rect>
<path d="M103.414 149L106.914 139.136H108.377V140.968H107.851L105.26 149H103.414ZM105.178 146.45L105.636 145.09H110.161L110.619 146.45H105.178ZM110.558 149L107.967 140.968V139.136H108.896L112.403 149H110.558ZM114.099 149V139.136H115.862V147.517H120.381V149H114.099Z" fill="#2D6AEC"></path>
<rect x="136.5" y="128.5" width="31" height="31" rx="15.5" fill="#EAF0FD"></rect>
<rect x="136.5" y="128.5" width="31" height="31" rx="15.5" stroke="#DAE5FC"></rect>
<path d="M147.584 149V140.619H144.549V139.136H152.383V140.619H149.348V149H147.584ZM155.664 149.246C155.186 149.246 154.757 149.178 154.379 149.041C154.001 148.904 153.677 148.711 153.408 148.46C153.144 148.209 152.937 147.911 152.786 147.564C152.64 147.214 152.558 146.826 152.54 146.402L152.533 146.327H154.256L154.263 146.382C154.281 146.632 154.342 146.858 154.447 147.059C154.557 147.255 154.712 147.412 154.912 147.53C155.113 147.644 155.356 147.701 155.644 147.701C156.122 147.701 156.484 147.562 156.73 147.284C156.981 147.002 157.106 146.594 157.106 146.061V139.136H158.863V146.074C158.863 146.74 158.738 147.309 158.487 147.783C158.237 148.257 157.872 148.619 157.394 148.87C156.915 149.121 156.339 149.246 155.664 149.246Z" fill="#2D6AEC"></path>
<rect x="176.5" y="128.5" width="31" height="31" rx="15.5" fill="#EAF0FD"></rect>
<rect x="176.5" y="128.5" width="31" height="31" rx="15.5" stroke="#DAE5FC"></rect>
<path d="M183.811 149V139.136H185.574V147.517H190.093V149H183.811ZM192 149V139.136H193.531L198.822 146.553L197.605 145.931H198.487V139.136H200.183V149H198.658L193.367 141.576L194.584 142.198H193.702V149H192Z" fill="#2D6AEC"></path>
<rect x="216.5" y="128.5" width="31" height="31" rx="15.5" fill="#EAF0FD"></rect>
<rect x="216.5" y="128.5" width="31" height="31" rx="15.5" stroke="#DAE5FC"></rect>
<path d="M223.277 149V139.136H227.263C227.969 139.136 228.575 139.261 229.081 139.512C229.587 139.762 229.974 140.116 230.243 140.571C230.512 141.027 230.646 141.569 230.646 142.198V142.212C230.646 142.864 230.482 143.442 230.154 143.948C229.831 144.45 229.377 144.805 228.794 145.015L230.947 149H228.938L226.996 145.288C226.987 145.288 226.973 145.288 226.955 145.288C226.937 145.288 226.921 145.288 226.907 145.288H225.041V149H223.277ZM225.041 143.935H227.078C227.639 143.935 228.074 143.786 228.384 143.49C228.694 143.194 228.849 142.782 228.849 142.253V142.239C228.849 141.724 228.687 141.316 228.363 141.016C228.044 140.71 227.604 140.558 227.044 140.558H225.041V143.935ZM232.793 149V139.136H236.491C237.471 139.136 238.305 139.327 238.993 139.71C239.686 140.093 240.215 140.649 240.579 141.378C240.948 142.107 241.133 142.987 241.133 144.017V144.03C241.133 145.083 240.951 145.981 240.586 146.724C240.221 147.462 239.693 148.027 239 148.419C238.312 148.806 237.476 149 236.491 149H232.793ZM234.557 147.517H236.259C236.91 147.517 237.466 147.382 237.927 147.113C238.387 146.844 238.736 146.452 238.973 145.938C239.214 145.423 239.335 144.796 239.335 144.058V144.044C239.335 143.324 239.212 142.709 238.966 142.198C238.724 141.683 238.373 141.291 237.913 141.022C237.453 140.754 236.901 140.619 236.259 140.619H234.557V147.517Z" fill="#2D6AEC"></path>
<rect x="256.5" y="128.5" width="31" height="31" rx="15.5" fill="#EAF0FD"></rect>
<rect x="256.5" y="128.5" width="31" height="31" rx="15.5" stroke="#DAE5FC"></rect>
<path d="M263.701 149V139.136H267.687C268.393 139.136 268.999 139.261 269.505 139.512C270.011 139.762 270.398 140.116 270.667 140.571C270.936 141.027 271.07 141.569 271.07 142.198V142.212C271.07 142.864 270.906 143.442 270.578 143.948C270.255 144.45 269.801 144.805 269.218 145.015L271.371 149H269.361L267.42 145.288C267.411 145.288 267.397 145.288 267.379 145.288C267.361 145.288 267.345 145.288 267.331 145.288H265.465V149H263.701ZM265.465 143.935H267.502C268.062 143.935 268.498 143.786 268.808 143.49C269.118 143.194 269.272 142.782 269.272 142.253V142.239C269.272 141.724 269.111 141.316 268.787 141.016C268.468 140.71 268.028 140.558 267.468 140.558H265.465V143.935ZM273.217 149V139.136H277.202C277.909 139.136 278.515 139.261 279.021 139.512C279.526 139.762 279.914 140.116 280.183 140.571C280.451 141.027 280.586 141.569 280.586 142.198V142.212C280.586 142.864 280.422 143.442 280.094 143.948C279.77 144.45 279.317 144.805 278.733 145.015L280.887 149H278.877L276.936 145.288C276.926 145.288 276.913 145.288 276.895 145.288C276.876 145.288 276.86 145.288 276.847 145.288H274.98V149H273.217ZM274.98 143.935H277.018C277.578 143.935 278.013 143.786 278.323 143.49C278.633 143.194 278.788 142.782 278.788 142.253V142.239C278.788 141.724 278.626 141.316 278.303 141.016C277.984 140.71 277.544 140.558 276.983 140.558H274.98V143.935Z" fill="#2D6AEC"></path>
<rect x="296.5" y="128.5" width="31" height="31" rx="15.5" fill="#EAF0FD"></rect>
<rect x="296.5" y="128.5" width="31" height="31" rx="15.5" stroke="#DAE5FC"></rect>
<path d="M303.407 149V139.136H307.105C308.085 139.136 308.919 139.327 309.607 139.71C310.3 140.093 310.829 140.649 311.193 141.378C311.562 142.107 311.747 142.987 311.747 144.017V144.03C311.747 145.083 311.565 145.981 311.2 146.724C310.836 147.462 310.307 148.027 309.614 148.419C308.926 148.806 308.09 149 307.105 149H303.407ZM305.171 147.517H306.873C307.525 147.517 308.081 147.382 308.541 147.113C309.001 146.844 309.35 146.452 309.587 145.938C309.828 145.423 309.949 144.796 309.949 144.058V144.044C309.949 143.324 309.826 142.709 309.58 142.198C309.339 141.683 308.988 141.291 308.527 141.022C308.067 140.754 307.516 140.619 306.873 140.619H305.171V147.517ZM317.195 149.246C316.43 149.246 315.764 149.128 315.199 148.891C314.639 148.654 314.197 148.323 313.873 147.899C313.549 147.476 313.367 146.981 313.326 146.416L313.319 146.32H315.028L315.035 146.389C315.062 146.667 315.172 146.908 315.363 147.113C315.559 147.318 315.819 147.48 316.143 147.599C316.466 147.713 316.835 147.77 317.25 147.77C317.646 147.77 317.997 147.708 318.303 147.585C318.608 147.462 318.847 147.293 319.021 147.079C319.194 146.86 319.28 146.61 319.28 146.327V146.32C319.28 145.965 319.141 145.675 318.863 145.452C318.585 145.224 318.127 145.042 317.489 144.905L316.43 144.687C315.418 144.472 314.682 144.131 314.222 143.661C313.766 143.187 313.538 142.583 313.538 141.85V141.843C313.538 141.255 313.693 140.74 314.003 140.298C314.317 139.856 314.748 139.512 315.295 139.266C315.846 139.015 316.478 138.89 317.188 138.89C317.918 138.89 318.549 139.013 319.082 139.259C319.615 139.5 320.035 139.831 320.34 140.25C320.645 140.669 320.816 141.143 320.853 141.672L320.859 141.761H319.178L319.164 141.679C319.123 141.419 319.016 141.193 318.843 141.002C318.674 140.806 318.449 140.651 318.166 140.537C317.883 140.423 317.553 140.366 317.175 140.366C316.815 140.366 316.493 140.423 316.211 140.537C315.928 140.646 315.705 140.801 315.541 141.002C315.382 141.202 315.302 141.444 315.302 141.727V141.733C315.302 142.08 315.436 142.367 315.705 142.595C315.979 142.823 316.423 143 317.038 143.128L318.098 143.354C318.79 143.499 319.353 143.693 319.786 143.935C320.219 144.176 320.536 144.477 320.736 144.837C320.941 145.192 321.044 145.621 321.044 146.122V146.129C321.044 146.767 320.887 147.318 320.572 147.783C320.262 148.248 319.818 148.608 319.239 148.863C318.665 149.118 317.984 149.246 317.195 149.246Z" fill="#2D6AEC"></path>
<rect x="336.5" y="128.5" width="31" height="31" rx="15.5" fill="#EAF0FD"></rect>
<rect x="336.5" y="128.5" width="31" height="31" rx="15.5" stroke="#DAE5FC"></rect>
<path d="M345.909 145.985L345.841 143.695H346.162L350.052 139.136H352.068L348.213 143.586L347.229 144.454L345.909 145.985ZM344.282 149V139.136H346.046V149H344.282ZM350.216 149L346.982 144.44L348.227 143.265L352.369 149H350.216ZM353.962 149V139.136H355.726V147.517H360.244V149H353.962Z" fill="#2D6AEC"></path>
<rect x="376.5" y="128.5" width="31" height="31" rx="15.5" fill="#EAF0FD"></rect>
<rect x="376.5" y="128.5" width="31" height="31" rx="15.5" stroke="#DAE5FC"></rect>
<path d="M384.501 149V139.136H386.265V147.517H390.783V149H384.501ZM393.572 145.739V144.317H396.197C396.831 144.317 397.323 144.156 397.674 143.832C398.025 143.504 398.2 143.044 398.2 142.451V142.438C398.2 141.84 398.025 141.38 397.674 141.057C397.323 140.733 396.831 140.571 396.197 140.571H393.572V139.136H396.628C397.298 139.136 397.883 139.272 398.385 139.546C398.886 139.819 399.278 140.204 399.561 140.701C399.843 141.193 399.984 141.77 399.984 142.431V142.444C399.984 143.101 399.843 143.677 399.561 144.174C399.278 144.666 398.886 145.051 398.385 145.329C397.883 145.603 397.298 145.739 396.628 145.739H393.572ZM392.69 149V139.136H394.454V149H392.69Z" fill="#2D6AEC"></path>
<rect x="416.5" y="128.5" width="31" height="31" rx="15.5" fill="#EAF0FD"></rect>
<rect x="416.5" y="128.5" width="31" height="31" rx="15.5" stroke="#DAE5FC"></rect>
<path d="M424.405 149V147.633H427.338C427.99 147.633 428.484 147.501 428.821 147.236C429.159 146.967 429.327 146.582 429.327 146.081V146.067C429.327 145.735 429.25 145.454 429.095 145.227C428.94 144.999 428.707 144.828 428.397 144.714C428.092 144.6 427.714 144.543 427.263 144.543H424.405V143.292H426.989C427.614 143.292 428.088 143.174 428.411 142.937C428.739 142.7 428.903 142.358 428.903 141.911V141.897C428.903 141.46 428.755 141.118 428.459 140.872C428.163 140.626 427.748 140.503 427.215 140.503H424.405V139.136H427.639C428.268 139.136 428.805 139.236 429.252 139.437C429.699 139.632 430.043 139.915 430.284 140.284C430.526 140.649 430.646 141.084 430.646 141.59V141.604C430.646 141.95 430.567 142.273 430.407 142.574C430.252 142.875 430.043 143.126 429.778 143.326C429.519 143.527 429.222 143.654 428.89 143.709V143.832C429.332 143.873 429.719 144.001 430.052 144.215C430.389 144.424 430.651 144.7 430.838 145.042C431.029 145.384 431.125 145.767 431.125 146.19V146.204C431.125 146.778 430.988 147.275 430.715 147.694C430.446 148.114 430.059 148.437 429.553 148.665C429.047 148.888 428.443 149 427.741 149H424.405ZM423.523 149V139.136H425.287V149H423.523ZM435.732 149L432.321 139.136H434.263L436.703 146.963H436.819L439.267 139.136H441.208L437.79 149H435.732Z" fill="#2D6AEC"></path>
<rect x="456.5" y="128.5" width="31" height="31" rx="15.5" fill="#EAF0FD"></rect>
<rect x="456.5" y="128.5" width="31" height="31" rx="15.5" stroke="#DAE5FC"></rect>
<path d="M466.203 149L462.792 139.136H464.733L467.174 146.963H467.29L469.737 139.136H471.679L468.261 149H466.203ZM474.263 149V147.633H477.195C477.847 147.633 478.341 147.501 478.679 147.236C479.016 146.967 479.185 146.582 479.185 146.081V146.067C479.185 145.735 479.107 145.454 478.952 145.227C478.797 144.999 478.565 144.828 478.255 144.714C477.95 144.6 477.571 144.543 477.12 144.543H474.263V143.292H476.847C477.471 143.292 477.945 143.174 478.269 142.937C478.597 142.7 478.761 142.358 478.761 141.911V141.897C478.761 141.46 478.613 141.118 478.316 140.872C478.02 140.626 477.605 140.503 477.072 140.503H474.263V139.136H477.496C478.125 139.136 478.663 139.236 479.109 139.437C479.556 139.632 479.9 139.915 480.142 140.284C480.383 140.649 480.504 141.084 480.504 141.59V141.604C480.504 141.95 480.424 142.273 480.265 142.574C480.11 142.875 479.9 143.126 479.636 143.326C479.376 143.527 479.08 143.654 478.747 143.709V143.832C479.189 143.873 479.576 144.001 479.909 144.215C480.246 144.424 480.508 144.7 480.695 145.042C480.887 145.384 480.982 145.767 480.982 146.19V146.204C480.982 146.778 480.846 147.275 480.572 147.694C480.303 148.114 479.916 148.437 479.41 148.665C478.904 148.888 478.3 149 477.599 149H474.263ZM473.381 149V139.136H475.145V149H473.381Z" fill="#2D6AEC"></path>
<rect x="496.5" y="128.5" width="31" height="31" rx="15.5" fill="#EAF0FD"></rect>
<rect x="496.5" y="128.5" width="31" height="31" rx="15.5" stroke="#DAE5FC"></rect>
<path d="M507.584 149V140.619H504.549V139.136H512.383V140.619H509.348V149H507.584ZM515.664 149.246C515.186 149.246 514.757 149.178 514.379 149.041C514.001 148.904 513.677 148.711 513.408 148.46C513.144 148.209 512.937 147.911 512.786 147.564C512.64 147.214 512.558 146.826 512.54 146.402L512.533 146.327H514.256L514.263 146.382C514.281 146.632 514.342 146.858 514.447 147.059C514.557 147.255 514.712 147.412 514.912 147.53C515.113 147.644 515.356 147.701 515.644 147.701C516.122 147.701 516.484 147.562 516.73 147.284C516.981 147.002 517.106 146.594 517.106 146.061V139.136H518.863V146.074C518.863 146.74 518.738 147.309 518.487 147.783C518.237 148.257 517.872 148.619 517.394 148.87C516.915 149.121 516.339 149.246 515.664 149.246Z" fill="#2D6AEC"></path>
<rect x="536.5" y="128.5" width="33" height="31" rx="15.5" fill="#EAF0FD"></rect>
<rect x="536.5" y="128.5" width="33" height="31" rx="15.5" stroke="#DAE5FC"></rect>
<path d="M544.64 145.794V144.249H552.173V145.794H544.64ZM547.634 148.754V141.289H549.179V148.754H547.634ZM557.676 149.246C557.006 149.246 556.418 149.121 555.912 148.87C555.406 148.619 555.003 148.28 554.702 147.852C554.406 147.419 554.237 146.933 554.196 146.396L554.189 146.307H555.81L555.816 146.354C555.867 146.623 555.974 146.867 556.138 147.086C556.306 147.305 556.523 147.48 556.787 147.612C557.051 147.74 557.35 147.804 557.683 147.804C558.061 147.804 558.394 147.719 558.681 147.551C558.972 147.382 559.198 147.15 559.357 146.854C559.521 146.553 559.604 146.211 559.604 145.828V145.814C559.604 145.432 559.521 145.094 559.357 144.803C559.193 144.507 558.968 144.276 558.681 144.112C558.398 143.944 558.07 143.859 557.696 143.859C557.418 143.859 557.163 143.9 556.931 143.982C556.703 144.064 556.5 144.188 556.322 144.352C556.231 144.429 556.147 144.516 556.069 144.611C555.996 144.702 555.93 144.803 555.871 144.912H554.354L554.825 139.136H560.704V140.578H556.199L555.933 143.586H556.049C556.186 143.363 556.356 143.174 556.562 143.019C556.771 142.859 557.008 142.738 557.272 142.656C557.541 142.57 557.828 142.526 558.134 142.526C558.744 142.526 559.285 142.668 559.754 142.95C560.228 143.228 560.599 143.613 560.868 144.105C561.137 144.593 561.271 145.151 561.271 145.78V145.794C561.271 146.478 561.119 147.079 560.813 147.599C560.508 148.114 560.084 148.517 559.542 148.809C559.004 149.1 558.382 149.246 557.676 149.246Z" fill="#2D6AEC"></path>
</svg>