<svg width="460" height="451" viewBox="0 0 460 451" fill="none" xmlns="http://www.w3.org/2000/svg">
<rect x="0.5" y="0.5" width="459" height="450" rx="7.5" fill="white"></rect>
<rect x="0.5" y="0.5" width="459" height="450" rx="7.5" stroke="#EBEDEE"></rect>
<path d="M17.632 37C17.5253 37 17.4347 36.9627 17.36 36.888C17.2853 36.8133 17.248 36.7227 17.248 36.616V26.184C17.248 26.0773 17.2853 25.9867 17.36 25.912C17.4347 25.8373 17.5253 25.8 17.632 25.8H19.136C19.2533 25.8 19.344 25.8373 19.408 25.912C19.4827 25.9867 19.52 26.0773 19.52 26.184V36.616C19.52 36.7227 19.4827 36.8133 19.408 36.888C19.344 36.9627 19.2533 37 19.136 37H17.632ZM22.2213 37C22.1146 37 22.0239 36.9627 21.9493 36.888C21.8746 36.8133 21.8372 36.7227 21.8372 36.616V29.064C21.8372 28.9573 21.8746 28.8667 21.9493 28.792C22.0239 28.7173 22.1146 28.68 22.2213 28.68H23.5333C23.6399 28.68 23.7306 28.7173 23.8053 28.792C23.8799 28.8667 23.9173 28.9573 23.9173 29.064V29.72C24.1946 29.3787 24.5466 29.096 24.9733 28.872C25.4106 28.6373 25.9493 28.52 26.5893 28.52C27.2399 28.52 27.8053 28.6693 28.2853 28.968C28.7653 29.256 29.1333 29.6667 29.3893 30.2C29.6559 30.7333 29.7893 31.3733 29.7893 32.12V36.616C29.7893 36.7227 29.7519 36.8133 29.6773 36.888C29.6026 36.9627 29.5119 37 29.4053 37H27.9973C27.8906 37 27.7999 36.9627 27.7253 36.888C27.6506 36.8133 27.6133 36.7227 27.6133 36.616V32.216C27.6133 31.5973 27.4586 31.112 27.1493 30.76C26.8506 30.408 26.4133 30.232 25.8373 30.232C25.2826 30.232 24.8399 30.408 24.5093 30.76C24.1786 31.112 24.0133 31.5973 24.0133 32.216V36.616C24.0133 36.7227 23.9759 36.8133 23.9013 36.888C23.8266 36.9627 23.7359 37 23.6293 37H22.2213ZM35.4216 37.16C34.6536 37.16 33.9763 37.016 33.3896 36.728C32.8136 36.44 32.3603 36.024 32.0296 35.48C31.7096 34.9253 31.5336 34.2587 31.5016 33.48C31.491 33.32 31.4856 33.112 31.4856 32.856C31.4856 32.5893 31.491 32.3707 31.5016 32.2C31.5336 31.4213 31.7096 30.76 32.0296 30.216C32.3603 29.6613 32.8136 29.24 33.3896 28.952C33.9763 28.664 34.6536 28.52 35.4216 28.52C36.1043 28.52 36.6856 28.616 37.1656 28.808C37.6456 29 38.0403 29.24 38.3496 29.528C38.659 29.816 38.8883 30.12 39.0376 30.44C39.1976 30.7493 39.283 31.032 39.2936 31.288C39.3043 31.4053 39.267 31.5013 39.1816 31.576C39.107 31.64 39.0163 31.672 38.9096 31.672H37.5016C37.395 31.672 37.3096 31.6453 37.2456 31.592C37.1923 31.5387 37.139 31.4587 37.0856 31.352C36.9256 30.9253 36.7123 30.6267 36.4456 30.456C36.1896 30.2747 35.859 30.184 35.4536 30.184C34.9203 30.184 34.4936 30.3547 34.1736 30.696C33.8643 31.0267 33.699 31.5547 33.6776 32.28C33.6563 32.6853 33.6563 33.0587 33.6776 33.4C33.699 34.136 33.8643 34.6693 34.1736 35C34.4936 35.3307 34.9203 35.496 35.4536 35.496C35.8696 35.496 36.2056 35.4107 36.4616 35.24C36.7176 35.0587 36.9256 34.7547 37.0856 34.328C37.139 34.2213 37.1923 34.1413 37.2456 34.088C37.3096 34.0347 37.395 34.008 37.5016 34.008H38.9096C39.0163 34.008 39.107 34.0453 39.1816 34.12C39.267 34.184 39.3043 34.2747 39.2936 34.392C39.283 34.584 39.2296 34.8027 39.1336 35.048C39.0483 35.2827 38.9043 35.528 38.7016 35.784C38.5096 36.0293 38.2643 36.2587 37.9656 36.472C37.667 36.6747 37.3043 36.84 36.8776 36.968C36.4616 37.096 35.9763 37.16 35.4216 37.16ZM41.3463 37C41.2396 37 41.1489 36.9627 41.0743 36.888C40.9996 36.8133 40.9622 36.7227 40.9622 36.616V29.064C40.9622 28.9573 40.9996 28.8667 41.0743 28.792C41.1489 28.7173 41.2396 28.68 41.3463 28.68H42.6743C42.7916 28.68 42.8823 28.7173 42.9463 28.792C43.0209 28.8667 43.0583 28.9573 43.0583 29.064V36.616C43.0583 36.7227 43.0209 36.8133 42.9463 36.888C42.8823 36.9627 42.7916 37 42.6743 37H41.3463ZM41.2823 27.304C41.1649 27.304 41.0689 27.272 40.9943 27.208C40.9303 27.1333 40.8983 27.0373 40.8983 26.92V25.768C40.8983 25.6613 40.9303 25.5707 40.9943 25.496C41.0689 25.4213 41.1649 25.384 41.2823 25.384H42.7383C42.8556 25.384 42.9516 25.4213 43.0263 25.496C43.1009 25.5707 43.1383 25.6613 43.1383 25.768V26.92C43.1383 27.0373 43.1009 27.1333 43.0263 27.208C42.9516 27.272 42.8556 27.304 42.7383 27.304H41.2823ZM48.269 37.16C47.7143 37.16 47.2237 37.0693 46.797 36.888C46.381 36.696 46.0343 36.4293 45.757 36.088C45.4797 35.7467 45.2663 35.3467 45.117 34.888C44.9677 34.4187 44.8823 33.9067 44.861 33.352C44.8503 33.16 44.845 32.9893 44.845 32.84C44.845 32.68 44.8503 32.504 44.861 32.312C44.8823 31.7787 44.9623 31.2827 45.101 30.824C45.2503 30.3653 45.4637 29.9653 45.741 29.624C46.029 29.272 46.381 29 46.797 28.808C47.2237 28.616 47.7143 28.52 48.269 28.52C48.845 28.52 49.3303 28.6213 49.725 28.824C50.1303 29.016 50.4663 29.2667 50.733 29.576V26.024C50.733 25.9173 50.765 25.8267 50.829 25.752C50.9037 25.6773 50.9997 25.64 51.117 25.64H52.477C52.5837 25.64 52.6743 25.6773 52.749 25.752C52.8237 25.8267 52.861 25.9173 52.861 26.024V36.616C52.861 36.7227 52.8237 36.8133 52.749 36.888C52.6743 36.9627 52.5837 37 52.477 37H51.213C51.0957 37 50.9997 36.9627 50.925 36.888C50.861 36.8133 50.829 36.7227 50.829 36.616V36.024C50.5623 36.3547 50.221 36.6267 49.805 36.84C49.3997 37.0533 48.8877 37.16 48.269 37.16ZM48.861 35.448C49.309 35.448 49.6663 35.3467 49.933 35.144C50.1997 34.9413 50.397 34.6853 50.525 34.376C50.653 34.056 50.7223 33.7307 50.733 33.4C50.7437 33.208 50.749 33.0053 50.749 32.792C50.749 32.568 50.7437 32.36 50.733 32.168C50.7223 31.848 50.6477 31.544 50.509 31.256C50.3703 30.9573 50.1677 30.712 49.901 30.52C49.6343 30.328 49.2877 30.232 48.861 30.232C48.413 30.232 48.0557 30.3333 47.789 30.536C47.533 30.728 47.3463 30.984 47.229 31.304C47.1117 31.624 47.0423 31.976 47.021 32.36C47.0103 32.68 47.0103 33 47.021 33.32C47.0423 33.704 47.1117 34.056 47.229 34.376C47.3463 34.696 47.533 34.9573 47.789 35.16C48.0557 35.352 48.413 35.448 48.861 35.448ZM58.5775 37.16C57.3935 37.16 56.4548 36.8187 55.7615 36.136C55.0682 35.4533 54.6948 34.4827 54.6415 33.224C54.6308 33.1173 54.6255 32.984 54.6255 32.824C54.6255 32.6533 54.6308 32.52 54.6415 32.424C54.6842 31.624 54.8655 30.9307 55.1855 30.344C55.5162 29.7573 55.9695 29.3093 56.5455 29C57.1215 28.68 57.7988 28.52 58.5775 28.52C59.4415 28.52 60.1668 28.7013 60.7535 29.064C61.3402 29.416 61.7828 29.912 62.0815 30.552C62.3802 31.1813 62.5295 31.912 62.5295 32.744V33.08C62.5295 33.1867 62.4922 33.2773 62.4175 33.352C62.3428 33.4267 62.2468 33.464 62.1295 33.464H56.8175C56.8175 33.464 56.8175 33.48 56.8175 33.512C56.8175 33.544 56.8175 33.5707 56.8175 33.592C56.8282 33.9653 56.8975 34.312 57.0255 34.632C57.1642 34.9413 57.3615 35.192 57.6175 35.384C57.8842 35.576 58.1988 35.672 58.5615 35.672C58.8602 35.672 59.1108 35.6293 59.3135 35.544C59.5162 35.448 59.6815 35.3413 59.8095 35.224C59.9375 35.1067 60.0282 35.0107 60.0815 34.936C60.1775 34.808 60.2522 34.7333 60.3055 34.712C60.3695 34.68 60.4602 34.664 60.5775 34.664H61.9535C62.0602 34.664 62.1455 34.696 62.2095 34.76C62.2842 34.824 62.3162 34.904 62.3055 35C62.2948 35.1707 62.2042 35.3787 62.0335 35.624C61.8735 35.8693 61.6388 36.1093 61.3295 36.344C61.0202 36.5787 60.6308 36.776 60.1615 36.936C59.7028 37.0853 59.1748 37.16 58.5775 37.16ZM56.8175 32.12H60.3535V32.072C60.3535 31.656 60.2842 31.2933 60.1455 30.984C60.0068 30.6747 59.8042 30.4293 59.5375 30.248C59.2708 30.0667 58.9508 29.976 58.5775 29.976C58.2042 29.976 57.8842 30.0667 57.6175 30.248C57.3508 30.4293 57.1482 30.6747 57.0095 30.984C56.8815 31.2933 56.8175 31.656 56.8175 32.072V32.12ZM64.6119 37C64.5052 37 64.4145 36.9627 64.3399 36.888C64.2652 36.8133 64.2279 36.7227 64.2279 36.616V29.064C64.2279 28.9573 64.2652 28.8667 64.3399 28.792C64.4145 28.7173 64.5052 28.68 64.6119 28.68H65.9239C66.0305 28.68 66.1212 28.7173 66.1959 28.792C66.2705 28.8667 66.3079 28.9573 66.3079 29.064V29.72C66.5852 29.3787 66.9372 29.096 67.3639 28.872C67.8012 28.6373 68.3399 28.52 68.9799 28.52C69.6305 28.52 70.1959 28.6693 70.6759 28.968C71.1559 29.256 71.5239 29.6667 71.7799 30.2C72.0465 30.7333 72.1799 31.3733 72.1799 32.12V36.616C72.1799 36.7227 72.1425 36.8133 72.0679 36.888C71.9932 36.9627 71.9025 37 71.7959 37H70.3879C70.2812 37 70.1905 36.9627 70.1159 36.888C70.0412 36.8133 70.0039 36.7227 70.0039 36.616V32.216C70.0039 31.5973 69.8492 31.112 69.5399 30.76C69.2412 30.408 68.8039 30.232 68.2279 30.232C67.6732 30.232 67.2305 30.408 66.8999 30.76C66.5692 31.112 66.4039 31.5973 66.4039 32.216V36.616C66.4039 36.7227 66.3665 36.8133 66.2919 36.888C66.2172 36.9627 66.1265 37 66.0199 37H64.6119ZM77.8785 37C77.2385 37 76.6998 36.888 76.2625 36.664C75.8252 36.44 75.4998 36.1093 75.2865 35.672C75.0732 35.224 74.9665 34.6693 74.9665 34.008V30.376H73.7025C73.5958 30.376 73.5052 30.3387 73.4305 30.264C73.3558 30.1893 73.3185 30.0987 73.3185 29.992V29.064C73.3185 28.9573 73.3558 28.8667 73.4305 28.792C73.5052 28.7173 73.5958 28.68 73.7025 28.68H74.9665V26.024C74.9665 25.9173 74.9985 25.8267 75.0625 25.752C75.1372 25.6773 75.2332 25.64 75.3505 25.64H76.6465C76.7532 25.64 76.8438 25.6773 76.9185 25.752C76.9932 25.8267 77.0305 25.9173 77.0305 26.024V28.68H79.0305C79.1372 28.68 79.2278 28.7173 79.3025 28.792C79.3772 28.8667 79.4145 28.9573 79.4145 29.064V29.992C79.4145 30.0987 79.3772 30.1893 79.3025 30.264C79.2278 30.3387 79.1372 30.376 79.0305 30.376H77.0305V33.848C77.0305 34.2853 77.1052 34.6267 77.2545 34.872C77.4145 35.1173 77.6865 35.24 78.0705 35.24H79.1745C79.2812 35.24 79.3718 35.2773 79.4465 35.352C79.5212 35.4267 79.5585 35.5173 79.5585 35.624V36.616C79.5585 36.7227 79.5212 36.8133 79.4465 36.888C79.3718 36.9627 79.2812 37 79.1745 37H77.8785ZM84.1299 37.16C83.4899 37.16 82.9405 37.0853 82.4819 36.936C82.0339 36.7867 81.6659 36.6 81.3779 36.376C81.0899 36.152 80.8765 35.928 80.7379 35.704C80.5992 35.48 80.5245 35.2933 80.5139 35.144C80.5032 35.0267 80.5352 34.936 80.6099 34.872C80.6952 34.7973 80.7859 34.76 80.8819 34.76H82.1459C82.1885 34.76 82.2259 34.7653 82.2579 34.776C82.2899 34.7867 82.3325 34.8187 82.3859 34.872C82.5245 34.9893 82.6685 35.112 82.8179 35.24C82.9779 35.368 83.1645 35.48 83.3779 35.576C83.5912 35.6613 83.8579 35.704 84.1779 35.704C84.5939 35.704 84.9405 35.624 85.2179 35.464C85.5059 35.2933 85.6499 35.0533 85.6499 34.744C85.6499 34.52 85.5859 34.3387 85.4579 34.2C85.3405 34.0613 85.1165 33.9387 84.7859 33.832C84.4552 33.7147 83.9859 33.592 83.3779 33.464C82.7805 33.3253 82.2845 33.1493 81.8899 32.936C81.4952 32.7227 81.2019 32.456 81.0099 32.136C80.8179 31.816 80.7219 31.4427 80.7219 31.016C80.7219 30.6 80.8445 30.2053 81.0899 29.832C81.3459 29.448 81.7192 29.1333 82.2099 28.888C82.7112 28.6427 83.3299 28.52 84.0659 28.52C84.6419 28.52 85.1432 28.5947 85.5699 28.744C85.9965 28.8827 86.3485 29.0587 86.6259 29.272C86.9139 29.4853 87.1325 29.704 87.2819 29.928C87.4312 30.1413 87.5112 30.328 87.5219 30.488C87.5325 30.6053 87.5005 30.7013 87.4259 30.776C87.3512 30.84 87.2659 30.872 87.1699 30.872H85.9859C85.9325 30.872 85.8845 30.8613 85.8419 30.84C85.7992 30.8187 85.7565 30.792 85.7139 30.76C85.5965 30.6533 85.4685 30.5413 85.3299 30.424C85.1912 30.3067 85.0205 30.2053 84.8179 30.12C84.6259 30.024 84.3699 29.976 84.0499 29.976C83.6445 29.976 83.3352 30.0667 83.1219 30.248C82.9085 30.4187 82.8019 30.6373 82.8019 30.904C82.8019 31.0853 82.8499 31.2453 82.9459 31.384C83.0525 31.512 83.2605 31.6347 83.5699 31.752C83.8792 31.8693 84.3485 31.992 84.9779 32.12C85.6925 32.248 86.2579 32.44 86.6739 32.696C87.1005 32.9413 87.3992 33.2293 87.5699 33.56C87.7512 33.88 87.8419 34.2373 87.8419 34.632C87.8419 35.112 87.6979 35.544 87.4099 35.928C87.1325 36.312 86.7165 36.616 86.1619 36.84C85.6179 37.0533 84.9405 37.16 84.1299 37.16ZM97.7578 37.16C97.1391 37.16 96.6218 37.0533 96.2057 36.84C95.8004 36.6267 95.4644 36.3547 95.1978 36.024V36.616C95.1978 36.7227 95.1604 36.8133 95.0858 36.888C95.0218 36.9627 94.9311 37 94.8138 37H93.5498C93.4431 37 93.3524 36.9627 93.2778 36.888C93.2031 36.8133 93.1658 36.7227 93.1658 36.616V26.024C93.1658 25.9173 93.2031 25.8267 93.2778 25.752C93.3524 25.6773 93.4431 25.64 93.5498 25.64H94.9098C95.0271 25.64 95.1178 25.6773 95.1818 25.752C95.2564 25.8267 95.2938 25.9173 95.2938 26.024V29.576C95.5604 29.2667 95.8911 29.016 96.2858 28.824C96.6911 28.6213 97.1818 28.52 97.7578 28.52C98.3231 28.52 98.8138 28.616 99.2298 28.808C99.6458 29 99.9924 29.272 100.27 29.624C100.558 29.9653 100.776 30.3653 100.926 30.824C101.075 31.2827 101.155 31.7787 101.166 32.312C101.176 32.504 101.182 32.68 101.182 32.84C101.182 32.9893 101.176 33.16 101.166 33.352C101.144 33.9067 101.059 34.4187 100.91 34.888C100.76 35.3467 100.547 35.7467 100.27 36.088C99.9924 36.4293 99.6458 36.696 99.2298 36.888C98.8138 37.0693 98.3231 37.16 97.7578 37.16ZM97.1658 35.448C97.6244 35.448 97.9818 35.352 98.2378 35.16C98.4938 34.9573 98.6751 34.696 98.7818 34.376C98.8991 34.056 98.9684 33.704 98.9898 33.32C99.0111 33 99.0111 32.68 98.9898 32.36C98.9684 31.976 98.8991 31.624 98.7818 31.304C98.6751 30.984 98.4938 30.728 98.2378 30.536C97.9818 30.3333 97.6244 30.232 97.1658 30.232C96.7391 30.232 96.3924 30.328 96.1258 30.52C95.8591 30.712 95.6564 30.9573 95.5178 31.256C95.3791 31.544 95.3044 31.848 95.2938 32.168C95.2831 32.36 95.2778 32.568 95.2778 32.792C95.2778 33.0053 95.2831 33.208 95.2938 33.4C95.3151 33.7307 95.3844 34.056 95.5018 34.376C95.6298 34.6853 95.8271 34.9413 96.0938 35.144C96.3711 35.3467 96.7284 35.448 97.1658 35.448ZM104.138 40.04C104.053 40.04 103.978 40.008 103.914 39.944C103.85 39.88 103.818 39.8053 103.818 39.72C103.818 39.6773 103.818 39.6347 103.818 39.592C103.829 39.56 103.85 39.5173 103.882 39.464L105.13 36.504L102.058 29.256C102.015 29.1493 101.994 29.0747 101.994 29.032C102.005 28.936 102.042 28.856 102.106 28.792C102.17 28.7173 102.25 28.68 102.346 28.68H103.642C103.77 28.68 103.866 28.712 103.93 28.776C103.994 28.84 104.042 28.9093 104.074 28.984L106.202 34.216L108.394 28.984C108.426 28.8987 108.474 28.8293 108.538 28.776C108.602 28.712 108.698 28.68 108.826 28.68H110.106C110.191 28.68 110.266 28.712 110.33 28.776C110.405 28.84 110.442 28.9147 110.442 29C110.442 29.064 110.421 29.1493 110.378 29.256L105.85 39.736C105.807 39.8213 105.754 39.8907 105.69 39.944C105.626 40.008 105.53 40.04 105.402 40.04H104.138ZM118.208 37.16C117.568 37.16 117.019 37.0853 116.56 36.936C116.112 36.7867 115.744 36.6 115.456 36.376C115.168 36.152 114.955 35.928 114.816 35.704C114.677 35.48 114.603 35.2933 114.592 35.144C114.581 35.0267 114.613 34.936 114.688 34.872C114.773 34.7973 114.864 34.76 114.96 34.76H116.224C116.267 34.76 116.304 34.7653 116.336 34.776C116.368 34.7867 116.411 34.8187 116.464 34.872C116.603 34.9893 116.747 35.112 116.896 35.24C117.056 35.368 117.243 35.48 117.456 35.576C117.669 35.6613 117.936 35.704 118.256 35.704C118.672 35.704 119.019 35.624 119.296 35.464C119.584 35.2933 119.728 35.0533 119.728 34.744C119.728 34.52 119.664 34.3387 119.536 34.2C119.419 34.0613 119.195 33.9387 118.864 33.832C118.533 33.7147 118.064 33.592 117.456 33.464C116.859 33.3253 116.363 33.1493 115.968 32.936C115.573 32.7227 115.28 32.456 115.088 32.136C114.896 31.816 114.8 31.4427 114.8 31.016C114.8 30.6 114.923 30.2053 115.168 29.832C115.424 29.448 115.797 29.1333 116.288 28.888C116.789 28.6427 117.408 28.52 118.144 28.52C118.72 28.52 119.221 28.5947 119.648 28.744C120.075 28.8827 120.427 29.0587 120.704 29.272C120.992 29.4853 121.211 29.704 121.36 29.928C121.509 30.1413 121.589 30.328 121.6 30.488C121.611 30.6053 121.579 30.7013 121.504 30.776C121.429 30.84 121.344 30.872 121.248 30.872H120.064C120.011 30.872 119.963 30.8613 119.92 30.84C119.877 30.8187 119.835 30.792 119.792 30.76C119.675 30.6533 119.547 30.5413 119.408 30.424C119.269 30.3067 119.099 30.2053 118.896 30.12C118.704 30.024 118.448 29.976 118.128 29.976C117.723 29.976 117.413 30.0667 117.2 30.248C116.987 30.4187 116.88 30.6373 116.88 30.904C116.88 31.0853 116.928 31.2453 117.024 31.384C117.131 31.512 117.339 31.6347 117.648 31.752C117.957 31.8693 118.427 31.992 119.056 32.12C119.771 32.248 120.336 32.44 120.752 32.696C121.179 32.9413 121.477 33.2293 121.648 33.56C121.829 33.88 121.92 34.2373 121.92 34.632C121.92 35.112 121.776 35.544 121.488 35.928C121.211 36.312 120.795 36.616 120.24 36.84C119.696 37.0533 119.019 37.16 118.208 37.16ZM127.156 37.16C125.972 37.16 125.033 36.8187 124.34 36.136C123.646 35.4533 123.273 34.4827 123.22 33.224C123.209 33.1173 123.204 32.984 123.204 32.824C123.204 32.6533 123.209 32.52 123.22 32.424C123.262 31.624 123.444 30.9307 123.764 30.344C124.094 29.7573 124.548 29.3093 125.124 29C125.7 28.68 126.377 28.52 127.156 28.52C128.02 28.52 128.745 28.7013 129.332 29.064C129.918 29.416 130.361 29.912 130.66 30.552C130.958 31.1813 131.108 31.912 131.108 32.744V33.08C131.108 33.1867 131.07 33.2773 130.996 33.352C130.921 33.4267 130.825 33.464 130.708 33.464H125.396C125.396 33.464 125.396 33.48 125.396 33.512C125.396 33.544 125.396 33.5707 125.396 33.592C125.406 33.9653 125.476 34.312 125.604 34.632C125.742 34.9413 125.94 35.192 126.196 35.384C126.462 35.576 126.777 35.672 127.14 35.672C127.438 35.672 127.689 35.6293 127.892 35.544C128.094 35.448 128.26 35.3413 128.388 35.224C128.516 35.1067 128.606 35.0107 128.66 34.936C128.756 34.808 128.83 34.7333 128.884 34.712C128.948 34.68 129.038 34.664 129.156 34.664H130.532C130.638 34.664 130.724 34.696 130.788 34.76C130.862 34.824 130.894 34.904 130.884 35C130.873 35.1707 130.782 35.3787 130.612 35.624C130.452 35.8693 130.217 36.1093 129.908 36.344C129.598 36.5787 129.209 36.776 128.74 36.936C128.281 37.0853 127.753 37.16 127.156 37.16ZM125.396 32.12H128.932V32.072C128.932 31.656 128.862 31.2933 128.724 30.984C128.585 30.6747 128.382 30.4293 128.116 30.248C127.849 30.0667 127.529 29.976 127.156 29.976C126.782 29.976 126.462 30.0667 126.196 30.248C125.929 30.4293 125.726 30.6747 125.588 30.984C125.46 31.2933 125.396 31.656 125.396 32.072V32.12ZM135.453 37C135.282 37 135.154 36.9627 135.069 36.888C134.994 36.8027 134.93 36.7067 134.877 36.6L131.885 29.176C131.864 29.1227 131.853 29.0747 131.853 29.032C131.853 28.936 131.885 28.856 131.949 28.792C132.024 28.7173 132.109 28.68 132.205 28.68H133.501C133.629 28.68 133.725 28.7173 133.789 28.792C133.853 28.856 133.896 28.92 133.917 28.984L136.045 34.6L138.173 28.984C138.194 28.92 138.237 28.856 138.301 28.792C138.365 28.7173 138.461 28.68 138.589 28.68H139.901C139.986 28.68 140.061 28.7173 140.125 28.792C140.2 28.856 140.237 28.936 140.237 29.032C140.237 29.0747 140.232 29.1227 140.221 29.176L137.213 36.6C137.17 36.7067 137.106 36.8027 137.021 36.888C136.936 36.9627 136.808 37 136.637 37H135.453ZM144.984 37.16C143.8 37.16 142.861 36.8187 142.168 36.136C141.474 35.4533 141.101 34.4827 141.048 33.224C141.037 33.1173 141.032 32.984 141.032 32.824C141.032 32.6533 141.037 32.52 141.048 32.424C141.09 31.624 141.272 30.9307 141.592 30.344C141.922 29.7573 142.376 29.3093 142.952 29C143.528 28.68 144.205 28.52 144.984 28.52C145.848 28.52 146.573 28.7013 147.16 29.064C147.746 29.416 148.189 29.912 148.488 30.552C148.786 31.1813 148.936 31.912 148.936 32.744V33.08C148.936 33.1867 148.898 33.2773 148.824 33.352C148.749 33.4267 148.653 33.464 148.536 33.464H143.224C143.224 33.464 143.224 33.48 143.224 33.512C143.224 33.544 143.224 33.5707 143.224 33.592C143.234 33.9653 143.304 34.312 143.432 34.632C143.57 34.9413 143.768 35.192 144.024 35.384C144.29 35.576 144.605 35.672 144.968 35.672C145.266 35.672 145.517 35.6293 145.72 35.544C145.922 35.448 146.088 35.3413 146.216 35.224C146.344 35.1067 146.434 35.0107 146.488 34.936C146.584 34.808 146.658 34.7333 146.712 34.712C146.776 34.68 146.866 34.664 146.984 34.664H148.36C148.466 34.664 148.552 34.696 148.616 34.76C148.69 34.824 148.722 34.904 148.712 35C148.701 35.1707 148.61 35.3787 148.44 35.624C148.28 35.8693 148.045 36.1093 147.736 36.344C147.426 36.5787 147.037 36.776 146.568 36.936C146.109 37.0853 145.581 37.16 144.984 37.16ZM143.224 32.12H146.76V32.072C146.76 31.656 146.69 31.2933 146.552 30.984C146.413 30.6747 146.21 30.4293 145.944 30.248C145.677 30.0667 145.357 29.976 144.984 29.976C144.61 29.976 144.29 30.0667 144.024 30.248C143.757 30.4293 143.554 30.6747 143.416 30.984C143.288 31.2933 143.224 31.656 143.224 32.072V32.12ZM151.018 37C150.911 37 150.821 36.9627 150.746 36.888C150.671 36.8133 150.634 36.7227 150.634 36.616V29.08C150.634 28.9627 150.671 28.8667 150.746 28.792C150.821 28.7173 150.911 28.68 151.018 28.68H152.314C152.421 28.68 152.511 28.7173 152.586 28.792C152.671 28.8667 152.714 28.9627 152.714 29.08V29.736C152.959 29.3947 153.274 29.1333 153.658 28.952C154.053 28.7707 154.506 28.68 155.018 28.68H155.674C155.791 28.68 155.882 28.7173 155.946 28.792C156.021 28.8667 156.058 28.9573 156.058 29.064V30.216C156.058 30.3227 156.021 30.4133 155.946 30.488C155.882 30.5627 155.791 30.6 155.674 30.6H154.426C153.914 30.6 153.514 30.744 153.226 31.032C152.949 31.32 152.81 31.7147 152.81 32.216V36.616C152.81 36.7227 152.773 36.8133 152.698 36.888C152.623 36.9627 152.527 37 152.41 37H151.018ZM157.69 37C157.583 37 157.493 36.9627 157.418 36.888C157.343 36.8133 157.306 36.7227 157.306 36.616V29.064C157.306 28.9573 157.343 28.8667 157.418 28.792C157.493 28.7173 157.583 28.68 157.69 28.68H159.018C159.135 28.68 159.226 28.7173 159.29 28.792C159.365 28.8667 159.402 28.9573 159.402 29.064V36.616C159.402 36.7227 159.365 36.8133 159.29 36.888C159.226 36.9627 159.135 37 159.018 37H157.69ZM157.626 27.304C157.509 27.304 157.413 27.272 157.338 27.208C157.274 27.1333 157.242 27.0373 157.242 26.92V25.768C157.242 25.6613 157.274 25.5707 157.338 25.496C157.413 25.4213 157.509 25.384 157.626 25.384H159.082C159.199 25.384 159.295 25.4213 159.37 25.496C159.445 25.5707 159.482 25.6613 159.482 25.768V26.92C159.482 27.0373 159.445 27.1333 159.37 27.208C159.295 27.272 159.199 27.304 159.082 27.304H157.626ZM165.285 37C164.645 37 164.106 36.888 163.669 36.664C163.231 36.44 162.906 36.1093 162.693 35.672C162.479 35.224 162.373 34.6693 162.373 34.008V30.376H161.109C161.002 30.376 160.911 30.3387 160.837 30.264C160.762 30.1893 160.725 30.0987 160.725 29.992V29.064C160.725 28.9573 160.762 28.8667 160.837 28.792C160.911 28.7173 161.002 28.68 161.109 28.68H162.373V26.024C162.373 25.9173 162.405 25.8267 162.469 25.752C162.543 25.6773 162.639 25.64 162.757 25.64H164.053C164.159 25.64 164.25 25.6773 164.325 25.752C164.399 25.8267 164.437 25.9173 164.437 26.024V28.68H166.437C166.543 28.68 166.634 28.7173 166.709 28.792C166.783 28.8667 166.821 28.9573 166.821 29.064V29.992C166.821 30.0987 166.783 30.1893 166.709 30.264C166.634 30.3387 166.543 30.376 166.437 30.376H164.437V33.848C164.437 34.2853 164.511 34.6267 164.661 34.872C164.821 35.1173 165.093 35.24 165.477 35.24H166.581C166.687 35.24 166.778 35.2773 166.853 35.352C166.927 35.4267 166.965 35.5173 166.965 35.624V36.616C166.965 36.7227 166.927 36.8133 166.853 36.888C166.778 36.9627 166.687 37 166.581 37H165.285ZM169.888 40.04C169.803 40.04 169.728 40.008 169.664 39.944C169.6 39.88 169.568 39.8053 169.568 39.72C169.568 39.6773 169.568 39.6347 169.568 39.592C169.579 39.56 169.6 39.5173 169.632 39.464L170.88 36.504L167.808 29.256C167.765 29.1493 167.744 29.0747 167.744 29.032C167.755 28.936 167.792 28.856 167.856 28.792C167.92 28.7173 168 28.68 168.096 28.68H169.392C169.52 28.68 169.616 28.712 169.68 28.776C169.744 28.84 169.792 28.9093 169.824 28.984L171.952 34.216L174.144 28.984C174.176 28.8987 174.224 28.8293 174.288 28.776C174.352 28.712 174.448 28.68 174.576 28.68H175.856C175.941 28.68 176.016 28.712 176.08 28.776C176.155 28.84 176.192 28.9147 176.192 29C176.192 29.064 176.171 29.1493 176.128 29.256L171.6 39.736C171.557 39.8213 171.504 39.8907 171.44 39.944C171.376 40.008 171.28 40.04 171.152 40.04H169.888Z" fill="#333333"></path>
<path d="M431 24C430.597 24 430.231 24.2437 430.075 24.6187C429.919 24.9937 430.006 25.4219 430.291 25.7094L431.584 27L426.294 32.2937C425.903 32.6844 425.903 33.3188 426.294 33.7094C426.684 34.1 427.319 34.1 427.709 33.7094L433 28.4156L434.294 29.7094C434.581 29.9969 435.009 30.0813 435.384 29.925C435.759 29.7688 436.003 29.4062 436.003 29V25C436.003 24.4469 435.556 24 435.003 24H431ZM422.5 25C421.119 25 420 26.1187 420 27.5V37.5C420 38.8813 421.119 40 422.5 40H432.5C433.881 40 435 38.8813 435 37.5V34C435 33.4469 434.553 33 434 33C433.447 33 433 33.4469 433 34V37.5C433 37.775 432.775 38 432.5 38H422.5C422.225 38 422 37.775 422 37.5V27.5C422 27.225 422.225 27 422.5 27H426C426.553 27 427 26.5531 427 26C427 25.4469 426.553 25 426 25H422.5Z" fill="#333333"></path>
<path d="M208.453 173C208.293 173 208.157 172.944 208.045 172.832C207.933 172.72 207.877 172.584 207.877 172.424V171.2C207.877 171.056 207.909 170.888 207.973 170.696C208.053 170.488 208.221 170.28 208.477 170.072L212.269 166.304C213.325 165.472 214.173 164.768 214.813 164.192C215.469 163.6 215.941 163.064 216.229 162.584C216.533 162.088 216.685 161.6 216.685 161.12C216.685 160.4 216.485 159.816 216.085 159.368C215.701 158.92 215.085 158.696 214.237 158.696C213.677 158.696 213.205 158.816 212.821 159.056C212.437 159.28 212.133 159.584 211.909 159.968C211.701 160.352 211.557 160.776 211.477 161.24C211.445 161.448 211.357 161.592 211.213 161.672C211.069 161.752 210.925 161.792 210.781 161.792H208.645C208.501 161.792 208.381 161.744 208.285 161.648C208.189 161.552 208.141 161.44 208.141 161.312C208.157 160.624 208.301 159.96 208.573 159.32C208.845 158.664 209.237 158.088 209.749 157.592C210.277 157.08 210.917 156.672 211.669 156.368C212.421 156.064 213.269 155.912 214.213 155.912C215.541 155.912 216.637 156.136 217.501 156.584C218.381 157.032 219.037 157.64 219.469 158.408C219.917 159.176 220.141 160.04 220.141 161C220.141 161.752 219.997 162.448 219.709 163.088C219.421 163.712 219.005 164.32 218.461 164.912C217.917 165.488 217.261 166.08 216.493 166.688L213.085 170.144H219.925C220.101 170.144 220.237 170.2 220.333 170.312C220.445 170.408 220.501 170.544 220.501 170.72V172.424C220.501 172.584 220.445 172.72 220.333 172.832C220.237 172.944 220.101 173 219.925 173H208.453ZM229.528 173.24C228.392 173.24 227.424 173.072 226.624 172.736C225.824 172.4 225.168 171.936 224.656 171.344C224.144 170.752 223.76 170.072 223.504 169.304C223.248 168.52 223.096 167.688 223.048 166.808C223.032 166.376 223.016 165.904 223 165.392C223 164.864 223 164.336 223 163.808C223.016 163.28 223.032 162.792 223.048 162.344C223.08 161.464 223.232 160.64 223.504 159.872C223.776 159.088 224.168 158.408 224.68 157.832C225.208 157.256 225.872 156.8 226.672 156.464C227.472 156.128 228.424 155.96 229.528 155.96C230.648 155.96 231.608 156.128 232.408 156.464C233.208 156.8 233.864 157.256 234.376 157.832C234.904 158.408 235.296 159.088 235.552 159.872C235.824 160.64 235.976 161.464 236.008 162.344C236.04 162.792 236.056 163.28 236.056 163.808C236.056 164.336 236.056 164.864 236.056 165.392C236.056 165.904 236.04 166.376 236.008 166.808C235.976 167.688 235.832 168.52 235.576 169.304C235.32 170.072 234.936 170.752 234.424 171.344C233.912 171.936 233.248 172.4 232.432 172.736C231.632 173.072 230.664 173.24 229.528 173.24ZM229.528 170.48C230.568 170.48 231.328 170.144 231.808 169.472C232.304 168.784 232.56 167.856 232.576 166.688C232.608 166.224 232.624 165.76 232.624 165.296C232.624 164.816 232.624 164.336 232.624 163.856C232.624 163.376 232.608 162.92 232.576 162.488C232.56 161.352 232.304 160.44 231.808 159.752C231.328 159.048 230.568 158.696 229.528 158.696C228.504 158.696 227.744 159.048 227.248 159.752C226.768 160.44 226.512 161.352 226.48 162.488C226.48 162.92 226.472 163.376 226.456 163.856C226.456 164.336 226.456 164.816 226.456 165.296C226.472 165.76 226.48 166.224 226.48 166.688C226.512 167.856 226.776 168.784 227.272 169.472C227.768 170.144 228.52 170.48 229.528 170.48ZM245.302 173.24C244.166 173.24 243.198 173.072 242.398 172.736C241.598 172.4 240.942 171.936 240.43 171.344C239.918 170.752 239.534 170.072 239.278 169.304C239.022 168.52 238.87 167.688 238.822 166.808C238.806 166.376 238.79 165.904 238.774 165.392C238.774 164.864 238.774 164.336 238.774 163.808C238.79 163.28 238.806 162.792 238.822 162.344C238.854 161.464 239.006 160.64 239.278 159.872C239.55 159.088 239.942 158.408 240.454 157.832C240.982 157.256 241.646 156.8 242.446 156.464C243.246 156.128 244.198 155.96 245.302 155.96C246.422 155.96 247.382 156.128 248.182 156.464C248.982 156.8 249.638 157.256 250.15 157.832C250.678 158.408 251.07 159.088 251.326 159.872C251.598 160.64 251.75 161.464 251.782 162.344C251.814 162.792 251.83 163.28 251.83 163.808C251.83 164.336 251.83 164.864 251.83 165.392C251.83 165.904 251.814 166.376 251.782 166.808C251.75 167.688 251.606 168.52 251.35 169.304C251.094 170.072 250.71 170.752 250.198 171.344C249.686 171.936 249.022 172.4 248.206 172.736C247.406 173.072 246.438 173.24 245.302 173.24ZM245.302 170.48C246.342 170.48 247.102 170.144 247.582 169.472C248.078 168.784 248.334 167.856 248.35 166.688C248.382 166.224 248.398 165.76 248.398 165.296C248.398 164.816 248.398 164.336 248.398 163.856C248.398 163.376 248.382 162.92 248.35 162.488C248.334 161.352 248.078 160.44 247.582 159.752C247.102 159.048 246.342 158.696 245.302 158.696C244.278 158.696 243.518 159.048 243.022 159.752C242.542 160.44 242.286 161.352 242.254 162.488C242.254 162.92 242.246 163.376 242.23 163.856C242.23 164.336 242.23 164.816 242.23 165.296C242.246 165.76 242.254 166.224 242.254 166.688C242.286 167.856 242.55 168.784 243.046 169.472C243.542 170.144 244.294 170.48 245.302 170.48ZM188.919 197C188.772 197 188.659 196.96 188.579 196.88C188.499 196.787 188.459 196.673 188.459 196.54V183.46C188.459 183.327 188.499 183.22 188.579 183.14C188.659 183.047 188.772 183 188.919 183H189.979C190.112 183 190.219 183.047 190.299 183.14C190.392 183.22 190.439 183.327 190.439 183.46V196.54C190.439 196.673 190.392 196.787 190.299 196.88C190.219 196.96 190.112 197 189.979 197H188.919ZM194.128 197C193.994 197 193.881 196.96 193.788 196.88C193.708 196.787 193.668 196.673 193.668 196.54V187.06C193.668 186.927 193.708 186.82 193.788 186.74C193.881 186.647 193.994 186.6 194.128 186.6H195.068C195.201 186.6 195.308 186.647 195.388 186.74C195.481 186.82 195.528 186.927 195.528 187.06V187.94C195.874 187.487 196.308 187.12 196.828 186.84C197.361 186.547 198.041 186.4 198.868 186.4C199.734 186.4 200.468 186.593 201.068 186.98C201.681 187.353 202.141 187.88 202.448 188.56C202.754 189.227 202.908 190.007 202.908 190.9V196.54C202.908 196.673 202.868 196.787 202.788 196.88C202.708 196.96 202.601 197 202.467 197H201.468C201.334 197 201.221 196.96 201.128 196.88C201.048 196.787 201.008 196.673 201.008 196.54V191C201.008 190.067 200.781 189.34 200.328 188.82C199.874 188.287 199.208 188.02 198.328 188.02C197.501 188.02 196.834 188.287 196.328 188.82C195.834 189.34 195.588 190.067 195.588 191V196.54C195.588 196.673 195.541 196.787 195.448 196.88C195.368 196.96 195.261 197 195.127 197H194.128ZM209.996 197.2C209.05 197.2 208.23 197.02 207.536 196.66C206.856 196.287 206.33 195.76 205.956 195.08C205.583 194.387 205.383 193.56 205.356 192.6C205.343 192.4 205.336 192.133 205.336 191.8C205.336 191.467 205.343 191.2 205.356 191C205.383 190.04 205.583 189.22 205.956 188.54C206.33 187.847 206.856 187.32 207.536 186.96C208.23 186.587 209.05 186.4 209.996 186.4C210.77 186.4 211.43 186.507 211.976 186.72C212.536 186.933 212.996 187.207 213.356 187.54C213.716 187.873 213.983 188.233 214.156 188.62C214.343 189.007 214.443 189.373 214.456 189.72C214.47 189.853 214.43 189.96 214.336 190.04C214.243 190.12 214.13 190.16 213.996 190.16H213.036C212.903 190.16 212.803 190.133 212.736 190.08C212.67 190.013 212.603 189.907 212.536 189.76C212.296 189.107 211.97 188.647 211.556 188.38C211.143 188.113 210.63 187.98 210.016 187.98C209.216 187.98 208.563 188.227 208.056 188.72C207.563 189.213 207.296 190.007 207.256 191.1C207.243 191.58 207.243 192.047 207.256 192.5C207.296 193.607 207.563 194.407 208.056 194.9C208.563 195.38 209.216 195.62 210.016 195.62C210.63 195.62 211.143 195.487 211.556 195.22C211.97 194.953 212.296 194.493 212.536 193.84C212.603 193.693 212.67 193.593 212.736 193.54C212.803 193.473 212.903 193.44 213.036 193.44H213.996C214.13 193.44 214.243 193.48 214.336 193.56C214.43 193.64 214.47 193.747 214.456 193.88C214.443 194.16 214.383 194.447 214.276 194.74C214.17 195.033 213.996 195.333 213.756 195.64C213.53 195.933 213.243 196.2 212.896 196.44C212.55 196.667 212.13 196.853 211.636 197C211.156 197.133 210.61 197.2 209.996 197.2ZM217.292 197C217.158 197 217.045 196.96 216.952 196.88C216.872 196.787 216.832 196.673 216.832 196.54V187.06C216.832 186.927 216.872 186.82 216.952 186.74C217.045 186.647 217.158 186.6 217.292 186.6H218.252C218.385 186.6 218.492 186.647 218.572 186.74C218.652 186.82 218.692 186.927 218.692 187.06V196.54C218.692 196.673 218.652 196.787 218.572 196.88C218.492 196.96 218.385 197 218.252 197H217.292ZM217.132 184.66C216.998 184.66 216.885 184.62 216.792 184.54C216.712 184.447 216.672 184.333 216.672 184.2V183.12C216.672 182.987 216.712 182.88 216.792 182.8C216.885 182.707 216.998 182.66 217.132 182.66H218.392C218.525 182.66 218.632 182.707 218.712 182.8C218.805 182.88 218.852 182.987 218.852 183.12V184.2C218.852 184.333 218.805 184.447 218.712 184.54C218.632 184.62 218.525 184.66 218.392 184.66H217.132ZM225.475 197.2C224.742 197.2 224.109 197.073 223.575 196.82C223.042 196.553 222.602 196.2 222.255 195.76C221.922 195.307 221.669 194.793 221.495 194.22C221.335 193.647 221.242 193.04 221.215 192.4C221.202 192.187 221.195 191.987 221.195 191.8C221.195 191.613 221.202 191.413 221.215 191.2C221.242 190.573 221.335 189.973 221.495 189.4C221.669 188.827 221.922 188.313 222.255 187.86C222.602 187.407 223.042 187.053 223.575 186.8C224.109 186.533 224.742 186.4 225.475 186.4C226.262 186.4 226.915 186.54 227.435 186.82C227.955 187.1 228.382 187.447 228.715 187.86V183.26C228.715 183.127 228.755 183.02 228.835 182.94C228.929 182.847 229.042 182.8 229.175 182.8H230.135C230.269 182.8 230.375 182.847 230.455 182.94C230.549 183.02 230.595 183.127 230.595 183.26V196.54C230.595 196.673 230.549 196.787 230.455 196.88C230.375 196.96 230.269 197 230.135 197H229.235C229.089 197 228.975 196.96 228.895 196.88C228.815 196.787 228.775 196.673 228.775 196.54V195.7C228.442 196.127 228.009 196.487 227.475 196.78C226.942 197.06 226.275 197.2 225.475 197.2ZM225.895 195.58C226.562 195.58 227.095 195.427 227.495 195.12C227.895 194.813 228.195 194.427 228.395 193.96C228.595 193.48 228.702 192.993 228.715 192.5C228.729 192.287 228.735 192.033 228.735 191.74C228.735 191.433 228.729 191.173 228.715 190.96C228.702 190.493 228.589 190.033 228.375 189.58C228.175 189.127 227.869 188.753 227.455 188.46C227.055 188.167 226.535 188.02 225.895 188.02C225.215 188.02 224.675 188.173 224.275 188.48C223.875 188.773 223.589 189.167 223.415 189.66C223.242 190.14 223.142 190.66 223.115 191.22C223.102 191.607 223.102 191.993 223.115 192.38C223.142 192.94 223.242 193.467 223.415 193.96C223.589 194.44 223.875 194.833 224.275 195.14C224.675 195.433 225.215 195.58 225.895 195.58ZM237.71 197.2C236.337 197.2 235.243 196.78 234.43 195.94C233.617 195.087 233.17 193.927 233.09 192.46C233.077 192.287 233.07 192.067 233.07 191.8C233.07 191.52 233.077 191.293 233.09 191.12C233.143 190.173 233.363 189.347 233.75 188.64C234.137 187.92 234.663 187.367 235.33 186.98C236.01 186.593 236.803 186.4 237.71 186.4C238.723 186.4 239.57 186.613 240.25 187.04C240.943 187.467 241.47 188.073 241.83 188.86C242.19 189.647 242.37 190.567 242.37 191.62V191.96C242.37 192.107 242.323 192.22 242.23 192.3C242.15 192.38 242.043 192.42 241.91 192.42H234.99C234.99 192.433 234.99 192.46 234.99 192.5C234.99 192.54 234.99 192.573 234.99 192.6C235.017 193.147 235.137 193.66 235.35 194.14C235.563 194.607 235.87 194.987 236.27 195.28C236.67 195.573 237.15 195.72 237.71 195.72C238.19 195.72 238.59 195.647 238.91 195.5C239.23 195.353 239.49 195.193 239.69 195.02C239.89 194.833 240.023 194.693 240.09 194.6C240.21 194.427 240.303 194.327 240.37 194.3C240.437 194.26 240.543 194.24 240.69 194.24H241.65C241.783 194.24 241.89 194.28 241.97 194.36C242.063 194.427 242.103 194.527 242.09 194.66C242.077 194.86 241.97 195.107 241.77 195.4C241.57 195.68 241.283 195.96 240.91 196.24C240.537 196.52 240.083 196.753 239.55 196.94C239.017 197.113 238.403 197.2 237.71 197.2ZM234.99 191.04H240.47V190.98C240.47 190.38 240.357 189.847 240.13 189.38C239.917 188.913 239.603 188.547 239.19 188.28C238.777 188 238.283 187.86 237.71 187.86C237.137 187.86 236.643 188 236.23 188.28C235.83 188.547 235.523 188.913 235.31 189.38C235.097 189.847 234.99 190.38 234.99 190.98V191.04ZM245.221 197C245.088 197 244.975 196.96 244.881 196.88C244.801 196.787 244.761 196.673 244.761 196.54V187.06C244.761 186.927 244.801 186.82 244.881 186.74C244.975 186.647 245.088 186.6 245.221 186.6H246.161C246.295 186.6 246.401 186.647 246.481 186.74C246.575 186.82 246.621 186.927 246.621 187.06V187.94C246.968 187.487 247.401 187.12 247.921 186.84C248.455 186.547 249.135 186.4 249.961 186.4C250.828 186.4 251.561 186.593 252.161 186.98C252.775 187.353 253.235 187.88 253.541 188.56C253.848 189.227 254.001 190.007 254.001 190.9V196.54C254.001 196.673 253.961 196.787 253.881 196.88C253.801 196.96 253.695 197 253.561 197H252.561C252.428 197 252.315 196.96 252.221 196.88C252.141 196.787 252.101 196.673 252.101 196.54V191C252.101 190.067 251.875 189.34 251.421 188.82C250.968 188.287 250.301 188.02 249.421 188.02C248.595 188.02 247.928 188.287 247.421 188.82C246.928 189.34 246.681 190.067 246.681 191V196.54C246.681 196.673 246.635 196.787 246.541 196.88C246.461 196.96 246.355 197 246.221 197H245.221ZM260.813 197C260.067 197 259.46 196.86 258.993 196.58C258.527 196.287 258.187 195.88 257.973 195.36C257.76 194.827 257.653 194.2 257.653 193.48V188.2H256.093C255.96 188.2 255.847 188.16 255.753 188.08C255.673 187.987 255.633 187.873 255.633 187.74V187.06C255.633 186.927 255.673 186.82 255.753 186.74C255.847 186.647 255.96 186.6 256.093 186.6H257.653V183.26C257.653 183.127 257.693 183.02 257.773 182.94C257.867 182.847 257.98 182.8 258.113 182.8H259.053C259.187 182.8 259.293 182.847 259.373 182.94C259.467 183.02 259.513 183.127 259.513 183.26V186.6H261.993C262.127 186.6 262.233 186.647 262.313 186.74C262.407 186.82 262.453 186.927 262.453 187.06V187.74C262.453 187.873 262.407 187.987 262.313 188.08C262.233 188.16 262.127 188.2 261.993 188.2H259.513V193.34C259.513 193.967 259.62 194.46 259.833 194.82C260.047 195.18 260.427 195.36 260.973 195.36H262.193C262.327 195.36 262.433 195.407 262.513 195.5C262.607 195.58 262.653 195.687 262.653 195.82V196.54C262.653 196.673 262.607 196.787 262.513 196.88C262.433 196.96 262.327 197 262.193 197H260.813ZM268.166 197.2C267.419 197.2 266.779 197.107 266.246 196.92C265.713 196.733 265.279 196.507 264.946 196.24C264.613 195.973 264.359 195.707 264.186 195.44C264.026 195.173 263.939 194.96 263.926 194.8C263.913 194.653 263.959 194.54 264.066 194.46C264.173 194.38 264.279 194.34 264.386 194.34H265.266C265.346 194.34 265.406 194.353 265.446 194.38C265.499 194.393 265.566 194.447 265.646 194.54C265.819 194.727 266.013 194.913 266.226 195.1C266.439 195.287 266.699 195.44 267.006 195.56C267.326 195.68 267.719 195.74 268.186 195.74C268.866 195.74 269.426 195.613 269.866 195.36C270.306 195.093 270.526 194.707 270.526 194.2C270.526 193.867 270.433 193.6 270.246 193.4C270.073 193.2 269.753 193.02 269.286 192.86C268.833 192.7 268.206 192.533 267.406 192.36C266.606 192.173 265.973 191.947 265.506 191.68C265.039 191.4 264.706 191.073 264.506 190.7C264.306 190.313 264.206 189.88 264.206 189.4C264.206 188.907 264.353 188.433 264.646 187.98C264.939 187.513 265.366 187.133 265.926 186.84C266.499 186.547 267.213 186.4 268.066 186.4C268.759 186.4 269.353 186.487 269.846 186.66C270.339 186.833 270.746 187.053 271.066 187.32C271.386 187.573 271.626 187.827 271.786 188.08C271.946 188.333 272.033 188.547 272.046 188.72C272.059 188.853 272.019 188.967 271.926 189.06C271.833 189.14 271.726 189.18 271.606 189.18H270.766C270.673 189.18 270.593 189.16 270.526 189.12C270.473 189.08 270.419 189.033 270.366 188.98C270.233 188.807 270.073 188.633 269.886 188.46C269.713 188.287 269.479 188.147 269.186 188.04C268.906 187.92 268.533 187.86 268.066 187.86C267.399 187.86 266.899 188 266.566 188.28C266.233 188.56 266.066 188.913 266.066 189.34C266.066 189.593 266.139 189.82 266.286 190.02C266.433 190.22 266.713 190.4 267.126 190.56C267.539 190.72 268.153 190.893 268.966 191.08C269.846 191.253 270.539 191.487 271.046 191.78C271.553 192.073 271.913 192.413 272.126 192.8C272.339 193.187 272.446 193.633 272.446 194.14C272.446 194.7 272.279 195.213 271.946 195.68C271.626 196.147 271.146 196.52 270.506 196.8C269.879 197.067 269.099 197.2 268.166 197.2Z" fill="#505761"></path>
<path d="M340 176C341.105 176 342.002 176.896 341.982 178C341.796 188.41 340.16 198.744 337.119 208.702C336.797 209.759 335.667 210.333 334.616 209.992L317.117 204.306C316.066 203.965 315.494 202.837 315.811 201.779C318.131 194.058 319.398 186.06 319.578 178C319.602 176.896 320.495 176 321.6 176H340Z" fill="#E0011D"></path>
<path d="M331.256 218.98C332.272 219.412 332.748 220.587 332.299 221.596C326.587 234.41 318.517 246.043 308.502 255.884C298.011 266.193 285.593 274.335 271.956 279.845C258.319 285.354 243.73 288.124 229.023 287.996C214.982 287.873 201.096 285.112 188.086 279.862C187.062 279.448 186.588 278.272 187.02 277.256L194.209 260.318C194.641 259.301 195.814 258.829 196.84 259.238C207.141 263.342 218.119 265.5 229.218 265.597C240.984 265.699 252.655 263.483 263.565 259.076C274.474 254.668 284.409 248.154 292.801 239.907C300.718 232.128 307.116 222.949 311.675 212.842C312.129 211.835 313.301 211.359 314.318 211.791L331.256 218.98Z" fill="#D39E16"></path>
<path d="M176.671 272.208C176.135 273.174 174.917 273.525 173.961 272.972C152.832 260.763 136.252 241.974 126.771 219.449C117.032 196.309 115.349 170.568 121.994 146.357C128.639 122.146 143.226 100.87 163.413 85.9437C183.063 71.4141 206.911 63.7215 231.312 64.0077C232.417 64.0206 233.286 64.944 233.253 66.0481L232.709 84.4401C232.676 85.5442 231.754 86.4104 230.65 86.4023C211.269 86.2615 192.343 92.4106 176.73 103.955C160.58 115.896 148.911 132.917 143.595 152.286C138.279 171.654 139.625 192.247 147.417 210.759C154.95 228.656 168.085 243.605 184.823 253.377C185.777 253.934 186.127 255.149 185.591 256.115L176.671 272.208Z" fill="#505761"></path>
<path d="M235.757 66.1508C235.815 65.0477 236.757 64.1985 237.858 64.276C264.355 66.1393 289.353 77.364 308.362 95.9791C327.371 114.594 339.117 139.352 341.535 165.804C341.635 166.904 340.806 167.863 339.705 167.944L321.354 169.291C320.252 169.372 319.296 168.544 319.191 167.445C317.176 146.433 307.802 126.782 292.69 111.983C277.578 97.1846 257.735 88.2243 236.685 86.6497C235.584 86.5673 234.736 85.6286 234.794 84.5255L235.757 66.1508Z" fill="#E75402"></path>
<rect x="139" y="348" width="32" height="16" rx="4" fill="#E0011D"></rect>
<path d="M180.428 361C180.335 361 180.255 360.972 180.19 360.916C180.125 360.851 180.092 360.767 180.092 360.664V351.55C180.092 351.447 180.125 351.363 180.19 351.298C180.255 351.233 180.335 351.2 180.428 351.2H181.702C181.805 351.2 181.884 351.233 181.94 351.298C182.005 351.363 182.038 351.447 182.038 351.55V355.162H186.168V351.55C186.168 351.447 186.201 351.363 186.266 351.298C186.331 351.233 186.411 351.2 186.504 351.2H187.764C187.867 351.2 187.951 351.233 188.016 351.298C188.081 351.363 188.114 351.447 188.114 351.55V360.664C188.114 360.757 188.081 360.837 188.016 360.902C187.951 360.967 187.867 361 187.764 361H186.504C186.411 361 186.331 360.967 186.266 360.902C186.201 360.837 186.168 360.757 186.168 360.664V356.912H182.038V360.664C182.038 360.757 182.005 360.837 181.94 360.902C181.884 360.967 181.805 361 181.702 361H180.428ZM190.459 361C190.366 361 190.287 360.967 190.221 360.902C190.156 360.837 190.123 360.757 190.123 360.664V354.056C190.123 353.963 190.156 353.883 190.221 353.818C190.287 353.753 190.366 353.72 190.459 353.72H191.621C191.724 353.72 191.803 353.753 191.859 353.818C191.925 353.883 191.957 353.963 191.957 354.056V360.664C191.957 360.757 191.925 360.837 191.859 360.902C191.803 360.967 191.724 361 191.621 361H190.459ZM190.403 352.516C190.301 352.516 190.217 352.488 190.151 352.432C190.095 352.367 190.067 352.283 190.067 352.18V351.172C190.067 351.079 190.095 350.999 190.151 350.934C190.217 350.869 190.301 350.836 190.403 350.836H191.677C191.78 350.836 191.864 350.869 191.929 350.934C191.995 350.999 192.027 351.079 192.027 351.172V352.18C192.027 352.283 191.995 352.367 191.929 352.432C191.864 352.488 191.78 352.516 191.677 352.516H190.403ZM197.105 364.08C196.423 364.08 195.863 363.991 195.425 363.814C194.986 363.637 194.641 363.422 194.389 363.17C194.137 362.918 193.955 362.666 193.843 362.414C193.74 362.171 193.684 361.98 193.675 361.84C193.665 361.747 193.693 361.663 193.759 361.588C193.833 361.523 193.917 361.49 194.011 361.49H195.229C195.322 361.49 195.397 361.509 195.453 361.546C195.509 361.593 195.555 361.672 195.593 361.784C195.649 361.905 195.723 362.036 195.817 362.176C195.91 362.316 196.05 362.433 196.237 362.526C196.433 362.629 196.699 362.68 197.035 362.68C197.389 362.68 197.688 362.629 197.931 362.526C198.173 362.423 198.355 362.251 198.477 362.008C198.607 361.765 198.673 361.429 198.673 361V360.048C198.449 360.319 198.159 360.538 197.805 360.706C197.459 360.874 197.03 360.958 196.517 360.958C196.013 360.958 195.579 360.879 195.215 360.72C194.851 360.552 194.547 360.323 194.305 360.034C194.062 359.735 193.875 359.385 193.745 358.984C193.623 358.583 193.553 358.139 193.535 357.654C193.525 357.402 193.525 357.15 193.535 356.898C193.553 356.431 193.623 355.997 193.745 355.596C193.866 355.195 194.048 354.845 194.291 354.546C194.543 354.238 194.851 354 195.215 353.832C195.579 353.664 196.013 353.58 196.517 353.58C197.049 353.58 197.497 353.683 197.861 353.888C198.225 354.084 198.523 354.331 198.757 354.63V354.07C198.757 353.967 198.789 353.883 198.855 353.818C198.92 353.753 198.999 353.72 199.093 353.72H200.227C200.32 353.72 200.399 353.753 200.465 353.818C200.53 353.883 200.563 353.967 200.563 354.07L200.577 360.818C200.577 361.49 200.451 362.069 200.199 362.554C199.947 363.039 199.564 363.413 199.051 363.674C198.547 363.945 197.898 364.08 197.105 364.08ZM197.035 359.474C197.417 359.474 197.725 359.39 197.959 359.222C198.192 359.054 198.365 358.835 198.477 358.564C198.589 358.293 198.654 358.018 198.673 357.738C198.682 357.617 198.687 357.463 198.687 357.276C198.687 357.089 198.682 356.94 198.673 356.828C198.654 356.539 198.589 356.263 198.477 356.002C198.365 355.731 198.192 355.512 197.959 355.344C197.725 355.167 197.417 355.078 197.035 355.078C196.652 355.078 196.344 355.167 196.111 355.344C195.877 355.512 195.709 355.736 195.607 356.016C195.513 356.296 195.457 356.604 195.439 356.94C195.42 357.164 195.42 357.393 195.439 357.626C195.457 357.953 195.513 358.261 195.607 358.55C195.709 358.83 195.877 359.054 196.111 359.222C196.344 359.39 196.652 359.474 197.035 359.474ZM202.792 361C202.698 361 202.619 360.967 202.554 360.902C202.488 360.837 202.456 360.757 202.456 360.664V351.396C202.456 351.303 202.488 351.223 202.554 351.158C202.619 351.093 202.698 351.06 202.792 351.06H204.038C204.14 351.06 204.22 351.093 204.276 351.158C204.341 351.223 204.374 351.303 204.374 351.396V354.588C204.626 354.289 204.934 354.047 205.298 353.86C205.662 353.673 206.11 353.58 206.642 353.58C207.211 353.58 207.706 353.711 208.126 353.972C208.555 354.224 208.886 354.583 209.12 355.05C209.353 355.517 209.47 356.077 209.47 356.73V360.664C209.47 360.757 209.437 360.837 209.372 360.902C209.306 360.967 209.227 361 209.134 361H207.874C207.78 361 207.701 360.967 207.636 360.902C207.57 360.837 207.538 360.757 207.538 360.664V356.814C207.538 356.273 207.402 355.848 207.132 355.54C206.87 355.232 206.488 355.078 205.984 355.078C205.498 355.078 205.106 355.232 204.808 355.54C204.518 355.848 204.374 356.273 204.374 356.814V360.664C204.374 360.757 204.341 360.837 204.276 360.902C204.22 360.967 204.14 361 204.038 361H202.792Z" fill="#333333"></path>
<rect x="227" y="348" width="32" height="16" rx="4" fill="#E75402"></rect>
<path d="M268.442 361C268.339 361 268.255 360.967 268.19 360.902C268.125 360.837 268.092 360.757 268.092 360.664V351.55C268.092 351.447 268.125 351.363 268.19 351.298C268.255 351.233 268.339 351.2 268.442 351.2H269.548C269.679 351.2 269.777 351.237 269.842 351.312C269.907 351.377 269.949 351.429 269.968 351.466L272.67 356.506L275.4 351.466C275.419 351.429 275.461 351.377 275.526 351.312C275.591 351.237 275.689 351.2 275.82 351.2H276.912C277.015 351.2 277.099 351.233 277.164 351.298C277.229 351.363 277.262 351.447 277.262 351.55V360.664C277.262 360.757 277.229 360.837 277.164 360.902C277.099 360.967 277.015 361 276.912 361H275.736C275.633 361 275.549 360.967 275.484 360.902C275.428 360.837 275.4 360.757 275.4 360.664V354.602L273.44 358.34C273.393 358.424 273.333 358.499 273.258 358.564C273.183 358.62 273.085 358.648 272.964 358.648H272.39C272.259 358.648 272.157 358.62 272.082 358.564C272.017 358.499 271.961 358.424 271.914 358.34L269.954 354.602V360.664C269.954 360.757 269.921 360.837 269.856 360.902C269.791 360.967 269.711 361 269.618 361H268.442ZM282.408 361.14C281.372 361.14 280.55 360.841 279.944 360.244C279.337 359.647 279.01 358.797 278.964 357.696C278.954 357.603 278.95 357.486 278.95 357.346C278.95 357.197 278.954 357.08 278.964 356.996C279.001 356.296 279.16 355.689 279.44 355.176C279.729 354.663 280.126 354.271 280.63 354C281.134 353.72 281.726 353.58 282.408 353.58C283.164 353.58 283.798 353.739 284.312 354.056C284.825 354.364 285.212 354.798 285.474 355.358C285.735 355.909 285.866 356.548 285.866 357.276V357.57C285.866 357.663 285.833 357.743 285.768 357.808C285.702 357.873 285.618 357.906 285.516 357.906H280.868C280.868 357.906 280.868 357.92 280.868 357.948C280.868 357.976 280.868 357.999 280.868 358.018C280.877 358.345 280.938 358.648 281.05 358.928C281.171 359.199 281.344 359.418 281.568 359.586C281.801 359.754 282.076 359.838 282.394 359.838C282.655 359.838 282.874 359.801 283.052 359.726C283.229 359.642 283.374 359.549 283.486 359.446C283.598 359.343 283.677 359.259 283.724 359.194C283.808 359.082 283.873 359.017 283.92 358.998C283.976 358.97 284.055 358.956 284.158 358.956H285.362C285.455 358.956 285.53 358.984 285.586 359.04C285.651 359.096 285.679 359.166 285.67 359.25C285.66 359.399 285.581 359.581 285.432 359.796C285.292 360.011 285.086 360.221 284.816 360.426C284.545 360.631 284.204 360.804 283.794 360.944C283.392 361.075 282.93 361.14 282.408 361.14ZM280.868 356.73H283.962V356.688C283.962 356.324 283.901 356.007 283.78 355.736C283.658 355.465 283.481 355.251 283.248 355.092C283.014 354.933 282.734 354.854 282.408 354.854C282.081 354.854 281.801 354.933 281.568 355.092C281.334 355.251 281.157 355.465 281.036 355.736C280.924 356.007 280.868 356.324 280.868 356.688V356.73ZM290.054 361.14C289.568 361.14 289.139 361.061 288.766 360.902C288.402 360.734 288.098 360.501 287.856 360.202C287.613 359.903 287.426 359.553 287.296 359.152C287.165 358.741 287.09 358.293 287.072 357.808C287.062 357.64 287.058 357.491 287.058 357.36C287.058 357.22 287.062 357.066 287.072 356.898C287.09 356.431 287.16 355.997 287.282 355.596C287.412 355.195 287.599 354.845 287.842 354.546C288.094 354.238 288.402 354 288.766 353.832C289.139 353.664 289.568 353.58 290.054 353.58C290.558 353.58 290.982 353.669 291.328 353.846C291.682 354.014 291.976 354.233 292.21 354.504V351.396C292.21 351.303 292.238 351.223 292.294 351.158C292.359 351.093 292.443 351.06 292.546 351.06H293.736C293.829 351.06 293.908 351.093 293.974 351.158C294.039 351.223 294.072 351.303 294.072 351.396V360.664C294.072 360.757 294.039 360.837 293.974 360.902C293.908 360.967 293.829 361 293.736 361H292.63C292.527 361 292.443 360.967 292.378 360.902C292.322 360.837 292.294 360.757 292.294 360.664V360.146C292.06 360.435 291.762 360.673 291.398 360.86C291.043 361.047 290.595 361.14 290.054 361.14ZM290.572 359.642C290.964 359.642 291.276 359.553 291.51 359.376C291.743 359.199 291.916 358.975 292.028 358.704C292.14 358.424 292.2 358.139 292.21 357.85C292.219 357.682 292.224 357.505 292.224 357.318C292.224 357.122 292.219 356.94 292.21 356.772C292.2 356.492 292.135 356.226 292.014 355.974C291.892 355.713 291.715 355.498 291.482 355.33C291.248 355.162 290.945 355.078 290.572 355.078C290.18 355.078 289.867 355.167 289.634 355.344C289.41 355.512 289.246 355.736 289.144 356.016C289.041 356.296 288.98 356.604 288.962 356.94C288.952 357.22 288.952 357.5 288.962 357.78C288.98 358.116 289.041 358.424 289.144 358.704C289.246 358.984 289.41 359.213 289.634 359.39C289.867 359.558 290.18 359.642 290.572 359.642ZM296.274 361C296.18 361 296.101 360.967 296.036 360.902C295.97 360.837 295.938 360.757 295.938 360.664V354.056C295.938 353.963 295.97 353.883 296.036 353.818C296.101 353.753 296.18 353.72 296.274 353.72H297.436C297.538 353.72 297.618 353.753 297.674 353.818C297.739 353.883 297.772 353.963 297.772 354.056V360.664C297.772 360.757 297.739 360.837 297.674 360.902C297.618 360.967 297.538 361 297.436 361H296.274ZM296.218 352.516C296.115 352.516 296.031 352.488 295.966 352.432C295.91 352.367 295.882 352.283 295.882 352.18V351.172C295.882 351.079 295.91 350.999 295.966 350.934C296.031 350.869 296.115 350.836 296.218 350.836H297.492C297.594 350.836 297.678 350.869 297.744 350.934C297.809 350.999 297.842 351.079 297.842 351.172V352.18C297.842 352.283 297.809 352.367 297.744 352.432C297.678 352.488 297.594 352.516 297.492 352.516H296.218ZM302.331 361.14C301.762 361.14 301.267 361.014 300.847 360.762C300.436 360.501 300.119 360.137 299.895 359.67C299.671 359.194 299.559 358.634 299.559 357.99V354.056C299.559 353.963 299.592 353.883 299.657 353.818C299.722 353.753 299.802 353.72 299.895 353.72H301.127C301.23 353.72 301.309 353.753 301.365 353.818C301.43 353.883 301.463 353.963 301.463 354.056V357.906C301.463 359.063 301.972 359.642 302.989 359.642C303.474 359.642 303.857 359.488 304.137 359.18C304.426 358.872 304.571 358.447 304.571 357.906V354.056C304.571 353.963 304.604 353.883 304.669 353.818C304.734 353.753 304.814 353.72 304.907 353.72H306.139C306.232 353.72 306.312 353.753 306.377 353.818C306.442 353.883 306.475 353.963 306.475 354.056V360.664C306.475 360.757 306.442 360.837 306.377 360.902C306.312 360.967 306.232 361 306.139 361H305.005C304.902 361 304.818 360.967 304.753 360.902C304.697 360.837 304.669 360.757 304.669 360.664V360.09C304.417 360.417 304.104 360.673 303.731 360.86C303.358 361.047 302.891 361.14 302.331 361.14ZM308.66 361C308.567 361 308.488 360.967 308.422 360.902C308.357 360.837 308.324 360.757 308.324 360.664V354.056C308.324 353.963 308.357 353.883 308.422 353.818C308.488 353.753 308.567 353.72 308.66 353.72H309.752C309.846 353.72 309.925 353.753 309.99 353.818C310.056 353.883 310.088 353.963 310.088 354.056V354.532C310.284 354.271 310.546 354.051 310.872 353.874C311.208 353.687 311.605 353.589 312.062 353.58C313.126 353.561 313.868 353.977 314.288 354.826C314.503 354.453 314.811 354.154 315.212 353.93C315.623 353.697 316.076 353.58 316.57 353.58C317.056 353.58 317.494 353.692 317.886 353.916C318.288 354.14 318.6 354.481 318.824 354.938C319.058 355.386 319.174 355.955 319.174 356.646V360.664C319.174 360.757 319.142 360.837 319.076 360.902C319.011 360.967 318.932 361 318.838 361H317.69C317.597 361 317.518 360.967 317.452 360.902C317.387 360.837 317.354 360.757 317.354 360.664V356.758C317.354 356.338 317.294 356.007 317.172 355.764C317.051 355.512 316.888 355.335 316.682 355.232C316.477 355.129 316.248 355.078 315.996 355.078C315.791 355.078 315.586 355.129 315.38 355.232C315.175 355.335 315.007 355.512 314.876 355.764C314.746 356.007 314.68 356.338 314.68 356.758V360.664C314.68 360.757 314.648 360.837 314.582 360.902C314.517 360.967 314.438 361 314.344 361H313.196C313.094 361 313.01 360.967 312.944 360.902C312.888 360.837 312.86 360.757 312.86 360.664V356.758C312.86 356.338 312.795 356.007 312.664 355.764C312.534 355.512 312.366 355.335 312.16 355.232C311.955 355.129 311.736 355.078 311.502 355.078C311.288 355.078 311.078 355.134 310.872 355.246C310.667 355.349 310.499 355.521 310.368 355.764C310.238 356.007 310.172 356.338 310.172 356.758V360.664C310.172 360.757 310.14 360.837 310.074 360.902C310.009 360.967 309.93 361 309.836 361H308.66Z" fill="#333333"></path>
<rect x="119" y="384" width="32" height="16" rx="4" fill="#D39E16"></rect>
<path d="M160.428 397C160.335 397 160.255 396.967 160.19 396.902C160.125 396.837 160.092 396.757 160.092 396.664V387.536C160.092 387.443 160.125 387.363 160.19 387.298C160.255 387.233 160.335 387.2 160.428 387.2H161.73C161.823 387.2 161.903 387.233 161.968 387.298C162.033 387.363 162.066 387.443 162.066 387.536V395.334H166.504C166.607 395.334 166.691 395.367 166.756 395.432C166.821 395.497 166.854 395.581 166.854 395.684V396.664C166.854 396.757 166.821 396.837 166.756 396.902C166.691 396.967 166.607 397 166.504 397H160.428ZM171.156 397.14C170.409 397.14 169.779 397.009 169.266 396.748C168.762 396.487 168.374 396.118 168.104 395.642C167.842 395.166 167.693 394.611 167.656 393.976C167.646 393.808 167.642 393.603 167.642 393.36C167.642 393.117 167.646 392.912 167.656 392.744C167.693 392.1 167.847 391.545 168.118 391.078C168.398 390.602 168.79 390.233 169.294 389.972C169.807 389.711 170.428 389.58 171.156 389.58C171.884 389.58 172.5 389.711 173.004 389.972C173.517 390.233 173.909 390.602 174.18 391.078C174.46 391.545 174.618 392.1 174.656 392.744C174.665 392.912 174.67 393.117 174.67 393.36C174.67 393.603 174.665 393.808 174.656 393.976C174.618 394.611 174.464 395.166 174.194 395.642C173.932 396.118 173.545 396.487 173.032 396.748C172.528 397.009 171.902 397.14 171.156 397.14ZM171.156 395.754C171.65 395.754 172.033 395.6 172.304 395.292C172.574 394.975 172.724 394.513 172.752 393.906C172.761 393.766 172.766 393.584 172.766 393.36C172.766 393.136 172.761 392.954 172.752 392.814C172.724 392.217 172.574 391.759 172.304 391.442C172.033 391.125 171.65 390.966 171.156 390.966C170.661 390.966 170.278 391.125 170.008 391.442C169.737 391.759 169.588 392.217 169.56 392.814C169.55 392.954 169.546 393.136 169.546 393.36C169.546 393.584 169.55 393.766 169.56 393.906C169.588 394.513 169.737 394.975 170.008 395.292C170.278 395.6 170.661 395.754 171.156 395.754ZM178.004 397C177.873 397 177.775 396.967 177.71 396.902C177.644 396.837 177.588 396.753 177.542 396.65L175.54 390.154C175.53 390.107 175.526 390.065 175.526 390.028C175.526 389.944 175.554 389.874 175.61 389.818C175.675 389.753 175.745 389.72 175.82 389.72H176.856C176.968 389.72 177.056 389.753 177.122 389.818C177.187 389.874 177.224 389.93 177.234 389.986L178.606 394.62L180.062 390.028C180.08 389.963 180.122 389.897 180.188 389.832C180.253 389.757 180.351 389.72 180.482 389.72H181.182C181.312 389.72 181.41 389.757 181.476 389.832C181.541 389.897 181.583 389.963 181.602 390.028L183.058 394.62L184.43 389.986C184.439 389.93 184.472 389.874 184.528 389.818C184.593 389.753 184.682 389.72 184.794 389.72H185.83C185.914 389.72 185.984 389.753 186.04 389.818C186.105 389.874 186.138 389.944 186.138 390.028C186.138 390.065 186.128 390.107 186.11 390.154L184.108 396.65C184.08 396.753 184.028 396.837 183.954 396.902C183.888 396.967 183.79 397 183.66 397H182.75C182.619 397 182.516 396.967 182.442 396.902C182.367 396.837 182.316 396.753 182.288 396.65L180.832 392.226L179.376 396.65C179.338 396.753 179.282 396.837 179.208 396.902C179.142 396.967 179.04 397 178.9 397H178.004Z" fill="#333333"></path>
<rect x="203" y="384" width="32" height="16" rx="4" fill="#505761"></rect>
<path d="M247.998 397.14C247.186 397.14 246.481 397.005 245.884 396.734C245.287 396.454 244.825 396.029 244.498 395.46C244.171 394.881 244.008 394.144 244.008 393.248V387.55C244.008 387.447 244.041 387.363 244.106 387.298C244.171 387.233 244.251 387.2 244.344 387.2H245.618C245.721 387.2 245.8 387.233 245.856 387.298C245.921 387.363 245.954 387.447 245.954 387.55V393.248C245.954 394.013 246.136 394.583 246.5 394.956C246.864 395.32 247.363 395.502 247.998 395.502C248.633 395.502 249.127 395.32 249.482 394.956C249.846 394.583 250.028 394.013 250.028 393.248V387.55C250.028 387.447 250.061 387.363 250.126 387.298C250.191 387.233 250.275 387.2 250.378 387.2H251.638C251.741 387.2 251.82 387.233 251.876 387.298C251.941 387.363 251.974 387.447 251.974 387.55V393.248C251.974 394.144 251.811 394.881 251.484 395.46C251.167 396.029 250.709 396.454 250.112 396.734C249.524 397.005 248.819 397.14 247.998 397.14ZM254.24 397C254.147 397 254.068 396.967 254.002 396.902C253.937 396.837 253.904 396.757 253.904 396.664V390.056C253.904 389.963 253.937 389.883 254.002 389.818C254.068 389.753 254.147 389.72 254.24 389.72H255.388C255.482 389.72 255.561 389.753 255.626 389.818C255.692 389.883 255.724 389.963 255.724 390.056V390.63C255.967 390.331 256.275 390.084 256.648 389.888C257.031 389.683 257.502 389.58 258.062 389.58C258.632 389.58 259.126 389.711 259.546 389.972C259.966 390.224 260.288 390.583 260.512 391.05C260.746 391.517 260.862 392.077 260.862 392.73V396.664C260.862 396.757 260.83 396.837 260.764 396.902C260.699 396.967 260.62 397 260.526 397H259.294C259.201 397 259.122 396.967 259.056 396.902C258.991 396.837 258.958 396.757 258.958 396.664V392.814C258.958 392.273 258.823 391.848 258.552 391.54C258.291 391.232 257.908 391.078 257.404 391.078C256.919 391.078 256.532 391.232 256.242 391.54C255.953 391.848 255.808 392.273 255.808 392.814V396.664C255.808 396.757 255.776 396.837 255.71 396.902C255.645 396.967 255.566 397 255.472 397H254.24ZM265.343 397.14C264.857 397.14 264.428 397.061 264.055 396.902C263.691 396.734 263.387 396.501 263.145 396.202C262.902 395.903 262.715 395.553 262.585 395.152C262.454 394.741 262.379 394.293 262.361 393.808C262.351 393.64 262.347 393.491 262.347 393.36C262.347 393.22 262.351 393.066 262.361 392.898C262.379 392.431 262.449 391.997 262.571 391.596C262.701 391.195 262.888 390.845 263.131 390.546C263.383 390.238 263.691 390 264.055 389.832C264.428 389.664 264.857 389.58 265.343 389.58C265.847 389.58 266.271 389.669 266.617 389.846C266.971 390.014 267.265 390.233 267.499 390.504V387.396C267.499 387.303 267.527 387.223 267.583 387.158C267.648 387.093 267.732 387.06 267.835 387.06H269.025C269.118 387.06 269.197 387.093 269.263 387.158C269.328 387.223 269.361 387.303 269.361 387.396V396.664C269.361 396.757 269.328 396.837 269.263 396.902C269.197 396.967 269.118 397 269.025 397H267.919C267.816 397 267.732 396.967 267.667 396.902C267.611 396.837 267.583 396.757 267.583 396.664V396.146C267.349 396.435 267.051 396.673 266.687 396.86C266.332 397.047 265.884 397.14 265.343 397.14ZM265.861 395.642C266.253 395.642 266.565 395.553 266.799 395.376C267.032 395.199 267.205 394.975 267.317 394.704C267.429 394.424 267.489 394.139 267.499 393.85C267.508 393.682 267.513 393.505 267.513 393.318C267.513 393.122 267.508 392.94 267.499 392.772C267.489 392.492 267.424 392.226 267.303 391.974C267.181 391.713 267.004 391.498 266.771 391.33C266.537 391.162 266.234 391.078 265.861 391.078C265.469 391.078 265.156 391.167 264.923 391.344C264.699 391.512 264.535 391.736 264.433 392.016C264.33 392.296 264.269 392.604 264.251 392.94C264.241 393.22 264.241 393.5 264.251 393.78C264.269 394.116 264.33 394.424 264.433 394.704C264.535 394.984 264.699 395.213 264.923 395.39C265.156 395.558 265.469 395.642 265.861 395.642ZM274.363 397.14C273.327 397.14 272.505 396.841 271.899 396.244C271.292 395.647 270.965 394.797 270.919 393.696C270.909 393.603 270.905 393.486 270.905 393.346C270.905 393.197 270.909 393.08 270.919 392.996C270.956 392.296 271.115 391.689 271.395 391.176C271.684 390.663 272.081 390.271 272.585 390C273.089 389.72 273.681 389.58 274.363 389.58C275.119 389.58 275.753 389.739 276.267 390.056C276.78 390.364 277.167 390.798 277.429 391.358C277.69 391.909 277.821 392.548 277.821 393.276V393.57C277.821 393.663 277.788 393.743 277.723 393.808C277.657 393.873 277.573 393.906 277.471 393.906H272.823C272.823 393.906 272.823 393.92 272.823 393.948C272.823 393.976 272.823 393.999 272.823 394.018C272.832 394.345 272.893 394.648 273.005 394.928C273.126 395.199 273.299 395.418 273.523 395.586C273.756 395.754 274.031 395.838 274.349 395.838C274.61 395.838 274.829 395.801 275.007 395.726C275.184 395.642 275.329 395.549 275.441 395.446C275.553 395.343 275.632 395.259 275.679 395.194C275.763 395.082 275.828 395.017 275.875 394.998C275.931 394.97 276.01 394.956 276.113 394.956H277.317C277.41 394.956 277.485 394.984 277.541 395.04C277.606 395.096 277.634 395.166 277.625 395.25C277.615 395.399 277.536 395.581 277.387 395.796C277.247 396.011 277.041 396.221 276.771 396.426C276.5 396.631 276.159 396.804 275.749 396.944C275.347 397.075 274.885 397.14 274.363 397.14ZM272.823 392.73H275.917V392.688C275.917 392.324 275.856 392.007 275.735 391.736C275.613 391.465 275.436 391.251 275.203 391.092C274.969 390.933 274.689 390.854 274.363 390.854C274.036 390.854 273.756 390.933 273.523 391.092C273.289 391.251 273.112 391.465 272.991 391.736C272.879 392.007 272.823 392.324 272.823 392.688V392.73ZM282.569 397C282.009 397 281.538 396.902 281.155 396.706C280.773 396.51 280.488 396.221 280.301 395.838C280.115 395.446 280.021 394.961 280.021 394.382V391.204H278.915C278.822 391.204 278.743 391.171 278.677 391.106C278.612 391.041 278.579 390.961 278.579 390.868V390.056C278.579 389.963 278.612 389.883 278.677 389.818C278.743 389.753 278.822 389.72 278.915 389.72H280.021V387.396C280.021 387.303 280.049 387.223 280.105 387.158C280.171 387.093 280.255 387.06 280.357 387.06H281.491C281.585 387.06 281.664 387.093 281.729 387.158C281.795 387.223 281.827 387.303 281.827 387.396V389.72H283.577C283.671 389.72 283.75 389.753 283.815 389.818C283.881 389.883 283.913 389.963 283.913 390.056V390.868C283.913 390.961 283.881 391.041 283.815 391.106C283.75 391.171 283.671 391.204 283.577 391.204H281.827V394.242C281.827 394.625 281.893 394.923 282.023 395.138C282.163 395.353 282.401 395.46 282.737 395.46H283.703C283.797 395.46 283.876 395.493 283.941 395.558C284.007 395.623 284.039 395.703 284.039 395.796V396.664C284.039 396.757 284.007 396.837 283.941 396.902C283.876 396.967 283.797 397 283.703 397H282.569ZM288.417 397.14C287.381 397.14 286.56 396.841 285.953 396.244C285.347 395.647 285.02 394.797 284.973 393.696C284.964 393.603 284.959 393.486 284.959 393.346C284.959 393.197 284.964 393.08 284.973 392.996C285.011 392.296 285.169 391.689 285.449 391.176C285.739 390.663 286.135 390.271 286.639 390C287.143 389.72 287.736 389.58 288.417 389.58C289.173 389.58 289.808 389.739 290.321 390.056C290.835 390.364 291.222 390.798 291.483 391.358C291.745 391.909 291.875 392.548 291.875 393.276V393.57C291.875 393.663 291.843 393.743 291.777 393.808C291.712 393.873 291.628 393.906 291.525 393.906H286.877C286.877 393.906 286.877 393.92 286.877 393.948C286.877 393.976 286.877 393.999 286.877 394.018C286.887 394.345 286.947 394.648 287.059 394.928C287.181 395.199 287.353 395.418 287.577 395.586C287.811 395.754 288.086 395.838 288.403 395.838C288.665 395.838 288.884 395.801 289.061 395.726C289.239 395.642 289.383 395.549 289.495 395.446C289.607 395.343 289.687 395.259 289.733 395.194C289.817 395.082 289.883 395.017 289.929 394.998C289.985 394.97 290.065 394.956 290.167 394.956H291.371C291.465 394.956 291.539 394.984 291.595 395.04C291.661 395.096 291.689 395.166 291.679 395.25C291.67 395.399 291.591 395.581 291.441 395.796C291.301 396.011 291.096 396.221 290.825 396.426C290.555 396.631 290.214 396.804 289.803 396.944C289.402 397.075 288.94 397.14 288.417 397.14ZM286.877 392.73H289.971V392.688C289.971 392.324 289.911 392.007 289.789 391.736C289.668 391.465 289.491 391.251 289.257 391.092C289.024 390.933 288.744 390.854 288.417 390.854C288.091 390.854 287.811 390.933 287.577 391.092C287.344 391.251 287.167 391.465 287.045 391.736C286.933 392.007 286.877 392.324 286.877 392.688V392.73ZM293.698 397C293.604 397 293.525 396.967 293.46 396.902C293.394 396.837 293.361 396.757 293.361 396.664V390.07C293.361 389.967 293.394 389.883 293.46 389.818C293.525 389.753 293.604 389.72 293.698 389.72H294.832C294.925 389.72 295.004 389.753 295.07 389.818C295.144 389.883 295.182 389.967 295.182 390.07V390.644C295.396 390.345 295.672 390.117 296.008 389.958C296.353 389.799 296.75 389.72 297.198 389.72H297.772C297.874 389.72 297.954 389.753 298.01 389.818C298.075 389.883 298.108 389.963 298.108 390.056V391.064C298.108 391.157 298.075 391.237 298.01 391.302C297.954 391.367 297.874 391.4 297.772 391.4H296.68C296.232 391.4 295.882 391.526 295.63 391.778C295.387 392.03 295.266 392.375 295.266 392.814V396.664C295.266 396.757 295.233 396.837 295.168 396.902C295.102 396.967 295.018 397 294.916 397H293.698ZM299.535 397C299.442 397 299.363 396.967 299.297 396.902C299.232 396.837 299.199 396.757 299.199 396.664V390.056C299.199 389.963 299.232 389.883 299.297 389.818C299.363 389.753 299.442 389.72 299.535 389.72H300.627C300.721 389.72 300.8 389.753 300.865 389.818C300.931 389.883 300.963 389.963 300.963 390.056V390.532C301.159 390.271 301.421 390.051 301.747 389.874C302.083 389.687 302.48 389.589 302.937 389.58C304.001 389.561 304.743 389.977 305.163 390.826C305.378 390.453 305.686 390.154 306.087 389.93C306.498 389.697 306.951 389.58 307.445 389.58C307.931 389.58 308.369 389.692 308.761 389.916C309.163 390.14 309.475 390.481 309.699 390.938C309.933 391.386 310.049 391.955 310.049 392.646V396.664C310.049 396.757 310.017 396.837 309.951 396.902C309.886 396.967 309.807 397 309.713 397H308.565C308.472 397 308.393 396.967 308.327 396.902C308.262 396.837 308.229 396.757 308.229 396.664V392.758C308.229 392.338 308.169 392.007 308.047 391.764C307.926 391.512 307.763 391.335 307.557 391.232C307.352 391.129 307.123 391.078 306.871 391.078C306.666 391.078 306.461 391.129 306.255 391.232C306.05 391.335 305.882 391.512 305.751 391.764C305.621 392.007 305.555 392.338 305.555 392.758V396.664C305.555 396.757 305.523 396.837 305.457 396.902C305.392 396.967 305.313 397 305.219 397H304.071C303.969 397 303.885 396.967 303.819 396.902C303.763 396.837 303.735 396.757 303.735 396.664V392.758C303.735 392.338 303.67 392.007 303.539 391.764C303.409 391.512 303.241 391.335 303.035 391.232C302.83 391.129 302.611 391.078 302.377 391.078C302.163 391.078 301.953 391.134 301.747 391.246C301.542 391.349 301.374 391.521 301.243 391.764C301.113 392.007 301.047 392.338 301.047 392.758V396.664C301.047 396.757 301.015 396.837 300.949 396.902C300.884 396.967 300.805 397 300.711 397H299.535ZM312.168 397C312.075 397 311.996 396.967 311.93 396.902C311.865 396.837 311.832 396.757 311.832 396.664V390.056C311.832 389.963 311.865 389.883 311.93 389.818C311.996 389.753 312.075 389.72 312.168 389.72H313.33C313.433 389.72 313.512 389.753 313.568 389.818C313.634 389.883 313.666 389.963 313.666 390.056V396.664C313.666 396.757 313.634 396.837 313.568 396.902C313.512 396.967 313.433 397 313.33 397H312.168ZM312.112 388.516C312.01 388.516 311.926 388.488 311.86 388.432C311.804 388.367 311.776 388.283 311.776 388.18V387.172C311.776 387.079 311.804 386.999 311.86 386.934C311.926 386.869 312.01 386.836 312.112 386.836H313.386C313.489 386.836 313.573 386.869 313.638 386.934C313.704 386.999 313.736 387.079 313.736 387.172V388.18C313.736 388.283 313.704 388.367 313.638 388.432C313.573 388.488 313.489 388.516 313.386 388.516H312.112ZM315.86 397C315.766 397 315.687 396.967 315.622 396.902C315.556 396.837 315.524 396.757 315.524 396.664V390.056C315.524 389.963 315.556 389.883 315.622 389.818C315.687 389.753 315.766 389.72 315.86 389.72H317.008C317.101 389.72 317.18 389.753 317.246 389.818C317.311 389.883 317.344 389.963 317.344 390.056V390.63C317.586 390.331 317.894 390.084 318.268 389.888C318.65 389.683 319.122 389.58 319.682 389.58C320.251 389.58 320.746 389.711 321.166 389.972C321.586 390.224 321.908 390.583 322.132 391.05C322.365 391.517 322.482 392.077 322.482 392.73V396.664C322.482 396.757 322.449 396.837 322.384 396.902C322.318 396.967 322.239 397 322.146 397H320.914C320.82 397 320.741 396.967 320.676 396.902C320.61 396.837 320.578 396.757 320.578 396.664V392.814C320.578 392.273 320.442 391.848 320.172 391.54C319.91 391.232 319.528 391.078 319.024 391.078C318.538 391.078 318.151 391.232 317.862 391.54C317.572 391.848 317.428 392.273 317.428 392.814V396.664C317.428 396.757 317.395 396.837 317.33 396.902C317.264 396.967 317.185 397 317.092 397H315.86ZM327.396 397.14C326.36 397.14 325.539 396.841 324.932 396.244C324.325 395.647 323.999 394.797 323.952 393.696C323.943 393.603 323.938 393.486 323.938 393.346C323.938 393.197 323.943 393.08 323.952 392.996C323.989 392.296 324.148 391.689 324.428 391.176C324.717 390.663 325.114 390.271 325.618 390C326.122 389.72 326.715 389.58 327.396 389.58C328.152 389.58 328.787 389.739 329.3 390.056C329.813 390.364 330.201 390.798 330.462 391.358C330.723 391.909 330.854 392.548 330.854 393.276V393.57C330.854 393.663 330.821 393.743 330.756 393.808C330.691 393.873 330.607 393.906 330.504 393.906H325.856C325.856 393.906 325.856 393.92 325.856 393.948C325.856 393.976 325.856 393.999 325.856 394.018C325.865 394.345 325.926 394.648 326.038 394.928C326.159 395.199 326.332 395.418 326.556 395.586C326.789 395.754 327.065 395.838 327.382 395.838C327.643 395.838 327.863 395.801 328.04 395.726C328.217 395.642 328.362 395.549 328.474 395.446C328.586 395.343 328.665 395.259 328.712 395.194C328.796 395.082 328.861 395.017 328.908 394.998C328.964 394.97 329.043 394.956 329.146 394.956H330.35C330.443 394.956 330.518 394.984 330.574 395.04C330.639 395.096 330.667 395.166 330.658 395.25C330.649 395.399 330.569 395.581 330.42 395.796C330.28 396.011 330.075 396.221 329.804 396.426C329.533 396.631 329.193 396.804 328.782 396.944C328.381 397.075 327.919 397.14 327.396 397.14ZM325.856 392.73H328.95V392.688C328.95 392.324 328.889 392.007 328.768 391.736C328.647 391.465 328.469 391.251 328.236 391.092C328.003 390.933 327.723 390.854 327.396 390.854C327.069 390.854 326.789 390.933 326.556 391.092C326.323 391.251 326.145 391.465 326.024 391.736C325.912 392.007 325.856 392.324 325.856 392.688V392.73ZM335.042 397.14C334.557 397.14 334.127 397.061 333.754 396.902C333.39 396.734 333.087 396.501 332.844 396.202C332.601 395.903 332.415 395.553 332.284 395.152C332.153 394.741 332.079 394.293 332.06 393.808C332.051 393.64 332.046 393.491 332.046 393.36C332.046 393.22 332.051 393.066 332.06 392.898C332.079 392.431 332.149 391.997 332.27 391.596C332.401 391.195 332.587 390.845 332.83 390.546C333.082 390.238 333.39 390 333.754 389.832C334.127 389.664 334.557 389.58 335.042 389.58C335.546 389.58 335.971 389.669 336.316 389.846C336.671 390.014 336.965 390.233 337.198 390.504V387.396C337.198 387.303 337.226 387.223 337.282 387.158C337.347 387.093 337.431 387.06 337.534 387.06H338.724C338.817 387.06 338.897 387.093 338.962 387.158C339.027 387.223 339.06 387.303 339.06 387.396V396.664C339.06 396.757 339.027 396.837 338.962 396.902C338.897 396.967 338.817 397 338.724 397H337.618C337.515 397 337.431 396.967 337.366 396.902C337.31 396.837 337.282 396.757 337.282 396.664V396.146C337.049 396.435 336.75 396.673 336.386 396.86C336.031 397.047 335.583 397.14 335.042 397.14ZM335.56 395.642C335.952 395.642 336.265 395.553 336.498 395.376C336.731 395.199 336.904 394.975 337.016 394.704C337.128 394.424 337.189 394.139 337.198 393.85C337.207 393.682 337.212 393.505 337.212 393.318C337.212 393.122 337.207 392.94 337.198 392.772C337.189 392.492 337.123 392.226 337.002 391.974C336.881 391.713 336.703 391.498 336.47 391.33C336.237 391.162 335.933 391.078 335.56 391.078C335.168 391.078 334.855 391.167 334.622 391.344C334.398 391.512 334.235 391.736 334.132 392.016C334.029 392.296 333.969 392.604 333.95 392.94C333.941 393.22 333.941 393.5 333.95 393.78C333.969 394.116 334.029 394.424 334.132 394.704C334.235 394.984 334.398 395.213 334.622 395.39C334.855 395.558 335.168 395.642 335.56 395.642Z" fill="#333333"></path>
</svg>